<svg height="468" viewBox="0 0 647 468" width="647" xmlns="http://www.w3.org/2000/svg" xmlns:xlink="http://www.w3.org/1999/xlink"><defs><path id="a" d="m224.928217 18.1025088c-86.977725-34.3692883-147.2764873-19.79862066-180.8962867 43.7120028-50.42969903 95.2659354-70.1012747 214.8398284 9.8847221 293.8046684 79.9859966 78.96484 174.7736306 31.512551 195.1302866 22.095391 20.356655-9.41716 115.445725-43.559328 207.426489 0 91.980765 43.559328 151.261694 41.881332 177.502206-9.41716s-11.090462-69.027747-34.273561-122.577908c-23.183099-53.550162-4.877768-100.266541-14.030433-124.945071-9.152666-24.6785297-37.47582-88.6884668-99.125168-110.1647383s-103.155317 11.8029454-134.111212 22.709415c-20.637263 7.2709798-63.139611 2.1987798-127.507043-15.2165999z"/><path id="b" d="m224.928217 18.1025088c-86.977725-34.3692883-147.2764873-19.79862066-180.8962867 43.7120028-50.42969903 95.2659354-70.1012747 214.8398284 9.8847221 293.8046684 79.9859966 78.96484 174.7736306 31.512551 195.1302866 22.095391 20.356655-9.41716 115.445725-43.559328 207.426489 0 91.980765 43.559328 151.261694 41.881332 177.502206-9.41716s-11.090462-69.027747-34.273561-122.577908c-23.183099-53.550162-4.877768-100.266541-14.030433-124.945071-9.152666-24.6785297-37.47582-88.6884668-99.125168-110.1647383s-103.155317 11.8029454-134.111212 22.709415c-20.637263 7.2709798-63.139611 2.1987798-127.507043-15.2165999z"/><mask id="c" fill="#fff"><use fill="#fff" fill-rule="evenodd" xlink:href="#a"/></mask><mask id="d" fill="#fff"><use fill="#fff" fill-rule="evenodd" xlink:href="#b"/></mask></defs><g fill="none" fill-rule="evenodd" transform="translate(-6.667702)"><g transform="translate(10.370137 58.38082)"><use fill="#f3f7ff" xlink:href="#a"/><path d="m5.629863 311.61918h697v118h-697z" fill="#d0defe" mask="url(#c)"/><path d="m5.629863 298.61918h697v13h-697z" fill="#a4c3fc" mask="url(#c)" transform="matrix(1 0 0 -1 0 610.23836)"/></g><g transform="translate(10.370137 58.38082)"><use fill="#f3f7ff" xlink:href="#b"/><path d="m5.629863 311.61918h697v118h-697z" fill="#d0defe" mask="url(#d)"/><path d="m5.629863 298.61918h697v13h-697z" fill="#a4c3fc" mask="url(#d)" transform="matrix(1 0 0 -1 0 610.23836)"/></g><g transform="matrix(.92050485 .39073113 -.39073113 .92050485 153.571618 21.383943)"><rect fill="#ffe3ae" height="229" rx="8" width="326" x="75" y="66"/><rect fill="#96baff" height="229" rx="8" width="326" x="67" y="56"/><rect fill="#dde9ff" height="229" rx="8" width="326" x="14.384401" y="15.65298"/><rect fill="#fff" height="229" rx="8" width="326"/><path d="m318 0c4.418278 0 8 3.581722 8 8v213c0 4.418278-3.581722 8-8 8h-310c-4.418278 0-8-3.581722-8-8v-213c0-4.418278 3.581722-8 8-8zm0 1h-310c-3.78545172 0-6.86909868 3.00478338-6.99594098 6.75935025l-.00405902.24064975v213c0 3.785452 3.00478338 6.869099 6.75935025 6.995941l.24064975.004059h310c3.785452 0 6.869099-3.004783 6.995941-6.75935l.004059-.24065v-213c0-3.78545172-3.004783-6.86909868-6.75935-6.99594098z" fill="#c4d6ff" fill-rule="nonzero"/><rect fill="#dde9ff" height="67" rx="12.5" width="115" x="166.223795" y="43.305903"/><rect fill="#ffe0a5" height="67" rx="12.5" width="85" x="192.81986" y="40.405346"/><path d="m258.239034 102.299117c-1.268457 0-2-.708034-2-1.935727v-34.1285467c0-1.2276923.731543-1.9357265 2-1.9357265 1.268456 0 2 .7080342 2 1.9357265v34.1285467c0 1.227693-.731544 1.935727-2 1.935727zm-14.052529.013212c-.771812 0-1.503356-.700514-1.503356-1.439588v-17.1208228c0-.7390746.731544-1.4395887 1.503356-1.4395887h.993289c.771812 0 1.503355.7005141 1.503355 1.4395887v17.1208228c0 .739074-.731543 1.439588-1.503355 1.439588zm-14.683927-.324281c-.881226 0-1.716475-.714042-1.716475-1.467388v-19.8752497c0-.7533466.835249-1.4673882 1.716475-1.4673882h.35249c.252874-.1506693.490422-.1899744.659004-.1899744.636015 0 1.272031.5109656 1.272031 1.6573626v19.8752497c0 .753346-.835249 1.467388-1.716475 1.467388zm-17.331503.072908c-.743295 0-1.149425-.471814-1.149425-.919118v-8.1617647c0-.5943628.590038-.9191177 1.149425-.9191177h1.70115c.743295 0 1.149425.4718137 1.149425.9191177v8.1617647c0 .447304-.40613.919118-1.149425.919118zm2.4702-20.1618098h-.031889c-.133936-.006408-.255116-.0704884-.338029-.173017l-2.359824-2.845168c-.165826-.1986491-.146692-.4934187.044645-.6664357l20.294488-18.9677866c.095669-.0897125.210471-.1281608.331651-.1281608.114803 0 .223227.0384483.318895.1217527l6.72231 5.856945 11.180465-12.1304122-4.419887-4.8829235c-.12118-.1345687-.159448-.3204018-.095669-.4870107.057402-.166609.204093-.2883616.382675-.3204018l15.574839-2.3709734c.025512-.006408.051024-.006408.070157-.006408.133936 0 .267872.0576723.357163.1602009.108424.1217527.15307.2883616.108424.4485625l-3.788474 14.6872186c-.044646.173017-.178582.3075857-.350785.352442-.038267.006408-.076535.012816-.114802.012816-.133936 0-.267872-.0576723-.357163-.1602009l-3.890521-4.3446484-13.795405 15.2511258c-.095668.1025285-.223226.1602009-.357162.1602009-.108425 0-.216849-.0384483-.30614-.1089367l-7.226164-5.8953931-17.628525 16.3084517c-.08929.0833045-.21047.1281607-.325273.1281607z" fill="#fff" fill-rule="nonzero"/><g fill="#dde9ff"><rect height="5" rx="2.5" width="114" x="157.141756" y="131.684131"/><rect height="5" rx="2.5" width="114" x="157.141756" y="141.684131"/><rect height="5" rx="2.5" width="114" x="157.141756" y="151.684131"/></g><path d="m29.7556149 180.324538h63.229637l10.7703631 15.89503-10.7703631 16.10497h-63.229637z" fill="#eaf2ff"/><path d="m97.2570325 179.99071h102.7513245l10.903848 16-10.903848 16h-102.7513245l10.9038485-16z" fill="#e5eeff"/><path d="m207.121047 179.660603h78.582586l10.796724 16-10.796724 16h-78.582586l10.796723-16z" fill="#dde9ff"/></g><g fill-rule="nonzero" transform="translate(66 .609863)"><path d="m169.570312 92.8901367c0-10.234375 6.425782-18.90625 15.429688-22.3632812-2.148438-8.4375-8.1875-24.5126953-12.523438-31.8173828-8.828125 3.9257812-17.430989 8.2102864-24 3.2041015-7.226562-7.2265625-8.828125-17.9101562-4.902343-26.71875-7.324219-4.3359375-15.273438-7.65624998-23.710938-9.80468748-3.476562 9.00390628-12.148437 15.42968748-22.363281 15.42968748-10.234375 0-27.3203125-11.81591795-30.7773437-20.8198242-8.4375 2.1484375-12.8750001 3.65966797-20.1796876 7.99560547 3.9257813 8.82812503 7.2265625 26.69140623 0 33.91796873s-17.9101562 8.828125-26.71875 4.921875c-4.3554687 7.3046875-7.6757812 15.2539063-9.8242187 23.6914063 9.0039062 3.4765625 15.4296875 12.1484375 15.4296875 22.3632812 0 10.2343753-13.1616211 19.5458983-22.16552734 23.0029293 2.1484375 8.4375 4.36816406 14.689698 8.70410154 21.994385 8.828125-3.925781 27.3286133-1.266846 34.5551758 5.979248 7.2265625 7.226563-2.0717773 14.830811-5.9975586 23.639405 7.3242188 4.335937 26.1733398 10.735595 34.6108398 12.884033 3.4765625-9.003907 12.1484375-15.429688 22.3632813-15.429688 10.234375 0 10.566406 6.425781 14.023437 15.429688 8.4375-2.148438 24.726563-5.46875 32.03125-9.804688-3.925781-8.828125-2.324218-19.492187 4.902344-26.71875 7.226563-7.226562 17.910156-8.828125 26.71875-4.921875 4.355469-7.304687 7.675781-15.253906 9.824219-23.691406-9.003906-3.457031-15.429688-12.128906-15.429688-22.3632813zm-72.070312 24.0234373c-13.2617188 0-24.0234375-10.761719-24.0234375-24.0234373 0-13.2617187 10.7617187-24.0234375 24.0234375-24.0234375 13.261719 0 24.023437 10.7617188 24.023437 24.0234375 0 13.2617183-10.761718 24.0234373-24.023437 24.0234373z" fill="#ffbb3c"/><path d="m159.570312 87.8901367c0-10.234375 6.425782-18.90625 15.429688-22.3632812-2.148438-8.4375-5.46875-16.3867188-9.804688-23.6914063-8.828124 3.9257813-19.492187 2.3242188-26.71875-4.921875-7.226562-7.2265625-8.828124-17.9101562-4.902343-26.71875-7.324219-4.33593748-15.273438-7.65624998-23.710938-9.80468748-3.476562 9.00390625-12.1484373 15.42968748-22.363281 15.42968748-10.234375 0-18.90625-6.42578123-22.3632812-15.42968748-8.4375 2.1484375-16.3867188 5.46875-23.6914063 9.80468748 3.9257813 8.828125 2.3242187 19.4921875-4.9023437 26.71875-7.2265626 7.2265625-17.9101563 8.828125-26.71875005 4.921875-4.35546875 7.3046875-7.67578125 15.2539063-9.82421875 23.6914063 9.00390625 3.4765625 15.4296875 12.1484375 15.4296875 22.3632812 0 10.234375-6.42578125 18.9062503-15.4296875 22.3632813 2.1484375 8.4375 5.46875 16.386719 9.8046875 23.691406 8.828125-3.925781 19.4921875-2.324219 26.71875 4.921875 7.2265625 7.226563 8.828125 17.910156 4.9023438 26.71875 7.3242187 4.335938 15.2734375 7.65625 23.7109375 9.804688 3.4765624-9.003907 12.1484374-15.429688 22.3632812-15.429688 10.234375 0 18.90625 6.425781 22.363281 15.429688 8.4375-2.148438 16.386719-5.46875 23.691407-9.804688-3.925782-8.828125-2.324219-19.492187 4.902343-26.71875 7.226563-7.226562 17.910157-8.828125 26.71875-4.921875 4.355469-7.304687 7.675781-15.253906 9.824219-23.691406-9.003906-3.457031-15.429688-12.1289063-15.429688-22.3632813zm-72.070312 24.0234373c-13.2617188 0-24.0234375-10.761719-24.0234375-24.0234373 0-13.2617187 10.7617187-24.0234375 24.0234375-24.0234375 13.261719 0 24.023438 10.7617188 24.023438 24.0234375 0 13.2617183-10.761719 24.0234373-24.023438 24.0234373z" fill="#ffca65"/></g><circle cx="332" cy="76" fill="#c9dcff" r="13"/><circle cx="231.5" cy="11.5" fill="#c9dcff" r="9.5"/><circle cx="44" cy="94" fill="#f2f6ff" r="6"/><ellipse cx="303" cy="444.5" fill="#d0defe" rx="16" ry="12.5"/><ellipse cx="617.5" cy="273.5" fill="#d0defe" rx="10.5" ry="36.5" transform="matrix(.97029573 -.2419219 .2419219 .97029573 -47.823249 157.510889)"/><g fill="#ffca65" fill-rule="nonzero"><path d="m447.861931 205.463326c100.252345 13.896687 164.638069 41.766551 164.638069 73.036674 0 45.460967-135.39617 82-302.5 82s-302.5-36.539033-302.5-82c0-17.886996 20.8792139-34.762703 58.8755351-48.704909l1.1566392-.421591.3404496.940263c-38.3648751 13.891124-59.3726239 30.690749-59.3726239 48.186237 0 44.561447 135.023841 81 301.5 81s301.5-36.438553 301.5-81c0-30.192261-62.777833-57.66806-160.794416-71.627286l-2.980957-.418859z"/><path d="m475.272313 209.154947c86.028725 14.951531 139.117878 40.642296 139.117878 69.062562 0 45.460967-135.39617 82-302.5 82s-302.50000008-36.539033-302.50000008-82c0-25.236331 41.76939078-48.370809 112.17873208-63.794389l2.142369-.465015.210264.977645c-71.2407409 15.321893-113.5313651 38.48955-113.5313651 63.281759 0 44.561447 135.0238411 81 301.5000001 81s301.5-36.438553 301.5-81c0-27.404789-51.708636-52.701546-135.733043-67.628191l-2.556065-.44914z" transform="matrix(.95630476 -.2923717 .2923717 .95630476 -69.60608 103.627301)"/></g></g></svg>