<?xml version="1.0" encoding="UTF-8"?>
<svg width="400px" height="320px" viewBox="0 0 400 320" version="1.1" xmlns="http://www.w3.org/2000/svg" xmlns:xlink="http://www.w3.org/1999/xlink">
    <!-- Generator: Sketch 60.1 (88133) - https://sketch.com -->
    <title>01-clipboard</title>
    <desc>Created with Sketch.</desc>
    <defs>
        <rect id="path-1" x="0" y="0" width="112" height="44" rx="8"></rect>
        <filter x="-8.9%" y="-18.2%" width="117.9%" height="145.5%" filterUnits="objectBoundingBox" id="filter-2">
            <feOffset dx="0" dy="2" in="SourceAlpha" result="shadowOffsetOuter1"></feOffset>
            <feGaussianBlur stdDeviation="3" in="shadowOffsetOuter1" result="shadowBlurOuter1"></feGaussianBlur>
            <feColorMatrix values="0 0 0 0 0   0 0 0 0 0   0 0 0 0 0  0 0 0 0.15 0" type="matrix" in="shadowBlurOuter1"></feColorMatrix>
        </filter>
        <rect id="path-3" x="0" y="0" width="52" height="52" rx="8"></rect>
        <filter x="-19.2%" y="-15.4%" width="138.5%" height="138.5%" filterUnits="objectBoundingBox" id="filter-4">
            <feOffset dx="0" dy="2" in="SourceAlpha" result="shadowOffsetOuter1"></feOffset>
            <feGaussianBlur stdDeviation="3" in="shadowOffsetOuter1" result="shadowBlurOuter1"></feGaussianBlur>
            <feColorMatrix values="0 0 0 0 0   0 0 0 0 0   0 0 0 0 0  0 0 0 0.15 0" type="matrix" in="shadowBlurOuter1"></feColorMatrix>
        </filter>
    </defs>
    <g id="页面-1" stroke="none" stroke-width="1" fill="none" fill-rule="evenodd">
        <g id="01-clipboard" transform="translate(0.000000, -10.000000)">
            <g transform="translate(0.000000, 10.000000)">
                <g id="编组-3备份-2" fill="#FF9500" opacity="0.200000003">
                    <path d="M33.6086051,79.9632567 C8.28039212,69.1368581 0,49.5450946 0,35.4937806 C0,-12.2891411 50.0900469,-8.27516144 60.8488572,26.431454 C71.6076676,61.1380694 85.2392157,69.2364784 107.685085,79.9107005 C130.130955,90.5849226 58.936818,90.7896554 33.6086051,79.9632567 Z" id="椭圆形"></path>
                    <path d="M343.938774,320 C370.307217,269.119703 386.712505,227.909427 393.154639,196.369172 C433.580961,-1.55537986 285.314284,-17.979896 200.869401,95.6328369 C116.424517,209.24557 0,164.889067 0,228.421642 C0,270.776692 18.503639,301.302811 55.510917,320 L343.938774,320 Z" id="椭圆形"></path>
                </g>
                <g id="编组-15备份" transform="translate(272.000000, 222.000000)" fill="#FFFFFF">
                    <path d="M83.2554454,2.07007722 L81.4159654,3.45476366 C77.4855824,6.44675749 67.625566,14.122187 55.4329182,24.8599898 C56.9862964,11.9066637 64.421919,2.64615261 66.1467588,0.649925293 L66.4608352,0.294595368 L66.1309269,0.649494086 C55.0782678,12.6610954 55.2383008,23.0749304 55.3651261,24.9194406 L53.5662531,26.511631 C45.7028898,33.5039424 36.9757675,41.6923335 28.2995515,50.6642818 C22.9328332,34.5212105 32.1140543,15.7957433 32.4893931,15.0414099 L32.1045383,15.7842143 C21.0093936,37.4697887 26.4268501,48.2833022 28.1262234,50.8468057 C20.969368,58.2536559 13.8516723,66.1946183 7.28551351,74.4358202 C-5.02509288,53.0666681 6.39894355,33.5448247 6.25910986,33.598224 C-5.78885949,55.4348391 4.04425977,70.6671801 7.14175102,74.6177073 C5.17699471,77.0867473 3.26244995,79.5833744 1.41150651,82.1005772 L1.05703024,82.6796213 C-1.35915078,86.7131041 1.12744005,84.634312 3.77227033,81.6718094 L5.32297251,79.7578491 C9.73446395,74.3434636 15.012501,68.1218911 21.1571012,61.2945281 L21.2533049,61.605055 C22.4446744,65.2746905 28.7889087,79.0680806 55.5245352,72.4385763 C55.5680947,72.34074 30.3969902,79.2675305 21.2406933,61.2008174 C27.3480632,54.4189128 34.3085865,47.0408839 42.1228595,39.2638797 L42.2895491,39.6292853 C44.2597925,43.7840667 51.9568888,54.6588364 76.1059038,45.0082465 L76.7305958,44.7536014 C73.9942542,45.8362513 51.3518912,54.2230589 42.2599445,39.127638 C54.0021316,27.4492189 67.6673183,14.8748131 83.2554454,2.07007722 Z M63.8167043,19.029881 L63.9867206,19.242473 C64.9536903,20.3900511 70.0218091,25.6127504 78.5865028,20.6405488 C78.6304304,20.5418859 70.732523,24.4734162 63.8167043,19.029881 Z" id="形状"></path>
                </g>
                <g id="编组-13备份-2" transform="translate(15.000000, 224.000000)">
                    <path d="M10.8798701,0.102272556 C16.8571634,0.436664614 23.8043586,4.52637826 31.7214554,12.3714135 C36.4626715,16.3224397 42.9189459,15.8471455 51.0902786,10.9455309 C58.916074,8.62577433 64.6291631,13.5717992 68.2295459,25.7836054 C68.1993026,33.3904279 72.1430645,34.9828905 80.0608318,30.5609934 C90.8353733,25.7371145 97.2425242,31.1193097 99.2822847,46.7075788 C98.6934361,62.2785456 94.1645931,74.2487839 85.6957556,82.6182937 L77.4079522,95.7321975 C49.2229296,96.3532655 33.4236949,95.1346958 30.0102479,92.0764887 C29.4340268,92.4378697 21.5977659,84.4680172 27.3912691,74.9619246 L27.5710233,74.673398 C27.5710233,74.673398 33.7202769,60.78308 19.2505144,58.3976711 C18.924509,57.9051128 3.52912577,58.6937568 4.27025914,45.0829265 L5.47672109,40.1840887 C6.94502216,38.2376477 13.7949612,28.1923639 5.51556656,20.0664375 C-2.82814448,9.02214583 -1.04004331,2.36742419 10.8798701,0.102272556 Z" id="路径" fill="#BC8AFF"></path>
                    <path d="M7.7513403,10.6084784 L6.46998191,9.55000495 C7.08861314,10.0077934 17.6072556,17.8208894 31.4820612,30.0401743 C30.138502,18.8379745 23.9067272,10.7041945 22.0440821,8.49116577 L21.561832,7.93699022 L21.8566113,8.25384959 C31.8026637,19.0649789 31.6565432,28.4371429 31.5424025,30.0941766 C39.0302255,36.6899566 47.4923059,44.5677088 55.901264,53.2632739 C60.2032599,40.3228574 54.1187528,25.5391412 52.4981694,21.9814381 L52.1302092,21.2025817 L52.4770021,21.8714471 C62.4619105,41.3870531 57.5876264,51.119219 56.0578173,53.4272789 C62.4987495,60.0940515 68.904588,67.2408255 74.8140578,74.6578088 C85.8938404,55.4259465 75.6120364,37.8559961 75.7378877,37.9040558 C86.5815245,57.5578511 77.7304948,71.2672905 74.9431525,74.8220476 C76.7118794,77.0438416 78.4349242,79.290749 80.1007307,81.5561737 L80.4420722,82.1146278 C82.5789043,85.6945504 80.3481919,83.8273516 77.9760433,81.1702827 L77.01834,79.9861446 C72.9608099,74.9887235 68.0645308,69.2027877 62.3294852,62.8304958 L62.2081359,63.2153234 C61.0499786,66.6694147 55.2105135,78.7647978 31.3990049,72.8603729 L31.4235862,72.8624455 C32.2601455,73.012676 54.1773163,78.6809072 62.2537509,62.7477941 C56.7578507,56.6426802 50.4927652,50.0018069 43.4591605,43.0017999 L43.3092309,43.330823 C41.5369584,47.0717591 34.6093927,56.8584096 12.8757732,48.1730761 L12.3135504,47.9438955 C14.7762325,48.9182704 35.153966,56.4662522 43.3368844,42.880947 C33.0989819,32.6980266 21.2372136,21.7592907 7.7513403,10.6084784 L7.7513403,10.6084784 Z M23.9360527,24.7925471 L23.7890637,24.9767174 C22.9340131,25.9947369 18.3694263,30.7275608 10.643234,26.2421482 C10.6036992,26.1533515 17.7118159,29.6917288 23.9360527,24.7925471 Z" id="形状" fill="#FFFFFF"></path>
                </g>
                <g id="编组-13备份-3" transform="translate(311.500000, 268.000000) scale(-1, 1) translate(-311.500000, -268.000000) translate(258.000000, 216.000000)">
                    <path d="M11.3767848,0 C17.8423097,0.363062924 25.3569589,4.80342974 33.9207324,13.3211004 C39.0492159,17.6108887 46.0328455,17.0948426 54.8716211,11.7729623 C63.3366355,9.25430914 69.5163756,14.6244075 73.4108414,27.8832574 C73.3781278,36.1422908 77.6440204,37.8712917 86.208519,33.0702598 C97.8631362,27.8327803 104.79363,33.6764464 107,50.6012579 C106.363054,67.5072837 101.46429,80.5038535 92.3037092,89.5909673 L83.3389495,103.829261 C52.8517452,104.503579 35.7620126,103.180529 32.0697517,99.8601105 C31.4464643,100.252476 22.9701295,91.5992866 29.2368521,81.278139 L29.4312888,80.964874 C29.4312888,80.964874 36.0828197,65.8835964 20.4311521,63.2936619 C20.0785182,62.7588716 3.42562416,63.6151341 4.22729407,48.8373075 L5.53230108,43.5184421 C7.12053451,41.4051126 14.5299837,30.4985435 5.57431949,21.6758979 C-3.45091449,9.68466564 -1.51675937,2.45936635 11.3767848,0 Z" id="路径" fill="#FE889D"></path>
                    <path d="M8.38696143,10.9115235 L7,9.75794541 C7.66961566,10.2568665 19.0551511,18.7719756 34.0734475,32.0891731 C32.6191591,19.8804466 25.8737931,11.0158399 23.8576383,8.60396868 L23.3356436,8 L23.6547171,8.34532944 C34.4204725,20.1278475 34.2623095,30.342108 34.1387619,32.1480276 C42.2436932,39.3364437 51.4031752,47.9220183 60.5051568,57.398887 C65.1617013,43.2957636 58.5757401,27.1837185 56.8215964,23.3063529 L56.4233109,22.4575157 L56.7986847,23.1864791 C67.6064984,44.4555782 62.3305006,55.0621871 60.6746125,57.577628 C67.6463735,64.8434155 74.5801486,72.632333 80.9766469,80.7157382 C92.9695688,59.7558775 81.8403907,40.6072528 81.9766141,40.6596308 C93.7139283,62.0793354 84.1334417,77.0205792 81.1163809,80.894734 C83.0308772,83.316158 84.8959266,85.7649519 86.6990205,88.2339269 L87.0684935,88.8425584 C89.3814325,92.7441401 86.9668761,90.7091719 84.3992271,87.8133632 L83.3625948,86.5228294 C78.9706637,81.0763859 73.6708582,74.7705791 67.4631593,67.8257316 L67.331809,68.2451362 C66.0782023,72.0095804 59.7574782,85.1917435 33.9835463,78.7568012 L34.0101534,78.7590601 C34.9156576,78.9227889 58.6391301,85.1003153 67.3811833,67.7355991 C61.432339,61.0819357 54.650917,53.8443746 47.0376384,46.2154113 L46.8753525,46.5739974 C44.9570183,50.6510596 37.4585179,61.3170485 13.933724,51.8513308 L13.3251657,51.6015581 C15.9908095,52.6634814 38.0479721,60.8896555 46.905285,46.0836996 C35.8236267,34.9858356 22.9842718,23.0642454 8.38696143,10.9115235 L8.38696143,10.9115235 Z M25.9055355,26.3700423 L25.7464324,26.5707605 C24.8209128,27.6802499 19.880136,32.8383218 11.5171903,27.9498912 C11.4743973,27.8531162 19.1683288,31.7094195 25.9055355,26.3700423 Z" id="形状" fill="#FFFFFF"></path>
                </g>
                <g id="编组-10备份" transform="translate(49.000000, 185.000000)">
                    <path d="M16.1543919,20.9110225 C16.1543919,20.9110225 7.03247064,-6.01299263 33.6586192,1.24050917 C33.6586192,1.24050917 43.0270789,5.91225609 50.9163081,26.5662951 C50.9163081,26.5662951 54.1213075,36.8933146 74.4607266,34.188619 C74.4607266,34.188619 89.2530313,36.2786111 86.048032,60.2520492 C86.048032,60.2520492 77.7889951,73.8984679 97.8818758,71.8084758 C97.8818758,71.8084758 120.193602,71.8084758 110.948412,101.314246 C110.948412,101.314246 98.1284142,127.008854 76.9261107,135 L36.3705418,135 C36.3705418,135 11.7167005,126.640032 7.52554746,117.296538 C6.66266302,117.419479 1.60862555,103.896001 13.6890078,95.9048547 C13.6890078,95.9048547 27.9882357,82.9960803 12.4563157,72.7920015 C12.3330465,72.0543573 -5.91079604,65.0467369 1.97843317,49.6791483 C3.58093286,46.851512 3.70420206,46.9744527 5.42997095,44.8844607 C5.42997095,44.8844607 22.6876599,36.4015518 16.1543919,20.9110225 Z" id="路径" fill="#FE889D" transform="translate(56.596154, 67.500000) rotate(-360.000000) translate(-56.596154, -67.500000) "></path>
                    <path d="M41.4145897,16.1489807 C47.3689659,33.8224725 42.3603267,44.6162547 41.3723873,46.4789855 C46.6494045,57.992204 52.3943825,71.4949968 57.6555719,85.9186289 C70.6206443,71.7143838 69.8924368,48.2524536 69.8360001,46.8353915 L69.8342539,46.7980639 L69.8909582,47.7521041 C71.3937702,75.5369181 60.7163706,84.304375 57.75186,86.1900341 C61.7789622,97.2446472 65.5170807,108.838333 68.5401635,120.489081 C91.315465,103.909264 88.4641255,78.2294815 88.5852385,78.3501755 C91.0124103,106.737898 73.670677,118.064471 68.604459,120.746651 C69.5088831,124.235275 70.3468431,127.730223 71.1088695,131.217092 C72.0035001,137.613525 70.2900385,134.186602 68.8445078,129.672797 C66.646676,121.386866 63.7990194,111.507578 60.1700427,100.330205 C57.7706762,103.149836 44.7144847,115.929641 19.1283616,95.9924023 C19.1283616,95.8700688 42.176615,114.792871 60.1256717,100.194844 C56.9040696,90.2789541 53.0684028,79.3456989 48.5271877,67.5994397 C44.9999027,70.8147512 31.7534896,79.7550367 10.3953101,57.8049992 L9.86172562,57.2490208 C12.2141655,59.6501234 31.9451449,78.9214621 48.4464414,67.3944849 C41.6201067,49.75146 33.2020402,30.2801698 22.8842693,9.67506386 C22.8842693,9.67506386 31.2481383,24.3945905 41.3303621,46.3854412 C46.0614853,31.06477 41.6999628,17.0404578 41.2483722,15.6659251 Z M35.2897308,36.4050639 C35.2897308,36.4050639 26.5305155,41.4632023 19.1283616,31.2235562 C19.1283616,31.1001869 25.5435616,38.8724485 35.2897308,36.4050639 Z" id="形状结合" fill="#FFFFFF" transform="translate(49.304011, 72.206145) rotate(-360.000000) translate(-49.304011, -72.206145) "></path>
                </g>
                <path d="M135.229139,37 L264.770861,37 C271.457252,37 273.881898,37.6961921 276.326343,39.0034953 C278.770787,40.3107985 280.689202,42.2292128 281.996505,44.6736572 C283.303808,47.1181017 284,49.5427485 284,56.229139 L284,320 L284,320 L116,320 L116,56.229139 C116,49.5427485 116.696192,47.1181017 118.003495,44.6736572 C119.310798,42.2292128 121.229213,40.3107985 123.673657,39.0034953 C126.118102,37.6961921 128.542748,37 135.229139,37 Z" id="矩形备份-16" fill="#3A3A3A"></path>
                <path d="M264.180574,43 C268.638168,43 270.254599,43.4641281 271.884229,44.3356635 C273.513858,45.207199 274.792801,46.4861419 275.664336,48.1157715 C276.535872,49.7454011 277,51.3618323 277,55.819426 L277,320 L123,320 L123,55.819426 C123,51.3618323 123.464128,49.7454011 124.335664,48.1157715 C125.207199,46.4861419 126.486142,45.207199 128.115771,44.3356635 C129.745401,43.4641281 131.361832,43 135.819426,43 L151.070921,42.9997749 C151.024183,43.3264496 151,43.6604007 151,44 L151,44 L151,51 C151,54.8659932 154.134007,58 158,58 L158,58 L243,58 C246.865993,58 250,54.8659932 250,51 L250,51 L250,44 C250,43.6604007 249.975817,43.3264496 249.929079,42.9997749 L264.180574,43 Z" id="形状结合备份-2" fill="#FFFFFF"></path>
                <rect id="矩形备份-17" fill="#FFE8C7" x="130" y="83" width="140" height="61" rx="6"></rect>
                <rect id="矩形备份-18" fill="#EDDCFF" x="130" y="160" width="140" height="77" rx="6"></rect>
                <path d="M223.42069,214.4 L219.448276,224.4 L140,224.4 L143.972414,214.4 L223.42069,214.4 Z M143.972414,195.862069 L257.472414,195.904208 L253.5,205.862069 L140,205.81993 L143.972414,195.862069 Z M185,176 L185,186 L140,186 L140,176 L185,176 Z" id="形状结合备份-4" fill="#FFFFFF"></path>
                <path d="M136,253 L264,253 C267.313708,253 270,255.686292 270,259 L270,320 L270,320 L130,320 L130,259 C130,255.686292 132.686292,253 136,253 Z" id="矩形备份-19" fill="#C5F6E3"></path>
                <path d="M225,120 L225,130 L140,130 L140,120 L225,120 Z M263,101 L263,111 L140,111 L140,101 L263,101 Z" id="形状结合备份-5" fill="#FFFFFF" opacity="0.900000036"></path>
                <rect id="矩形备份-20" fill="#FFFFFF" opacity="0.5" x="180" y="45" width="39.7241379" height="3.97241379" rx="1.9862069"></rect>
                <g id="编组备份" transform="translate(136.000000, 90.000000)" fill="#FF8E00">
                    <rect id="矩形" opacity="0.300000012" x="3.97241379" y="7.94482759" width="104" height="15.8896552"></rect>
                    <path d="M3.97241379,0 C6.16631735,0 7.94482759,1.77851024 7.94482759,3.97241379 C7.94482759,5.7020519 6.83939619,7.17350267 5.29648693,7.71881259 L5.29655172,22.5103448 C5.29655172,23.241646 4.70371498,23.8344828 3.97241379,23.8344828 C3.24111261,23.8344828 2.64827586,23.241646 2.64827586,22.5103448 L2.64834066,7.71881259 C1.10543139,7.17350267 0,5.7020519 0,3.97241379 C0,1.77851024 1.77851024,0 3.97241379,0 Z" id="形状结合"></path>
                    <path d="M107.972414,7.94482759 C110.166317,7.94482759 111.944828,9.72333782 111.944828,11.9172414 C111.944828,13.6468795 110.839396,15.1183303 109.296487,15.6636402 L109.296552,30.4551724 C109.296552,31.1864736 108.703715,31.7793103 107.972414,31.7793103 C107.241113,31.7793103 106.648276,31.1864736 106.648276,30.4551724 L106.648341,15.6636402 C105.105431,15.1183303 104,13.6468795 104,11.9172414 C104,9.72333782 105.77851,7.94482759 107.972414,7.94482759 Z" id="形状结合备份" transform="translate(107.972414, 19.862069) scale(1, -1) translate(-107.972414, -19.862069) "></path>
                </g>
                <g id="编组-4备份" transform="translate(175.000000, 65.000000)">
                    <path d="M6.11088776,-7.00304249e-16 L136.896009,7.00304249e-16 C139.020898,-4.06896936e-16 139.791434,0.221245043 140.568261,0.636696982 C141.345089,1.05214892 141.954748,1.66180776 142.3702,2.43863534 C142.785652,3.21546293 143.006897,3.98599896 143.006897,6.11088776 L143.006897,18.9153191 C143.006897,21.0402079 142.785652,21.810744 142.3702,22.5875716 C141.954748,23.3643991 141.345089,23.974058 140.568261,24.3895099 C139.791434,24.8049619 139.020898,25.0262069 136.896009,25.0262069 L29.7931034,25.0262069 L29.7931034,25.0262069 L23.8344828,31.5806897 L17.8758621,25.0262069 L6.11088776,25.0262069 C3.98599896,25.0262069 3.21546293,24.8049619 2.43863534,24.3895099 C1.66180776,23.974058 1.05214892,23.3643991 0.636696982,22.5875716 C0.221245043,21.810744 1.41287425e-15,21.0402079 -2.4316768e-15,18.9153191 L-2.88825617e-16,6.11088776 C1.67816001e-16,3.98599896 0.221245043,3.21546293 0.636696982,2.43863534 C1.05214892,1.66180776 1.66180776,1.05214892 2.43863534,0.636696982 C3.21546293,0.221245043 3.98599896,4.06896936e-16 6.11088776,-7.00304249e-16 Z" id="矩形" fill="#626262"></path>
                    <path d="M46.4772414,0 L136.896009,2.4688718e-16 C139.020898,-1.43448561e-16 139.791434,0.221245043 140.568261,0.636696982 C141.345089,1.05214892 141.954748,1.66180776 142.3702,2.43863534 C142.785652,3.21546293 143.006897,3.98599896 143.006897,6.11088776 L143.006897,18.9153191 C143.006897,21.0402079 142.785652,21.810744 142.3702,22.5875716 C141.954748,23.3643991 141.345089,23.974058 140.568261,24.3895099 C139.791434,24.8049619 139.020898,25.0262069 136.896009,25.0262069 L46.4772414,25.0262069 L46.4772414,25.0262069 L46.4772414,0 Z" id="矩形" fill="#000000" opacity="0.5"></path>
                    <path d="M14.9966379,16.8237931 C16.5328448,16.8237931 17.6268103,16.1953448 18.1796121,15.0839224 C18.2727155,14.8977155 18.3192672,14.7406034 18.3192672,14.5602155 C18.3192672,14.2867241 18.1214224,14.0888793 17.8421121,14.0888793 C17.6093534,14.0888793 17.4638793,14.1994397 17.353319,14.4554741 C16.9576293,15.3981466 16.0964224,15.8578448 15.0024569,15.8578448 C13.3440517,15.8578448 12.290819,14.5427586 12.290819,12.4828448 C12.290819,10.4403879 13.3556897,9.11366379 14.9966379,9.11366379 C16.0324138,9.11366379 16.9343534,9.64900862 17.3300431,10.6382328 C17.4464224,10.935 17.6268103,11.0746552 17.8828448,11.0746552 C18.1679741,11.0746552 18.354181,10.8884483 18.354181,10.5975 C18.354181,10.4753017 18.3250862,10.3298276 18.2668966,10.1843534 C17.7722845,8.93327586 16.5270259,8.14771552 14.9966379,8.14771552 C12.6981466,8.14771552 11.2143103,9.84685345 11.2143103,12.4828448 C11.2143103,15.1421121 12.6806897,16.8237931 14.9966379,16.8237931 Z M21.7806672,16.7888793 C23.4507103,16.7888793 24.5795897,15.5843534 24.5795897,13.6582759 C24.5795897,11.7263793 23.4507103,10.5276724 21.7806672,10.5276724 C20.1048052,10.5276724 18.9759259,11.7263793 18.9759259,13.6582759 C18.9759259,15.5843534 20.1048052,16.7888793 21.7806672,16.7888793 Z M21.7806672,15.8985776 C20.7099776,15.8985776 20.0058828,15.0839224 20.0058828,13.6582759 C20.0058828,12.2326293 20.7099776,11.4179741 21.7806672,11.4179741 C22.8513569,11.4179741 23.5496328,12.2326293 23.5496328,13.6582759 C23.5496328,15.0839224 22.8513569,15.8985776 21.7806672,15.8985776 Z M25.8181448,18.8196983 C26.1149121,18.8196983 26.3243948,18.5985776 26.3243948,18.2785345 L26.3243948,15.7007328 L26.3476707,15.7007328 C26.7084466,16.3640948 27.4067224,16.7888793 28.2737483,16.7888793 C29.7983172,16.7888793 30.8399121,15.5552586 30.8399121,13.6582759 C30.8399121,11.7612931 29.7924983,10.5276724 28.2504724,10.5276724 C27.3718086,10.5276724 26.6677138,10.9757328 26.2953,11.6565517 L26.2720241,11.6565517 L26.2720241,11.0397414 C26.2720241,10.7371552 26.0741793,10.5276724 25.794869,10.5276724 C25.5097397,10.5276724 25.3118948,10.7371552 25.3118948,11.0397414 L25.3118948,18.2785345 C25.3118948,18.5985776 25.5213776,18.8196983 25.8181448,18.8196983 Z M28.0526276,15.8985776 C27.0168517,15.8985776 26.3185759,15.0082759 26.3185759,13.6582759 C26.3185759,12.3140948 27.0168517,11.4179741 28.0526276,11.4179741 C29.1291362,11.4179741 29.8041362,12.290819 29.8041362,13.6582759 C29.8041362,15.0315517 29.1291362,15.8985776 28.0526276,15.8985776 Z M31.9911828,18.9477155 C32.9920448,18.9477155 33.4866569,18.4996552 34.0103638,17.1089224 L36.2448466,11.2608621 C36.2797603,11.1619397 36.2972172,11.0688362 36.2972172,10.9931897 C36.2972172,10.7196983 36.0935534,10.5276724 35.8026052,10.5276724 C35.5523897,10.5276724 35.4185534,10.6324138 35.32545,10.9000862 L33.6495879,15.6716379 L33.632131,15.6716379 L31.9620879,10.9000862 C31.8689845,10.6324138 31.7176914,10.5276724 31.4791138,10.5276724 C31.1881655,10.5276724 30.9728638,10.7138793 30.9728638,10.9931897 C30.9728638,11.0688362 30.9903207,11.1619397 31.0252345,11.2608621 L33.1084241,16.6899569 L32.968769,17.1147414 C32.7301914,17.847931 32.3635966,18.0806897 31.9795448,18.0806897 C31.8224328,18.0806897 31.7817,18.0748707 31.6362259,18.0748707 C31.3801914,18.0748707 31.2288983,18.2261638 31.2288983,18.4472845 C31.2288983,18.7673276 31.5023897,18.9477155 31.9911828,18.9477155 Z" id="Copy" fill="#FFFFFF" fill-rule="nonzero"></path>
                    <rect id="矩形" fill="#FFFFFF" opacity="0.200000003" x="46.4772414" y="0" width="1.19172414" height="25.0262069"></rect>
                    <rect id="矩形备份" fill="#FFFFFF" opacity="0.200000003" x="95.337931" y="0" width="1.19172414" height="25.0262069"></rect>
                </g>
                <path d="M216.608142,279 C220.882952,279 223,281.090168 223,285.23031 L223,285.23031 L223,309.76969 C223,313.909832 220.882952,316 216.608142,316 L216.608142,316 L181.391858,316 C177.137405,316 175,313.929929 175,309.76969 L175,309.76969 L175,285.23031 C175,281.070071 177.137405,279 181.391858,279 L181.391858,279 Z M207.122137,296.706138 C205.961832,296.706138 204.842239,297.108093 203.844784,297.992395 L203.844784,297.992395 L194.114504,306.513851 L190.226463,303.057034 C189.330789,302.233026 188.292621,301.83107 187.295165,301.83107 C186.399491,301.83107 185.422392,302.233026 184.526718,303.016839 L184.526718,303.016839 L178.277354,308.403042 L178.277354,309.629006 C178.277354,311.598588 179.458015,312.764259 181.43257,312.764259 L181.43257,312.764259 L216.587786,312.764259 C218.521628,312.764259 219.722646,311.598588 219.722646,309.669202 L219.722646,309.669202 L219.722646,306.574144 L210.358779,298.012493 C209.402036,297.128191 208.24173,296.706138 207.122137,296.706138 Z M190.267176,288.064096 C187.498728,288.064096 185.239186,290.315046 185.239186,293.028246 C185.239186,295.761543 187.498728,297.992395 190.267176,297.992395 C193.015267,297.992395 195.274809,295.761543 195.274809,293.028246 C195.274809,290.315046 193.015267,288.064096 190.267176,288.064096 Z" id="形状结合备份-6" fill="#FFFFFF" fill-rule="nonzero"></path>
                <g id="编组-6备份" transform="translate(49.000000, 116.000000)">
                    <g id="矩形">
                        <use fill="black" fill-opacity="1" filter="url(#filter-2)" xlink:href="#path-1"></use>
                        <use fill="#FFFFFF" fill-rule="evenodd" xlink:href="#path-1"></use>
                    </g>
                    <path d="M11,5 C14.3137085,5 17,7.6862915 17,11 C17,14.3137085 14.3137085,17 11,17 C7.6862915,17 5,14.3137085 5,11 C5,7.6862915 7.6862915,5 11,5 Z M11,8 C10.7238576,8 10.5,8.22385763 10.5,8.5 L10.5,8.5 L10.5,10.5 L8.5,10.5 C8.22385763,10.5 8,10.7238576 8,11 C8,11.2761424 8.22385763,11.5 8.5,11.5 L8.5,11.5 L10.499,11.5 L10.5,13.5 C10.5,13.7761424 10.7238576,14 11,14 C11.2761424,14 11.5,13.7761424 11.5,13.5 L11.5,13.5 L11.499,11.5 L13.5,11.5 C13.7761424,11.5 14,11.2761424 14,11 C14,10.7238576 13.7761424,10.5 13.5,10.5 L13.5,10.5 L11.5,10.5 L11.5,8.5 C11.5,8.22385763 11.2761424,8 11,8 Z" id="形状结合" fill="#007CFF"></path>
                    <rect id="矩形" fill="#000000" opacity="0.100000001" x="40" y="9" width="65" height="6"></rect>
                    <rect id="矩形备份-13" fill="#000000" opacity="0.100000001" x="40" y="19" width="65" height="6"></rect>
                    <rect id="矩形备份-14" fill="#000000" opacity="0.100000001" x="40" y="29" width="35" height="6"></rect>
                    <rect id="矩形备份-15" fill="#000000" opacity="0.100000001" x="5" y="29" width="18" height="6"></rect>
                </g>
                <g id="编组-7备份" transform="translate(250.000000, 130.000000)">
                    <g id="矩形">
                        <use fill="black" fill-opacity="1" filter="url(#filter-4)" xlink:href="#path-3"></use>
                        <use fill="#FFFFFF" fill-rule="evenodd" xlink:href="#path-3"></use>
                    </g>
                    <rect id="矩形" fill="#000000" opacity="0.100000001" x="5" y="38" width="36" height="8"></rect>
                    <path d="M14,5 C15.6568542,5 17,6.34314575 17,8 L17,14 C17,15.6568542 15.6568542,17 14,17 L8,17 C6.34314575,17 5,15.6568542 5,14 L5,8 C5,6.34314575 6.34314575,5 8,5 L14,5 Z M10.0439453,11.4824219 C9.94433594,11.4824219 9.87109375,11.5498047 9.859375,11.6523438 C9.765625,12.5019531 9.73632812,12.53125 8.86328125,12.6367188 C8.76953125,12.6484375 8.69628906,12.7275391 8.69628906,12.8212891 C8.69628906,12.9150391 8.76367187,12.9882812 8.85742187,13.0058594 C9.74804687,13.1816406 9.765625,13.1787109 9.859375,13.9931641 C9.87109375,14.0927734 9.95019531,14.1601562 10.0439453,14.1601562 C10.140625,14.1601562 10.2167969,14.0927734 10.2285156,13.9873047 C10.3193359,13.1640625 10.3486328,13.1171875 11.2041016,13.0058594 C11.3212891,12.9912109 11.3886719,12.9179688 11.3886719,12.8212891 C11.3886719,12.7275391 11.3212891,12.6542969 11.2275391,12.6367188 L10.9622798,12.5836749 C10.333261,12.4533058 10.3040365,12.3818359 10.2285156,11.6552734 C10.2167969,11.5498047 10.140625,11.4824219 10.0439453,11.4824219 Z M10.8408203,10.2636719 C10.5976562,10.5009766 10.6005859,10.9023438 10.8408203,11.1425781 L13.6181641,13.9609375 C13.8525391,14.1982422 14.2568359,14.1982422 14.5,13.9609375 C14.7402344,13.7236328 14.7373047,13.3222656 14.5,13.0820312 L11.7197266,10.2636719 C11.4853516,10.0263672 11.0810547,10.0263672 10.8408203,10.2636719 Z M13.2226562,12.3408203 L14.1865234,13.2988281 C14.2802734,13.3955078 14.3212891,13.5214844 14.2246094,13.6181641 C14.1337891,13.703125 14.0048828,13.6708984 13.9082031,13.5712891 L12.9589844,12.6191406 L13.2226562,12.3408203 Z M8.53808594,9.39355469 C8.46191406,9.39355469 8.40625,9.44921875 8.39746094,9.52539062 C8.3359375,10.1699219 8.3125,10.1669922 7.65332031,10.2636719 C7.57714844,10.2753906 7.52441406,10.328125 7.52441406,10.4013672 C7.52441406,10.4775391 7.57421875,10.5273438 7.64746094,10.5419922 C8.3125,10.6738281 8.29785156,10.6767578 8.39746094,11.2861328 C8.40917969,11.3535156 8.46191406,11.4121094 8.53808594,11.4121094 C8.61132812,11.4121094 8.66992187,11.3535156 8.67578125,11.2802734 C8.74023437,10.6503906 8.76660156,10.6503906 9.41113281,10.5419922 C9.50195312,10.5273438 9.55175781,10.4775391 9.55175781,10.4013672 C9.55175781,10.328125 9.50195312,10.2783203 9.42578125,10.2636719 C8.7578125,10.1259766 8.76367187,10.1318359 8.67578125,9.52832031 C8.66699219,9.44921875 8.61132812,9.39355469 8.53808594,9.39355469 Z M13.1054687,8.33886719 C13.0322266,8.33886719 12.9794922,8.39160156 12.9677734,8.46484375 C12.8710937,9.10644531 12.8857422,9.13574219 12.2265625,9.203125 C12.1503906,9.21191406 12.0888672,9.26757812 12.0947266,9.34375 C12.0976562,9.41699219 12.1416016,9.46679688 12.2236328,9.48144531 C12.8857422,9.61035156 12.9033203,9.61035156 12.9677734,10.2226562 C12.9736328,10.2958984 13.0322266,10.3486328 13.1054687,10.3486328 C13.1816406,10.3486328 13.234375,10.2958984 13.2490234,10.2197266 C13.375,9.59863281 13.3369141,9.58984375 13.9785156,9.48144531 C14.0693359,9.46679688 14.125,9.41699219 14.125,9.34375 C14.125,9.26757812 14.0693359,9.21777344 13.9960937,9.203125 C13.328125,9.06835938 13.3046875,9.07714844 13.2490234,8.47070312 C13.2431641,8.39160156 13.1816406,8.33886719 13.1054687,8.33886719 Z M10.1933594,7.43359375 C10.1259766,7.43359375 10.0761719,7.48339844 10.0644531,7.55078125 C9.96777344,8.13085938 9.99121094,8.15429688 9.390625,8.22167969 C9.32324219,8.23046875 9.27050781,8.28320312 9.27050781,8.35058594 C9.27050781,8.41796875 9.31445312,8.46484375 9.38769531,8.47949219 C9.99121094,8.60546875 10,8.59375 10.0644531,9.15332031 C10.0732422,9.21777344 10.1259766,9.26757812 10.1933594,9.26757812 C10.2636719,9.26757812 10.3105469,9.21777344 10.3222656,9.15039062 C10.4160156,8.57910156 10.4042969,8.58203125 10.9902344,8.47949219 C11.0751953,8.46484375 11.1191406,8.41796875 11.1191406,8.35058594 C11.1191406,8.28320312 11.0751953,8.23632812 11.0019531,8.22167969 C10.3925781,8.09277344 10.3779297,8.10449219 10.3222656,7.55371094 C10.3164062,7.48339844 10.2636719,7.43359375 10.1933594,7.43359375 Z" id="形状结合" fill="#FF8C59"></path>
                </g>
                <g id="编组-18备份" transform="translate(282.000000, 123.000000)">
                    <path d="M55.5,181.5 C55.7312566,183.087469 55.7312566,184.420803 55.5,185.5 C55.2687434,186.579197 54.7687434,187.579197 54,188.5 C56.8517215,189.810251 59.6809725,189.72303 62.5,189 C62,186 61.1609392,183.020832 62,180 L55.5,181.5 Z" id="路径-13" fill="#ECA2A2"></path>
                    <path d="M54.5,187.5 C52.4501089,188.833333 50.7584966,189.5 49.4251633,189.5 C47.4251633,189.5 44,189.5 42.9251633,189.5 C41.8503266,189.5 40.1954753,190.094842 41.4251633,193.5 C42.2097864,195.672718 50,196.5 60.5,196.5 C60.8760377,196.5 61.7093711,196.166667 63,195.5 C63.8536148,189.986871 63.3536148,187.653537 61.5,188.5 C57.5,189.166667 55.1666667,188.833333 54.5,187.5 Z" id="路径-15" fill="#1A5781"></path>
                    <path d="M63,195.5 L62.5374499,195.734375 C61.508183,196.244792 60.829033,196.5 60.5,196.5 L59.0853815,196.494824 C49.3062731,196.422013 42.1741217,195.573958 41.4251633,193.5 C40.9859252,192.283695 40.9242682,191.362159 41.0720677,190.702786 C41.1388103,191.091671 41.7451658,192.025818 42,192.5 C43.0748367,194.5 50,195 60.5,195 C60.8760377,195 61.7093711,194.666667 63,194 C63.3333333,193.666667 63.3333333,194.166667 63,195.5 Z" id="路径" fill="#A4C8E1"></path>
                    <line x1="51" y1="189" x2="51.5" y2="190" id="路径-17" stroke="#EF9519" stroke-linecap="round"></line>
                    <line x1="53" y1="188" x2="53.5" y2="189" id="路径-17备份" stroke="#EF9519" stroke-linecap="round"></line>
                    <path d="M104.479125,175.757429 C104.710381,177.344898 104.710381,178.678232 104.479125,179.757429 C104.247868,180.836626 103.747868,181.836626 102.979125,182.757429 C105.830846,184.06768 108.660097,183.980459 111.479125,183.257429 C110.979125,180.257429 110.140064,177.278261 110.979125,174.257429 L104.479125,175.757429 Z" id="路径-13" fill="#ECA2A2" transform="translate(107.229125, 179.017649) rotate(-41.000000) translate(-107.229125, -179.017649) "></path>
                    <path d="M106.196422,183.545608 C105.524094,185.896737 104.684791,187.509675 103.678512,188.38442 C102.169093,189.696538 99.584089,188.943647 98.7728995,189.648804 L98.6598114,189.75252 C97.8905308,190.497209 97.2501008,191.97058 100.265071,193.651731 C102.282665,194.776743 108.70476,193.29026 116.62921,186.40164 C116.91301,186.154937 117.323248,185.356652 117.859925,184.006783 L117.50831,183.456065 C114.736269,179.176574 112.945315,177.927187 112.135448,179.707905 C109.553982,182.835281 107.574307,184.114515 106.196422,183.545608 Z" id="路径-15" fill="#1A5781"></path>
                    <path d="M117.859925,184.006783 L117.664598,184.487129 L117.481125,184.915763 C117.126031,185.721321 116.84206,186.216613 116.62921,186.40164 L115.558188,187.325807 C108.130033,193.686528 102.190957,194.725606 100.265071,193.651731 C99.1356063,193.02194 98.4844913,192.366899 98.1634489,191.772298 C98.4434933,192.001197 99.366329,192.278409 99.9059497,192.469896 L100.042847,192.519894 C102.166155,193.324157 107.720671,192.158196 115.645122,185.269576 C115.928921,185.022873 116.339159,184.224587 116.875837,182.874719 C116.90872,182.404463 117.23675,182.781817 117.859925,184.006783 Z" id="路径" fill="#A4C8E1"></path>
                    <line x1="104.805734" y1="186.687219" x2="105.305734" y2="187.687219" id="路径-17" stroke="#EF9519" stroke-linecap="round" transform="translate(105.055734, 187.187219) rotate(-41.000000) translate(-105.055734, -187.187219) "></line>
                    <line x1="105.659094" y1="184.620392" x2="106.159094" y2="185.620392" id="路径-17备份" stroke="#EF9519" stroke-linecap="round" transform="translate(105.909094, 185.120392) rotate(-41.000000) translate(-105.909094, -185.120392) "></line>
                    <path d="M32.7071068,50.6368143 C28.7071068,55.6368143 24.3737734,56.1368143 19.7071068,52.1368143 C12.7071068,46.1368143 7.70710678,35.1368143 8.20710678,33.6368143 C8.70710678,32.1368143 8.70710678,30.1368143 8.70710678,29.6368143 C8.70710678,29.1368143 8,28.6368143 7.5,29.6368143 C7,30.6368143 6.70710678,32.1368143 6.20710678,31.1368143 C5.70710678,30.1368143 1.20710678,24.6368143 0.707106781,24.6368143 C0.207106781,24.6368143 -0.292893219,25.1368143 0.207106781,26.1368143 C0.540440115,26.803481 1.30473785,27.9701476 2.5,29.6368143 C0.833333333,31.9701476 0.333333333,33.6368143 1,34.6368143 C2,36.1368143 2.5,37.1368143 3.70710678,37.6368143 C4.91421356,38.1368143 6.20710678,42.6368143 6.70710678,44.1368143 C7.20710678,45.6368143 8.70710678,72.6368143 22.7071068,70.6368143 C32.0404401,69.303481 38.8737734,65.303481 43.2071068,58.6368143 L32.7071068,50.6368143 Z" id="路径-6" fill="#FFB0B0"></path>
                    <path d="M76.5,51.6368143 C81.1666667,55.9701476 83.8333333,58.1368143 84.5,58.1368143 C85.5,58.1368143 75.5,76.1368143 74.5,76.1368143 C73.8333333,76.1368143 73.8333333,77.803481 74.5,81.1368143 C84.1666667,74.803481 89.5,70.803481 90.5,69.1368143 C92,66.6368143 99.5,57.1368143 98,53.1368143 C97,50.4701476 92.5,44.803481 84.5,36.1368143 L76.5,51.6368143 Z" id="路径-8" fill="#FFB0B0"></path>
                    <path d="M48,79.6368143 C46,111.545605 45,128.333333 45,130 C45,132.5 48,183.136814 48,183.136814 C48,183.136814 53.8333333,183.09121 65.5,183 L63.5,145 L65.5,119 L77.5,149 L101,184.5 L110.5,173.136814 C100.5,154.136814 95,143.970148 94,142.636814 C93,141.303481 86.3333333,117.803481 74,72.1368143 L48,79.6368143 Z" id="路径-5" fill="#2E6298"></path>
                    <path d="M109.181699,170.633752 C109.612082,171.450339 110.051515,172.284693 110.5,173.136814 L110.5,173.136814 L101,184.5 L99.614,182.497193 Z" id="形状结合" fill="#1B4F7A"></path>
                    <path d="M65.4993522,179.999814 L65.5,183 C54.7039801,183.084403 48.9031336,183.129754 48.0974605,183.136052 L48,183.136814 C48,183.136814 47.8578667,181.976059 47.6173522,180.002742 L65.4993522,179.999814 Z" id="形状结合" fill="#1B4F7A"></path>
                    <path d="M59,20.1368143 C59,20.1368143 58.1666667,22.9701476 56.5,28.6368143 L64,27.1368143 L63,17.1368143 C60.3333333,19.1368143 59,20.1368143 59,20.1368143 Z" id="路径-12" fill="#FFA4A4"></path>
                    <g id="编组-8" transform="translate(54.000000, 0.000000)">
                        <path d="M2.37096774,7.42105263 L1.5,12.7418654 L0,15.2418654 L1.40322581,16.4210526 L1.5,22.7418654 C6.91935484,22.6332534 9.9516129,22.1052632 10.5967742,21.1578947 C11.2419355,20.2105263 12.2096774,17.6842105 13.5,13.5789474 L4.30645161,6 L2.37096774,7.42105263 Z" id="路径-11" fill="#FFB0B0"></path>
                        <circle id="椭圆形" fill="#FF8585" cx="4" cy="15" r="1"></circle>
                        <path d="M2.41299313,9.10058459 C0.702853101,6.15800714 -1.24556557,3.85805585 1.04103362,1.17335547 C3.32763281,-1.5113449 6.98619151,1.06021028 7.44351135,2.45913306 C7.90083119,3.85805585 10.1874304,4.90381624 12.9313494,4.90381624 C15.6752684,4.90381624 17.9618676,10.4995074 16.5899081,13.6505153 C15.2179486,16.8015233 12.0167097,23.4429749 10.1874304,22.9766673 C8.35815103,22.5103597 7.90083119,20.7582745 8.81547086,19.3593517 C9.73011054,17.9604289 11.1020701,15.1625833 10.1874304,14.5831305 C9.2727907,14.0036777 9.2727907,15.4026005 8.35815103,15.0494381 C7.44351135,14.6962757 4.12313316,12.043162 2.41299313,9.10058459 Z" id="路径-9" fill="#634215"></path>
                        <line x1="1.5" y1="18.5" x2="3" y2="18" id="路径-28" stroke="#000000" stroke-width="0.5" stroke-linecap="round"></line>
                        <line x1="3" y1="12" x2="3" y2="13" id="路径-27" stroke="#000000" stroke-width="0.5" stroke-linecap="round"></line>
                    </g>
                    <polyline id="路径-19" stroke="#1B4F7A" stroke-linecap="round" points="56.5 79 54 131.5 56.5 180"></polyline>
                    <polygon id="路径-20" fill="#1B4F7A" points="65.5 119 65.5 98 67.5 124"></polygon>
                    <path d="M51.1388889,79 C50.4907407,84.4761905 52.1111111,87.8095238 56,89" id="路径-21" stroke="#1B4F7A" stroke-linecap="round"></path>
                    <path d="M32,51.6368143 C36,40.6368143 41.5,33.303481 48.5,29.6368143 C51.8762361,27.8683097 57.4046781,27.2135525 60,26.6368143 C64.5,25.6368143 64.5,25.7608667 68,24.6368143 C74.5,25.6368143 81.5,27.6368143 85.5,36.6368143 C82,44.1368143 78,51.6368143 76.5,51.6368143 C75.1666667,50.8789381 74,49.8333333 73,48.5 C74.6666667,65.2578762 75.1666667,73.6368143 74.5,73.6368143 C73.5,73.6368143 56.5,78.9104429 52.5,79.6368143 C49.8333333,80.1210619 47.1666667,80.1210619 44.5,79.6368143 L44.5,57.6368143 C44.3247385,58.2532229 43.6580719,59.0865562 42.5,60.1368143 C41.3419281,61.1870724 37.8419281,58.353739 32,51.6368143 Z" id="路径-4" fill="#5386E7"></path>
                    <path d="M44.5014328,60.8053995 L44.5,58.5 L44.5,58.5 C45.7815735,57.9873706 45.7820511,58.7558371 44.5014328,60.8053995 Z M43.9852031,58.5744782 L43.9335826,58.6415105 C43.5954992,59.078242 43.1176383,59.5766767 42.5,60.1368143 C41.3419281,61.1870724 37.8419281,58.353739 32,51.6368143 C32.3538709,50.6636694 32.7194815,49.7192218 33.096832,48.8034716 C38.5473507,55.216622 42.1763811,58.473064 43.9852031,58.5744782 Z" id="形状结合" fill="#FFEDD4"></path>
                    <path d="M85.5,36.6368143 C82,44.1368143 78,51.6368143 76.5,51.6368143 C76.1500722,51.4379128 75.8116239,51.2191932 75.4846554,50.9806555 C77.1104814,48.4215569 79.9740699,42.7334495 84.0752718,33.9149083 C84.5840577,34.7421942 85.0601652,35.6471861 85.5,36.6368143 Z" id="形状结合" fill="#FFEDD4"></path>
                    <path d="M92.5,143 C89.8333333,145.666667 87.6666667,147 86,147" id="路径-22" stroke="#1B4F7A" stroke-linecap="round"></path>
                    <path d="M47,52.5 C47,55.5 46.1666667,58.6666667 44.5,62 L44.5,57.5 C44.8333333,57.1666667 45.6666667,55.5 47,52.5 Z M72.5,45 L75.5,51 C74.5,50.5 73.5,49.5 73,48.5 L72.5,45 Z" id="形状结合" fill="#2F5AAC"></path>
                    <path d="M1,25 C3,27.3333333 4.16666667,28.6666667 4.5,29" id="路径-26" stroke="#000000" stroke-width="0.5" stroke-linecap="round"></path>
                    <path d="M2,31 C2.57142857,31.5833333 2.9047619,31.9166667 3,32" id="路径-26备份-3" stroke="#000000" stroke-width="0.5" stroke-linecap="round"></path>
                    <path d="M1,33 C1.57142857,33.5833333 1.9047619,33.9166667 2,34" id="路径-26备份-2" stroke="#000000" stroke-width="0.5" stroke-linecap="round"></path>
                </g>
            </g>
        </g>
    </g>
</svg>