<?xml version="1.0" encoding="UTF-8"?>
<svg width="400px" height="320px" viewBox="0 0 400 320" version="1.1" xmlns="http://www.w3.org/2000/svg" xmlns:xlink="http://www.w3.org/1999/xlink">
    <!-- Generator: Sketch 60.1 (88133) - https://sketch.com -->
    <title>02-editor</title>
    <desc>Created with Sketch.</desc>
    <g id="页面-1" stroke="none" stroke-width="1" fill="none" fill-rule="evenodd">
        <g id="02-editor" transform="translate(0.000000, -10.000000)">
            <g transform="translate(0.000000, 10.000000)">
                <g id="编组-3">
                    <g id="编组" fill="#FF9500" opacity="0.200000003">
                        <path d="M328,320 C364.994292,264.807813 386.712505,220.105141 393.154639,185.891983 C433.580961,-28.8058358 285.314284,-46.6222601 200.869401,76.6186705 C116.424517,199.859601 0,151.744073 0,220.660764 C0,266.605225 18.503639,299.718304 55.510917,320 L328,320 Z" id="椭圆形" transform="translate(200.000000, 160.000000) scale(-1, 1) translate(-200.000000, -160.000000) "></path>
                        <path d="M383.687135,95.5998044 C399.530846,83.2837003 401.689861,68.0551851 399.045741,58.2495179 C390.054143,24.90435 355.447366,37.1209004 354.382912,63.3631368 C353.318457,89.6053732 345.218908,97.8191404 331.381412,109.487256 C317.543916,121.155371 367.843424,107.915908 383.687135,95.5998044 Z" id="椭圆形"></path>
                    </g>
                    <g id="编组-2" transform="translate(0.000000, 185.000000)">
                        <g id="编组-10备份-2" transform="translate(327.000000, 67.500000) scale(-1, 1) translate(-327.000000, -67.500000) translate(270.000000, 0.000000)">
                            <path d="M16.1543919,20.9110225 C16.1543919,20.9110225 7.03247064,-6.01299263 33.6586192,1.24050917 C33.6586192,1.24050917 43.0270789,5.91225609 50.9163081,26.5662951 C50.9163081,26.5662951 54.1213075,36.8933146 74.4607266,34.188619 C74.4607266,34.188619 89.2530313,36.2786111 86.048032,60.2520492 C86.048032,60.2520492 77.7889951,73.8984679 97.8818758,71.8084758 C97.8818758,71.8084758 120.193602,71.8084758 110.948412,101.314246 C110.948412,101.314246 98.1284142,127.008854 76.9261107,135 L36.3705418,135 C36.3705418,135 11.7167005,126.640032 7.52554746,117.296538 C6.66266302,117.419479 1.60862555,103.896001 13.6890078,95.9048547 C13.6890078,95.9048547 27.9882357,82.9960803 12.4563157,72.7920015 C12.3330465,72.0543573 -5.91079604,65.0467369 1.97843317,49.6791483 C3.58093286,46.851512 3.70420206,46.9744527 5.42997095,44.8844607 C5.42997095,44.8844607 22.6876599,36.4015518 16.1543919,20.9110225 Z" id="路径" fill="#FE889D" transform="translate(56.596154, 67.500000) rotate(-360.000000) translate(-56.596154, -67.500000) "></path>
                            <path d="M41.4145897,16.1489807 C47.3689659,33.8224725 42.3603267,44.6162547 41.3723873,46.4789855 C46.6494045,57.992204 52.3943825,71.4949968 57.6555719,85.9186289 C70.6206443,71.7143838 69.8924368,48.2524536 69.8360001,46.8353915 L69.8342539,46.7980639 L69.8909582,47.7521041 C71.3937702,75.5369181 60.7163706,84.304375 57.75186,86.1900341 C61.7789622,97.2446472 65.5170807,108.838333 68.5401635,120.489081 C91.315465,103.909264 88.4641255,78.2294815 88.5852385,78.3501755 C91.0124103,106.737898 73.670677,118.064471 68.604459,120.746651 C69.5088831,124.235275 70.3468431,127.730223 71.1088695,131.217092 C72.0035001,137.613525 70.2900385,134.186602 68.8445078,129.672797 C66.646676,121.386866 63.7990194,111.507578 60.1700427,100.330205 C57.7706762,103.149836 44.7144847,115.929641 19.1283616,95.9924023 C19.1283616,95.8700688 42.176615,114.792871 60.1256717,100.194844 C56.9040696,90.2789541 53.0684028,79.3456989 48.5271877,67.5994397 C44.9999027,70.8147512 31.7534896,79.7550367 10.3953101,57.8049992 L9.86172562,57.2490208 C12.2141655,59.6501234 31.9451449,78.9214621 48.4464414,67.3944849 C41.6201067,49.75146 33.2020402,30.2801698 22.8842693,9.67506386 C22.8842693,9.67506386 31.2481383,24.3945905 41.3303621,46.3854412 C46.0614853,31.06477 41.6999628,17.0404578 41.2483722,15.6659251 Z M35.2897308,36.4050639 C35.2897308,36.4050639 26.5305155,41.4632023 19.1283616,31.2235562 C19.1283616,31.1001869 25.5435616,38.8724485 35.2897308,36.4050639 Z" id="形状结合" fill="#FFFFFF" transform="translate(49.304011, 72.206145) rotate(-360.000000) translate(-49.304011, -72.206145) "></path>
                        </g>
                        <g id="编组-13备份-2" transform="translate(350.000000, 87.000000) scale(-1, 1) translate(-350.000000, -87.000000) translate(300.000000, 39.000000)">
                            <path d="M10.8798701,0.102272556 C16.8571634,0.436664614 23.8043586,4.52637826 31.7214554,12.3714135 C36.4626715,16.3224397 42.9189459,15.8471455 51.0902786,10.9455309 C58.916074,8.62577433 64.6291631,13.5717992 68.2295459,25.7836054 C68.1993026,33.3904279 72.1430645,34.9828905 80.0608318,30.5609934 C90.8353733,25.7371145 97.2425242,31.1193097 99.2822847,46.7075788 C98.6934361,62.2785456 94.1645931,74.2487839 85.6957556,82.6182937 L77.4079522,95.7321975 C49.2229296,96.3532655 33.4236949,95.1346958 30.0102479,92.0764887 C29.4340268,92.4378697 21.5977659,84.4680172 27.3912691,74.9619246 L27.5710233,74.673398 C27.5710233,74.673398 33.7202769,60.78308 19.2505144,58.3976711 C18.924509,57.9051128 3.52912577,58.6937568 4.27025914,45.0829265 L5.47672109,40.1840887 C6.94502216,38.2376477 13.7949612,28.1923639 5.51556656,20.0664375 C-2.82814448,9.02214583 -1.04004331,2.36742419 10.8798701,0.102272556 Z" id="路径" fill="#BC8AFF"></path>
                            <path d="M7.7513403,10.6084784 L6.46998191,9.55000495 C7.08861314,10.0077934 17.6072556,17.8208894 31.4820612,30.0401743 C30.138502,18.8379745 23.9067272,10.7041945 22.0440821,8.49116577 L21.561832,7.93699022 L21.8566113,8.25384959 C31.8026637,19.0649789 31.6565432,28.4371429 31.5424025,30.0941766 C39.0302255,36.6899566 47.4923059,44.5677088 55.901264,53.2632739 C60.2032599,40.3228574 54.1187528,25.5391412 52.4981694,21.9814381 L52.1302092,21.2025817 L52.4770021,21.8714471 C62.4619105,41.3870531 57.5876264,51.119219 56.0578173,53.4272789 C62.4987495,60.0940515 68.904588,67.2408255 74.8140578,74.6578088 C85.8938404,55.4259465 75.6120364,37.8559961 75.7378877,37.9040558 C86.5815245,57.5578511 77.7304948,71.2672905 74.9431525,74.8220476 C76.7118794,77.0438416 78.4349242,79.290749 80.1007307,81.5561737 L80.4420722,82.1146278 C82.5789043,85.6945504 80.3481919,83.8273516 77.9760433,81.1702827 L77.01834,79.9861446 C72.9608099,74.9887235 68.0645308,69.2027877 62.3294852,62.8304958 L62.2081359,63.2153234 C61.0499786,66.6694147 55.2105135,78.7647978 31.3990049,72.8603729 L31.4235862,72.8624455 C32.2601455,73.012676 54.1773163,78.6809072 62.2537509,62.7477941 C56.7578507,56.6426802 50.4927652,50.0018069 43.4591605,43.0017999 L43.3092309,43.330823 C41.5369584,47.0717591 34.6093927,56.8584096 12.8757732,48.1730761 L12.3135504,47.9438955 C14.7762325,48.9182704 35.153966,56.4662522 43.3368844,42.880947 C33.0989819,32.6980266 21.2372136,21.7592907 7.7513403,10.6084784 L7.7513403,10.6084784 Z M23.9360527,24.7925471 L23.7890637,24.9767174 C22.9340131,25.9947369 18.3694263,30.7275608 10.643234,26.2421482 C10.6036992,26.1533515 17.7118159,29.6917288 23.9360527,24.7925471 Z" id="形状" fill="#FFFFFF"></path>
                        </g>
                        <g id="编组-15备份-2" transform="translate(56.000000, 82.000000) scale(-1, 1) translate(-56.000000, -82.000000) translate(0.000000, 29.000000)">
                            <path d="M13.0171484,0.113316947 C19.6585855,0.48381993 27.3776912,5.01518086 36.1744655,13.7073998 C41.4424834,18.0850964 48.6161216,17.5584753 57.6953801,12.1275364 L58.1520548,11.8510883 C58.1520548,11.8510883 70.7383724,8.27213651 76.7390105,28.5679714 C76.7054068,36.9962529 81.0873645,38.7606852 89.8848837,33.8612684 C101.856596,28.5164599 108.975653,34.4798771 111.242054,51.7515201 C110.587777,69.0039921 105.55573,82.2668939 96.1459101,91.5402252 L86.7040262,106 L62.3407224,106 C45.401003,104.929678 36.0451369,103.602947 34.2731238,102.019809 C33.6328781,102.420215 24.9259216,93.5896999 31.3631474,83.0570465 C36.0513013,72.5837032 33.036207,66.4660286 22.3178644,64.7040228 C21.9556361,64.1582733 4.84965477,65.0320828 5.67313629,49.9514219 C6.49661781,34.8707611 20.3407224,41 7.05681121,22.2334077 C-3.90259102,10.035265 -1.91581194,2.66190137 13.0171484,0.113316947 Z" id="路径" fill="#BC8AFF" transform="translate(55.670361, 53.056658) scale(-1, 1) translate(-55.670361, -53.056658) "></path>
                            <path d="M102.255445,10.0700772 L100.415965,11.4547637 C96.4855824,14.4467575 86.625566,22.122187 74.4329182,32.8599898 C75.9862964,19.9066637 83.421919,10.6461526 85.1467588,8.64992529 L85.4608352,8.29459537 L85.1309269,8.64949409 C74.0782678,20.6610954 74.2383008,31.0749304 74.3651261,32.9194406 L72.5662531,34.511631 C64.7028898,41.5039424 55.9757675,49.6923335 47.2995515,58.6642818 C41.9328332,42.5212105 51.1140543,23.7957433 51.4893931,23.0414099 L51.1045383,23.7842143 C40.0093936,45.4697887 45.4268501,56.2833022 47.1262234,58.8468057 C39.969368,66.2536559 32.8516723,74.1946183 26.2855135,82.4358202 C13.9749071,61.0666681 25.3989436,41.5448247 25.2591099,41.598224 C13.2111405,63.4348391 23.0442598,78.6671801 26.141751,82.6177073 C24.1769947,85.0867473 22.26245,87.5833744 20.4115065,90.1005772 L20.0570302,90.6796213 C17.6408492,94.7131041 20.12744,92.634312 22.7722703,89.6718094 L24.3229725,87.7578491 C28.734464,82.3434636 34.012501,76.1218911 40.1571012,69.2945281 L40.2533049,69.605055 C41.4446744,73.2746905 47.7889087,87.0680806 74.5245352,80.4385763 C74.5680947,80.34074 49.3969902,87.2675305 40.2406933,69.2008174 C46.3480632,62.4189128 53.3085865,55.0408839 61.1228595,47.2638797 L61.2895491,47.6292853 C63.2597925,51.7840667 70.9568888,62.6588364 95.1059038,53.0082465 L95.7305958,52.7536014 C92.9942542,53.8362513 70.3518912,62.2230589 61.2599445,47.127638 C73.0021316,35.4492189 86.6673183,22.8748131 102.255445,10.0700772 Z M82.8167043,27.029881 L82.9867206,27.242473 C83.9536903,28.3900511 89.0218091,33.6127504 97.5865028,28.6405488 C97.6304304,28.5418859 89.732523,32.4734162 82.8167043,27.029881 Z" id="形状" fill="#FFFFFF"></path>
                        </g>
                    </g>
                </g>
                <g id="编组-4" transform="translate(78.000000, 37.000000)">
                    <path d="M15,0 L229,0 C237.284271,-1.52179594e-15 244,6.71572875 244,15 L244,283 L244,283 L0,283 L0,15 C-1.01453063e-15,6.71572875 6.71572875,1.52179594e-15 15,0 Z" id="矩形" fill="#3A3A3A"></path>
                    <circle id="椭圆形" fill="#FFFFFF" opacity="0.100000001" cx="123" cy="5" r="2"></circle>
                    <path d="M9.5,282.5 L234.5,282.5 L234.5,21.819426 C234.5,17.8308252 234.169866,16.1212535 233.22343,14.3515709 C232.398494,12.8090755 231.190924,11.6015057 229.648429,10.7765701 C227.878747,9.83013354 226.169175,9.5 222.180574,9.5 L21.819426,9.5 C17.8308252,9.5 16.1212535,9.83013354 14.3515709,10.7765701 C12.8090755,11.6015057 11.6015057,12.8090755 10.7765701,14.3515709 C9.83013354,16.1212535 9.5,17.8308252 9.5,21.819426 L9.5,282.5 Z" id="矩形" stroke="#F1F1F1" fill="#FFFFFF"></path>
                    <path d="M85.5,9 C85.7761424,9 86,9.22385763 86,9.5 L86,283 L86,283 L85,283 L85,9.5 C85,9.22385763 85.2238576,9 85.5,9 Z" id="矩形" fill="#F1F1F1"></path>
                    <path d="M85,9 L222.180574,9 C226.638168,9 228.254599,9.46412806 229.884229,10.3356635 C231.513858,11.207199 232.792801,12.4861419 233.664336,14.1157715 C234.535872,15.7454011 235,17.3618323 235,21.819426 L235,47 L235,47 L85,47 L85,9 Z" id="矩形" fill="#F1F1F1"></path>
                    <circle id="椭圆形" fill="#FF8E00" opacity="0.600000024" cx="95" cy="37" r="5"></circle>
                    <path d="M225,32 C226.104569,32 227,32.8954305 227,34 L227,40 C227,41.1045695 226.104569,42 225,42 L219,42 C217.895431,42 217,41.1045695 217,40 L217,34 C217,32.8954305 217.895431,32 219,32 L225,32 Z M209,32 C210.104569,32 211,32.8954305 211,34 L211,40 C211,41.1045695 210.104569,42 209,42 L203,42 C201.895431,42 201,41.1045695 201,40 L201,34 C201,32.8954305 201.895431,32 203,32 L209,32 Z M193,32 C194.104569,32 195,32.8954305 195,34 L195,40 C195,41.1045695 194.104569,42 193,42 L187,42 C185.895431,42 185,41.1045695 185,40 L185,34 C185,32.8954305 185.895431,32 187,32 L193,32 Z M177,32 C178.104569,32 179,32.8954305 179,34 L179,40 C179,41.1045695 178.104569,42 177,42 L171,42 C169.895431,42 169,41.1045695 169,40 L169,34 C169,32.8954305 169.895431,32 171,32 L177,32 Z" id="形状结合" fill="#FF8E00" opacity="0.600000024"></path>
                    <rect id="矩形" fill="#007CFF" opacity="0.200000003" x="100" y="72" width="51" height="10"></rect>
                    <rect id="矩形备份-22" fill="#000000" opacity="0.100000001" x="100" y="108" width="92" height="8"></rect>
                    <rect id="矩形备份-21" fill="#000000" opacity="0.100000001" x="100" y="92" width="117" height="8"></rect>
                    <rect id="矩形备份-30" fill="#000000" opacity="0.100000001" x="15" y="72" width="55" height="8"></rect>
                    <rect id="矩形备份-31" fill="#000000" opacity="0.100000001" x="15" y="88" width="48" height="8"></rect>
                    <rect id="矩形备份-32" fill="#000000" opacity="0.100000001" x="15" y="104" width="55" height="8"></rect>
                    <rect id="矩形备份-33" fill="#000000" opacity="0.100000001" x="15" y="120" width="40" height="8"></rect>
                    <rect id="矩形备份-23" fill="#007CFF" opacity="0.200000003" x="100" y="132" width="66" height="10"></rect>
                    <path d="M105,160 L105,155.202593 L103.125,155.202593 L103.125,154.683955 C103.125,153.095624 103.75,152.133982 105,151.799028 L105,151.799028 L105,150 C101.666667,150.280929 100,152.404106 100,156.36953 L100,156.36953 L100,160 L105,160 Z M112,160 L112,155.202593 L110.125,155.202593 L110.125,154.683955 C110.125,153.095624 110.75,152.133982 112,151.799028 L112,151.799028 L112,150 C108.666667,150.280929 107,152.404106 107,156.36953 L107,156.36953 L107,160 L112,160 Z" id="“" fill="#EDDCFF"></path>
                    <path d="M206,193 L206,188.202593 L204.125,188.202593 L204.125,187.683955 C204.125,186.095624 204.75,185.133982 206,184.799028 L206,184.799028 L206,183 C202.666667,183.280929 201,185.404106 201,189.36953 L201,189.36953 L201,193 L206,193 Z M213,193 L213,188.202593 L211.125,188.202593 L211.125,187.683955 C211.125,186.095624 211.75,185.133982 213,184.799028 L213,184.799028 L213,183 C209.666667,183.280929 208,185.404106 208,189.36953 L208,189.36953 L208,193 L213,193 Z" id="“备份" fill="#EDDCFF" transform="translate(207.000000, 188.000000) scale(-1, -1) translate(-207.000000, -188.000000) "></path>
                    <polygon id="矩形备份-25" fill="#000000" opacity="0.100000001" points="122.357143 152 220 152 217.142857 160 119.5 160"></polygon>
                    <polygon id="矩形备份-24" fill="#000000" opacity="0.100000001" points="102.857143 168 220 168 217.142857 176 100 176"></polygon>
                    <polygon id="矩形备份-27" fill="#000000" opacity="0.100000001" points="102.84507 184 192.84507 184 190 192 100 192"></polygon>
                    <rect id="矩形备份-26" fill="#007CFF" opacity="0.200000003" x="100" y="208" width="59" height="10"></rect>
                    <rect id="矩形备份-29" fill="#000000" opacity="0.100000001" x="113" y="228" width="104" height="8"></rect>
                    <rect id="矩形备份-28" fill="#000000" opacity="0.100000001" x="113" y="244" width="69" height="8"></rect>
                    <rect id="矩形备份-34" fill="#000000" opacity="0.100000001" x="113" y="260" width="69" height="8"></rect>
                    <path d="M18.2558594,42 L18.2558594,38.5488281 L21.8007812,38.5488281 L21.8007812,37.3183594 L18.2558594,37.3183594 L18.2558594,34.8222656 L22.1347656,34.8222656 L22.1347656,33.5449219 L16.7441406,33.5449219 L16.7441406,42 L18.2558594,42 Z M24.2577031,34.8515625 C24.7030156,34.8515625 25.0545781,34.4941406 25.0545781,34.0605469 C25.0545781,33.6210938 24.7030156,33.2695312 24.2577031,33.2695312 C23.8123906,33.2695312 23.4549687,33.6210938 23.4549687,34.0605469 C23.4549687,34.4941406 23.8123906,34.8515625 24.2577031,34.8515625 Z M24.990125,42 L24.990125,35.7890625 L23.5311406,35.7890625 L23.5311406,42 L24.990125,42 Z M28.1267344,42 L28.1267344,33.5449219 L26.66775,33.5449219 L26.66775,42 L28.1267344,42 Z M32.5113906,42.1230469 C33.9820938,42.1230469 35.0719375,41.3144531 35.2594375,40.1425781 L33.8942031,40.1425781 C33.736,40.6582031 33.220375,40.9980469 32.5406875,40.9980469 C31.5856094,40.9980469 30.9762344,40.3300781 30.9762344,39.3339844 L30.9762344,39.2460938 L35.3180313,39.2460938 L35.3180313,38.7714844 C35.3180313,36.8847656 34.2164688,35.6601562 32.4527969,35.6601562 C30.6598281,35.6601562 29.5231094,36.9550781 29.5231094,38.9179688 C29.5231094,40.8984375 30.6481094,42.1230469 32.5113906,42.1230469 Z M33.8883438,38.2851562 L30.9879531,38.2851562 C31.0465469,37.4179688 31.6383438,36.7910156 32.4586563,36.7910156 C33.2965469,36.7910156 33.8590469,37.40625 33.8883438,38.2851562 Z M39.0991719,42.1230469 C40.6226094,42.1230469 41.7007344,41.3320312 41.7007344,40.1601562 C41.7007344,39.2578125 41.2026875,38.7597656 39.913625,38.4726562 L38.882375,38.2441406 C38.2319844,38.0976562 37.9741719,37.8515625 37.9741719,37.4941406 C37.9741719,37.0371094 38.4019062,36.7324219 39.0464375,36.7324219 C39.7202656,36.7324219 40.1362812,37.0898438 40.194875,37.6523438 L41.55425,37.6523438 C41.5190937,36.4746094 40.5581562,35.6601562 39.0464375,35.6601562 C37.5464375,35.6601562 36.5562031,36.4335938 36.5562031,37.5703125 C36.5562031,38.4902344 37.1538594,39.0761719 38.3433125,39.3398438 L39.3745625,39.5683594 C40.0249531,39.7148438 40.2476094,39.9257812 40.2476094,40.3007812 C40.2476094,40.7636719 39.8081562,41.0566406 39.0991719,41.0566406 C38.3608906,41.0566406 37.944875,40.7519531 37.8335469,40.1484375 L36.398,40.1484375 C36.5151875,41.3496094 37.476125,42.1230469 39.0991719,42.1230469 Z" id="Files" fill="#000000" fill-rule="nonzero" opacity="0.600000024"></path>
                    <path d="M102,261 C103.656854,261 105,262.343146 105,264 C105,265.656854 103.656854,267 102,267 C100.343146,267 99,265.656854 99,264 C99,262.343146 100.343146,261 102,261 Z M102,245 C103.656854,245 105,246.343146 105,248 C105,249.656854 103.656854,251 102,251 C100.343146,251 99,249.656854 99,248 C99,246.343146 100.343146,245 102,245 Z M102,229 C103.656854,229 105,230.343146 105,232 C105,233.656854 103.656854,235 102,235 C100.343146,235 99,233.656854 99,232 C99,230.343146 100.343146,229 102,229 Z" id="形状结合" fill="#C5F6E3"></path>
                </g>
                <g id="编组-5备份-2" transform="translate(23.000000, 133.000000)">
                    <path d="M66.05,19.775487 C63.95,17.075487 64.4,14.525487 67.4,12.125487 C71.9,8.52548699 75.5,9.87548699 74.6,4.92548699 C73.7,-0.0245130135 65.15,-2.27451301 58.4,3.12548699 C51.65,8.52548699 50.75,14.375487 49.4,22.475487 C48.05,30.575487 40.6812666,34.4285207 37.7,50.825487 C35.9,60.725487 23.75,63.425487 26,74.675487 C28.25,85.925487 35.45,88.175487 46.25,88.175487 C53.45,88.175487 57.5,77.675487 58.4,56.675487 L67.85,25.175487 L66.05,19.775487 Z" id="路径-31" fill="#000000"></path>
                    <path d="M71.9,20.225487 C71.6,22.325487 71.9,23.675487 72.8,24.275487 C74.15,25.175487 76.4,26.075487 76.4,26.075487 C76.4,26.075487 75.2,28.025487 72.8,31.925487 L59.75,30.125487 C64.25,28.325487 67.3770848,25.9061013 65.6,21.125487 L71.9,20.225487 Z" id="路径-33" fill="#FFB7B7"></path>
                    <path d="M93.9206578,96.4134441 L93.95,96.275487 C93.05,100.775487 92.6,101.225487 87.2,103.475487 C82.286,105.522987 54.2123608,107.508902 48.05,107.525487 C36.5,108.5 35.4952301,105.285343 35,105 C37.25,99.6 44.1733376,99.1475029 50.3,99.875487 C64.185523,101.417674 72.7958446,101.457704 76.130965,99.9955768 L76.4,99.875487 C79.5341637,98.4508671 85.3743829,97.2968529 93.9206578,96.4134441 Z" id="路径" fill="#103458"></path>
                    <path d="M72.9549669,8.97548699 C73.5033113,12.622506 74.0516556,14.722506 74.6,15.275487 C74.3258278,15.5519775 74.0516556,15.8021465 73.7774834,16.0259942 L73.7774834,20.1733513 C73.4501313,20.6970488 72.4905286,21.1117845 70.8986755,21.4175585 C69.3068224,21.7233324 67.5405972,21.6259753 65.6,21.125487 C61.7615894,15.0426965 64.213245,10.9926965 72.9549669,8.97548699 Z" id="路径-32" fill="#FFC3C3"></path>
                    <circle id="椭圆形" fill="#FF8585" cx="67.4" cy="16.175487" r="1"></circle>
                    <path d="M34.5,55 C31.4333333,60.967316 28.75,63.6258116 26.45,62.975487 C23,62 25.5,58 27.8,58.475487 C29.1110372,58.7465223 30,58.5 32,57 C33.0477749,56.2141688 33.8811082,55.5475022 34.5,55 Z" id="路径-35" fill="#000000"></path>
                    <path d="M85.5,87 C99.8333333,117.149675 106.733333,135.149675 106.2,141 C105.5,147.724513 104.5,147.224513 101.7,147.75 C99.45,149.1 58.4,145.2 39.5,133.5 C26.9,125.7 29.2333333,125.033333 46.5,131.5 L50.5,133.5 C69.3333333,132.2 80.4,132.15 83.7,133.35 C87,134.55 80.85,122.55 65.25,97.35 L69.3,88.35 L85.5,87 Z" id="路径-30" fill="#FBBFBF"></path>
                    <path d="M76.5,90 C74.8333333,99 73.2909918,105.068216 71.8729755,108.204649 C71.1635033,106.974837 70.4505967,105.743407 70,105 L76.5,90 Z" id="路径" fill="#DD9090"></path>
                    <path d="M42.299365,128.665943 L42.3,136.5 L41.1930975,136.500225 C38.9597407,135.518869 36.9083433,134.469451 35.1,133.35 C23.6277116,126.248107 26.0275,124.686755 42.299365,128.665943 Z" id="形状结合" fill="#2B1800"></path>
                    <path d="M78.5,88.224513 C64.3041667,118.608171 56.15625,134.25 54.05625,135.15 C51.3978349,136.289321 22.5,161 10.5,170.5 C8.49105518,172.090415 7.74783488,174.3 7.25625,174.3 C5.15625,174.3 4.40416667,173.033333 5,170.5 C13.6666667,157.9 19.5,150.4 22.5,148 C25.5,145.6 30.76875,140.416667 38.30625,132.45 C46.96875,106.95 51.3,93.3 51.3,91.5 C51.3,89.7 60.3666667,88.608171 78.5,88.224513 Z" id="路径-36" fill="#FFC3C3"></path>
                    <path d="M85.2495599,73.5695513 L85.4,73.775487 C88.0602941,77.3225458 94.6523465,91.3542932 93.9847799,96.0706004 L93.95,96.275487 L93.9206578,96.4134441 C85.5601715,97.2776483 83,100 76,102 C69,104 66.5,100.5 53.5,104 C40.5,107.5 36.8605901,107.422862 33,105 C29.1394099,102.577138 23.2477138,95.1425086 35,90 C47.2350877,84.3713773 53.8350877,80.0132063 54.8,76.925487 L53.9475309,76.3952401 C51.4912865,74.8505915 49.4007276,73.3854398 47.6758541,71.999785 C64.8923645,69.9998569 75.5000779,68.1666342 79.5,66.5 C80.2592532,66.1836445 80.8559753,65.7467995 81.3191423,65.2168182 C82.4196548,68.3128054 83.8831403,71.6512368 85.2495599,73.5695513 Z" id="形状结合" fill="#215387"></path>
                    <path d="M76.4,26.075487 C81.35,28.325487 88.55,35.075487 90.8,36.425487 C93.05,37.775487 109.7,32.375487 114.65,26.975487 L115.298595,27.8205241 C116.918768,29.8787675 117.722857,30.2026298 116.45,31.475487 L114.158245,34.3525913 C109.793216,39.859438 107.28206,43.2034323 106.624777,44.3845744 L106.55,44.525487 C105.65,46.325487 96.2,56.675487 81.35,49.925487 C81.35,53.975487 85.5,64 79.5,66.5 C75.5,68.1666667 64.8919514,69.9999283 47.6758541,71.999785 C44.3970498,69.3657997 42.4396148,67.0190687 41.8035494,64.9595919 L41.5667639,64.1276817 L40.8288588,61.6865048 C39.7632442,58.034764 39.2216249,54.3744986 43.1,47.675487 C48.2,39.275487 53.75,33.425487 59.75,30.125487 C68.45,30.725487 74,29.375487 76.4,26.075487 Z" id="路径" fill="#F48D00"></path>
                    <path d="M61.55,49.925487 L59.3,54.335487 L57.5,55.055487 L61.55,49.925487 Z M80.9,45.425487 C81.8025369,47.9635707 87.7533515,50.8898901 89.9,52.175487 C87.65,52.175487 82.7,50.825487 81.35,49.925487 L80.9,45.425487 Z" id="形状结合" fill="#D07900"></path>
                    <g id="编组-16" transform="translate(62.392978, 63.335664) rotate(-20.000000) translate(-62.392978, -63.335664) translate(40.392978, 53.835664)">
                        <rect id="矩形" fill="#D0D0D0" x="0" y="0" width="43.2" height="18.9" rx="0.9"></rect>
                        <rect id="矩形" fill="#FFFFFF" x="12.6" y="15.3" width="18" height="2.7" rx="0.45"></rect>
                        <rect id="矩形备份-38" fill="#FFFFFF" x="8.1" y="15.3" width="3.6" height="2.7" rx="0.45"></rect>
                        <rect id="矩形备份-40" fill="#FFFFFF" x="31.5" y="15.3" width="3.6" height="2.7" rx="0.45"></rect>
                        <rect id="矩形备份-39" fill="#FFFFFF" x="0.9" y="15.3" width="2.7" height="2.7" rx="0.45"></rect>
                        <rect id="矩形备份-66" fill="#FFFFFF" x="4.5" y="15.3" width="2.7" height="2.7" rx="0.45"></rect>
                        <rect id="矩形备份-41" fill="#FFFFFF" x="39.6" y="15.3" width="2.7" height="2.7" rx="0.45"></rect>
                        <rect id="矩形备份-65" fill="#FFFFFF" x="36" y="15.3" width="2.7" height="2.7" rx="0.45"></rect>
                        <rect id="矩形备份-35" fill="#FFFFFF" x="0.9" y="11.7" width="6.3" height="2.7" rx="0.45"></rect>
                        <rect id="矩形备份-42" fill="#FFFFFF" x="36.9" y="11.7" width="5.4" height="2.7" rx="0.45"></rect>
                        <rect id="矩形备份-36" fill="#FFFFFF" x="0.9" y="8.1" width="4.5" height="2.7" rx="0.45"></rect>
                        <rect id="矩形备份-48" fill="#FFFFFF" x="38.7" y="8.1" width="3.6" height="2.7" rx="0.45"></rect>
                        <rect id="矩形备份-37" fill="#FFFFFF" x="11.7" y="11.7" width="2.7" height="2.7" rx="0.45"></rect>
                        <rect id="矩形备份-49" fill="#FFFFFF" x="9.9" y="8.1" width="2.7" height="2.7" rx="0.45"></rect>
                        <rect id="矩形备份-56" fill="#FFFFFF" x="4.5" y="4.5" width="2.7" height="2.7" rx="0.45"></rect>
                        <rect id="矩形备份-73" fill="#FFFFFF" x="36" y="0.9" width="2.7" height="2.7" rx="0.45"></rect>
                        <rect id="矩形备份-74" fill="#FFFFFF" x="28.8" y="0.9" width="2.7" height="2.7" rx="0.45"></rect>
                        <rect id="矩形备份-75" fill="#FFFFFF" x="39.6" y="0.9" width="2.7" height="2.7" rx="0.45"></rect>
                        <rect id="矩形备份-76" fill="#FFFFFF" x="32.4" y="0.9" width="2.7" height="2.7" rx="0.45"></rect>
                        <rect id="矩形备份-77" fill="#FFFFFF" x="21.6" y="0.9" width="2.7" height="2.7" rx="0.45"></rect>
                        <rect id="矩形备份-78" fill="#FFFFFF" x="25.2" y="0.9" width="2.7" height="2.7" rx="0.45"></rect>
                        <rect id="矩形备份-79" fill="#FFFFFF" x="14.4" y="0.9" width="2.7" height="2.7" rx="0.45"></rect>
                        <rect id="矩形备份-80" fill="#FFFFFF" x="18" y="0.9" width="2.7" height="2.7" rx="0.45"></rect>
                        <rect id="矩形备份-81" fill="#FFFFFF" x="7.2" y="0.9" width="2.7" height="2.7" rx="0.45"></rect>
                        <rect id="矩形备份-82" fill="#FFFFFF" x="10.8" y="0.9" width="2.7" height="2.7" rx="0.45"></rect>
                        <rect id="矩形备份-83" fill="#FFFFFF" x="0.9" y="0.9" width="5.4" height="2.7" rx="0.45"></rect>
                        <rect id="矩形备份-58" fill="#FFFFFF" x="11.7" y="4.5" width="2.7" height="2.7" rx="0.45"></rect>
                        <rect id="矩形备份-47" fill="#FFFFFF" x="8.1" y="11.7" width="2.7" height="2.7" rx="0.45"></rect>
                        <rect id="矩形备份-50" fill="#FFFFFF" x="6.3" y="8.1" width="2.7" height="2.7" rx="0.45"></rect>
                        <rect id="矩形备份-57" fill="#FFFFFF" x="0.9" y="4.5" width="2.7" height="2.7" rx="0.45"></rect>
                        <rect id="矩形备份-59" fill="#FFFFFF" x="8.1" y="4.5" width="2.7" height="2.7" rx="0.45"></rect>
                        <rect id="矩形备份-61" fill="#FFFFFF" x="18.9" y="4.5" width="2.7" height="2.7" rx="0.45"></rect>
                        <rect id="矩形备份-60" fill="#FFFFFF" x="15.3" y="4.5" width="2.7" height="2.7" rx="0.45"></rect>
                        <rect id="矩形备份-63" fill="#FFFFFF" x="26.1" y="4.5" width="2.7" height="2.7" rx="0.45"></rect>
                        <rect id="矩形备份-62" fill="#FFFFFF" x="22.5" y="4.5" width="2.7" height="2.7" rx="0.45"></rect>
                        <rect id="矩形备份-72" fill="#FFFFFF" x="33.3" y="4.5" width="2.7" height="2.7" rx="0.45"></rect>
                        <rect id="矩形备份-71" fill="#FFFFFF" x="29.7" y="4.5" width="2.7" height="2.7" rx="0.45"></rect>
                        <rect id="矩形备份-43" fill="#FFFFFF" x="15.3" y="11.7" width="2.7" height="2.7" rx="0.45"></rect>
                        <rect id="矩形备份-51" fill="#FFFFFF" x="13.5" y="8.1" width="2.7" height="2.7" rx="0.45"></rect>
                        <rect id="矩形备份-44" fill="#FFFFFF" x="18.9" y="11.7" width="2.7" height="2.7" rx="0.45"></rect>
                        <rect id="矩形备份-52" fill="#FFFFFF" x="17.1" y="8.1" width="2.7" height="2.7" rx="0.45"></rect>
                        <rect id="矩形备份-45" fill="#FFFFFF" x="22.5" y="11.7" width="2.7" height="2.7" rx="0.45"></rect>
                        <rect id="矩形备份-53" fill="#FFFFFF" x="20.7" y="8.1" width="2.7" height="2.7" rx="0.45"></rect>
                        <rect id="矩形备份-46" fill="#FFFFFF" x="26.1" y="11.7" width="2.7" height="2.7" rx="0.45"></rect>
                        <rect id="矩形备份-67" fill="#FFFFFF" x="29.7" y="11.7" width="2.7" height="2.7" rx="0.45"></rect>
                        <rect id="矩形备份-68" fill="#FFFFFF" x="33.3" y="11.7" width="2.7" height="2.7" rx="0.45"></rect>
                        <rect id="矩形备份-54" fill="#FFFFFF" x="24.3" y="8.1" width="2.7" height="2.7" rx="0.45"></rect>
                        <rect id="矩形备份-55" fill="#FFFFFF" x="27.9" y="8.1" width="2.7" height="2.7" rx="0.45"></rect>
                        <rect id="矩形备份-69" fill="#FFFFFF" x="31.5" y="8.1" width="2.7" height="2.7" rx="0.45"></rect>
                        <rect id="矩形备份-70" fill="#FFFFFF" x="35.1" y="8.1" width="2.7" height="2.7" rx="0.45"></rect>
                        <rect id="矩形备份-64" fill="#FFFFFF" x="36.9" y="4.5" width="5.4" height="2.7" rx="0.45"></rect>
                    </g>
                    <path d="M56.15,57.125487 L56.1584867,57.2656405 C56.3073319,58.8806653 58.3851893,70.2415203 60.1031563,71.8925341 L60.2,71.975487 C61.3868918,72.8656558 59.2476579,75.1254058 57.2656081,76.3035189 L54.1394216,76.5271787 L53.2843236,76.014878 C49.7883809,73.8880288 42.221878,67.5971348 40.5,60.5 L57.6133247,54.8749133 L57.2892666,55.2915889 C56.5297555,56.2826438 56.15,56.8939432 56.15,57.125487 Z" id="路径" fill="#F48D00"></path>
                    <path d="M7.57167329,165.6 C7.17162431,170.5 7.42159982,173.4 8.32159982,174.3 C8.62152635,177.6 2.92159982,187.8 0.221599818,186.9 C-1.12840018,180.6 4.26060323,175.952992 1.12159982,170.25 C0.850316876,169.757129 1.14043768,166.762471 1.27167329,166.5 C1.87167329,165.3 3.97167329,165 7.57167329,165.6 Z" id="路径-37" fill="#2B1800"></path>
                    <line x1="71.45" y1="12.125487" x2="71.45" y2="13.025487" id="路径-38" stroke="#000000" stroke-width="0.5" stroke-linecap="round"></line>
                    <path d="M73.7,17.525487 C73.1,17.825487 72.5,17.975487 71.9,17.975487" id="路径-39" stroke="#000000" stroke-width="0.5" stroke-linecap="round"></path>
                    <path d="M114.65,26.975487 C115.85,25.775487 116.45,24.875487 116.45,24.275487 C116.45,23.675487 116.45,23.075487 116.45,22.475487 C116.75,22.175487 117.05,22.175487 117.35,22.475487 C117.8,22.925487 117.8,24.725487 118.25,24.725487 C118.7,24.725487 120.5,23.825487 121.4,22.475487 C122.3,21.125487 124.1,20.225487 123.65,23.825487 C123.05,26.825487 120.8,29.075487 116.9,30.575487 L114.65,26.975487 Z" id="路径-40" fill="#FFBBBB"></path>
                    <path d="M117.395,26.075487 C117.995,26.975487 117.845,27.725487 116.945,28.325487" id="路径-41" stroke="#000000" stroke-width="0.5" stroke-linecap="round"></path>
                    <path d="M122.75,22.025487 C121.85,23.525487 121.1,24.425487 120.5,24.725487" id="路径-42" stroke="#000000" stroke-width="0.5" stroke-linecap="round"></path>
                    <path d="M122.3,24.275487 C121.7,25.175487 121.1,25.775487 120.5,26.075487" id="路径-42备份" stroke="#000000" stroke-width="0.5" stroke-linecap="round"></path>
                    <path d="M52.55,75.575487 C56.2712706,75.4907691 59.5159724,74.952263 60.2,71.975487 C62,74.375487 61.7,76.025487 59.3,76.925487 C57.2,77.825487 54.95,77.375487 52.55,75.575487 Z" id="路径-43" fill="#FFBBBB"></path>
                    <path d="M60.2,71.975487 C60.5,71.975487 60.95,72.125487 61.55,72.425487 C61.85,73.025487 61.7,73.475487 61.1,73.775487 L60.2,71.975487 Z" id="路径-44" fill="#FFBBBB"></path>
                    <path d="M76.4,26.075487 C77.1098626,26.3981518 77.8659975,26.8133612 78.6471703,27.2919178 C77.8653724,28.6984182 77.3,30.125487 73.7,29.675487 C70.1,29.225487 69.2741989,31.4925097 68.3,31.925487 C64.25,33.725487 60.9288808,32.7180654 57.95,31.025487 C58.4187635,30.7314716 59.3,30.125487 59.75,30.125487 C68.45,30.725487 74,29.375487 76.4,26.075487 Z" id="路径" fill="#FFFAFB"></path>
                </g>
            </g>
        </g>
    </g>
</svg>