<?xml version="1.0" encoding="UTF-8"?>
<svg width="382px" height="399px" viewBox="0 0 382 399" version="1.1" xmlns="http://www.w3.org/2000/svg" xmlns:xlink="http://www.w3.org/1999/xlink">
    <!-- Generator: Sketch 60.1 (88133) - https://sketch.com -->
    <title>actions</title>
    <desc>Created with Sketch.</desc>
    <defs>
        <path d="M20.3059708,9.93282755e-16 L227.854029,1.72721966e-15 C234.914858,-1.00356436e-15 237.475285,0.73517884 240.056618,2.11569101 C242.637951,3.49620319 244.663797,5.52204869 246.044309,8.10338203 C247.424821,10.6847154 248.16,13.2451424 248.16,20.3059708 L248.16,58.8940292 C248.16,65.9548576 247.424821,68.5152846 246.044309,71.096618 C244.663797,73.6779513 242.637951,75.7037968 240.056618,77.084309 C237.475285,78.4648212 234.914858,79.2 227.854029,79.2 L20.3059708,79.2 C13.2451424,79.2 10.6847154,78.4648212 8.10338203,77.084309 C5.52204869,75.7037968 3.49620319,73.6779513 2.11569101,71.096618 C0.73517884,68.5152846 -1.69125381e-15,65.9548576 2.91079172e-15,58.8940292 L2.36059196e-15,20.3059708 C-1.37157191e-15,13.2451424 0.73517884,10.6847154 2.11569101,8.10338203 C3.49620319,5.52204869 5.52204869,3.49620319 8.10338203,2.11569101 C10.6847154,0.73517884 13.2451424,-5.77125885e-16 20.3059708,9.93282755e-16 Z" id="path-1"></path>
        <filter x="-10.1%" y="-25.3%" width="120.1%" height="163.1%" filterUnits="objectBoundingBox" id="filter-2">
            <feOffset dx="0" dy="5" in="SourceAlpha" result="shadowOffsetOuter1"></feOffset>
            <feGaussianBlur stdDeviation="7.5" in="shadowOffsetOuter1" result="shadowBlurOuter1"></feGaussianBlur>
            <feColorMatrix values="0 0 0 0 0   0 0 0 0 0   0 0 0 0 0  0 0 0 0.1 0" type="matrix" in="shadowBlurOuter1"></feColorMatrix>
        </filter>
        <path d="M20.3059708,-8.20385524e-16 L227.854029,8.75354327e-15 C234.914858,-5.08606072e-15 237.475285,0.73517884 240.056618,2.11569101 C242.637951,3.49620319 244.663797,5.52204869 246.044309,8.10338203 C247.424821,10.6847154 248.16,13.2451424 248.16,20.3059708 L248.16,66.8140292 C248.16,73.8748576 247.424821,76.4352846 246.044309,79.016618 C244.663797,81.5979513 242.637951,83.6237968 240.056618,85.004309 C237.475285,86.3848212 234.914858,87.12 227.854029,87.12 L20.3059708,87.12 C13.2451424,87.12 10.6847154,86.3848212 8.10338203,85.004309 C5.52204869,83.6237968 3.49620319,81.5979513 2.11569101,79.016618 C0.73517884,76.4352846 -2.31670534e-15,73.8748576 3.98724701e-15,66.8140292 L-1.43636575e-15,20.3059708 C8.34569867e-16,13.2451424 0.73517884,10.6847154 2.11569101,8.10338203 C3.49620319,5.52204869 5.52204869,3.49620319 8.10338203,2.11569101 C10.6847154,0.73517884 13.2451424,4.76667615e-16 20.3059708,-8.20385524e-16 Z" id="path-3"></path>
        <filter x="-10.1%" y="-23.0%" width="120.1%" height="157.4%" filterUnits="objectBoundingBox" id="filter-4">
            <feOffset dx="0" dy="5" in="SourceAlpha" result="shadowOffsetOuter1"></feOffset>
            <feGaussianBlur stdDeviation="7.5" in="shadowOffsetOuter1" result="shadowBlurOuter1"></feGaussianBlur>
            <feColorMatrix values="0 0 0 0 0   0 0 0 0 0   0 0 0 0 0  0 0 0 0.1 0" type="matrix" in="shadowBlurOuter1"></feColorMatrix>
        </filter>
        <path d="M20.3059708,-8.20385524e-16 L227.854029,8.75354327e-15 C234.914858,-5.08606072e-15 237.475285,0.73517884 240.056618,2.11569101 C242.637951,3.49620319 244.663797,5.52204869 246.044309,8.10338203 C247.424821,10.6847154 248.16,13.2451424 248.16,20.3059708 L248.16,66.8140292 C248.16,73.8748576 247.424821,76.4352846 246.044309,79.016618 C244.663797,81.5979513 242.637951,83.6237968 240.056618,85.004309 C237.475285,86.3848212 234.914858,87.12 227.854029,87.12 L20.3059708,87.12 C13.2451424,87.12 10.6847154,86.3848212 8.10338203,85.004309 C5.52204869,83.6237968 3.49620319,81.5979513 2.11569101,79.016618 C0.73517884,76.4352846 -2.31670534e-15,73.8748576 3.98724701e-15,66.8140292 L-1.43636575e-15,20.3059708 C8.34569867e-16,13.2451424 0.73517884,10.6847154 2.11569101,8.10338203 C3.49620319,5.52204869 5.52204869,3.49620319 8.10338203,2.11569101 C10.6847154,0.73517884 13.2451424,4.76667615e-16 20.3059708,-8.20385524e-16 Z" id="path-5"></path>
        <filter x="-10.1%" y="-23.0%" width="120.1%" height="157.4%" filterUnits="objectBoundingBox" id="filter-6">
            <feOffset dx="0" dy="5" in="SourceAlpha" result="shadowOffsetOuter1"></feOffset>
            <feGaussianBlur stdDeviation="7.5" in="shadowOffsetOuter1" result="shadowBlurOuter1"></feGaussianBlur>
            <feColorMatrix values="0 0 0 0 0   0 0 0 0 0   0 0 0 0 0  0 0 0 0.1 0" type="matrix" in="shadowBlurOuter1"></feColorMatrix>
        </filter>
        <path d="M10.1529854,-1.77044397e-15 L121.847015,4.37677163e-15 C125.377429,-2.54303036e-15 126.657642,0.36758942 127.948309,1.05784551 C129.238976,1.74810159 130.251898,2.76102435 130.942154,4.05169101 C131.632411,5.34235768 132,6.62257118 132,10.1529854 L132,29.4470146 C132,32.9774288 131.632411,34.2576423 130.942154,35.548309 C130.251898,36.8389757 129.238976,37.8518984 127.948309,38.5421545 C126.657642,39.2324106 125.377429,39.6 121.847015,39.6 L10.1529854,39.6 C6.62257118,39.6 5.34235768,39.2324106 4.05169101,38.5421545 C2.76102435,37.8518984 1.74810159,36.8389757 1.05784551,35.548309 C0.36758942,34.2576423 4.2233758e-16,32.9774288 -7.26878911e-16,29.4470146 L-1.79955228e-16,10.1529854 C1.0455917e-16,6.62257118 0.36758942,5.34235768 1.05784551,4.05169101 C1.74810159,2.76102435 2.76102435,1.74810159 4.05169101,1.05784551 C5.34235768,0.36758942 6.62257118,1.02867893e-15 10.1529854,-1.77044397e-15 Z" id="path-7"></path>
        <filter x="-18.9%" y="-50.5%" width="137.9%" height="226.3%" filterUnits="objectBoundingBox" id="filter-8">
            <feOffset dx="0" dy="5" in="SourceAlpha" result="shadowOffsetOuter1"></feOffset>
            <feGaussianBlur stdDeviation="7.5" in="shadowOffsetOuter1" result="shadowBlurOuter1"></feGaussianBlur>
            <feColorMatrix values="0 0 0 0 0.595145195   0 0 0 0 0.61353336   0 0 0 0 0.746688179  0 0 0 0.3 0" type="matrix" in="shadowBlurOuter1"></feColorMatrix>
        </filter>
    </defs>
    <g id="页面-1" stroke="none" stroke-width="1" fill="none" fill-rule="evenodd">
        <g id="桌面端-HD" transform="translate(-887.000000, -2010.000000)">
            <g id="actions" transform="translate(890.000000, 2020.000000)">
                <g id="编组-5" transform="translate(250.800000, 123.973395)">
                    <path d="M84.8411547,19.9066048 C22.8011547,19.9066048 -32.6388453,62.8066048 22.8011547,124.186605" id="路径-2备份" stroke="#998B77" stroke-width="5.28" stroke-linecap="round" stroke-linejoin="round" stroke-dasharray="6.6,11.87999954223633" transform="translate(42.420577, 72.046605) scale(-1, 1) translate(-42.420577, -72.046605) "></path>
                    <path d="M11.5987667,145.906514 C20.2590334,154.566781 53.3558332,135.511048 85.5225381,103.344343 C106.967008,81.8998729 121.154398,57.2586158 128.084709,29.4205715 C127.638084,27.6498274 127.206745,26.8189703 126.79069,26.928 C126.514116,27.0004781 125.654766,30.0458294 125.378829,30.1197551 C98.6472939,37.2813549 74.9079969,51.2356841 54.1609381,71.9827429 C21.9942332,104.149448 2.93850004,137.246248 11.5987667,145.906514 Z" id="椭圆形" fill="#7341B3"></path>
                    <path d="M10.5427667,143.250971 C19.2030334,151.911238 52.2998332,132.855505 84.4665381,100.6888 C105.911008,79.2443301 120.098398,54.603073 127.028709,26.7650286 C99.1906651,33.6953397 74.549408,47.8827301 53.1049381,69.3272 C20.9382332,101.493905 1.88250004,134.590705 10.5427667,143.250971 Z" id="椭圆形" fill="#935ED9"></path>
                    <line x1="59.766719" y1="32.5305619" x2="59.766719" y2="156.610562" id="路径" stroke="#FFFFFF" stroke-width="2.112" opacity="0.300000012" stroke-linecap="round" transform="translate(59.766719, 94.570562) rotate(-315.000000) translate(-59.766719, -94.570562) "></line>
                    <path d="M58.6056586,168.998076 C70.8531252,168.998076 80.7816586,132.120666 80.7816586,86.6300755 C80.7816586,56.3030154 73.3896586,28.8470154 58.6056586,4.26207554 C57.1127572,3.53677088 56.2077556,3.44897654 55.8906539,3.99869252 C42.0743343,27.9501624 36.4296586,57.3123333 36.4296586,86.6300755 C36.4296586,132.120666 46.358192,168.998076 58.6056586,168.998076 Z" id="椭圆形" fill="#BC4161" transform="translate(58.605659, 86.320629) rotate(-338.000000) translate(-58.605659, -86.320629) "></path>
                    <path d="M56.3026905,167.376 C68.5501571,167.376 78.4786905,130.49859 78.4786905,85.008 C78.4786905,54.6809398 71.0866905,27.2249398 56.3026905,2.64 C41.5186905,27.2249398 34.1266905,54.6809398 34.1266905,85.008 C34.1266905,130.49859 44.0552239,167.376 56.3026905,167.376 Z" id="椭圆形" fill="#FE7294" transform="translate(56.302690, 85.008000) rotate(-338.000000) translate(-56.302690, -85.008000) "></path>
                    <line x1="52.7185809" y1="33.6242748" x2="52.7185809" y2="157.704275" id="路径" stroke="#FFFFFF" stroke-width="2.112" opacity="0.300000012" stroke-linecap="round" transform="translate(52.718581, 95.664275) rotate(-338.000000) translate(-52.718581, -95.664275) "></line>
                </g>
                <path d="M84.8411547,42.24 C22.8011547,42.24 -32.6388453,85.14 22.8011547,146.52" id="路径-2" stroke="#998B77" stroke-width="5.28" stroke-linecap="round" stroke-linejoin="round" stroke-dasharray="6.6,11.87999954223633"></path>
                <path d="M91.2631312,254.76 C29.2231312,254.76 -5.45802356,303.6 67.1419764,332.64" id="路径-2备份-2" stroke="#998B77" stroke-width="5.28" stroke-linecap="round" stroke-linejoin="round" stroke-dasharray="6.6,11.87999954223633"></path>
                <g id="编组-2" transform="translate(67.320000, 0.000000)">
                    <g id="矩形">
                        <use fill="black" fill-opacity="1" filter="url(#filter-2)" xlink:href="#path-1"></use>
                        <use fill="#FFFFFF" fill-rule="evenodd" xlink:href="#path-1"></use>
                    </g>
                    <g id="编组" transform="translate(13.200000, 5.280000)">
                        <path d="M10.1529854,-4.10192762e-16 L21.5270146,4.10192762e-16 C25.0574288,-2.38333807e-16 26.3376423,0.36758942 27.628309,1.05784551 C28.9189757,1.74810159 29.9318984,2.76102435 30.6221545,4.05169101 C31.3124106,5.34235768 31.68,6.62257118 31.68,10.1529854 L31.68,21.5270146 C31.68,25.0574288 31.3124106,26.3376423 30.6221545,27.628309 C29.9318984,28.9189757 28.9189757,29.9318984 27.628309,30.6221545 C26.3376423,31.3124106 25.0574288,31.68 21.5270146,31.68 L10.1529854,31.68 C6.62257118,31.68 5.34235768,31.3124106 4.05169101,30.6221545 C2.76102435,29.9318984 1.74810159,28.9189757 1.05784551,27.628309 C0.36758942,26.3376423 1.58889205e-16,25.0574288 -2.73461841e-16,21.5270146 L2.73461841e-16,10.1529854 C-1.58889205e-16,6.62257118 0.36758942,5.34235768 1.05784551,4.05169101 C1.74810159,2.76102435 2.76102435,1.74810159 4.05169101,1.05784551 C5.34235768,0.36758942 6.62257118,2.38333807e-16 10.1529854,-4.10192762e-16 Z" id="矩形" fill="#FFE8C7"></path>
                        <path d="M26.845146,11.7916268 L26.8839862,11.9238281 L13.658205,18.9389062 C13.1322675,19.2173437 13.0703925,19.4957812 13.0703925,20.1532031 C13.0703925,21.9939844 11.6085956,23.4480469 9.77554875,23.4480469 C7.95023625,23.4480469 6.49617375,21.98625 6.49617375,20.1532031 C6.49617375,18.3278906 7.95797062,16.8583594 9.77554875,16.8583594 C11.2914862,16.8583594 11.5080487,17.4616406 12.1886737,17.4616406 C12.3124237,17.4616406 12.4114237,17.4418406 12.5529937,17.3784806 L12.668205,17.3224219 L13.5499237,16.850625 C14.1667402,16.531582 14.3806171,16.3425195 14.5072988,15.9796082 L14.5399237,15.8760937 L14.7023456,15.2882812 C14.9477831,14.42925 15.3481831,13.9475187 16.1990973,13.5978425 L16.3884394,13.5248437 L23.1482831,11.0885156 C25.1023177,10.3799916 26.4594342,10.6351668 26.845146,11.7916268 Z M9.77554875,18.4825781 C8.87062687,18.4825781 8.12812687,19.2250781 8.12812687,20.1532031 C8.12812687,21.0735937 8.87062687,21.8238281 9.77554875,21.8238281 C10.7036737,21.8238281 11.4461737,21.0735937 11.4461737,20.1532031 C11.4461737,19.2250781 10.7036737,18.4825781 9.77554875,18.4825781 Z M20.3097675,16.0771875 L26.8839862,19.5421875 C26.5707441,20.8100725 25.2794191,21.128642 23.3636931,20.477091 L23.1482831,20.4007031 L16.7983612,18.0417187 L16.7983612,17.9257031 L20.3097675,16.0771875 Z M16.5431269,14.623125 C16.2105487,14.623125 15.9089081,14.9092969 15.9089081,15.2728125 C15.9089081,15.6208594 16.2105487,15.9070312 16.5431269,15.9070312 C16.8989081,15.9070312 17.2005487,15.6285937 17.2005487,15.2728125 C17.2005487,14.9092969 16.8989081,14.623125 16.5431269,14.623125 Z M9.77554875,8.064375 C11.6085956,8.064375 13.0703925,9.52617187 13.0703925,11.3669531 C13.0703925,12.0205078 13.1304128,12.273927 13.6034302,12.5544982 L13.72008,12.6199219 L15.20508,13.4088281 L15.20508,13.4707031 C14.726955,13.8011719 14.4725516,14.182777 14.2733522,14.8130908 L14.21508,15.0098437 L14.153205,15.0098437 C14.0661933,14.9576367 13.9617792,14.8967285 13.8399628,14.8271191 L13.7123456,14.7546094 L12.668205,14.1977344 C12.48258,14.0971875 12.35883,14.06625 12.1886737,14.06625 C11.4771112,14.06625 11.2914862,14.6540625 9.77554875,14.6540625 C7.95023625,14.6540625 6.49617375,13.1922656 6.49617375,11.3669531 C6.49617375,9.53390625 7.95797062,8.064375 9.77554875,8.064375 Z M9.77554875,9.68859375 C8.87062687,9.68859375 8.12812687,10.4233594 8.12812687,11.3669531 C8.12812687,12.271875 8.87062687,13.0298437 9.77554875,13.0298437 C10.7036737,13.0298437 11.4461737,12.271875 11.4461737,11.3669531 C11.4461737,10.4233594 10.7036737,9.68859375 9.77554875,9.68859375 Z" id="形状结合" fill="#FF8E00" fill-rule="nonzero"></path>
                    </g>
                    <path d="M176.88,59.4 L176.88,69.96 L13.2,69.96 L13.2,59.4 L176.88,59.4 Z M233.64,43.56 L233.64,54.12 L13.2,54.12 L13.2,43.56 L233.64,43.56 Z" id="形状结合" fill="#000000" opacity="0.100000001"></path>
                </g>
                <g id="编组-2备份" transform="translate(15.840000, 97.680000)">
                    <g id="矩形">
                        <use fill="black" fill-opacity="1" filter="url(#filter-4)" xlink:href="#path-3"></use>
                        <use fill="#FFFFFF" fill-rule="evenodd" xlink:href="#path-3"></use>
                    </g>
                    <g id="编组" transform="translate(13.200000, 7.920000)">
                        <path d="M10.1529854,-4.10192762e-16 L21.5270146,4.10192762e-16 C25.0574288,-2.38333807e-16 26.3376423,0.36758942 27.628309,1.05784551 C28.9189757,1.74810159 29.9318984,2.76102435 30.6221545,4.05169101 C31.3124106,5.34235768 31.68,6.62257118 31.68,10.1529854 L31.68,21.5270146 C31.68,25.0574288 31.3124106,26.3376423 30.6221545,27.628309 C29.9318984,28.9189757 28.9189757,29.9318984 27.628309,30.6221545 C26.3376423,31.3124106 25.0574288,31.68 21.5270146,31.68 L10.1529854,31.68 C6.62257118,31.68 5.34235768,31.3124106 4.05169101,30.6221545 C2.76102435,29.9318984 1.74810159,28.9189757 1.05784551,27.628309 C0.36758942,26.3376423 1.58889205e-16,25.0574288 -2.73461841e-16,21.5270146 L2.73461841e-16,10.1529854 C-1.58889205e-16,6.62257118 0.36758942,5.34235768 1.05784551,4.05169101 C1.74810159,2.76102435 2.76102435,1.74810159 4.05169101,1.05784551 C5.34235768,0.36758942 6.62257118,2.38333807e-16 10.1529854,-4.10192762e-16 Z" id="矩形" fill="#E1C5FF"></path>
                        <path d="M12.001851,13.7163545 L12.1203534,13.8264844 L18.4780097,20.1841406 C19.0580878,20.7714697 19.0943427,21.4403723 18.6058931,22.0124064 L18.5012128,22.1254688 L17.8669941,22.7674219 C17.3086689,23.3184961 16.6347812,23.359736 16.036519,22.8401582 L15.9179316,22.72875 L13.9224628,20.7410156 C13.4584003,21.6536719 12.8551191,23.2469531 12.1512909,23.9507813 C11.0762128,25.0335938 9.59894719,24.9949219 8.44652531,23.8579688 C7.28636906,22.7132813 7.24769719,21.2282813 8.34597844,20.1454688 C9.00280536,19.5029207 10.4175095,18.9328652 11.336932,18.490052 L11.5557441,18.3820313 L9.56800969,16.3788281 C8.98068059,15.784248 8.94397252,15.1216901 9.4387667,14.5504774 L9.54480656,14.4375 L10.1712909,13.8032813 C10.7368671,13.2377051 11.4044101,13.2023566 12.001851,13.7163545 Z M9.73816594,21.615 C9.48293156,21.8779688 9.47519719,22.2724219 9.73816594,22.543125 C10.0011347,22.8138281 10.4110566,22.7983594 10.6662909,22.543125 C10.9215253,22.2724219 10.9215253,21.8779688 10.6662909,21.615 C10.4033222,21.3597656 10.0011347,21.3520313 9.73816594,21.615 Z M15.7864472,6.64125 C16.2273066,6.084375 16.9620722,6.09984375 17.4725409,6.6103125 L17.4725409,6.6103125 L21.5253534,10.663125 C21.3784003,12.0553125 20.2259784,13.4242969 19.4061347,14.3060156 C19.3210566,14.3988281 19.2359784,14.5148438 19.3519941,14.6308594 C19.7541816,15.0330469 22.3219941,13.2 23.2346503,12.3801563 L23.2346503,12.3801563 L24.0854316,13.2232031 C24.6887128,13.81875 24.6268378,14.4761719 24.0312909,15.0639844 L24.0312909,15.0639844 L20.2878534,18.7919531 C19.7000409,19.3797656 19.0426191,19.4416406 18.4393378,18.8460938 L18.4393378,18.8460938 L13.2263691,13.6253906 C12.6076191,13.0066406 12.6617597,12.4110938 13.2186347,11.7459375 C15.0052753,9.62671875 14.9279316,7.71632813 15.7864472,6.64125 Z" id="形状结合" fill="#B57CFE" fill-rule="nonzero"></path>
                    </g>
                    <path d="M129.36,63.36 L129.36,73.92 L13.2,73.92 L13.2,63.36 L129.36,63.36 Z M233.64,47.52 L233.64,58.08 L13.2,58.08 L13.2,47.52 L233.64,47.52 Z" id="形状结合" fill="#000000" opacity="0.100000001"></path>
                </g>
                <g id="编组-2备份-2" transform="translate(67.320000, 203.280000)">
                    <g id="矩形">
                        <use fill="black" fill-opacity="1" filter="url(#filter-6)" xlink:href="#path-5"></use>
                        <use fill="#FFFFFF" fill-rule="evenodd" xlink:href="#path-5"></use>
                    </g>
                    <g id="编组" transform="translate(13.200000, 7.920000)">
                        <path d="M10.1529854,-4.10192762e-16 L21.5270146,4.10192762e-16 C25.0574288,-2.38333807e-16 26.3376423,0.36758942 27.628309,1.05784551 C28.9189757,1.74810159 29.9318984,2.76102435 30.6221545,4.05169101 C31.3124106,5.34235768 31.68,6.62257118 31.68,10.1529854 L31.68,21.5270146 C31.68,25.0574288 31.3124106,26.3376423 30.6221545,27.628309 C29.9318984,28.9189757 28.9189757,29.9318984 27.628309,30.6221545 C26.3376423,31.3124106 25.0574288,31.68 21.5270146,31.68 L10.1529854,31.68 C6.62257118,31.68 5.34235768,31.3124106 4.05169101,30.6221545 C2.76102435,29.9318984 1.74810159,28.9189757 1.05784551,27.628309 C0.36758942,26.3376423 1.58889205e-16,25.0574288 -2.73461841e-16,21.5270146 L2.73461841e-16,10.1529854 C-1.58889205e-16,6.62257118 0.36758942,5.34235768 1.05784551,4.05169101 C1.74810159,2.76102435 2.76102435,1.74810159 4.05169101,1.05784551 C5.34235768,0.36758942 6.62257118,2.38333807e-16 10.1529854,-4.10192762e-16 Z" id="矩形" fill="#8CEDC7"></path>
                        <path d="M24.40383,14.0894531 L24.40383,20.2382812 C24.40383,21.9398437 23.4911737,22.8602344 21.9210956,22.8602344 L21.9210956,22.8602344 L8.97375187,22.8602344 C7.25672062,22.8602344 6.33633,21.9475781 6.33633,20.2382812 L6.33633,20.2382812 L6.33633,14.0894531 L24.40383,14.0894531 Z M11.0620331,8.01796875 C11.9128144,8.01796875 12.3150019,8.16492188 12.8873456,8.62125 L12.8873456,8.62125 L13.3050019,8.9615625 C13.76133,9.32507813 14.1093769,9.4565625 14.689455,9.4565625 L14.689455,9.4565625 L21.7664081,9.4565625 C23.4834394,9.4565625 24.40383,10.3769531 24.40383,12.0785156 L24.40383,12.0785156 L24.40383,12.8983594 L6.33633,12.8983594 L6.33633,10.6089844 C6.33633,8.92289063 7.25672062,8.01796875 8.7803925,8.01796875 L8.7803925,8.01796875 Z" id="形状结合" fill="#37B386" fill-rule="nonzero"></path>
                    </g>
                    <path d="M109.56,63.36 L109.56,73.92 L13.2,73.92 L13.2,63.36 L109.56,63.36 Z M233.64,47.52 L233.64,58.08 L13.2,58.08 L13.2,47.52 L233.64,47.52 Z" id="形状结合" fill="#000000" opacity="0.100000001"></path>
                </g>
                <path d="M51.48,340.56 L77.88,339.529106 L72.0150825,314.16" id="路径-3" stroke="#998B77" stroke-width="5.28" stroke-linecap="round" stroke-linejoin="round" stroke-dasharray="6.6,11.87999954223633"></path>
                <g id="编组-3" transform="translate(108.240000, 330.000000)">
                    <g id="矩形">
                        <use fill="black" fill-opacity="1" filter="url(#filter-8)" xlink:href="#path-7"></use>
                        <use fill="#626262" fill-rule="evenodd" xlink:href="#path-7"></use>
                    </g>
                    <path d="M60.3955687,28.1305664 C60.8306273,28.1305664 61.2076781,27.9952148 61.7007445,27.7051758 L73.2152953,21.0342773 C74.0757445,20.531543 74.4721312,20.1061523 74.4721312,19.4293945 C74.4721312,18.7526367 74.0757445,18.3272461 73.2152953,17.8245117 L61.7007445,11.1536133 C61.2076781,10.8732422 60.8306273,10.7282227 60.3955687,10.7282227 C59.5447875,10.7282227 58.8970336,11.3759766 58.8970336,12.4394531 L58.8970336,26.4290039 C58.8970336,27.4828125 59.5447875,28.1305664 60.3955687,28.1305664 Z" id="1" fill="#FFFFFF" fill-rule="nonzero"></path>
                </g>
            </g>
        </g>
    </g>
</svg>