<?xml version="1.0" encoding="UTF-8"?>
<svg width="530px" height="400px" viewBox="0 0 530 400" version="1.1" xmlns="http://www.w3.org/2000/svg" xmlns:xlink="http://www.w3.org/1999/xlink">
    <!-- Generator: Sketch 60.1 (88133) - https://sketch.com -->
    <title>banner</title>
    <desc>Created with Sketch.</desc>
    <defs>
        <linearGradient x1="70.1853884%" y1="12.0084503%" x2="44.5971621%" y2="91.6404399%" id="linearGradient-1">
            <stop stop-color="#FF0E0E" offset="0%"></stop>
            <stop stop-color="#FFA64A" offset="100%"></stop>
        </linearGradient>
        <linearGradient x1="98.254299%" y1="0%" x2="36.7715488%" y2="66.6609784%" id="linearGradient-2">
            <stop stop-color="#FFFFFF" offset="0%"></stop>
            <stop stop-color="#FFD8AE" offset="100%"></stop>
        </linearGradient>
        <linearGradient x1="36.5119503%" y1="28.6866299%" x2="50%" y2="62.5475617%" id="linearGradient-3">
            <stop stop-color="#245DEC" offset="0%"></stop>
            <stop stop-color="#0FABB8" offset="100%"></stop>
        </linearGradient>
    </defs>
    <g id="页面-1" stroke="none" stroke-width="1" fill="none" fill-rule="evenodd">
        <g id="桌面端-HD" transform="translate(-739.000000, -173.000000)">
            <g id="banner" transform="translate(739.000000, 173.000000)">
                <circle id="椭圆形备份-19" fill="#FFFFFF" opacity="0.200000003" cx="47.4128878" cy="100.338902" r="18.7446301"></circle>
                <circle id="椭圆形备份-21" fill="#FFFFFF" opacity="0.200000003" cx="401" cy="85" r="74"></circle>
                <path d="M257.352745,20.9498807 C367.209695,20.9498807 456.266348,110.006535 456.266348,219.863484 C456.266348,288.011124 421.996441,348.154598 369.750072,384.00046 L144.955418,384.00046 C92.7090486,348.154598 58.4391408,288.011124 58.4391408,219.863484 C58.4391408,110.006535 147.495795,20.9498807 257.352745,20.9498807 Z" id="路径" fill="url(#linearGradient-1)" opacity="0.5"></path>
                <path d="M403.009547,331.338902 C407.917821,298.260143 418.700975,276.942721 435.35901,267.386635 C452.017045,257.830549 461.081146,240.004773 462.551313,213.909308" id="路径-47备份" stroke="#FFFFFF" stroke-width="2.2052506" stroke-linecap="round"></path>
                <path d="M417.343675,111.429594 C420.268012,188.143166 403.825357,225.878217 417.452527,338.274417 C417.070883,338.562063 416.73236,338.900257 416.439134,339.290237 C403.419149,356.60636 387.637758,371.728021 369.748968,384.001216 L144.956443,384.001216 C133.366104,376.04922 122.660428,366.901524 113.017294,356.735954 C119.226849,314.655697 116.18898,200.944998 112.908831,111.429594 C239.865129,130.538107 319.311005,114.013803 417.343675,111.429594 Z" id="路径" fill="#FFF0E5"></path>
                <path d="M127.926587,370.4821 C126.823962,336.658894 114.143771,291.561285 89.8860143,235.189274 C65.6282578,178.817263 68.9361337,113.2848 99.809642,38.5918854" id="路径-47" stroke="#FFFFFF" stroke-width="2.2052506" stroke-linecap="round"></path>
                <path d="M133.417661,332.99284 C132.652886,308.15919 123.857976,275.047657 107.032931,233.65824 C90.2078855,192.268823 92.5022099,144.153626 113.915904,89.3126492" id="路径-47" stroke="#FFFFFF" stroke-width="2.2052506" stroke-linecap="round" transform="translate(114.673031, 211.152745) scale(-1, 1) translate(-114.673031, -211.152745) "></path>
                <path d="M386.899907,227.54716 C391.784138,227.360365 395.330358,229.973525 397.538568,235.38664 C399.61525,240.477332 399.593523,246.249366 397.473388,252.70274 C402.482052,260.465592 411.70535,269.930653 422.911932,279.101929 C419.87728,273.88888 418.668343,268.779157 419.286002,263.772139 C420.026394,257.77024 423.304328,254.269554 429.119805,253.270081 C433.71852,255.5423 435.647684,259.679359 434.907297,265.681259 C434.20485,271.37556 431.177827,276.629882 425.826226,281.444223 C432.777838,286.935797 440.383061,292.259078 448.151204,296.975697 C443.60078,293.956387 440.39396,290.262243 438.530666,285.89308 C435.987329,279.929215 437.132355,274.938355 441.965742,270.9205 C447.434547,270.585703 451.440637,273.40023 453.984011,279.364079 C456.527346,285.327945 456.422845,292.21044 453.670507,300.011563 C452.820076,299.62312 452.001407,299.21872 451.214499,298.798361 C454.819155,300.900988 458.44515,302.861434 462.043985,304.636945 L462.884374,305.048426 C465.742958,306.437384 468.526659,307.966565 471.235466,309.635876 C466.364887,305.454087 463.264877,300.708642 461.935289,295.400825 C460.203103,288.48573 462.383046,283.241352 468.475119,279.667692 C474.599924,280.209531 478.528429,283.937996 480.260633,290.853086 C481.992818,297.768181 480.621549,305.24466 476.146826,313.282523 L476.308468,312.987752 C479.944925,315.558067 483.436383,318.399537 486.782808,321.511909 C485.579313,319.337813 484.681409,317.065666 484.087777,314.695839 C482.171874,307.047325 484.416905,301.287951 490.822868,297.417716 C497.312498,298.087695 501.515274,302.246939 503.431198,309.895448 C505.3471,317.543962 503.984646,325.77512 499.343838,334.588923 C498.894019,334.28303 498.453611,333.974116 498.022615,333.66218 C503.005838,339.883001 507.588548,346.848091 511.772179,354.556184 L512.227788,355.401501 L510.369823,356.374442 C506.027047,348.260555 501.248198,340.978335 496.033102,334.526409 C491.392563,341.167702 485.834824,345.534721 479.360151,347.628686 C471.828206,350.064545 466.057326,348.721051 462.047513,343.598204 C461.950375,336.140032 465.667773,331.193 473.199708,328.757109 C478.650613,326.994265 484.527133,326.915006 490.829266,328.519332 C485.852353,323.165239 480.517285,318.490755 474.824447,314.495483 C469.869365,322.569098 463.759151,327.779949 456.494647,330.129352 C448.962702,332.565211 443.191822,331.221717 439.182009,326.09887 C439.084871,318.640698 442.802269,313.693666 450.334204,311.257775 C456.618043,309.225556 463.467508,309.43076 470.882599,311.873387 C468.219335,310.197003 465.481772,308.660748 462.670168,307.26488 L461.957473,306.914828 C458.291972,305.133796 454.595656,303.160183 450.917919,301.037978 C447.305985,309.023284 442.306893,314.497453 435.920746,317.46152 C429.234797,320.564676 423.725461,319.930712 419.392737,315.559628 C418.404324,308.572653 421.253082,303.527564 427.939008,300.42436 C433.531231,297.828834 439.92114,297.281505 447.108738,298.782374 C441.307082,295.263696 435.59441,291.408229 430.168402,287.392791 C426.278632,294.520019 421.276474,299.250979 415.162589,301.586967 C408.680577,304.063567 403.546365,303.099507 399.759953,298.694788 C399.284873,292.049653 402.288332,287.488767 408.77033,285.012132 C414.095892,282.977379 420.016214,282.854837 426.531296,284.644505 C419.517072,279.232181 413.085974,273.60815 407.698253,268.182197 C404.259397,273.617641 400.095992,277.031969 395.209861,278.426527 C389.995639,279.914707 386.033771,278.705435 383.324256,274.79871 C383.33448,269.335737 385.9467,265.860153 391.160917,264.371956 C395.471181,263.141772 400.141285,263.541135 405.17123,265.570044 C400.964577,261.102722 397.536438,256.818585 395.155502,252.957305 C389.498876,249.828254 385.673185,245.819671 383.679391,240.932165 C381.471181,235.51905 382.544687,231.057382 386.899907,227.54716 Z M410.897199,239.502688 C414.771012,241.448118 416.377094,245.028026 415.715443,250.242412 C415.053792,255.456799 412.21203,260.262042 407.190154,264.658142 C403.416348,259.218371 401.860269,253.891292 402.52192,248.676905 C403.18357,243.462518 405.97533,240.404446 410.897199,239.502688 Z" id="形状结合备份" fill="#0D9575" transform="translate(447.396389, 291.956128) scale(-1, 1) rotate(7.000000) translate(-447.396389, -291.956128) "></path>
                <g id="编组-4" transform="translate(154.365907, 166.264916)" fill="#031A42">
                    <path d="M15.9323655,40.1264916 L23.2361555,6.14799045 C26.0941602,6.78310263 28.846313,7.31236277 31.4396877,7.31236277 C35.6737688,7.31236277 37.9495874,5.1953222 38.0554395,0.59075895 C36.6264371,1.17294511 34.3506185,1.70220525 31.9160218,1.70220525 C26.7292724,1.70220525 24.7710099,0.484906921 18.3669621,0.484906921 C5.2942366,0.484906921 0.319191253,7.20651074 0.319191253,14.2456706 C0.319191253,18.0563437 2.3303798,19.379494 5.98227479,19.379494 C5.92934877,18.9031599 5.24131058,18.4797518 5.24131058,15.7805251 C5.24131058,7.25943675 9.58124376,5.08947017 15.1914013,5.08947017 L15.8265134,5.08947017 L8.31101942,40.1264916 L15.9323655,40.1264916 Z M46.7000218,40.4440477 C49.5580266,40.4440477 54.3213679,39.2796754 57.3381507,30.6527351 L55.1152581,30.6527351 C54.3213679,33.2990358 52.8923655,35.6277804 50.8282509,35.6277804 C49.3463225,35.6277804 48.6582843,34.8338902 48.6582843,33.3519618 C48.6582843,32.8756277 48.7112103,32.3463675 48.8699884,31.6583294 L52.6806614,13.6634845 L45.0593154,13.6634845 L44.4771292,16.4685632 L44.4771292,16.0980811 C44.4771292,14.5632267 43.2069049,13.3988544 40.190122,13.3988544 C30.9809956,13.3988544 26.5881364,24.7779475 26.5881364,31.9229594 C26.5881364,38.2211551 30.0283273,40.4440477 33.6272963,40.4440477 C37.3850433,40.4440477 39.872566,38.0094511 41.5132724,35.5748544 C41.8308285,38.7504153 43.736165,40.4440477 46.7000218,40.4440477 Z M37.0674872,35.3102243 C36.1148189,35.3102243 34.4211865,35.2572983 34.4211865,31.1819952 C34.4211865,26.2069499 37.3321173,16.6802673 41.8308285,16.6802673 C43.5244609,16.6802673 44.0007951,18.0563437 44.0007951,18.6914558 L41.4603464,30.6527351 C40.8252342,33.7224439 38.6023416,35.3102243 37.0674872,35.3102243 Z M65.771029,10.8054797 C68.0997736,10.8054797 70.0051101,8.95306921 70.0051101,6.62432458 C70.0051101,4.29557995 68.0997736,2.39024344 65.771029,2.39024344 C63.4422843,2.39024344 61.5898738,4.29557995 61.5898738,6.62432458 C61.5898738,8.95306921 63.4422843,10.8054797 65.771029,10.8054797 Z M62.17206,40.4440477 C65.0300648,40.4440477 70.2697402,39.2796754 73.286523,30.6527351 L71.0636304,30.6527351 C70.2697402,33.2990358 68.3644037,35.3102243 66.3002891,35.3102243 C64.8183607,35.3102243 64.1303225,34.8338902 64.1303225,33.3519618 C64.1303225,32.8756277 64.1832485,32.3463675 64.3420266,31.6583294 L68.1526996,13.6634845 L60.5313535,13.6634845 L56.9323846,30.6527351 C56.6677545,31.9229594 56.5089765,33.0873317 56.5089765,34.092926 C56.5089765,38.5387112 58.9964991,40.4440477 62.17206,40.4440477 Z M80.607955,40.3381957 C87.2766328,40.3381957 92.5692342,33.934148 93.2043464,23.7723532 C96.0094251,22.2374988 97.5972056,18.9560859 98.6557259,16.6802673 L96.9620934,16.6802673 C96.3799072,17.6858616 95.0567569,19.9616802 93.2043464,20.3321623 C92.8867903,15.621747 90.6638977,13.1871504 86.4827426,13.1871504 C75.5799836,13.1871504 72.1397927,25.8893938 72.1397927,31.9758854 C72.1397927,38.0094511 75.6858357,40.3381957 80.607955,40.3381957 Z M82.7249956,35.5748544 C80.713807,35.5748544 80.0257688,34.7809642 80.0257688,31.2878473 C80.0257688,26.1010979 83.1484037,16.4156372 86.9061507,16.4156372 C88.229301,16.4156372 88.8114872,17.2095274 88.9173392,19.43242 C88.017597,19.8558282 87.4354108,20.7555704 87.4354108,22.1845728 C87.4354108,23.5077232 87.8588189,24.2486874 88.7056352,24.5662434 C87.911745,30.8115131 85.3183703,35.5748544 82.7249956,35.5748544 Z" id="Taio" fill-rule="nonzero"></path>
                    <path d="M94.8274108,133.892601 C98.4811896,133.892601 101.443163,136.854574 101.443163,140.508353 C101.443163,144.162132 98.4811896,147.124105 94.8274108,147.124105 L6.61738696,147.124105 C2.96360813,147.124105 0.00163516711,144.162132 0.00163516711,140.508353 C0.00163516711,136.854574 2.96360813,133.892601 6.61738696,133.892601 L94.8274108,133.892601 Z M210.603067,100.813842 C214.256846,100.813842 217.218819,103.775815 217.218819,107.429594 C217.218819,111.083373 214.256846,114.045346 210.603067,114.045346 L6.61738696,114.045346 C2.96360813,114.045346 0.00163516711,111.083373 0.00163516711,107.429594 C0.00163516711,103.775815 2.96360813,100.813842 6.61738696,100.813842 L210.603067,100.813842 Z M172.011182,67.7350835 C175.664961,67.7350835 178.626933,70.6970565 178.626933,74.3508353 C178.626933,78.0046141 175.664961,80.9665871 172.011182,80.9665871 L6.61738696,80.9665871 C2.96360813,80.9665871 0.00163516711,78.0046141 0.00163516711,74.3508353 C0.00163516711,70.6970565 2.96360813,67.7350835 6.61738696,67.7350835 L172.011182,67.7350835 Z" id="形状结合" opacity="0.200000003"></path>
                </g>
                <g id="编组-5" transform="translate(251.799523, 0.000000)">
                    <path d="M27.2380327,255.48609 C18.7845721,241.151961 19.3625611,222.293373 28.9719998,198.910326 L37.3737925,225.858485 C29.6591329,195.253757 49.5088705,164.473461 69.7302562,129.568767 L90.0017757,156.857351 L85.7135696,113.585454 C116.90175,89.9923792 140.455655,76.020776 156.375286,71.6706444 C219.59247,54.3961814 258.368126,30.5059666 272.702255,0 C282.625882,40.4295943 277.112756,83.9832936 256.162875,130.661098 C215.229999,220.713425 108.287296,204.961951 101.307046,213.383703 C109.103784,219.621094 123.917587,221.440333 145.748454,218.84142 C95.3020468,256.727095 55.798573,268.941985 27.2380327,255.48609 Z" id="路径-16" fill="url(#linearGradient-2)"></path>
                    <path d="M164.11576,138.407233 C164.999835,138.163029 165.993314,138.618177 166.334757,139.423835 C166.676199,140.229492 166.24441,141.008325 165.352234,141.324777 C114.638167,159.312929 61.0198507,206.990137 22.5323753,292.004794 C21.3896311,294.528992 0.490954986,314.582637 0.805422465,313.801851 C36.294069,225.687746 105.37628,154.632568 164.11576,138.407233 Z" id="路径" fill="#1B1B1B" fill-rule="nonzero"></path>
                </g>
                <circle id="椭圆形" fill="#FFFFFF" cx="100.890215" cy="39.1431981" r="10.4749403"></circle>
                <circle id="椭圆形备份-2" fill="#FFFFFF" cx="118.53222" cy="94.274463" r="9.37231504"></circle>
                <circle id="椭圆形备份-17" fill="#FFFFFF" cx="462.601432" cy="220.023866" r="7.51789976"></circle>
                <circle id="椭圆形备份" fill="#FFFFFF" cx="77.7350835" cy="197.921241" r="6.06443914"></circle>
                <path d="M18.7038248,199.804282 C17.616887,204.102173 19.2689723,207.741584 23.6600808,210.722517 C27.5830523,213.385651 32.4092137,214.484816 38.1385651,214.02001 C40.3743411,216.231321 42.7092431,219.003092 45.0740506,222.21334 C41.7510419,219.483125 38.2342223,217.962518 34.5237591,217.652501 C29.7679642,217.255144 26.5255612,219.154623 24.79655,223.350938 C25.7938322,227.154929 28.6703707,229.255603 33.4261656,229.65296 C37.9840694,230.033782 42.5858256,228.567138 47.231434,225.253029 C50.2656884,229.675125 53.3137991,234.753809 56.2299123,240.235509 C52.6061777,237.344632 48.7856556,235.724414 44.7689319,235.374759 C39.2988798,234.898594 35.5717005,237.145838 33.5873941,242.116491 C34.7382084,246.625285 38.0486415,249.117765 43.5186934,249.593932 C48.5165937,250.028996 53.5586391,248.474356 58.6448296,244.930011 C61.4326252,250.529973 64.0526408,256.453517 66.3655037,262.458985 C64.8332201,260.10479 62.9734615,258.159905 60.7860273,256.624016 C55.9689841,253.241794 51.3205585,253.315467 46.8407505,256.845037 C45.5121335,261.633608 47.2563403,265.719013 52.0733708,269.101253 C56.760224,272.392063 62.6921202,273.623214 69.8690593,272.794705 L69.9999861,272.778405 C70.8872837,275.565447 71.691699,278.340622 72.3993951,281.080069 L72.609457,281.903461 C73.1119982,283.898608 73.6855158,285.873579 74.3299803,287.828362 C71.7529008,283.904763 68.5811579,281.022835 64.8165824,279.182784 C59.0017644,276.340625 53.9330235,277.284592 49.6103596,282.014686 C48.9365999,287.55073 51.5071268,291.739836 57.3219403,294.582004 C62.9434412,297.329673 69.5778874,297.603117 77.2252789,295.402334 C83.4321875,309.620993 93.6028213,322.711816 107.724978,334.669124 L108.396001,335.233942 L109.61729,333.771862 C95.2809973,321.775396 85.0337991,308.649712 78.8625346,294.390234 L78.4410392,294.53423 C87.0205117,291.674979 93.1020978,287.134211 96.6857973,280.911924 C100.26948,274.689628 100.164533,269.316246 96.3709539,264.791777 C89.7654865,263.297669 84.6709033,265.661759 81.0872043,271.884046 C77.7820229,277.622783 76.774878,284.490932 78.0657697,292.488494 C76.6956267,289.100669 75.5516778,285.649616 74.634401,282.135382 L74.4552777,281.436894 C73.5570297,277.870744 72.4942468,274.241426 71.2964443,270.600123 L71.9977324,270.451815 C79.7216279,268.747553 85.4940139,265.352926 89.3148904,260.267935 C93.3316854,254.922156 93.8075696,249.914751 90.7425427,245.24572 C84.7236286,243.049851 79.7057625,244.624796 75.6889445,249.970557 C71.9927798,254.889621 70.3161951,261.133186 70.6591905,268.701252 C68.4673411,262.277537 65.8706639,255.843463 63.031979,249.680268 C70.4367637,247.601735 75.8029467,243.993013 79.1307679,238.855132 C82.5526438,233.571999 82.6646222,228.835079 79.466703,224.644371 C73.6545835,222.968446 69.0375771,224.772045 65.615684,230.055167 C62.5088831,234.851845 61.3390606,240.733726 62.1062165,247.700811 C58.3797415,239.82717 54.2777477,232.454588 50.1493148,226.18612 L49.7463231,226.323229 C55.8264653,224.307035 60.0190209,221.126451 62.3239898,216.781478 C64.62895,212.436501 64.3020734,208.693359 61.3433599,205.552055 C56.4896323,204.529843 52.9102842,206.191224 50.6053155,210.536197 C48.4534553,214.592572 48.0609675,219.448494 49.4278522,225.103963 C46.2715527,220.411809 43.11058,216.385417 40.101236,213.29395 C38.4470606,206.98647 35.4791285,202.379715 31.1986819,199.473906 C26.8075735,196.492974 22.6426211,196.603099 18.7038248,199.804282 Z" id="路径" fill="#FFFFFF"></path>
                <circle id="椭圆形备份-15" fill="#FFFFFF" opacity="0.200000003" cx="312.042959" cy="77.1837709" r="7.71837709"></circle>
                <circle id="椭圆形备份-16" fill="#FFFFFF" opacity="0.200000003" cx="178.073986" cy="67.8114558" r="6.06443914"></circle>
                <path d="M155,384 C121.602085,329.84926 92.9484743,299.694165 38.0405728,294.026253 C22.2362768,292.188544 9.55608592,288.513126 0,283 C1.37058356,308.679293 10.7039169,324.512626 28,330.5 C53.9441247,339.481061 66,344 93,350 C120,356 112,363.5 145,384 C149.901369,383.992396 148.000703,383.947439 155,384 Z" id="路径-48" fill="#1D6AB9"></path>
                <path d="M22.5554762,245.009868 C27.6882159,244.81265 31.4148674,247.571618 33.7354306,253.286774 C35.7994845,258.37019 35.8909383,264.097094 34.0097921,270.467487 C35.9443818,273.579364 38.5307029,276.960612 41.6371848,280.493251 C39.3154518,276.028433 38.4269399,271.636918 38.9723354,267.318608 C39.6676507,261.81327 42.601455,258.584563 47.7737483,257.632489 C51.8446606,259.68647 53.5324591,263.466129 52.8371438,268.971468 C52.1695703,274.257153 49.3901297,279.144649 44.4988221,283.633954 C48.7908539,288.193492 53.8533691,292.940414 59.4232458,297.637274 C56.9555033,292.757088 56.0113695,287.963613 56.5893763,283.256125 C57.3674366,276.919333 60.8121508,273.223316 66.9235188,272.168074 C71.7562157,274.567078 73.7835341,278.934976 73.0054738,285.271769 C72.2918469,291.083793 69.2952007,296.461682 64.0155353,301.405434 C69.8122428,306.037602 76.043785,310.55772 82.4505765,314.731685 C79.9697167,312.327929 78.0909039,309.621363 76.8132318,306.611356 C74.1404715,300.314728 75.3437462,295.045392 80.4230558,290.803349 C86.1701135,290.449872 90.3800225,293.421447 93.0527828,299.718076 C95.7255431,306.014704 95.615735,313.281224 92.7233585,321.517633 L92.8641994,321.10923 C95.9288337,322.865046 99.0016184,324.516745 102.055755,326.040078 L102.937309,326.476456 C105.054903,327.516677 107.133322,328.63106 109.172564,329.81957 C105.200885,325.871332 102.613301,321.48115 101.408665,316.649622 C99.5883365,309.348681 101.879191,303.81168 108.281228,300.038616 C114.717662,300.610689 118.846044,304.547196 120.666372,311.848136 C122.429112,318.9181 121.133582,326.543863 116.779781,334.725426 C120.241877,337.184664 123.580099,339.880554 126.793345,342.812479 C125.887205,340.947976 125.185976,339.017438 124.688272,337.021257 C122.674878,328.945974 125.03413,322.86524 131.766028,318.779054 C138.58585,319.486417 143.002457,323.877739 145.015851,331.953022 C147.029245,340.028304 145.597476,348.718743 140.720544,358.024337 L140.728672,358.009932 C142.345843,360.100684 143.922158,362.268473 145.457615,364.513261 C145.333609,362.922299 145.341559,361.425173 145.506576,360.081215 C146.520833,351.820754 150.902525,346.98938 158.651652,345.587093 C164.765007,348.691479 167.314557,354.373902 166.300299,362.634364 C165.446657,369.586724 162.235296,376.766915 156.521724,382.865839 C156.522183,382.86739 156.523457,382.86907 156.524732,382.87075 L156.510477,382.87784 C156.155771,383.256164 155.791433,383.630321 155.417427,384 L155.417427,384 L152.485,384 L152.184883,384.022312 C145.558453,384.452759 131.960317,383 129.5,383.000001 C124.641833,378.987773 125.594398,372.527568 126.523187,371.823763 C129.61998,369.477116 133.642447,368.920647 138.590587,370.154357 C141.685182,370.925926 144.606899,372.22075 147.355737,374.03883 C146.917514,372.589768 146.537566,371.126589 146.230637,369.685333 C143.474213,365.361458 140.577179,361.308259 137.539538,357.525608 C132.603621,364.780265 126.66359,369.535582 119.72008,371.791665 C111.804916,374.363458 105.740418,372.945009 101.526585,367.536317 C101.424505,359.661995 105.331047,354.438938 113.246211,351.867145 C119.242522,349.918825 125.728945,349.918297 132.705481,351.865558 C127.291288,345.907655 121.468974,340.731925 115.23954,336.337568 L115.524744,335.857586 C110.217533,344.924672 103.606346,350.744112 95.6911814,353.315905 C87.7760172,355.887698 81.7115189,354.469248 77.4976867,349.060557 C77.3956061,341.186235 81.302148,335.963177 89.2173123,333.391384 C96.45272,331.040458 104.401726,331.525491 113.06433,334.846484 C109.727549,332.622323 106.276793,330.615958 102.71261,328.82702 L101.965005,328.455788 C98.0180975,326.516956 94.0371309,324.362926 90.0781452,322.044157 C86.2647218,330.777423 80.9287304,336.743163 74.070472,339.941222 C67.0443552,343.217554 61.2547104,342.548229 56.7015377,337.933247 C55.6628353,330.556414 58.6565426,325.229832 65.6826595,321.9535 C72.057419,318.9809 79.4185526,318.552835 87.7660602,320.669303 C81.1161108,316.659509 74.5595235,312.209752 68.3640204,307.561653 C64.2292597,315.439897 58.8597934,320.64601 52.2561495,323.180912 C45.4443406,325.79572 40.0489041,324.777878 36.0698401,320.127385 C35.5705877,313.111465 38.7268659,308.2961 45.5386748,305.681292 C51.660853,303.331208 58.5309804,303.397106 66.1490571,305.878985 C58.185253,299.758741 50.8907062,293.349642 44.8595854,287.187404 L45.1320313,286.729116 C41.3823527,293.157267 36.7677541,297.156957 31.2882358,298.728183 C25.8087174,300.29941 21.645271,299.022667 18.7978965,294.897955 C18.8086402,289.13016 21.5537713,285.460649 27.0332897,283.889423 C32.124756,282.429468 37.6940119,283.143319 43.7410574,286.030975 C39.2371792,281.329779 35.4996013,276.79335 32.7955401,272.663418 C25.9873155,269.250222 21.4452524,264.74258 19.1711004,259.141728 C16.8505371,253.426572 17.9786624,248.715952 22.5554762,245.009868 Z" id="形状结合" fill="#FF9400"></path>
                <g id="编组-10" transform="translate(292.000000, 326.000000)">
                    <path d="M25.6230428,7.78137007 L23.2895956,7.78185272 C21.6781938,7.78185272 20.3718945,6.47555344 20.3718945,4.86415161 L20.3718945,3.69707117 C20.3718945,2.08566935 21.6781938,0.779370067 23.2895956,0.779370067 L87.4790199,0.779370067 C89.0904217,0.779370067 90.396721,2.08566935 90.396721,3.69707117 L90.396721,4.86415161 C90.396721,6.47555344 89.0904217,7.78185272 87.4790199,7.78185272 L85.1440428,7.78137007 L85.144859,16.534956 L96.5106074,16.534956 C104.245336,16.534956 110.515573,22.8051926 110.515573,30.5399213 L110.515573,62.2651223 C110.515573,68.0661688 105.812895,72.7688462 100.011849,72.7688462 L10.7567668,72.7688462 C4.95572025,72.7688462 0.253042838,68.0661688 0.253042838,62.2651223 L0.253042838,30.5399213 C0.253042838,22.8051926 6.52327938,16.534956 14.2580081,16.534956 L25.6237565,16.534956 L25.6230428,7.78137007 Z" id="形状结合" fill="url(#linearGradient-3)" opacity="0.949999988"></path>
                    <path d="M0.253042838,48.0357962 L110.515573,48.0357962 L110.515573,62.8924541 C110.515573,68.6935006 105.812895,73.396178 100.011849,73.396178 L10.7567668,73.396178 C4.95572025,73.396178 0.253042838,68.6935006 0.253042838,62.8924541 L0.253042838,48.0357962 L0.253042838,48.0357962 Z" id="矩形" fill="#02133C" opacity="0.949999988"></path>
                    <rect id="矩形" fill="#FFFFFF" opacity="0.900000036" x="23.8731358" y="28.7893007" width="64.7729645" height="29.7605513" rx="1.75062066"></rect>
                </g>
            </g>
        </g>
    </g>
</svg>