<?xml version="1.0" encoding="UTF-8"?>
<svg width="375px" height="414px" viewBox="0 0 375 414" version="1.1" xmlns="http://www.w3.org/2000/svg" xmlns:xlink="http://www.w3.org/1999/xlink">
    <!-- Generator: Sketch 60.1 (88133) - https://sketch.com -->
    <title>clipboard</title>
    <desc>Created with Sketch.</desc>
    <defs>
        <path d="M20.3696259,1.00590524e-14 L188.844167,-8.38768741e-17 C195.92713,4.87348793e-17 198.495583,0.737483476 201.085009,2.12232327 C203.674434,3.50716307 205.70663,5.53935919 207.09147,8.12878448 C208.47631,10.7182098 209.213793,13.2866632 209.213793,20.3696259 L209.213793,363.630374 C209.213793,370.713337 208.47631,373.28179 207.09147,375.871216 C205.70663,378.460641 203.674434,380.492837 201.085009,381.877677 C198.495583,383.262517 195.92713,384 188.844167,384 L20.3696259,384 C13.2866632,384 10.7182098,383.262517 8.12878448,381.877677 C5.53935919,380.492837 3.50716307,378.460641 2.12232327,375.871216 C0.737483476,373.28179 -7.35018919e-16,370.713337 1.2650301e-15,363.630374 L-3.58195962e-16,20.3696259 C2.0812217e-16,13.2866632 0.737483476,10.7182098 2.12232327,8.12878448 C3.50716307,5.53935919 5.53935919,3.50716307 8.12878448,2.12232327 C10.7182098,0.737483476 13.2866632,-5.84459913e-15 20.3696259,1.00590524e-14 Z" id="path-1"></path>
        <filter x="-11.9%" y="-5.2%" width="123.9%" height="113.0%" filterUnits="objectBoundingBox" id="filter-2">
            <feOffset dx="0" dy="5" in="SourceAlpha" result="shadowOffsetOuter1"></feOffset>
            <feGaussianBlur stdDeviation="7.5" in="shadowOffsetOuter1" result="shadowBlurOuter1"></feGaussianBlur>
            <feColorMatrix values="0 0 0 0 0   0 0 0 0 0   0 0 0 0 0  0 0 0 0.1 0" type="matrix" in="shadowBlurOuter1"></feColorMatrix>
        </filter>
        <filter x="-4.3%" y="-6.4%" width="108.6%" height="112.9%" filterUnits="objectBoundingBox" id="filter-3">
            <feGaussianBlur stdDeviation="2.64827586" in="SourceGraphic"></feGaussianBlur>
        </filter>
        <filter x="-4.3%" y="-10.3%" width="108.6%" height="120.7%" filterUnits="objectBoundingBox" id="filter-4">
            <feGaussianBlur stdDeviation="2.64827586" in="SourceGraphic"></feGaussianBlur>
        </filter>
        <filter x="-4.3%" y="-15.0%" width="108.6%" height="130.0%" filterUnits="objectBoundingBox" id="filter-5">
            <feGaussianBlur stdDeviation="2.64827586" in="SourceGraphic"></feGaussianBlur>
        </filter>
        <path d="M13.5797506,2.17186424e-15 L174.447836,-6.50255426e-15 C179.169811,3.77817129e-15 180.882113,0.491655651 182.608397,1.41488218 C184.33468,2.33810871 185.689477,3.69290613 186.612704,5.41918965 C187.535931,7.14547318 188.027586,8.85777546 188.027586,13.5797506 L188.027586,112.213353 C188.027586,116.935328 187.535931,118.64763 186.612704,120.373914 C185.689477,122.100197 184.33468,123.454995 182.608397,124.378221 C180.882113,125.301448 179.169811,125.793103 174.447836,125.793103 L13.5797506,125.793103 C8.85777546,125.793103 7.14547318,125.301448 5.41918965,124.378221 C3.69290613,123.454995 2.33810871,122.100197 1.41488218,120.373914 C0.491655651,118.64763 9.43747446e-16,116.935328 -1.62426966e-15,112.213353 L1.27259292e-15,13.5797506 C-7.39413137e-16,8.85777546 0.491655651,7.14547318 1.41488218,5.41918965 C2.33810871,3.69290613 3.69290613,2.33810871 5.41918965,1.41488218 C7.14547318,0.491655651 8.85777546,-1.26191567e-15 13.5797506,2.17186424e-15 Z" id="path-6"></path>
        <filter x="-13.3%" y="-15.9%" width="126.6%" height="139.7%" filterUnits="objectBoundingBox" id="filter-7">
            <feOffset dx="0" dy="5" in="SourceAlpha" result="shadowOffsetOuter1"></feOffset>
            <feGaussianBlur stdDeviation="7.5" in="shadowOffsetOuter1" result="shadowBlurOuter1"></feGaussianBlur>
            <feColorMatrix values="0 0 0 0 0   0 0 0 0 0   0 0 0 0 0  0 0 0 0.1 0" type="matrix" in="shadowBlurOuter1"></feColorMatrix>
        </filter>
    </defs>
    <g id="页面-1" stroke="none" stroke-width="1" fill="none" fill-rule="evenodd">
        <g id="桌面端-HD" transform="translate(-885.000000, -803.000000)">
            <g id="clipboard" transform="translate(900.000000, 813.000000)">
                <g id="编组-7">
                    <g id="矩形">
                        <use fill="black" fill-opacity="1" filter="url(#filter-2)" xlink:href="#path-1"></use>
                        <use fill="#FFFFFF" fill-rule="evenodd" xlink:href="#path-1"></use>
                    </g>
                    <rect id="矩形" fill="#D8D8D8" x="84.7448276" y="7.25617571" width="39.7241379" height="3.97241379" rx="1.9862069"></rect>
                    <g id="编组-3" transform="translate(11.917241, 242.317241)">
                        <g id="编组-2">
                            <path d="M13.5797506,-1.45547232e-15 L171.79956,5.48638177e-16 C176.521535,-3.1877458e-16 178.233837,0.491655651 179.960121,1.41488218 C181.686404,2.33810871 183.041202,3.69290613 183.964428,5.41918965 C184.887655,7.14547318 185.37931,8.85777546 185.37931,13.5797506 L185.37931,110.020249 C185.37931,114.742225 184.887655,116.454527 183.964428,118.18081 C183.041202,119.907094 181.686404,121.261891 179.960121,122.185118 C178.233837,123.108344 176.521535,123.6 171.79956,123.6 L13.5797506,123.6 C8.85777546,123.6 7.14547318,123.108344 5.41918965,122.185118 C3.69290613,121.261891 2.33810871,119.907094 1.41488218,118.18081 C0.491655651,116.454527 2.84700014e-15,114.742225 -4.89992948e-15,110.020249 L3.65758785e-16,13.5797506 C-2.12516387e-16,8.85777546 0.491655651,7.14547318 1.41488218,5.41918965 C2.33810871,3.69290613 3.69290613,2.33810871 5.41918965,1.41488218 C7.14547318,0.491655651 8.85777546,8.4567133e-16 13.5797506,-1.45547232e-15 Z" id="矩形备份-11" fill="#D1EBFE" filter="url(#filter-3)"></path>
                            <path d="M13.5797506,-1.45547232e-15 L171.79956,5.48638177e-16 C176.521535,-3.1877458e-16 178.233837,0.491655651 179.960121,1.41488218 C181.686404,2.33810871 183.041202,3.69290613 183.964428,5.41918965 C184.887655,7.14547318 185.37931,8.85777546 185.37931,13.5797506 L185.37931,109.565077 C185.37931,114.287052 184.887655,115.999354 183.964428,117.725638 C183.041202,119.451921 181.686404,120.806719 179.960121,121.729945 C178.233837,122.653172 176.521535,123.144828 171.79956,123.144828 L13.5797506,123.144828 C8.85777546,123.144828 7.14547318,122.653172 5.41918965,121.729945 C3.69290613,120.806719 2.33810871,119.451921 1.41488218,117.725638 C0.491655651,115.999354 2.32010339e-15,114.287052 -3.99309534e-15,109.565077 L3.65758785e-16,13.5797506 C-2.12516387e-16,8.85777546 0.491655651,7.14547318 1.41488218,5.41918965 C2.33810871,3.69290613 3.69290613,2.33810871 5.41918965,1.41488218 C7.14547318,0.491655651 8.85777546,8.4567133e-16 13.5797506,-1.45547232e-15 Z" id="矩形备份-11" fill="#D1EBFE"></path>
                            <path d="M111.773276,39.7241379 C116.661207,39.7241379 119.081897,42.1448276 119.081897,46.9396552 L119.081897,46.9396552 L119.081897,75.3594828 C119.081897,80.1543103 116.661207,82.575 111.773276,82.575 L111.773276,82.575 L71.5060345,82.575 C66.6413793,82.575 64.1974138,80.1775862 64.1974138,75.3594828 L64.1974138,75.3594828 L64.1974138,46.9396552 C64.1974138,42.1215517 66.6413793,39.7241379 71.5060345,39.7241379 L71.5060345,39.7241379 Z M100.926724,60.2301724 C99.6,60.2301724 98.3198276,60.6956897 97.1793103,61.7198276 L97.1793103,61.7198276 L86.0534483,71.5887931 L81.6077586,67.5853448 C80.5836207,66.6310345 79.3965517,66.1655172 78.2560345,66.1655172 C77.2318966,66.1655172 76.1146552,66.6310345 75.0905172,67.5387931 L75.0905172,67.5387931 L67.9448276,73.7767241 L67.9448276,75.1965517 C67.9448276,77.4775862 69.2948276,78.8275862 71.5525862,78.8275862 L71.5525862,78.8275862 L111.75,78.8275862 C113.961207,78.8275862 115.334483,77.4775862 115.334483,75.2431034 L115.334483,75.2431034 L115.334483,71.6586207 L104.627586,61.7431034 C103.533621,60.7189655 102.206897,60.2301724 100.926724,60.2301724 Z M81.6543103,50.2215517 C78.4887931,50.2215517 75.9051724,52.8284483 75.9051724,55.9706897 C75.9051724,59.1362069 78.4887931,61.7198276 81.6543103,61.7198276 C84.7965517,61.7198276 87.3801724,59.1362069 87.3801724,55.9706897 C87.3801724,52.8284483 84.7965517,50.2215517 81.6543103,50.2215517 Z" id="形状结合" fill="#FFFFFF" fill-rule="nonzero"></path>
                        </g>
                    </g>
                    <g id="编组-3备份" transform="translate(11.917241, 149.627586)">
                        <g id="编组-2">
                            <path d="M13.5797506,3.58195962e-16 L171.79956,5.48638177e-16 C176.521535,-3.1877458e-16 178.233837,0.491655651 179.960121,1.41488218 C181.686404,2.33810871 183.041202,3.69290613 183.964428,5.41918965 C184.887655,7.14547318 185.37931,8.85777546 185.37931,13.5797506 L185.37931,63.2202494 C185.37931,67.9422245 184.887655,69.6545268 183.964428,71.3808103 C183.041202,73.1070939 181.686404,74.4618913 179.960121,75.3851178 C178.233837,76.3083443 176.521535,76.8 171.79956,76.8 L13.5797506,76.8 C8.85777546,76.8 7.14547318,76.3083443 5.41918965,75.3851178 C3.69290613,74.4618913 2.33810871,73.1070939 1.41488218,71.3808103 C0.491655651,69.6545268 2.84700014e-15,67.9422245 -4.89992948e-15,63.2202494 L3.65758785e-16,13.5797506 C-2.12516387e-16,8.85777546 0.491655651,7.14547318 1.41488218,5.41918965 C2.33810871,3.69290613 3.69290613,2.33810871 5.41918965,1.41488218 C7.14547318,0.491655651 8.85777546,-2.0812217e-16 13.5797506,3.58195962e-16 Z" id="矩形备份-11" fill="#8CEDC7" filter="url(#filter-4)"></path>
                            <path d="M13.5797506,3.58195962e-16 L171.79956,5.48638177e-16 C176.521535,-3.1877458e-16 178.233837,0.491655651 179.960121,1.41488218 C181.686404,2.33810871 183.041202,3.69290613 183.964428,5.41918965 C184.887655,7.14547318 185.37931,8.85777546 185.37931,13.5797506 L185.37931,63.2202494 C185.37931,67.9422245 184.887655,69.6545268 183.964428,71.3808103 C183.041202,73.1070939 181.686404,74.4618913 179.960121,75.3851178 C178.233837,76.3083443 176.521535,76.8 171.79956,76.8 L13.5797506,76.8 C8.85777546,76.8 7.14547318,76.3083443 5.41918965,75.3851178 C3.69290613,74.4618913 2.33810871,73.1070939 1.41488218,71.3808103 C0.491655651,69.6545268 2.84700014e-15,67.9422245 -4.89992948e-15,63.2202494 L3.65758785e-16,13.5797506 C-2.12516387e-16,8.85777546 0.491655651,7.14547318 1.41488218,5.41918965 C2.33810871,3.69290613 3.69290613,2.33810871 5.41918965,1.41488218 C7.14547318,0.491655651 8.85777546,-2.0812217e-16 13.5797506,3.58195962e-16 Z" id="矩形备份-11" fill="#8BEEC7"></path>
                            <rect id="矩形备份-9" fill="#FFFFFF" opacity="0.5" x="13.2413793" y="13.2413793" width="45.0206897" height="10.5931034"></rect>
                            <path d="M96.662069,51.6413793 L92.6896552,62.2344828 L13.2413793,62.2344828 L17.2137931,51.6413793 L96.662069,51.6413793 Z M173.462069,33.1034483 L169.489655,43.6965517 L13.2413793,43.6965517 L17.2137931,33.1034483 L173.462069,33.1034483 Z" id="形状结合" fill="#FFFFFF" opacity="0.5"></path>
                        </g>
                    </g>
                    <path d="M25.496992,80.7724138 L183.716801,80.7724138 C188.438776,80.7724138 190.151079,81.2640694 191.877362,82.187296 C193.603646,83.1105225 194.958443,84.4653199 195.88167,86.1916034 C196.804896,87.917887 197.296552,89.6301893 197.296552,94.3521644 L197.296552,120.15818 C197.296552,124.880156 196.804896,126.592458 195.88167,128.318741 C194.958443,130.045025 193.603646,131.399822 191.877362,132.323049 C190.151079,133.246275 188.438776,133.737931 183.716801,133.737931 L25.496992,133.737931 C20.7750168,133.737931 19.0627146,133.246275 17.336431,132.323049 C15.6101475,131.399822 14.2553501,130.045025 13.3321236,128.318741 C12.408897,126.592458 11.9172414,124.880156 11.9172414,120.15818 L11.9172414,94.3521644 C11.9172414,89.6301893 12.408897,87.917887 13.3321236,86.1916034 C14.2553501,84.4653199 15.6101475,83.1105225 17.336431,82.187296 C19.0627146,81.2640694 20.7750168,80.7724138 25.496992,80.7724138 Z" id="矩形" fill="#FFE8C7" filter="url(#filter-5)"></path>
                    <path d="M25.496992,80.7724138 L183.716801,80.7724138 C188.438776,80.7724138 190.151079,81.2640694 191.877362,82.187296 C193.603646,83.1105225 194.958443,84.4653199 195.88167,86.1916034 C196.804896,87.917887 197.296552,89.6301893 197.296552,94.3521644 L197.296552,120.15818 C197.296552,124.880156 196.804896,126.592458 195.88167,128.318741 C194.958443,130.045025 193.603646,131.399822 191.877362,132.323049 C190.151079,133.246275 188.438776,133.737931 183.716801,133.737931 L25.496992,133.737931 C20.7750168,133.737931 19.0627146,133.246275 17.336431,132.323049 C15.6101475,131.399822 14.2553501,130.045025 13.3321236,128.318741 C12.408897,126.592458 11.9172414,124.880156 11.9172414,120.15818 L11.9172414,94.3521644 C11.9172414,89.6301893 12.408897,87.917887 13.3321236,86.1916034 C14.2553501,84.4653199 15.6101475,83.1105225 17.336431,82.187296 C19.0627146,81.2640694 20.7750168,80.7724138 25.496992,80.7724138 Z" id="矩形" fill="#FFE8C7"></path>
                    <path d="M71.5034483,112.551724 L71.5034483,123.144828 L25.1586207,123.144828 L25.1586207,112.551724 L71.5034483,112.551724 Z M181.406897,94.0137931 L181.406897,104.606897 L25.1586207,104.606897 L25.1586207,94.0137931 L181.406897,94.0137931 Z" id="形状结合" fill="#FFFFFF" opacity="0.800000012"></path>
                    <g id="编组" transform="translate(19.862069, 83.420690)" fill="#FF8E00">
                        <rect id="矩形" opacity="0.300000012" x="3.97241379" y="7.94482759" width="52.9655172" height="15.8896552"></rect>
                        <path d="M3.97241379,0 C6.16631735,0 7.94482759,1.77851024 7.94482759,3.97241379 C7.94482759,5.7020519 6.83939619,7.17350267 5.29648693,7.71881259 L5.29655172,22.5103448 C5.29655172,23.241646 4.70371498,23.8344828 3.97241379,23.8344828 C3.24111261,23.8344828 2.64827586,23.241646 2.64827586,22.5103448 L2.64834066,7.71881259 C1.10543139,7.17350267 0,5.7020519 0,3.97241379 C0,1.77851024 1.77851024,0 3.97241379,0 Z" id="形状结合"></path>
                        <path d="M56.937931,7.94482759 C59.1318346,7.94482759 60.9103448,9.72333782 60.9103448,11.9172414 C60.9103448,13.6468795 59.8049134,15.1183303 58.2620042,15.6636402 L58.262069,30.4551724 C58.262069,31.1864736 57.6692322,31.7793103 56.937931,31.7793103 C56.2066298,31.7793103 55.6137931,31.1864736 55.6137931,30.4551724 L55.6138579,15.6636402 C54.0709486,15.1183303 52.9655172,13.6468795 52.9655172,11.9172414 C52.9655172,9.72333782 54.7440275,7.94482759 56.937931,7.94482759 Z" id="形状结合备份" transform="translate(56.937931, 19.862069) scale(1, -1) translate(-56.937931, -19.862069) "></path>
                    </g>
                    <g id="编组-4" transform="translate(11.917241, 31.779310)">
                        <path d="M6.78987529,-7.27736158e-16 L152.106676,8.23234567e-15 C154.467664,-4.78322991e-15 155.323815,0.245827825 156.186957,0.707441091 C157.050099,1.16905436 157.727497,1.84645306 158.189111,2.70959483 C158.650724,3.57273659 158.896552,4.42888773 158.896552,6.78987529 L158.896552,21.0170213 C158.896552,23.3780088 158.650724,24.23416 158.189111,25.0973017 C157.727497,25.9604435 157.050099,26.6378422 156.186957,27.0994555 C155.323815,27.5610687 154.467664,27.8068966 152.106676,27.8068966 L33.1034483,27.8068966 L33.1034483,27.8068966 L26.4827586,35.0896552 L19.862069,27.8068966 L6.78987529,27.8068966 C4.42888773,27.8068966 3.57273659,27.5610687 2.70959483,27.0994555 C1.84645306,26.6378422 1.16905436,25.9604435 0.707441091,25.0973017 C0.245827825,24.23416 3.247934e-15,23.3780088 -5.58997078e-15,21.0170213 L1.82879392e-16,6.78987529 C-1.06258193e-16,4.42888773 0.245827825,3.57273659 0.707441091,2.70959483 C1.16905436,1.84645306 1.84645306,1.16905436 2.70959483,0.707441091 C3.57273659,0.245827825 4.42888773,4.22835665e-16 6.78987529,-7.27736158e-16 Z" id="矩形" fill="#626262"></path>
                        <path d="M51.6413793,0 L152.106676,4.25333238e-15 C154.467664,-2.4713086e-15 155.323815,0.245827825 156.186957,0.707441091 C157.050099,1.16905436 157.727497,1.84645306 158.189111,2.70959483 C158.650724,3.57273659 158.896552,4.42888773 158.896552,6.78987529 L158.896552,21.0170213 C158.896552,23.3780088 158.650724,24.23416 158.189111,25.0973017 C157.727497,25.9604435 157.050099,26.6378422 156.186957,27.0994555 C155.323815,27.5610687 154.467664,27.8068966 152.106676,27.8068966 L51.6413793,27.8068966 L51.6413793,27.8068966 L51.6413793,0 Z" id="矩形" fill="#000000" opacity="0.5"></path>
                        <path d="M16.662931,18.6931034 C18.3698276,18.6931034 19.5853448,17.9948276 20.199569,16.7599138 C20.3030172,16.5530172 20.3547414,16.3784483 20.3547414,16.1780172 C20.3547414,15.8741379 20.1349138,15.6543103 19.824569,15.6543103 C19.5659483,15.6543103 19.4043103,15.7771552 19.2814655,16.0616379 C18.8418103,17.1090517 17.8849138,17.6198276 16.6693966,17.6198276 C14.8267241,17.6198276 13.6564655,16.1586207 13.6564655,13.8698276 C13.6564655,11.600431 14.8396552,10.1262931 16.662931,10.1262931 C17.8137931,10.1262931 18.8159483,10.7211207 19.2556034,11.8202586 C19.3849138,12.15 19.5853448,12.3051724 19.8698276,12.3051724 C20.1866379,12.3051724 20.3935345,12.0982759 20.3935345,11.775 C20.3935345,11.6392241 20.3612069,11.4775862 20.2965517,11.3159483 C19.7469828,9.92586207 18.3633621,9.05301724 16.662931,9.05301724 C14.1090517,9.05301724 12.4603448,10.9409483 12.4603448,13.8698276 C12.4603448,16.824569 14.0896552,18.6931034 16.662931,18.6931034 Z M24.2007414,18.6543103 C26.0563448,18.6543103 27.3106552,17.3159483 27.3106552,15.1758621 C27.3106552,13.0293103 26.0563448,11.6974138 24.2007414,11.6974138 C22.3386724,11.6974138 21.0843621,13.0293103 21.0843621,15.1758621 C21.0843621,17.3159483 22.3386724,18.6543103 24.2007414,18.6543103 Z M24.2007414,17.6650862 C23.0110862,17.6650862 22.2287586,16.7599138 22.2287586,15.1758621 C22.2287586,13.5918103 23.0110862,12.6866379 24.2007414,12.6866379 C25.3903966,12.6866379 26.1662586,13.5918103 26.1662586,15.1758621 C26.1662586,16.7599138 25.3903966,17.6650862 24.2007414,17.6650862 Z M28.6868276,20.9107759 C29.016569,20.9107759 29.2493276,20.6650862 29.2493276,20.3094828 L29.2493276,17.4452586 L29.2751897,17.4452586 C29.6760517,18.1823276 30.4519138,18.6543103 31.4152759,18.6543103 C33.1092414,18.6543103 34.266569,17.2836207 34.266569,15.1758621 C34.266569,13.0681034 33.1027759,11.6974138 31.3894138,11.6974138 C30.4131207,11.6974138 29.6307931,12.1952586 29.217,12.9517241 L29.1911379,12.9517241 L29.1911379,12.2663793 C29.1911379,11.9301724 28.9713103,11.6974138 28.6609655,11.6974138 C28.3441552,11.6974138 28.1243276,11.9301724 28.1243276,12.2663793 L28.1243276,20.3094828 C28.1243276,20.6650862 28.3570862,20.9107759 28.6868276,20.9107759 Z M31.1695862,17.6650862 C30.0187241,17.6650862 29.2428621,16.6758621 29.2428621,15.1758621 C29.2428621,13.6823276 30.0187241,12.6866379 31.1695862,12.6866379 C32.3657069,12.6866379 33.1157069,13.6564655 33.1157069,15.1758621 C33.1157069,16.7017241 32.3657069,17.6650862 31.1695862,17.6650862 Z M35.5457586,21.0530172 C36.6578276,21.0530172 37.2073966,20.5551724 37.7892931,19.0099138 L40.2720517,12.512069 C40.3108448,12.4021552 40.3302414,12.2987069 40.3302414,12.2146552 C40.3302414,11.9107759 40.1039483,11.6974138 39.7806724,11.6974138 C39.5026552,11.6974138 39.3539483,11.8137931 39.2505,12.1112069 L37.388431,17.412931 L37.3690345,17.412931 L35.513431,12.1112069 C35.4099828,11.8137931 35.2418793,11.6974138 34.9767931,11.6974138 C34.6535172,11.6974138 34.4142931,11.9043103 34.4142931,12.2146552 C34.4142931,12.2987069 34.4336897,12.4021552 34.4724828,12.512069 L36.7871379,18.5443966 L36.6319655,19.0163793 C36.3668793,19.8310345 35.9595517,20.0896552 35.5328276,20.0896552 C35.3582586,20.0896552 35.313,20.0831897 35.1513621,20.0831897 C34.8668793,20.0831897 34.6987759,20.2512931 34.6987759,20.4969828 C34.6987759,20.8525862 35.0026552,21.0530172 35.5457586,21.0530172 Z" id="Copy" fill="#FFFFFF" fill-rule="nonzero"></path>
                        <rect id="矩形" fill="#FFFFFF" opacity="0.200000003" x="51.6413793" y="0" width="1.32413793" height="27.8068966"></rect>
                        <rect id="矩形备份" fill="#FFFFFF" opacity="0.200000003" x="105.931034" y="0" width="1.32413793" height="27.8068966"></rect>
                    </g>
                </g>
                <g id="编组-5" transform="translate(146.979310, 23.145831)">
                    <path d="M66.3708853,172.12388 C77.2301539,182.983148 118.730843,159.088812 159.065269,118.754386 C185.954887,91.8647682 203.744718,60.9666402 212.434763,26.0600016 L212.275276,25.4576796 C211.771884,23.6518792 211.284181,22.810826 210.812169,22.93452 C210.465367,23.0254017 209.387812,26.844024 209.04181,26.9367208 C175.522644,35.9167832 145.7555,53.4143747 119.740379,79.4294955 C79.405953,119.763922 55.5116167,161.264611 66.3708853,172.12388 Z" id="椭圆形" fill="#7341B3"></path>
                    <path d="M65.0467474,168.794045 C75.9060159,179.653314 117.406705,155.758978 157.741131,115.424551 C184.630749,88.5349339 202.42058,57.6368059 211.110625,22.7301672 C176.203987,31.4202124 145.305859,49.2100437 118.416241,76.0996611 C78.0818151,116.434087 54.1874788,157.934777 65.0467474,168.794045 Z" id="椭圆形" fill="#935ED9"></path>
                    <line x1="126.769572" y1="29.959676" x2="126.769572" y2="185.545883" id="路径" stroke="#FFFFFF" stroke-width="2.64827586" opacity="0.300000012" stroke-linecap="round" transform="translate(126.769572, 107.752779) rotate(-315.000000) translate(-126.769572, -107.752779) "></line>
                    <path d="M84.8227668,193.529909 C99.0618305,199.282864 127.927155,161.0724 149.295275,108.184449 C163.540687,72.9258155 167.843453,37.5328978 162.203571,2.00569639 C160.808599,0.461192952 159.797672,-0.0659807728 159.17079,0.424175214 C131.857126,21.7805787 111.502373,53.265968 97.7310636,87.3511558 C76.3629444,140.239107 70.583703,187.776954 84.8227668,193.529909 Z" id="椭圆形" fill="#BC4161"></path>
                    <path d="M82.0803873,191.524212 C96.319451,197.277168 125.184776,159.066704 146.552895,106.178753 C160.798308,70.9201191 165.101074,35.5272014 159.461192,-5.68434189e-14 C130.724933,21.638339 109.234097,50.0868255 94.9886841,85.3454595 C73.620565,138.23341 67.8413236,185.771257 82.0803873,191.524212 Z" id="椭圆形" fill="#FE7294"></path>
                    <line x1="116.276608" y1="31.3311028" x2="116.276608" y2="186.91731" id="路径" stroke="#FFFFFF" stroke-width="2.64827586" opacity="0.300000012" stroke-linecap="round" transform="translate(116.276608, 109.124206) rotate(-338.000000) translate(-116.276608, -109.124206) "></line>
                    <g id="编组" transform="translate(0.000000, 92.591937)">
                        <g id="矩形">
                            <use fill="black" fill-opacity="1" filter="url(#filter-7)" xlink:href="#path-6"></use>
                            <use fill="#FFFFFF" fill-rule="evenodd" xlink:href="#path-6"></use>
                        </g>
                        <polygon id="矩形" fill="#CFC6B7" opacity="0.200000003" points="0 95.337931 188.027586 95.337931 188.027586 96 0 96"></polygon>
                        <path d="M137.710345,75.4758621 L137.710345,86.0689655 L7.94482759,86.0689655 L7.94482759,75.4758621 L137.710345,75.4758621 Z M180.082759,55.6137931 L180.082759,66.2068966 L7.94482759,66.2068966 L7.94482759,55.6137931 L180.082759,55.6137931 Z M157.572414,35.7517241 L157.572414,46.3448276 L7.94482759,46.3448276 L7.94482759,35.7517241 L157.572414,35.7517241 Z" id="形状结合" fill="#E5E5E5"></path>
                        <path d="M13.0372341,7.94482759 L18.7420763,7.94482759 C20.512817,7.94482759 21.1549303,8.12919846 21.8022866,8.4754084 C22.449643,8.82161835 22.957692,9.32966738 23.3039019,9.97702371 C23.6501119,10.62438 23.8344828,11.2664934 23.8344828,13.0372341 L23.8344828,18.7420763 C23.8344828,20.512817 23.6501119,21.1549303 23.3039019,21.8022866 C22.957692,22.449643 22.449643,22.957692 21.8022866,23.3039019 C21.1549303,23.6501119 20.512817,23.8344828 18.7420763,23.8344828 L13.0372341,23.8344828 C11.2664934,23.8344828 10.62438,23.6501119 9.97702371,23.3039019 C9.32966738,22.957692 8.82161835,22.449643 8.4754084,21.8022866 C8.12919846,21.1549303 7.94482759,20.512817 7.94482759,18.7420763 L7.94482759,13.0372341 C7.94482759,11.2664934 8.12919846,10.62438 8.4754084,9.97702371 C8.82161835,9.32966738 9.32966738,8.82161835 9.97702371,8.4754084 C10.62438,8.12919846 11.2664934,7.94482759 13.0372341,7.94482759 Z" id="矩形" fill="#FF8E00" opacity="0.800000012"></path>
                        <path d="M49.1972487,103.282759 C50.9679894,103.282759 51.6101027,103.467129 52.2574591,103.813339 C52.9048154,104.159549 53.4128644,104.667598 53.7590744,105.314955 C54.1052843,105.962311 54.2896552,106.604424 54.2896552,108.375165 L54.2896552,114.080007 C54.2896552,115.850748 54.1052843,116.492861 53.7590744,117.140218 C53.4128644,117.787574 52.9048154,118.295623 52.2574591,118.641833 C51.6101027,118.988043 50.9679894,119.172414 49.1972487,119.172414 L43.4924065,119.172414 C41.7216658,119.172414 41.0795524,118.988043 40.4321961,118.641833 C39.7848398,118.295623 39.2767908,117.787574 38.9305808,117.140218 C38.5843709,116.492861 38.4,115.850748 38.4,114.080007 L38.4,108.375165 C38.4,106.604424 38.5843709,105.962311 38.9305808,105.314955 C39.2767908,104.667598 39.7848398,104.159549 40.4321961,103.813339 C41.0795524,103.467129 41.7216658,103.282759 43.4924065,103.282759 L49.1972487,103.282759 Z M79.6524211,103.282759 C81.4231618,103.282759 82.0652751,103.467129 82.7126315,103.813339 C83.3599878,104.159549 83.8680368,104.667598 84.2142468,105.314955 C84.5604567,105.962311 84.7448276,106.604424 84.7448276,108.375165 L84.7448276,114.080007 C84.7448276,115.850748 84.5604567,116.492861 84.2142468,117.140218 C83.8680368,117.787574 83.3599878,118.295623 82.7126315,118.641833 C82.0652751,118.988043 81.4231618,119.172414 79.6524211,119.172414 L73.9475789,119.172414 C72.1768382,119.172414 71.5347249,118.988043 70.8873685,118.641833 C70.2400122,118.295623 69.7319632,117.787574 69.3857532,117.140218 C69.0395433,116.492861 68.8551724,115.850748 68.8551724,114.080007 L68.8551724,108.375165 C68.8551724,106.604424 69.0395433,105.962311 69.3857532,105.314955 C69.7319632,104.667598 70.2400122,104.159549 70.8873685,103.813339 C71.5347249,103.467129 72.1768382,103.282759 73.9475789,103.282759 L79.6524211,103.282759 Z M110.107594,103.282759 C111.878334,103.282759 112.520448,103.467129 113.167804,103.813339 C113.81516,104.159549 114.323209,104.667598 114.669419,105.314955 C115.015629,105.962311 115.2,106.604424 115.2,108.375165 L115.2,114.080007 C115.2,115.850748 115.015629,116.492861 114.669419,117.140218 C114.323209,117.787574 113.81516,118.295623 113.167804,118.641833 C112.520448,118.988043 111.878334,119.172414 110.107594,119.172414 L104.402751,119.172414 C102.632011,119.172414 101.989897,118.988043 101.342541,118.641833 C100.695185,118.295623 100.187136,117.787574 99.8409256,117.140218 C99.4947157,116.492861 99.3103448,115.850748 99.3103448,114.080007 L99.3103448,108.375165 C99.3103448,106.604424 99.4947157,105.962311 99.8409256,105.314955 C100.187136,104.667598 100.695185,104.159549 101.342541,103.813339 C101.989897,103.467129 102.632011,103.282759 104.402751,103.282759 L110.107594,103.282759 Z M140.562766,103.282759 C142.333507,103.282759 142.97562,103.467129 143.622976,103.813339 C144.270333,104.159549 144.778382,104.667598 145.124592,105.314955 C145.470802,105.962311 145.655172,106.604424 145.655172,108.375165 L145.655172,114.080007 C145.655172,115.850748 145.470802,116.492861 145.124592,117.140218 C144.778382,117.787574 144.270333,118.295623 143.622976,118.641833 C142.97562,118.988043 142.333507,119.172414 140.562766,119.172414 L134.857924,119.172414 C133.087183,119.172414 132.44507,118.988043 131.797713,118.641833 C131.150357,118.295623 130.642308,117.787574 130.296098,117.140218 C129.949888,116.492861 129.765517,115.850748 129.765517,114.080007 L129.765517,108.375165 C129.765517,106.604424 129.949888,105.962311 130.296098,105.314955 C130.642308,104.667598 131.150357,104.159549 131.797713,103.813339 C132.44507,103.467129 133.087183,103.282759 134.857924,103.282759 L140.562766,103.282759 Z M171.017938,103.282759 C172.788679,103.282759 173.430792,103.467129 174.078149,103.813339 C174.725505,104.159549 175.233554,104.667598 175.579764,105.314955 C175.925974,105.962311 176.110345,106.604424 176.110345,108.375165 L176.110345,114.080007 C176.110345,115.850748 175.925974,116.492861 175.579764,117.140218 C175.233554,117.787574 174.725505,118.295623 174.078149,118.641833 C173.430792,118.988043 172.788679,119.172414 171.017938,119.172414 L165.313096,119.172414 C163.542355,119.172414 162.900242,118.988043 162.252886,118.641833 C161.605529,118.295623 161.09748,117.787574 160.75127,117.140218 C160.405061,116.492861 160.22069,115.850748 160.22069,114.080007 L160.22069,108.375165 C160.22069,106.604424 160.405061,105.962311 160.75127,105.314955 C161.09748,104.667598 161.605529,104.159549 162.252886,103.813339 C162.900242,103.467129 163.542355,103.282759 165.313096,103.282759 L171.017938,103.282759 Z" id="形状结合" fill="#FED3A9"></path>
                        <path d="M15.8896552,102.594107 C20.2774623,102.594107 23.8344828,106.151127 23.8344828,110.538934 C23.8344828,114.926741 20.2774623,118.483762 15.8896552,118.483762 C11.5018481,118.483762 7.94482759,114.926741 7.94482759,110.538934 C7.94482759,106.151127 11.5018481,102.594107 15.8896552,102.594107 Z M15.8896552,105.904452 C15.5240046,105.904452 15.2275862,106.20087 15.2275862,106.566521 L15.2275862,106.566521 L15.2271724,109.876452 L11.9172414,109.876865 C11.5515908,109.876865 11.2551724,110.173284 11.2551724,110.538934 C11.2551724,110.904585 11.5515908,111.201003 11.9172414,111.201003 L11.9172414,111.201003 L15.2271724,111.200452 L15.2275862,114.511348 C15.2275862,114.876999 15.5240046,115.173417 15.8896552,115.173417 C16.2553058,115.173417 16.5517241,114.876999 16.5517241,114.511348 L16.5517241,114.511348 L16.5511724,111.200452 L19.862069,111.201003 C20.2277196,111.201003 20.5241379,110.904585 20.5241379,110.538934 C20.5241379,110.173284 20.2277196,109.876865 19.862069,109.876865 L19.862069,109.876865 L16.5511724,109.876452 L16.5517241,106.566521 C16.5517241,106.20087 16.2553058,105.904452 15.8896552,105.904452 Z" id="形状结合" fill="#007CFF"></path>
                    </g>
                </g>
            </g>
        </g>
    </g>
</svg>