<?xml version="1.0" encoding="UTF-8"?>
<svg width="168px" height="56px" viewBox="0 0 168 56" version="1.1" xmlns="http://www.w3.org/2000/svg" xmlns:xlink="http://www.w3.org/1999/xlink">
    <!-- Generator: Sketch 60.1 (88133) - https://sketch.com -->
    <title>Download_on_the_App_Store_Badge_US-UK_RGB_blk_092917</title>
    <desc>Created with Sketch.</desc>
    <g id="页面-1" stroke="none" stroke-width="1" fill="none" fill-rule="evenodd">
        <g id="桌面端-HD" transform="translate(-128.000000, -448.000000)" fill-rule="nonzero">
            <g id="编组-4" transform="translate(128.000000, 272.000000)">
                <g id="Download_on_the_App_Store_Badge_US-UK_RGB_blk_092917" transform="translate(0.000000, 176.000000)">
                    <g id="编组">
                        <g id="路径">
                            <path d="M154.188678,-0.000182 L13.348552,-0.000182 C12.835172,-0.000182 12.327952,-0.000182 11.81593,0.0028 C11.38732,0.0056 10.962126,0.013734 10.5294,0.02058 C9.58931915,0.0316425251 8.65144906,0.114346764 7.72394,0.267974 C6.79773371,0.424945679 5.90054152,0.720882036 5.062708,1.145774 C4.22589918,1.5742604 3.46128303,2.13103454 2.796598,2.795898 C2.1284235,3.45889179 1.57144845,4.22522293 1.14709,5.065424 C0.721560338,5.90395277 0.426496698,6.80251361 0.27209,7.730072 C0.116215318,8.65645887 0.0323377329,9.59352876 0.02121,10.532872 C0.008218,10.962112 0.006846,11.39278 0,11.822076 L0,44.18204 C0.006846,44.61674 0.008218,45.03786 0.02121,45.4727 C0.0323411452,46.4119967 0.116218731,47.3490198 0.27209,48.27536 C0.426070334,49.2034606 0.721151421,50.1025373 1.14709,50.94138 C1.57125577,51.778864 2.12830914,52.5420927 2.796598,53.2014 C3.45876275,53.8692197 4.22387313,54.4263726 5.062708,54.85158 C5.90053516,55.2776092 6.79763062,55.575307 7.72394,55.7347 C8.65160673,55.8870966 9.58938037,55.9698345 10.5294,55.98222 C10.962126,55.99174 11.38732,55.9972 11.81593,55.9972 C12.327938,56 12.8352,56 13.348552,56 L154.188678,56 C154.691838,56 155.203118,56 155.706278,55.9972 C156.132858,55.9972 156.570358,55.99174 156.996938,55.98222 C157.93518,55.9704932 158.871189,55.8877501 159.796938,55.7347 C160.726236,55.5741849 161.626547,55.2765659 162.468418,54.85158 C163.306496,54.4261264 164.0709,53.8689887 164.732498,53.2014 C165.399063,52.5395105 165.957305,51.7768402 166.386738,50.94138 C166.80948,50.1019271 167.101753,49.2029223 167.253478,48.27536 C167.409599,47.3488927 167.496453,46.412078 167.513318,45.4727 C167.518778,45.03786 167.518778,44.61674 167.518778,44.18204 C167.529698,43.67342 167.529698,43.1676 167.529698,42.65072 L167.529698,13.350582 C167.529698,12.837888 167.529698,12.329296 167.518778,11.822076 C167.518778,11.39278 167.518778,10.962112 167.513318,10.532816 C167.496456,9.59339142 167.409602,8.65652994 167.253478,7.730016 C167.10133,6.80299424 166.809075,5.90450459 166.386738,5.065368 C165.522552,3.38127451 164.152203,2.01043556 162.468418,1.145648 C161.626545,0.721794332 160.726137,0.425936574 159.796938,0.267848 C158.871349,0.113543896 157.935243,0.0308108708 156.996938,0.020384 C156.570358,0.013552 156.132858,0.005348 155.706278,0.002618 C155.203118,-0.000182 154.691838,-0.000182 154.188678,-0.000182 L154.188678,-0.000182 Z" fill="#A6A6A6"></path>
                            <path d="M11.822762,54.775 C11.39621,54.775 10.979962,54.76954 10.556756,54.76002 C9.68005048,54.748597 8.80539404,54.6722751 7.93996,54.53168 C7.13298642,54.3926994 6.35124594,54.1341703 5.620524,53.76462 C4.89650239,53.3981317 4.23613647,52.917582 3.664724,52.34138 C3.08504046,51.7719654 2.60242743,51.1115415 2.23601,50.38628 C1.86555496,49.6563048 1.60917803,48.8738594 1.47581,48.0662 C1.3317841,47.1983608 1.25386012,46.3208385 1.24271,45.4412 C1.233834,45.14594 1.222214,44.16286 1.222214,44.16286 L1.222214,11.822076 C1.222214,11.822076 1.23459,10.854102 1.24278,10.56972 C1.25345616,9.69147487 1.33092701,8.81531434 1.474522,7.948822 C1.60813621,7.13895011 1.86471162,6.35424841 2.235366,5.621882 C2.60043675,4.89712139 3.08037042,4.23620441 3.656562,3.664752 C4.23210596,3.08786999 4.89458426,2.60484577 5.619838,2.233294 C6.34888053,1.86493104 7.12914362,1.60822556 7.934486,1.471778 C8.80276227,1.32977059 9.68045517,1.25299452 10.5602,1.242094 L11.823448,1.225 L155.699418,1.225 L156.977758,1.24278 C157.849501,1.25313888 158.71922,1.32923001 159.579518,1.470406 C160.393013,1.6085651 161.181408,1.86706175 161.918778,2.237396 C163.371724,2.98618047 164.553958,4.17082813 165.299778,5.625298 C165.664516,6.35260859 165.917134,7.13090946 166.049058,7.933786 C166.194363,8.80738793 166.275686,9.69043367 166.292378,10.57588 C166.296438,10.97236 166.296438,11.39824 166.296438,11.822076 C166.307498,12.347076 166.307498,12.846778 166.307498,13.350582 L166.307498,42.65072 C166.307498,43.15934 166.307498,43.65564 166.296438,44.156 C166.296438,44.61128 166.296438,45.02834 166.290978,45.45758 C166.274647,46.3272259 166.19468,47.1945099 166.051718,48.05248 C165.921084,48.8659656 165.666103,49.6545184 165.295718,50.39048 C164.92671,51.1078696 164.446869,51.7625727 163.873878,52.33046 C163.301951,52.9097585 162.64042,53.3931198 161.914718,53.76196 C161.17939,54.1343511 160.392156,54.3938364 159.579518,54.53168 C158.714149,54.6730254 157.839409,54.7493522 156.962638,54.76002 C156.552578,54.76954 156.123198,54.775 155.706278,54.775 L154.188678,54.7778 L11.822762,54.775 Z" fill="#000000"></path>
                        </g>
                        <g id="_Group_" transform="translate(13.600000, 12.200000)" fill="#FFFFFF">
                            <g id="_Group_2">
                                <g id="_Group_3">
                                    <path d="M21.076432,16.220952 C21.1070318,13.8458928 22.3521721,11.6520606 24.375616,10.408068 C23.0933177,8.57671788 21.0225489,7.45722969 18.787992,7.387316 C16.437056,7.140552 14.157926,8.794078 12.959932,8.794078 C11.738754,8.794078 9.894254,7.411816 7.908032,7.452682 C5.29468177,7.53711378 2.91739204,8.98693567 1.645944,11.2717 C-1.061656,15.959488 0.95797,22.848958 3.551624,26.638212 C4.849284,28.493702 6.365876,30.566332 8.350306,30.492832 C10.29219,30.41229 11.017446,29.25456 13.361466,29.25456 C15.68373,29.25456 16.364172,30.492832 18.388866,30.4461 C20.472598,30.412276 21.785448,28.582364 23.03758,26.709304 C23.9699466,25.3871996 24.6874011,23.9259863 25.163368,22.37979 C22.6885272,21.3330538 21.0793205,18.9080481 21.076432,16.220952 L21.076432,16.220952 Z" id="_Path_"></path>
                                    <path d="M17.25215,4.895246 C18.3882872,3.53135467 18.9480189,1.77830344 18.812478,0.008378 C17.076713,0.190686682 15.4733523,1.02026955 14.321866,2.331832 C13.1848262,3.62586464 12.6088045,5.31880575 12.720672,7.037778 C14.4797116,7.05588947 16.1498825,6.26621451 17.25215,4.895246 L17.25215,4.895246 Z" id="_Path_2"></path>
                                </g>
                            </g>
                            <g id="编组" transform="translate(34.000000, 12.600000)">
                                <path d="M11.623178,13.19551 L4.996418,13.19551 L3.40501,17.89454 L0.598178,17.89454 L6.874938,0.50934 L9.791138,0.50934 L16.067898,17.89454 L13.2132,17.89454 L11.623178,13.19551 Z M5.68274,11.027148 L10.93554,11.027148 L8.346086,3.40097 L8.273622,3.40097 L5.68274,11.027148 Z" id="形状"></path>
                                <path d="M29.623566,11.557622 C29.623566,15.496494 27.515362,18.027148 24.333918,18.027148 C22.6894574,18.1131705 21.1404654,17.251843 20.345836,15.809548 L20.285636,15.809548 L20.285636,22.08768 L17.683876,22.08768 L17.683876,5.219332 L20.20228,5.219332 L20.20228,7.327536 L20.250132,7.327536 C21.0800636,5.89428308 22.630726,5.03332637 24.286066,5.08671 C27.503,5.086724 29.623566,7.629684 29.623566,11.557622 Z M26.949342,11.557622 C26.949342,8.991422 25.623164,7.304296 23.59973,7.304296 C21.611842,7.304296 20.27473,9.026954 20.27473,11.557622 C20.27473,14.11153 21.611842,15.821882 23.59973,15.821882 C25.623178,15.821882 26.949342,14.147076 26.949342,11.557622 Z" id="形状"></path>
                                <path d="M43.574342,11.557622 C43.574342,15.496494 41.466138,18.027148 38.284694,18.027148 C36.6402334,18.1131705 35.0912414,17.251843 34.296612,15.809548 L34.236412,15.809548 L34.236412,22.08768 L31.634652,22.08768 L31.634652,5.219332 L34.153,5.219332 L34.153,7.327536 L34.200852,7.327536 C35.0307897,5.89428395 36.5814579,5.0333323 38.2368,5.086724 C41.453832,5.086724 43.574342,7.629684 43.574342,11.557622 Z M40.900132,11.557622 C40.900132,8.991422 39.57394,7.304296 37.550506,7.304296 C35.562618,7.304296 34.225506,9.026954 34.225506,11.557622 C34.225506,14.11153 35.562618,15.821882 37.550506,15.821882 C39.573954,15.821882 40.900132,14.147076 40.900132,11.557622 L40.900132,11.557622 Z" id="形状"></path>
                                <path d="M52.794658,13.050582 C52.987438,14.774612 54.662258,15.906582 56.950908,15.906582 C59.143882,15.906582 60.721612,14.774556 60.721612,13.220052 C60.721612,11.870634 59.770046,11.062652 57.516928,10.508924 L55.26381,9.966144 C52.071432,9.195052 50.589392,7.702078 50.589392,5.27942 C50.589392,2.279808 53.203458,0.219456 56.915362,0.219456 C60.588962,0.219456 63.107352,2.279808 63.192122,5.27942 L60.565722,5.27942 C60.408502,3.544456 58.974314,2.4972 56.878416,2.4972 C54.782518,2.4972 53.348344,3.556776 53.348344,5.09896 C53.348344,6.328062 54.264364,7.051302 56.505176,7.60496 L58.4206,8.075276 C61.98759,8.918832 63.46963,10.351676 63.46963,12.894608 C63.46963,16.147144 60.878804,18.184256 56.7581,18.184256 C52.902626,18.184256 50.299508,16.194996 50.13134,13.050456 L52.794658,13.050582 Z" id="路径"></path>
                                <path d="M69.084694,2.21972 L69.084694,5.219332 L71.495046,5.219332 L71.495046,7.279684 L69.084694,7.279684 L69.084694,14.267378 C69.084694,15.352924 69.567316,15.858786 70.626878,15.858786 C70.913026,15.8537963 71.198711,15.8337017 71.48274,15.798586 L71.48274,17.846632 C71.0063596,17.9356434 70.5221591,17.9759563 70.037618,17.966948 C67.471418,17.966948 66.470628,17.003076 66.470628,14.544872 L66.470628,7.279684 L64.627668,7.279684 L64.627668,5.219332 L66.4706,5.219332 L66.4706,2.21972 L69.084694,2.21972 Z" id="路径"></path>
                                <path d="M72.891,11.557622 C72.891,7.56954 75.239822,5.063484 78.90253,5.063484 C82.57753,5.063484 84.915418,7.569484 84.915418,11.557622 C84.915418,15.556652 82.589836,18.05176 78.90253,18.05176 C75.216526,18.05176 72.891,15.556638 72.891,11.557622 Z M82.264434,11.557622 C82.264434,8.821882 81.01072,7.207234 78.902516,7.207234 C76.794312,7.207234 75.54197,8.834188 75.54197,11.557622 C75.54197,14.304296 76.794312,15.906652 78.902516,15.906652 C81.01072,15.906652 82.264434,14.304296 82.264434,11.557622 L82.264434,11.557622 Z" id="形状"></path>
                                <path d="M87.06047,5.219332 L89.541928,5.219332 L89.541928,7.376732 L89.602128,7.376732 C89.9481745,5.98791577 91.2207136,5.03208418 92.65095,5.086696 C92.9507797,5.08564912 93.2497821,5.11821104 93.542358,5.183772 L93.542358,7.617364 C93.1638414,7.50170065 92.7689835,7.44859581 92.373358,7.460144 C91.6084655,7.42911362 90.8682193,7.73394862 90.346986,8.29460836 C89.8257528,8.8552681 89.5756072,9.61573904 89.66223,10.376344 L89.66223,17.894512 L87.06047,17.894512 L87.06047,5.219332 Z" id="路径"></path>
                                <path d="M105.53802,14.171674 C105.18802,16.472644 102.947194,18.051746 100.080204,18.051746 C96.392898,18.051746 94.104234,15.581236 94.104234,11.617766 C94.104234,7.64199 96.405204,5.06347 99.970836,5.06347 C103.477668,5.06347 105.682948,7.47245 105.682948,11.315618 L105.682948,12.207026 L96.730606,12.207026 L96.730606,12.364246 C96.6470224,13.3078903 96.9728642,14.2419672 97.6252479,14.9288779 C98.2776316,15.6157886 99.1936785,15.9893266 100.140376,15.954476 C101.402955,16.0727755 102.59332,15.3477687 103.067524,14.17166 L105.53802,14.171674 Z M96.7428874,10.388678 L103.079816,10.388678 C103.127032,9.54073649 102.818375,8.71155232 102.22821,8.10088417 C101.638045,7.49021601 100.819881,7.15343257 99.970836,7.171674 C99.1150745,7.16656712 98.292727,7.50350848 97.6865757,8.10760654 C97.0804245,8.71170461 96.7406948,9.53290409 96.7428874,10.388678 L96.7428874,10.388678 Z" id="形状"></path>
                            </g>
                        </g>
                    </g>
                    <g id="_Group_4" transform="translate(49.000000, 11.200000)" fill="#FFFFFF">
                        <g id="编组">
                            <path d="M3.956666,1.0234 C5.06119118,0.944137854 6.14304917,1.3643664 6.90446581,2.16842054 C7.66588244,2.97247469 8.02660022,4.07560271 7.887334,5.174176 C7.887334,7.842926 6.444956,9.376976 3.956666,9.376976 L0.939288,9.376976 L0.939288,1.0234 L3.956666,1.0234 Z M2.236738,8.1956 L3.811738,8.1956 C4.60108872,8.24278281 5.36968113,7.93178261 5.90410592,7.34895251 C6.43853071,6.7661224 6.68189145,5.97351218 6.566616,5.1912 C6.67350462,4.41213435 6.42663922,3.6260647 5.89353951,3.04798757 C5.3604398,2.46991045 4.59689394,2.16032082 3.811738,2.203894 L2.236738,2.203894 L2.236738,8.1956 Z" id="形状"></path>
                            <path d="M9.352952,6.222076 C9.24485398,5.09211507 9.78667713,3.99855671 10.7511823,3.40003631 C11.7156875,2.80151592 12.9361145,2.80151592 13.9006197,3.40003631 C14.8651249,3.99855671 15.406948,5.09211507 15.29885,6.222076 C15.4090047,7.35325117 14.8676761,8.44893053 13.9023158,9.04873942 C12.9369554,9.64854831 11.7148466,9.64854831 10.7494862,9.04873942 C9.78412588,8.44893053 9.24279728,7.35325117 9.352952,6.222076 Z M14.019166,6.222076 C14.019166,4.855578 13.40528,4.056458 12.327952,4.056458 C11.246508,4.056458 10.638152,4.855578 10.638152,6.22209 C10.638152,7.599536 11.24655,8.392496 12.327952,8.392496 C13.405308,8.392496 14.019166,7.594048 14.019166,6.222076 L14.019166,6.222076 Z" id="形状"></path>
                            <polygon id="路径" points="23.202564 9.37685 21.911946 9.37685 20.609022 4.733876 20.510588 4.733876 19.213124 9.37685 17.934798 9.37685 16.197104 3.072748 17.459022 3.072748 18.588318 7.883148 18.681292 7.883148 19.977384 3.072748 21.17094 3.072748 22.467032 7.883148 22.565466 7.883148 23.689288 3.072748 24.933426 3.072748"></polygon>
                            <path d="M26.394942,3.072748 L27.5926,3.072748 L27.5926,4.07421 L27.685574,4.07421 C28.0088828,3.33686912 28.764362,2.88583046 29.566824,2.95106 C30.1881675,2.90434448 30.7970402,3.14270586 31.2215271,3.5988429 C31.646014,4.05497993 31.8400503,4.67939326 31.74885,5.29578 L31.74885,9.37678 L30.504712,9.37678 L30.504712,5.608204 C30.504712,4.595122 30.064482,4.091304 29.14436,4.091304 C28.7229122,4.07167477 28.3139082,4.2370756 28.0245764,4.5441435 C27.7352447,4.85121139 27.5944411,5.26932141 27.63908,5.688858 L27.63908,9.37685 L26.394942,9.37685 L26.394942,3.072748 Z" id="路径"></path>
                            <polygon id="路径" points="33.731278 0.6118 34.975416 0.6118 34.975416 9.376836 33.731278 9.376836"></polygon>
                            <path d="M36.704906,6.222076 C36.596891,5.09204115 37.1387996,3.99845511 38.1033764,3.39992548 C39.0679531,2.80139586 40.2884429,2.80139586 41.2530196,3.39992548 C42.2175964,3.99845511 42.759505,5.09204115 42.65149,6.222076 C42.7615048,7.35329166 42.220077,8.44894007 41.2546688,9.04872254 C40.2892605,9.64850501 39.0671355,9.64850501 38.1017272,9.04872254 C37.136319,8.44894007 36.5948912,7.35329166 36.704906,6.222076 L36.704906,6.222076 Z M41.37112,6.222076 C41.37112,4.855578 40.757234,4.056458 39.679906,4.056458 C38.598462,4.056458 37.990106,4.855578 37.990106,6.22209 C37.990106,7.599536 38.598504,8.392496 39.679906,8.392496 C40.757248,8.392496 41.37112,7.594048 41.37112,6.222076 L41.37112,6.222076 Z" id="形状"></path>
                            <path d="M43.96126,7.594048 C43.96126,6.459278 44.806188,5.805086 46.30598,5.712112 L48.013602,5.613678 L48.013602,5.06954 C48.013602,4.403714 47.573372,4.027744 46.722984,4.027744 C46.028458,4.027744 45.547208,4.282726 45.409112,4.72843 L44.204622,4.72843 C44.33177,3.645614 45.350326,2.951088 46.780398,2.951088 C48.360872,2.951088 49.25228,3.737888 49.25228,5.06954 L49.25228,9.376864 L48.054622,9.376864 L48.054622,8.49093 L47.956188,8.49093 C47.549416,9.13790687 46.8260431,9.51602853 46.062632,9.48073 C45.5274626,9.53639654 44.9937196,9.36307492 44.5933541,9.00361342 C44.1929887,8.64415192 43.9633685,8.13210064 43.96126,7.594048 L43.96126,7.594048 Z M48.013602,7.05537 L48.013602,6.528326 L46.474148,6.62676 C45.60598,6.68486 45.21223,6.980176 45.21223,7.535934 C45.21223,8.103312 45.704414,8.433488 46.38123,8.433488 C46.7818905,8.47404581 47.1818569,8.35026507 47.4895685,8.09048182 C47.7972801,7.83069858 47.9863882,7.45715748 48.013602,7.05537 Z" id="形状"></path>
                            <path d="M50.887424,6.222076 C50.887424,4.230086 51.911454,2.968168 53.50422,2.968168 C54.3084875,2.93111019 55.0617585,3.36206201 55.437424,4.074168 L55.530398,4.074168 L55.530398,0.6118 L56.774536,0.6118 L56.774536,9.376836 L55.582352,9.376836 L55.582352,8.380834 L55.483918,8.380834 C55.0798558,9.08703178 54.3173043,9.51069907 53.504234,9.48073 C51.90052,9.4808 50.887424,8.218854 50.887424,6.222076 Z M52.172624,6.222076 C52.172624,7.559188 52.802904,8.363782 53.857006,8.363782 C54.905606,8.363782 55.55368,7.547582 55.55368,6.22755 C55.55368,4.913678 54.898802,4.085844 53.857006,4.085844 C52.809694,4.085844 52.172582,4.895898 52.172582,6.222076 L52.172624,6.222076 Z" id="形状"></path>
                            <path d="M61.922,6.222076 C61.813902,5.09211507 62.3557251,3.99855671 63.3202303,3.40003631 C64.2847355,2.80151592 65.5051625,2.80151592 66.4696677,3.40003631 C67.4341729,3.99855671 67.975996,5.09211507 67.867898,6.222076 C67.9780527,7.35325117 67.4367241,8.44893053 66.4713638,9.04873942 C65.5060034,9.64854831 64.2838946,9.64854831 63.3185342,9.04873942 C62.3531739,8.44893053 61.8118453,7.35325117 61.922,6.222076 L61.922,6.222076 Z M66.5882,6.222076 C66.5882,4.855578 65.974328,4.056458 64.897,4.056458 C63.815556,4.056458 63.2072,4.855578 63.2072,6.22209 C63.2072,7.599536 63.815598,8.392496 64.897,8.392496 C65.974342,8.392496 66.5882,7.594048 66.5882,6.222076 Z" id="形状"></path>
                            <path d="M69.53723,3.072748 L70.734888,3.072748 L70.734888,4.07421 L70.827862,4.07421 C71.1511708,3.33686912 71.90665,2.88583046 72.709112,2.95106 C73.3304555,2.90434448 73.9393282,3.14270586 74.3638151,3.5988429 C74.788302,4.05497993 74.9823383,4.67939326 74.891138,5.29578 L74.891138,9.37678 L73.647,9.37678 L73.647,5.608204 C73.647,4.595122 73.20677,4.091304 72.286648,4.091304 C71.8652002,4.07167477 71.4561962,4.2370756 71.1668644,4.5441435 C70.8775327,4.85121139 70.7367291,5.26932141 70.781368,5.688858 L70.781368,9.37685 L69.53723,9.37685 L69.53723,3.072748 Z" id="路径"></path>
                            <path d="M81.921224,1.503222 L81.921224,3.101462 L83.28705,3.101462 L83.28705,4.149418 L81.921224,4.149418 L81.921224,7.39102 C81.921224,8.051372 82.1933,8.340528 82.812632,8.340528 C82.9711898,8.34002055 83.1295884,8.33043353 83.28705,8.311814 L83.28705,9.348136 C83.0636233,9.38810701 82.8372519,9.40937206 82.61029,9.41171 C81.226698,9.41171 80.675714,8.924986 80.675714,7.709562 L80.675714,4.149362 L79.674938,4.149362 L79.674938,3.101406 L80.675714,3.101406 L80.675714,1.503222 L81.921224,1.503222 Z" id="路径"></path>
                            <path d="M84.986454,0.6118 L86.219658,0.6118 L86.219658,4.08583 L86.318092,4.08583 C86.6569309,3.34203598 87.4256322,2.89042256 88.240292,2.956534 C88.8581073,2.92291619 89.4587376,3.1665252 89.878585,3.6210074 C90.2984323,4.07548959 90.4937669,4.69350789 90.411384,5.306728 L90.411384,9.37685 L89.166,9.37685 L89.166,5.61365 C89.166,4.606714 88.697,4.09675 87.817954,4.09675 C87.3851145,4.06125114 86.9586747,4.21860734 86.6526393,4.5267509 C86.3466038,4.83489446 86.1921787,5.26240444 86.230648,5.69499 L86.230648,9.37685 L84.98651,9.37685 L84.986454,0.6118 Z" id="路径"></path>
                            <path d="M97.66575,7.674702 C97.3168798,8.86383327 96.1661385,9.63214425 94.934112,9.498524 C94.0935015,9.52071428 93.285628,9.17228298 92.7248395,8.54567723 C92.1640511,7.91907148 91.907041,7.07763832 92.022,6.24463 C91.9100943,5.40930667 92.1661415,4.56652523 92.7238072,3.93462574 C93.2814728,3.30272625 94.0858828,2.94388745 94.928638,2.951074 C96.68274,2.951074 97.740944,4.149474 97.740944,6.129074 L97.740944,6.5632 L93.289378,6.5632 L93.289378,6.63292 C93.2499848,7.1007162 93.409751,7.56342685 93.7293851,7.90725698 C94.0490192,8.25108711 94.498863,8.44413349 94.968286,8.43892 C95.5769666,8.51199256 96.1694755,8.21006626 96.468092,7.67466 L97.66575,7.674702 Z M93.28935,5.643064 L96.473524,5.643064 C96.5052381,5.21522461 96.3548018,4.7938871 96.0592877,4.48288273 C95.7637736,4.17187836 95.3506645,4.00013072 94.921764,4.009964 C94.4870528,4.00450248 94.0685592,4.17482973 93.7612149,4.48230844 C93.4538706,4.78978714 93.2837264,5.20835523 93.289378,5.643064 L93.28935,5.643064 Z" id="形状"></path>
                        </g>
                    </g>
                </g>
            </g>
        </g>
    </g>
</svg>