<?xml version="1.0" encoding="UTF-8"?>
<svg width="389px" height="370px" viewBox="0 0 389 370" version="1.1" xmlns="http://www.w3.org/2000/svg" xmlns:xlink="http://www.w3.org/1999/xlink">
    <!-- Generator: Sketch 60.1 (88133) - https://sketch.com -->
    <title>editor</title>
    <desc>Created with Sketch.</desc>
    <defs>
        <path d="M40.6768754,78.4962527 L337.984934,78.4962527 C345.045762,78.4962527 347.606189,79.2314315 350.187523,80.6119437 C352.768856,81.9924558 354.794701,84.0183013 356.175214,86.5996347 C357.555726,89.180968 358.290905,91.741395 358.290905,98.8022234 L358.290905,330.110282 C358.290905,337.17111 357.555726,339.731537 356.175214,342.312871 C354.794701,344.894204 352.768856,346.920049 350.187523,348.300562 C347.606189,349.681074 345.045762,350.416253 337.984934,350.416253 L40.6768754,350.416253 C33.616047,350.416253 31.05562,349.681074 28.4742867,348.300562 C25.8929533,346.920049 23.8671078,344.894204 22.4865957,342.312871 C21.1060835,339.731537 20.3709047,337.17111 20.3709047,330.110282 L20.3709047,98.8022234 C20.3709047,91.741395 21.1060835,89.180968 22.4865957,86.5996347 C23.8671078,84.0183013 25.8929533,81.9924558 28.4742867,80.6119437 C31.05562,79.2314315 33.616047,78.4962527 40.6768754,78.4962527 Z" id="path-1"></path>
        <filter x="-7.4%" y="-7.4%" width="114.8%" height="118.4%" filterUnits="objectBoundingBox" id="filter-2">
            <feOffset dx="0" dy="5" in="SourceAlpha" result="shadowOffsetOuter1"></feOffset>
            <feGaussianBlur stdDeviation="7.5" in="shadowOffsetOuter1" result="shadowBlurOuter1"></feGaussianBlur>
            <feColorMatrix values="0 0 0 0 0   0 0 0 0 0   0 0 0 0 0  0 0 0 0.1 0" type="matrix" in="shadowBlurOuter1"></feColorMatrix>
        </filter>
        <filter x="-4.5%" y="-11.5%" width="109.0%" height="123.1%" filterUnits="objectBoundingBox" id="filter-3">
            <feGaussianBlur stdDeviation="2.64" in="SourceGraphic"></feGaussianBlur>
        </filter>
        <filter x="-6.7%" y="-5.2%" width="113.5%" height="110.3%" filterUnits="objectBoundingBox" id="filter-4">
            <feGaussianBlur stdDeviation="2.64" in="SourceGraphic"></feGaussianBlur>
        </filter>
        <filter x="-4.5%" y="-11.1%" width="109.0%" height="122.2%" filterUnits="objectBoundingBox" id="filter-5">
            <feGaussianBlur stdDeviation="2.64" in="SourceGraphic"></feGaussianBlur>
        </filter>
        <filter x="-4.5%" y="-11.1%" width="109.0%" height="122.2%" filterUnits="objectBoundingBox" id="filter-6">
            <feGaussianBlur stdDeviation="2.64" in="SourceGraphic"></feGaussianBlur>
        </filter>
        <path d="M174.209688,70.4998343 L357.995956,70.4998343 C361.385154,70.4998343 362.614159,70.8527201 363.853199,71.5153659 C365.092239,72.1780118 366.064645,73.1504176 366.72729,74.3894576 C367.389936,75.6284976 367.742822,76.8575026 367.742822,80.2467002 L367.742822,161.072968 C367.742822,164.462166 367.389936,165.691171 366.72729,166.930211 C366.064645,168.169251 365.092239,169.141657 363.853199,169.804303 C362.614159,170.466948 361.385154,170.819834 357.995956,170.819834 L174.209688,170.819834 C170.82049,170.819834 169.591485,170.466948 168.352445,169.804303 C167.113405,169.141657 166.141,168.169251 165.478354,166.930211 C164.815708,165.691171 164.462822,164.462166 164.462822,161.072968 L164.462822,80.2467002 C164.462822,76.8575026 164.815708,75.6284976 165.478354,74.3894576 C166.141,73.1504176 167.113405,72.1780118 168.352445,71.5153659 C169.591485,70.8527201 170.82049,70.4998343 174.209688,70.4998343 Z" id="path-7"></path>
        <filter x="-12.3%" y="-19.9%" width="124.6%" height="149.8%" filterUnits="objectBoundingBox" id="filter-8">
            <feOffset dx="0" dy="5" in="SourceAlpha" result="shadowOffsetOuter1"></feOffset>
            <feGaussianBlur stdDeviation="7.5" in="shadowOffsetOuter1" result="shadowBlurOuter1"></feGaussianBlur>
            <feColorMatrix values="0 0 0 0 0.595145195   0 0 0 0 0.61353336   0 0 0 0 0.746688179  0 0 0 0.3 0" type="matrix" in="shadowBlurOuter1"></feColorMatrix>
        </filter>
    </defs>
    <g id="页面-1" stroke="none" stroke-width="1" fill="none" fill-rule="evenodd">
        <g id="桌面端-HD" transform="translate(-222.000000, -1446.000000)">
            <g id="editor" transform="translate(222.000000, 1446.000000)">
                <g id="编组-6">
                    <path d="M145.607428,171.585992 C134.782095,182.411326 93.4110953,158.591659 53.2027142,118.383278 C26.3971268,91.5776908 8.66288876,60.7761195 0,25.9785641 L0.158989057,25.3781244 C0.66080801,23.5779671 1.14698622,22.7395422 1.6175237,22.8628497 C1.96324148,22.9534473 3.0374296,26.7601365 3.38235029,26.8525436 C36.7967694,35.8045432 66.4708907,53.2474548 92.4047142,79.1812783 C132.613095,119.389659 156.432762,160.760659 145.607428,171.585992 Z" id="椭圆形" fill="#7341B3"></path>
                    <path d="M146.927428,168.266564 C136.102095,179.091897 94.7310953,155.272231 54.5227142,115.06385 C27.7171268,88.2582623 9.98288876,57.4566909 1.32,22.6591355 C36.1175554,31.3220242 66.9191268,49.0562623 93.7247142,75.8618497 C133.933095,116.070231 157.752762,157.44123 146.927428,168.266564 Z" id="椭圆形" fill="#935ED9"></path>
                    <line x1="85.397488" y1="29.8660521" x2="85.397488" y2="184.966052" id="路径" stroke="#FFFFFF" stroke-width="2.64" opacity="0.300000012" stroke-linecap="round" transform="translate(85.397488, 107.416052) scale(-1, 1) rotate(-315.000000) translate(-85.397488, -107.416052) "></line>
                    <path d="M127.213209,192.925128 C113.018642,198.660105 84.2435216,160.569049 62.9421777,107.846373 C48.7412819,72.6979223 44.4519624,37.4156075 50.0742193,1.99942859 C51.4648321,0.459751724 52.4726002,-0.0657745829 53.0975237,0.422849666 C80.3258326,21.7125144 100.616976,53.0995119 114.345251,87.0781835 C135.646594,139.80086 141.407776,187.190151 127.213209,192.925128 Z" id="椭圆形" fill="#BC4161"></path>
                    <path d="M129.947019,190.925699 C115.752452,196.660677 86.9773311,158.56962 65.6759873,105.846944 C51.4750914,70.6984937 47.1857719,35.4161789 52.8080288,-5.68434189e-14 C81.4544872,21.5707192 102.878164,49.9303042 117.07906,85.0787549 C138.380404,137.801431 144.141585,185.190722 129.947019,190.925699 Z" id="椭圆形" fill="#FE7294"></path>
                    <line x1="95.8576607" y1="31.2331931" x2="95.8576607" y2="186.333193" id="路径" stroke="#FFFFFF" stroke-width="2.64" opacity="0.300000012" stroke-linecap="round" transform="translate(95.857661, 108.783193) scale(-1, 1) rotate(-338.000000) translate(-95.857661, -108.783193) "></line>
                </g>
                <g id="矩形">
                    <use fill="black" fill-opacity="1" filter="url(#filter-2)" xlink:href="#path-1"></use>
                    <use fill="#FFFFFF" fill-rule="evenodd" xlink:href="#path-1"></use>
                </g>
                <g id="编组-4" transform="translate(34.890905, 96.976253)">
                    <path d="M13.5373139,2.34152379e-14 L163.342686,2.54159194e-14 C168.049905,2.45512173e-14 169.756856,0.490119227 171.477745,1.41046068 C173.198634,2.33080213 174.549198,3.6813658 175.469539,5.40225469 C176.389881,7.12314357 176.88,8.83009491 176.88,13.5373139 L176.88,55.1026861 C176.88,59.8099051 176.389881,61.5168564 175.469539,63.2377453 C174.549198,64.9586342 173.198634,66.3091979 171.477745,67.2295393 C169.756856,68.1498808 168.049905,68.64 163.342686,68.64 L13.5373139,68.64 C8.83009491,68.64 7.12314357,68.1498808 5.40225469,67.2295393 C3.6813658,66.3091979 2.33080213,64.9586342 1.41046068,63.2377453 C0.490119227,61.5168564 7.38749023e-16,59.8099051 -1.27144993e-15,55.1026861 L3.64615788e-16,13.5373139 C-2.11852273e-16,8.83009491 0.490119227,7.12314357 1.41046068,5.40225469 C2.33080213,3.6813658 3.6813658,2.33080213 5.40225469,1.41046068 C7.12314357,0.490119227 8.83009491,2.57136709e-14 13.5373139,2.34152379e-14 Z" id="矩形" fill="#FFE8C7" filter="url(#filter-3)"></path>
                    <path d="M13.5373139,2.34152379e-14 L163.342686,2.54159194e-14 C168.049905,2.45512173e-14 169.756856,0.490119227 171.477745,1.41046068 C173.198634,2.33080213 174.549198,3.6813658 175.469539,5.40225469 C176.389881,7.12314357 176.88,8.83009491 176.88,13.5373139 L176.88,55.1026861 C176.88,59.8099051 176.389881,61.5168564 175.469539,63.2377453 C174.549198,64.9586342 173.198634,66.3091979 171.477745,67.2295393 C169.756856,68.1498808 168.049905,68.64 163.342686,68.64 L13.5373139,68.64 C8.83009491,68.64 7.12314357,68.1498808 5.40225469,67.2295393 C3.6813658,66.3091979 2.33080213,64.9586342 1.41046068,63.2377453 C0.490119227,61.5168564 7.38749023e-16,59.8099051 -1.27144993e-15,55.1026861 L3.64615788e-16,13.5373139 C-2.11852273e-16,8.83009491 0.490119227,7.12314357 1.41046068,5.40225469 C2.33080213,3.6813658 3.6813658,2.33080213 5.40225469,1.41046068 C7.12314357,0.490119227 8.83009491,2.57136709e-14 13.5373139,2.34152379e-14 Z" id="矩形" fill="#FFE8C7"></path>
                    <path d="M108.24,42.8735002 L104.28,53.4335002 L21.12,53.4335002 L25.08,42.8735002 L108.24,42.8735002 Z M167.64,24.3935002 L163.68,34.9535002 L21.12,34.9535002 L25.08,24.3935002 L167.64,24.3935002 Z" id="形状结合" fill="#FFFFFF" opacity="0.800000012"></path>
                    <path d="M13.2,17.7935002 L13.2,12.7274386 L11.22,12.7274386 L11.22,12.1797562 C11.22,10.5024791 11.88,9.48698477 13.2,9.13327326 L13.2,9.13327326 L13.2,7.23350017 C9.68,7.53016143 7.92,9.77223598 7.92,13.9597238 L7.92,13.9597238 L7.92,17.7935002 L13.2,17.7935002 Z M21.12,17.7935002 L21.12,12.7274386 L19.14,12.7274386 L19.14,12.1797562 C19.14,10.5024791 19.8,9.48698477 21.12,9.13327326 L21.12,9.13327326 L21.12,7.23350017 C17.6,7.53016143 15.84,9.77223598 15.84,13.9597238 L15.84,13.9597238 L15.84,17.7935002 L21.12,17.7935002 Z" id="“" fill="#FF8E00" fill-rule="nonzero"></path>
                </g>
                <g id="编组-2" transform="translate(224.970905, 181.456253)">
                    <path d="M13.5373139,-1.45375782e-15 L103.942686,5.83569551e-15 C108.649905,-3.39070715e-15 110.356856,0.490119227 112.077745,1.41046068 C113.798634,2.33080213 115.149198,3.6813658 116.069539,5.40225469 C116.989881,7.12314357 117.48,8.83009491 117.48,13.5373139 L117.48,139.582686 C117.48,144.289905 116.989881,145.996856 116.069539,147.717745 C115.149198,149.438634 113.798634,150.789198 112.077745,151.709539 C110.356856,152.629881 108.649905,153.12 103.942686,153.12 L13.5373139,153.12 C8.83009491,153.12 7.12314357,152.629881 5.40225469,151.709539 C3.6813658,150.789198 2.33080213,149.438634 1.41046068,147.717745 C0.490119227,145.996856 7.38749023e-16,144.289905 -1.27144993e-15,139.582686 L3.64615788e-16,13.5373139 C-2.11852273e-16,8.83009491 0.490119227,7.12314357 1.41046068,5.40225469 C2.33080213,3.6813658 3.6813658,2.33080213 5.40225469,1.41046068 C7.12314357,0.490119227 8.83009491,8.4467516e-16 13.5373139,-1.45375782e-15 Z" id="矩形备份-11" fill="#D1EBFE" filter="url(#filter-4)"></path>
                    <path d="M13.5373139,-1.45375782e-15 L103.942686,5.83569551e-15 C108.649905,-3.39070715e-15 110.356856,0.490119227 112.077745,1.41046068 C113.798634,2.33080213 115.149198,3.6813658 116.069539,5.40225469 C116.989881,7.12314357 117.48,8.83009491 117.48,13.5373139 L117.48,139.582686 C117.48,144.289905 116.989881,145.996856 116.069539,147.717745 C115.149198,149.438634 113.798634,150.789198 112.077745,151.709539 C110.356856,152.629881 108.649905,153.12 103.942686,153.12 L13.5373139,153.12 C8.83009491,153.12 7.12314357,152.629881 5.40225469,151.709539 C3.6813658,150.789198 2.33080213,149.438634 1.41046068,147.717745 C0.490119227,145.996856 7.38749023e-16,144.289905 -1.27144993e-15,139.582686 L3.64615788e-16,13.5373139 C-2.11852273e-16,8.83009491 0.490119227,7.12314357 1.41046068,5.40225469 C2.33080213,3.6813658 3.6813658,2.33080213 5.40225469,1.41046068 C7.12314357,0.490119227 8.83009491,8.4467516e-16 13.5373139,-1.45375782e-15 Z" id="矩形备份-11" fill="#D1EBFE"></path>
                    <path d="M79.7439844,59.6036719 C84.6166406,59.6036719 87.0297656,62.0167969 87.0297656,66.7966406 L87.0297656,66.7966406 L87.0297656,95.1276562 C87.0297656,99.9075 84.6166406,102.320625 79.7439844,102.320625 L79.7439844,102.320625 L39.6025781,102.320625 C34.753125,102.320625 32.3167969,99.9307031 32.3167969,95.1276562 L32.3167969,95.1276562 L32.3167969,66.7966406 C32.3167969,61.9935937 34.753125,59.6036719 39.6025781,59.6036719 L39.6025781,59.6036719 Z M68.9313281,80.045625 C67.60875,80.045625 66.3325781,80.5096875 65.195625,81.530625 L65.195625,81.530625 L54.1045312,91.36875 L49.6727344,87.3778125 C48.6517969,86.4264844 47.4684375,85.9624219 46.3314844,85.9624219 C45.3105469,85.9624219 44.1967969,86.4264844 43.1758594,87.3314062 L43.1758594,87.3314062 L36.0525,93.5498437 L36.0525,94.9652344 C36.0525,97.2391406 37.3982812,98.5849219 39.6489844,98.5849219 L39.6489844,98.5849219 L79.7207812,98.5849219 C81.9250781,98.5849219 83.2940625,97.2391406 83.2940625,95.0116406 L83.2940625,95.0116406 L83.2940625,91.4383594 L72.620625,81.5538281 C71.5300781,80.5328906 70.2075,80.045625 68.9313281,80.045625 Z M49.7191406,70.0682812 C46.5635156,70.0682812 43.9879688,72.6670312 43.9879688,75.7994531 C43.9879688,78.9550781 46.5635156,81.530625 49.7191406,81.530625 C52.8515625,81.530625 55.4271094,78.9550781 55.4271094,75.7994531 C55.4271094,72.6670312 52.8515625,70.0682812 49.7191406,70.0682812 Z" id="形状结合" fill="#FFFFFF" fill-rule="nonzero"></path>
                </g>
                <g id="编组-3备份" transform="translate(34.890905, 178.816253)">
                    <g id="编组-2">
                        <path d="M13.5373139,6.86936816e-14 L163.342686,7.25080314e-14 C168.049905,7.02095984e-14 169.756856,0.490119227 171.477745,1.41046068 C173.198634,2.33080213 174.549198,3.6813658 175.469539,5.40225469 C176.389881,7.12314357 176.88,8.83009491 176.88,13.5373139 L176.88,57.7426861 C176.88,62.4499051 176.389881,64.1568564 175.469539,65.8777453 C174.549198,67.5986342 173.198634,68.9491979 171.477745,69.8695393 C169.756856,70.7898808 168.049905,71.28 163.342686,71.28 L13.5373139,71.28 C8.83009491,71.28 7.12314357,70.7898808 5.40225469,69.8695393 C3.6813658,68.9491979 2.33080213,67.5986342 1.41046068,65.8777453 C0.490119227,64.1568564 7.38749023e-16,62.4499051 -1.27144993e-15,57.7426861 L-5.42218351e-16,13.5373139 C3.15044477e-16,8.83009491 0.490119227,7.12314357 1.41046068,5.40225469 C2.33080213,3.6813658 3.6813658,2.33080213 5.40225469,1.41046068 C7.12314357,0.490119227 8.83009491,7.24258455e-14 13.5373139,6.86936816e-14 Z" id="矩形备份-11" fill="#E1C5FF" filter="url(#filter-5)"></path>
                        <path d="M13.5373139,6.86936816e-14 L163.342686,7.25080314e-14 C168.049905,7.02095984e-14 169.756856,0.490119227 171.477745,1.41046068 C173.198634,2.33080213 174.549198,3.6813658 175.469539,5.40225469 C176.389881,7.12314357 176.88,8.83009491 176.88,13.5373139 L176.88,57.7426861 C176.88,62.4499051 176.389881,64.1568564 175.469539,65.8777453 C174.549198,67.5986342 173.198634,68.9491979 171.477745,69.8695393 C169.756856,70.7898808 168.049905,71.28 163.342686,71.28 L13.5373139,71.28 C8.83009491,71.28 7.12314357,70.7898808 5.40225469,69.8695393 C3.6813658,68.9491979 2.33080213,67.5986342 1.41046068,65.8777453 C0.490119227,64.1568564 7.38749023e-16,62.4499051 -1.27144993e-15,57.7426861 L-5.42218351e-16,13.5373139 C3.15044477e-16,8.83009491 0.490119227,7.12314357 1.41046068,5.40225469 C2.33080213,3.6813658 3.6813658,2.33080213 5.40225469,1.41046068 C7.12314357,0.490119227 8.83009491,7.24258455e-14 13.5373139,6.86936816e-14 Z" id="矩形备份-11" fill="#E1C5FF"></path>
                        <path d="M26.1071905,50.3201429 L27.9739524,52.1869048 L20.5069048,59.6539524 L15.84,54.9870476 L17.7067619,53.1202857 L20.5061976,55.9197215 L26.1071905,50.3201429 Z M26.1071905,31.8401429 L27.9739524,33.7069048 L20.5069048,41.1739524 L15.84,36.5070476 L17.7067619,34.6402857 L20.5061976,37.4397215 L26.1071905,31.8401429 Z M26.1071905,13.3601429 L27.9739524,15.2269048 L20.5069048,22.6939524 L15.84,18.0270476 L17.7067619,16.1602857 L20.5061976,18.9597215 L26.1071905,13.3601429 Z" id="形状结合" fill="#B57CFE"></path>
                        <path d="M124.08,48.84 L124.08,59.4 L38.28,59.4 L38.28,48.84 L124.08,48.84 Z M91.08,30.36 L91.08,40.92 L38.28,40.92 L38.28,30.36 L91.08,30.36 Z M147.84,11.88 L147.84,22.44 L38.28,22.44 L38.28,11.88 L147.84,11.88 Z" id="形状结合" fill="#FFFFFF" opacity="0.5"></path>
                    </g>
                </g>
                <g id="编组-3" transform="translate(34.890905, 263.296253)">
                    <path d="M13.5373139,5.44828269e-14 L163.342686,5.82971767e-14 C168.049905,5.59987437e-14 169.756856,0.490119227 171.477745,1.41046068 C173.198634,2.33080213 174.549198,3.6813658 175.469539,5.40225469 C176.389881,7.12314357 176.88,8.83009491 176.88,13.5373139 L176.88,57.7426861 C176.88,62.4499051 176.389881,64.1568564 175.469539,65.8777453 C174.549198,67.5986342 173.198634,68.9491979 171.477745,69.8695393 C169.756856,70.7898808 168.049905,71.28 163.342686,71.28 L13.5373139,71.28 C8.83009491,71.28 7.12314357,70.7898808 5.40225469,69.8695393 C3.6813658,68.9491979 2.33080213,67.5986342 1.41046068,65.8777453 C0.490119227,64.1568564 7.38749023e-16,62.4499051 -1.27144993e-15,57.7426861 L-5.42218351e-16,13.5373139 C3.15044477e-16,8.83009491 0.490119227,7.12314357 1.41046068,5.40225469 C2.33080213,3.6813658 3.6813658,2.33080213 5.40225469,1.41046068 C7.12314357,0.490119227 8.83009491,5.82149908e-14 13.5373139,5.44828269e-14 Z" id="矩形" fill="#8CEDC7" filter="url(#filter-6)"></path>
                    <path d="M13.5373139,5.44828269e-14 L163.342686,5.82971767e-14 C168.049905,5.59987437e-14 169.756856,0.490119227 171.477745,1.41046068 C173.198634,2.33080213 174.549198,3.6813658 175.469539,5.40225469 C176.389881,7.12314357 176.88,8.83009491 176.88,13.5373139 L176.88,57.7426861 C176.88,62.4499051 176.389881,64.1568564 175.469539,65.8777453 C174.549198,67.5986342 173.198634,68.9491979 171.477745,69.8695393 C169.756856,70.7898808 168.049905,71.28 163.342686,71.28 L13.5373139,71.28 C8.83009491,71.28 7.12314357,70.7898808 5.40225469,69.8695393 C3.6813658,68.9491979 2.33080213,67.5986342 1.41046068,65.8777453 C0.490119227,64.1568564 7.38749023e-16,62.4499051 -1.27144993e-15,57.7426861 L-5.42218351e-16,13.5373139 C3.15044477e-16,8.83009491 0.490119227,7.12314357 1.41046068,5.40225469 C2.33080213,3.6813658 3.6813658,2.33080213 5.40225469,1.41046068 C7.12314357,0.490119227 8.83009491,5.82149908e-14 13.5373139,5.44828269e-14 Z" id="矩形" fill="#8CEDC7"></path>
                    <path d="M104.28,46.2 C107.196063,46.2 109.56,48.5639365 109.56,51.48 C109.56,54.3960635 107.196063,56.76 104.28,56.76 L21.12,56.76 C18.2039365,56.76 15.84,54.3960635 15.84,51.48 C15.84,48.5639365 18.2039365,46.2 21.12,46.2 L104.28,46.2 Z M165,30.36 C167.916063,30.36 170.28,32.7239365 170.28,35.64 C170.28,38.5560635 167.916063,40.92 165,40.92 L77.88,40.92 C74.9639365,40.92 72.6,38.5560635 72.6,35.64 C72.6,32.7239365 74.9639365,30.36 77.88,30.36 L165,30.36 Z M62.04,30.36 C64.9560635,30.36 67.32,32.7239365 67.32,35.64 C67.32,38.5560635 64.9560635,40.92 62.04,40.92 L21.12,40.92 C18.2039365,40.92 15.84,38.5560635 15.84,35.64 C15.84,32.7239365 18.2039365,30.36 21.12,30.36 L62.04,30.36 Z M81.84,14.52 C84.7560635,14.52 87.12,16.8839365 87.12,19.8 C87.12,22.7160635 84.7560635,25.08 81.84,25.08 L21.12,25.08 C18.2039365,25.08 15.84,22.7160635 15.84,19.8 C15.84,16.8839365 18.2039365,14.52 21.12,14.52 L81.84,14.52 Z M128.04,14.52 C130.956063,14.52 133.32,16.8839365 133.32,19.8 C133.32,22.7160635 130.956063,25.08 128.04,25.08 L97.68,25.08 C94.7639365,25.08 92.4,22.7160635 92.4,19.8 C92.4,16.8839365 94.7639365,14.52 97.68,14.52 L128.04,14.52 Z M165,14.52 C167.916063,14.52 170.28,16.8839365 170.28,19.8 C170.28,22.7160635 167.916063,25.08 165,25.08 L143.88,25.08 C140.963937,25.08 138.6,22.7160635 138.6,19.8 C138.6,16.8839365 140.963937,14.52 143.88,14.52 L165,14.52 Z" id="形状结合" fill="#FFFFFF" opacity="0.5"></path>
                </g>
                <g id="矩形" transform="translate(266.102822, 120.659834) rotate(-330.000000) translate(-266.102822, -120.659834) ">
                    <use fill="black" fill-opacity="1" filter="url(#filter-8)" xlink:href="#path-7"></use>
                    <use fill="#626262" fill-rule="evenodd" xlink:href="#path-7"></use>
                </g>
                <path d="M303.658998,145.848463 C305.918463,145.848463 306.737799,146.083721 307.563826,146.525484 C308.389853,146.967248 309.038123,147.615519 309.479887,148.441546 C309.921651,149.267572 310.156908,150.086909 310.156908,152.346374 L310.156908,159.150553 C310.156908,161.410018 309.921651,162.229354 309.479887,163.055381 C309.038123,163.881408 308.389853,164.529678 307.563826,164.971442 C306.737799,165.413206 305.918463,165.648463 303.658998,165.648463 L226.683619,165.648463 C224.424154,165.648463 223.604817,165.413206 222.778791,164.971442 C221.952764,164.529678 221.304493,163.881408 220.862729,163.055381 C220.445508,162.275245 220.212485,161.501076 220.187882,159.514044 L220.185708,152.346374 C220.185708,150.086909 220.420966,149.267572 220.862729,148.441546 C221.304493,147.615519 221.952764,146.967248 222.778791,146.525484 C223.558927,146.108263 224.333096,145.87524 226.320128,145.850637 L303.658998,145.848463 Z M209.886198,145.848463 C212.145663,145.848463 212.964999,146.083721 213.791026,146.525484 C214.617053,146.967248 215.265323,147.615519 215.707087,148.441546 C216.148851,149.267572 216.384108,150.086909 216.384108,152.346374 L216.384108,159.150553 C216.384108,161.410018 216.148851,162.229354 215.707087,163.055381 C215.265323,163.881408 214.617053,164.529678 213.791026,164.971442 C212.964999,165.413206 212.145663,165.648463 209.886198,165.648463 L177.262819,165.648463 C175.003354,165.648463 174.184017,165.413206 173.357991,164.971442 C172.531964,164.529678 171.883693,163.881408 171.441929,163.055381 C171.024708,162.275245 170.791685,161.501076 170.767082,159.514044 L170.764908,152.346374 C170.764908,150.086909 171.000166,149.267572 171.441929,148.441546 C171.883693,147.615519 172.531964,146.967248 173.357991,146.525484 C174.138127,146.108263 174.912296,145.87524 176.899328,145.850637 L209.886198,145.848463 Z M353.079798,145.848463 C355.339263,145.848463 356.158599,146.083721 356.984626,146.525484 C357.810653,146.967248 358.458923,147.615519 358.900687,148.441546 C359.342451,149.267572 359.577708,150.086909 359.577708,152.346374 L359.577708,159.150553 C359.577708,161.410018 359.342451,162.229354 358.900687,163.055381 C358.458923,163.881408 357.810653,164.529678 356.984626,164.971442 C356.158599,165.413206 355.339263,165.648463 353.079798,165.648463 L320.456419,165.648463 C318.196954,165.648463 317.377617,165.413206 316.551591,164.971442 C315.725564,164.529678 315.077293,163.881408 314.635529,163.055381 C314.218308,162.275245 313.985285,161.501076 313.960682,159.514044 L313.958508,152.346374 C313.958508,150.086909 314.193766,149.267572 314.635529,148.441546 C315.077293,147.615519 315.725564,146.967248 316.551591,146.525484 C317.331727,146.108263 318.105896,145.87524 320.092928,145.850637 L353.079798,145.848463 Z M185.691475,122.563663 C187.386074,122.563663 188.000577,122.740106 188.620097,123.071429 C189.239617,123.402752 189.72582,123.888955 190.057143,124.508475 C190.388465,125.127995 190.564908,125.742497 190.564908,127.437096 L190.564908,137.49023 C190.564908,139.184829 190.388465,139.799332 190.057143,140.418852 C189.72582,141.038372 189.239617,141.524575 188.620097,141.855897 C188.039297,142.166513 187.462907,142.341003 185.99682,142.361601 L175.638341,142.363663 C173.943743,142.363663 173.32924,142.18722 172.70972,141.855897 C172.0902,141.524575 171.603997,141.038372 171.272674,140.418852 C170.962059,139.838052 170.787569,139.261662 170.766971,137.795575 L170.764908,127.437096 C170.764908,125.742497 170.941351,125.127995 171.272674,124.508475 C171.603997,123.888955 172.0902,123.402752 172.70972,123.071429 C173.32924,122.740106 173.943743,122.563663 175.638341,122.563663 L185.691475,122.563663 Z M354.704275,122.563663 C356.398874,122.563663 357.013377,122.740106 357.632897,123.071429 C358.252417,123.402752 358.73862,123.888955 359.069943,124.508475 C359.401265,125.127995 359.577708,125.742497 359.577708,127.437096 L359.577708,137.49023 C359.577708,139.184829 359.401265,139.799332 359.069943,140.418852 C358.73862,141.038372 358.252417,141.524575 357.632897,141.855897 C357.052097,142.166513 356.475707,142.341003 355.00962,142.361601 L344.651141,142.363663 C342.956543,142.363663 342.34204,142.18722 341.72252,141.855897 C341.103,141.524575 340.616797,141.038372 340.285474,140.418852 C339.954151,139.799332 339.777708,139.184829 339.777708,137.49023 L339.777708,127.437096 C339.777708,125.742497 339.954151,125.127995 340.285474,124.508475 C340.616797,123.888955 341.103,123.402752 341.72252,123.071429 C342.34204,122.740106 342.956543,122.563663 344.651141,122.563663 L354.704275,122.563663 Z M230.518675,122.563663 C232.213274,122.563663 232.827777,122.740106 233.447297,123.071429 C234.066817,123.402752 234.55302,123.888955 234.884343,124.508475 C235.194958,125.089275 235.369448,125.665665 235.390046,127.131751 L235.392108,137.49023 C235.392108,139.184829 235.215665,139.799332 234.884343,140.418852 C234.55302,141.038372 234.066817,141.524575 233.447297,141.855897 C232.866497,142.166513 232.290107,142.341003 230.82402,142.361601 L223.791941,142.363663 C222.097343,142.363663 221.48284,142.18722 220.86332,141.855897 C220.2438,141.524575 219.757597,141.038372 219.426274,140.418852 C219.094951,139.799332 218.918508,139.184829 218.918508,137.49023 L218.918508,127.437096 C218.918508,125.742497 219.094951,125.127995 219.426274,124.508475 C219.757597,123.888955 220.2438,123.402752 220.86332,123.071429 C221.48284,122.740106 222.097343,122.563663 223.791941,122.563663 L230.518675,122.563663 Z M249.526675,122.563663 C251.221274,122.563663 251.835777,122.740106 252.455297,123.071429 C253.074817,123.402752 253.56102,123.888955 253.892343,124.508475 C254.223665,125.127995 254.400108,125.742497 254.400108,127.437096 L254.400108,137.49023 C254.400108,139.184829 254.223665,139.799332 253.892343,140.418852 C253.56102,141.038372 253.074817,141.524575 252.455297,141.855897 C251.874497,142.166513 251.298107,142.341003 249.83202,142.361601 L242.799941,142.363663 C241.105343,142.363663 240.49084,142.18722 239.87132,141.855897 C239.2518,141.524575 238.765597,141.038372 238.434274,140.418852 C238.123659,139.838052 237.949169,139.261662 237.928571,137.795575 L237.926508,127.437096 C237.926508,125.742497 238.102951,125.127995 238.434274,124.508475 C238.765597,123.888955 239.2518,123.402752 239.87132,123.071429 C240.49084,122.740106 241.105343,122.563663 242.799941,122.563663 L249.526675,122.563663 Z M325.558675,122.563663 C327.253274,122.563663 327.867777,122.740106 328.487297,123.071429 C329.106817,123.402752 329.59302,123.888955 329.924343,124.508475 C330.234958,125.089275 330.409448,125.665665 330.430046,127.131751 L330.432108,137.49023 C330.432108,139.184829 330.255665,139.799332 329.924343,140.418852 C329.59302,141.038372 329.106817,141.524575 328.487297,141.855897 C327.906497,142.166513 327.330107,142.341003 325.86402,142.361601 L318.831941,142.363663 C317.137343,142.363663 316.52284,142.18722 315.90332,141.855897 C315.2838,141.524575 314.797597,141.038372 314.466274,140.418852 C314.134951,139.799332 313.958508,139.184829 313.958508,137.49023 L313.958508,127.437096 C313.958508,125.742497 314.134951,125.127995 314.466274,124.508475 C314.797597,123.888955 315.2838,123.402752 315.90332,123.071429 C316.52284,122.740106 317.137343,122.563663 318.831941,122.563663 L325.558675,122.563663 Z M211.510675,122.563663 C213.205274,122.563663 213.819777,122.740106 214.439297,123.071429 C215.058817,123.402752 215.54502,123.888955 215.876343,124.508475 C216.186958,125.089275 216.361448,125.665665 216.382046,127.131751 L216.384108,137.49023 C216.384108,139.184829 216.207665,139.799332 215.876343,140.418852 C215.54502,141.038372 215.058817,141.524575 214.439297,141.855897 C213.858497,142.166513 213.282107,142.341003 211.81602,142.361601 L204.783941,142.363663 C203.089343,142.363663 202.47484,142.18722 201.85532,141.855897 C201.2358,141.524575 200.749597,141.038372 200.418274,140.418852 C200.086951,139.799332 199.910508,139.184829 199.910508,137.49023 L199.910508,127.437096 C199.910508,125.742497 200.086951,125.127995 200.418274,124.508475 C200.749597,123.888955 201.2358,123.402752 201.85532,123.071429 C202.47484,122.740106 203.089343,122.563663 204.783941,122.563663 L211.510675,122.563663 Z M268.534675,122.563663 C270.229274,122.563663 270.843777,122.740106 271.463297,123.071429 C272.082817,123.402752 272.56902,123.888955 272.900343,124.508475 C273.210958,125.089275 273.385448,125.665665 273.406046,127.131751 L273.408108,137.49023 C273.408108,139.184829 273.231665,139.799332 272.900343,140.418852 C272.56902,141.038372 272.082817,141.524575 271.463297,141.855897 C270.882497,142.166513 270.306107,142.341003 268.84002,142.361601 L261.807941,142.363663 C260.113343,142.363663 259.49884,142.18722 258.87932,141.855897 C258.2598,141.524575 257.773597,141.038372 257.442274,140.418852 C257.110951,139.799332 256.934508,139.184829 256.934508,137.49023 L256.934508,127.437096 C256.934508,125.742497 257.110951,125.127995 257.442274,124.508475 C257.773597,123.888955 258.2598,123.402752 258.87932,123.071429 C259.49884,122.740106 260.113343,122.563663 261.807941,122.563663 L268.534675,122.563663 Z M287.542675,122.563663 C289.237274,122.563663 289.851777,122.740106 290.471297,123.071429 C291.090817,123.402752 291.57702,123.888955 291.908343,124.508475 C292.218958,125.089275 292.393448,125.665665 292.414046,127.131751 L292.416108,137.49023 C292.416108,139.184829 292.239665,139.799332 291.908343,140.418852 C291.57702,141.038372 291.090817,141.524575 290.471297,141.855897 C289.890497,142.166513 289.314107,142.341003 287.84802,142.361601 L280.815941,142.363663 C279.121343,142.363663 278.50684,142.18722 277.88732,141.855897 C277.2678,141.524575 276.781597,141.038372 276.450274,140.418852 C276.118951,139.799332 275.942508,139.184829 275.942508,137.49023 L275.942508,127.437096 C275.942508,125.742497 276.118951,125.127995 276.450274,124.508475 C276.781597,123.888955 277.2678,123.402752 277.88732,123.071429 C278.50684,122.740106 279.121343,122.563663 280.815941,122.563663 L287.542675,122.563663 Z M306.550675,122.563663 C308.245274,122.563663 308.859777,122.740106 309.479297,123.071429 C310.098817,123.402752 310.58502,123.888955 310.916343,124.508475 C311.226958,125.089275 311.401448,125.665665 311.422046,127.131751 L311.424108,137.49023 C311.424108,139.184829 311.247665,139.799332 310.916343,140.418852 C310.58502,141.038372 310.098817,141.524575 309.479297,141.855897 C308.898497,142.166513 308.322107,142.341003 306.85602,142.361601 L299.823941,142.363663 C298.129343,142.363663 297.51484,142.18722 296.89532,141.855897 C296.2758,141.524575 295.789597,141.038372 295.458274,140.418852 C295.126951,139.799332 294.950508,139.184829 294.950508,137.49023 L294.950508,127.437096 C294.950508,125.742497 295.126951,125.127995 295.458274,124.508475 C295.789597,123.888955 296.2758,123.402752 296.89532,123.071429 C297.51484,122.740106 298.129343,122.563663 299.823941,122.563663 L306.550675,122.563663 Z M192.502675,99.0148633 C194.197274,99.0148633 194.811777,99.1913062 195.431297,99.5226291 C196.050817,99.8539521 196.53702,100.340155 196.868343,100.959675 C197.199665,101.579195 197.376108,102.193697 197.376108,103.888296 L197.376108,113.94143 C197.376108,115.636029 197.199665,116.250532 196.868343,116.870052 C196.53702,117.489572 196.050817,117.975775 195.431297,118.307097 C194.850497,118.617713 194.274107,118.792203 192.80802,118.812801 L185.775941,118.814863 C184.081343,118.814863 183.46684,118.63842 182.84732,118.307097 C182.2278,117.975775 181.741597,117.489572 181.410274,116.870052 C181.099659,116.289252 180.925169,115.712862 180.904571,114.246775 L180.902508,103.888296 C180.902508,102.193697 181.078951,101.579195 181.410274,100.959675 C181.741597,100.340155 182.2278,99.8539521 182.84732,99.5226291 C183.46684,99.1913062 184.081343,99.0148633 185.775941,99.0148633 L192.502675,99.0148633 Z M211.510675,99.0148633 C213.205274,99.0148633 213.819777,99.1913062 214.439297,99.5226291 C215.058817,99.8539521 215.54502,100.340155 215.876343,100.959675 C216.207665,101.579195 216.384108,102.193697 216.384108,103.888296 L216.384108,113.94143 C216.384108,115.636029 216.207665,116.250532 215.876343,116.870052 C215.54502,117.489572 215.058817,117.975775 214.439297,118.307097 C213.858497,118.617713 213.282107,118.792203 211.81602,118.812801 L204.783941,118.814863 C203.089343,118.814863 202.47484,118.63842 201.85532,118.307097 C201.2358,117.975775 200.749597,117.489572 200.418274,116.870052 C200.107659,116.289252 199.933169,115.712862 199.912571,114.246775 L199.910508,103.888296 C199.910508,102.193697 200.086951,101.579195 200.418274,100.959675 C200.749597,100.340155 201.2358,99.8539521 201.85532,99.5226291 C202.47484,99.1913062 203.089343,99.0148633 204.783941,99.0148633 L211.510675,99.0148633 Z M230.518675,99.0148633 C232.213274,99.0148633 232.827777,99.1913062 233.447297,99.5226291 C234.066817,99.8539521 234.55302,100.340155 234.884343,100.959675 C235.215665,101.579195 235.392108,102.193697 235.392108,103.888296 L235.392108,113.94143 C235.392108,115.636029 235.215665,116.250532 234.884343,116.870052 C234.55302,117.489572 234.066817,117.975775 233.447297,118.307097 C232.866497,118.617713 232.290107,118.792203 230.82402,118.812801 L223.791941,118.814863 C222.097343,118.814863 221.48284,118.63842 220.86332,118.307097 C220.2438,117.975775 219.757597,117.489572 219.426274,116.870052 C219.115659,116.289252 218.941169,115.712862 218.920571,114.246775 L218.918508,103.888296 C218.918508,102.193697 219.094951,101.579195 219.426274,100.959675 C219.757597,100.340155 220.2438,99.8539521 220.86332,99.5226291 C221.48284,99.1913062 222.097343,99.0148633 223.791941,99.0148633 L230.518675,99.0148633 Z M249.526675,99.0148633 C251.221274,99.0148633 251.835777,99.1913062 252.455297,99.5226291 C253.074817,99.8539521 253.56102,100.340155 253.892343,100.959675 C254.223665,101.579195 254.400108,102.193697 254.400108,103.888296 L254.400108,113.94143 C254.400108,115.636029 254.223665,116.250532 253.892343,116.870052 C253.56102,117.489572 253.074817,117.975775 252.455297,118.307097 C251.874497,118.617713 251.298107,118.792203 249.83202,118.812801 L242.799941,118.814863 C241.105343,118.814863 240.49084,118.63842 239.87132,118.307097 C239.2518,117.975775 238.765597,117.489572 238.434274,116.870052 C238.123659,116.289252 237.949169,115.712862 237.928571,114.246775 L237.926508,103.888296 C237.926508,102.193697 238.102951,101.579195 238.434274,100.959675 C238.765597,100.340155 239.2518,99.8539521 239.87132,99.5226291 C240.49084,99.1913062 241.105343,99.0148633 242.799941,99.0148633 L249.526675,99.0148633 Z M287.542675,99.0148633 C289.237274,99.0148633 289.851777,99.1913062 290.471297,99.5226291 C291.090817,99.8539521 291.57702,100.340155 291.908343,100.959675 C292.239665,101.579195 292.416108,102.193697 292.416108,103.888296 L292.416108,113.94143 C292.416108,115.636029 292.239665,116.250532 291.908343,116.870052 C291.57702,117.489572 291.090817,117.975775 290.471297,118.307097 C289.890497,118.617713 289.314107,118.792203 287.84802,118.812801 L280.815941,118.814863 C279.121343,118.814863 278.50684,118.63842 277.88732,118.307097 C277.2678,117.975775 276.781597,117.489572 276.450274,116.870052 C276.139659,116.289252 275.965169,115.712862 275.944571,114.246775 L275.942508,103.888296 C275.942508,102.193697 276.118951,101.579195 276.450274,100.959675 C276.781597,100.340155 277.2678,99.8539521 277.88732,99.5226291 C278.50684,99.1913062 279.121343,99.0148633 280.815941,99.0148633 L287.542675,99.0148633 Z M306.550675,99.0148633 C308.245274,99.0148633 308.859777,99.1913062 309.479297,99.5226291 C310.098817,99.8539521 310.58502,100.340155 310.916343,100.959675 C311.247665,101.579195 311.424108,102.193697 311.424108,103.888296 L311.424108,113.94143 C311.424108,115.636029 311.247665,116.250532 310.916343,116.870052 C310.58502,117.489572 310.098817,117.975775 309.479297,118.307097 C308.898497,118.617713 308.322107,118.792203 306.85602,118.812801 L299.823941,118.814863 C298.129343,118.814863 297.51484,118.63842 296.89532,118.307097 C296.2758,117.975775 295.789597,117.489572 295.458274,116.870052 C295.147659,116.289252 294.973169,115.712862 294.952571,114.246775 L294.950508,103.888296 C294.950508,102.193697 295.126951,101.579195 295.458274,100.959675 C295.789597,100.340155 296.2758,99.8539521 296.89532,99.5226291 C297.51484,99.1913062 298.129343,99.0148633 299.823941,99.0148633 L306.550675,99.0148633 Z M325.558675,99.0148633 C327.253274,99.0148633 327.867777,99.1913062 328.487297,99.5226291 C329.106817,99.8539521 329.59302,100.340155 329.924343,100.959675 C330.234958,101.540475 330.409448,102.116865 330.430046,103.582951 L330.432108,113.94143 C330.432108,115.636029 330.255665,116.250532 329.924343,116.870052 C329.59302,117.489572 329.106817,117.975775 328.487297,118.307097 C327.906497,118.617713 327.330107,118.792203 325.86402,118.812801 L318.831941,118.814863 C317.137343,118.814863 316.52284,118.63842 315.90332,118.307097 C315.2838,117.975775 314.797597,117.489572 314.466274,116.870052 C314.134951,116.250532 313.958508,115.636029 313.958508,113.94143 L313.958508,103.888296 C313.958508,102.193697 314.134951,101.579195 314.466274,100.959675 C314.797597,100.340155 315.2838,99.8539521 315.90332,99.5226291 C316.52284,99.1913062 317.137343,99.0148633 318.831941,99.0148633 L325.558675,99.0148633 Z M344.566675,99.0148633 C346.261274,99.0148633 346.875777,99.1913062 347.495297,99.5226291 C348.114817,99.8539521 348.60102,100.340155 348.932343,100.959675 C349.242958,101.540475 349.417448,102.116865 349.438046,103.582951 L349.440108,113.94143 C349.440108,115.636029 349.263665,116.250532 348.932343,116.870052 C348.60102,117.489572 348.114817,117.975775 347.495297,118.307097 C346.914497,118.617713 346.338107,118.792203 344.87202,118.812801 L337.839941,118.814863 C336.145343,118.814863 335.53084,118.63842 334.91132,118.307097 C334.2918,117.975775 333.805597,117.489572 333.474274,116.870052 C333.142951,116.250532 332.966508,115.636029 332.966508,113.94143 L332.966508,103.888296 C332.966508,102.193697 333.142951,101.579195 333.474274,100.959675 C333.805597,100.340155 334.2918,99.8539521 334.91132,99.5226291 C335.53084,99.1913062 336.145343,99.0148633 337.839941,99.0148633 L344.566675,99.0148633 Z M268.534675,99.0148633 C270.229274,99.0148633 270.843777,99.1913062 271.463297,99.5226291 C272.082817,99.8539521 272.56902,100.340155 272.900343,100.959675 C273.210958,101.540475 273.385448,102.116865 273.406046,103.582951 L273.408108,113.94143 C273.408108,115.636029 273.231665,116.250532 272.900343,116.870052 C272.56902,117.489572 272.082817,117.975775 271.463297,118.307097 C270.882497,118.617713 270.306107,118.792203 268.84002,118.812801 L261.807941,118.814863 C260.113343,118.814863 259.49884,118.63842 258.87932,118.307097 C258.2598,117.975775 257.773597,117.489572 257.442274,116.870052 C257.110951,116.250532 256.934508,115.636029 256.934508,113.94143 L256.934508,103.888296 C256.934508,102.193697 257.110951,101.579195 257.442274,100.959675 C257.773597,100.340155 258.2598,99.8539521 258.87932,99.5226291 C259.49884,99.1913062 260.113343,99.0148633 261.807941,99.0148633 L268.534675,99.0148633 Z M259.664275,76.3636633 C261.358874,76.3636633 261.973377,76.5401062 262.592897,76.8714291 C263.212417,77.2027521 263.69862,77.688955 264.029943,78.308475 C264.361265,78.927995 264.537708,79.5424975 264.537708,81.2370963 L264.537708,91.2902303 C264.537708,92.9848291 264.361265,93.5993316 264.029943,94.2188516 C263.69862,94.8383716 263.212417,95.3245745 262.592897,95.6558975 C262.012097,95.9665127 261.435707,96.1410029 259.96962,96.1616009 L252.937541,96.1636633 C251.242943,96.1636633 250.62844,95.9872204 250.00892,95.6558975 C249.3894,95.3245745 248.903197,94.8383716 248.571874,94.2188516 C248.261259,93.6380516 248.086769,93.0616615 248.066171,91.5955751 L248.064108,81.2370963 C248.064108,79.5424975 248.240551,78.927995 248.571874,78.308475 C248.903197,77.688955 249.3894,77.2027521 250.00892,76.8714291 C250.62844,76.5401062 251.242943,76.3636633 252.937541,76.3636633 L259.664275,76.3636633 Z M278.672275,76.3636633 C280.366874,76.3636633 280.981377,76.5401062 281.600897,76.8714291 C282.220417,77.2027521 282.70662,77.688955 283.037943,78.308475 C283.369265,78.927995 283.545708,79.5424975 283.545708,81.2370963 L283.545708,91.2902303 C283.545708,92.9848291 283.369265,93.5993316 283.037943,94.2188516 C282.70662,94.8383716 282.220417,95.3245745 281.600897,95.6558975 C281.020097,95.9665127 280.443707,96.1410029 278.97762,96.1616009 L271.945541,96.1636633 C270.250943,96.1636633 269.63644,95.9872204 269.01692,95.6558975 C268.3974,95.3245745 267.911197,94.8383716 267.579874,94.2188516 C267.269259,93.6380516 267.094769,93.0616615 267.074171,91.5955751 L267.072108,81.2370963 C267.072108,79.5424975 267.248551,78.927995 267.579874,78.308475 C267.911197,77.688955 268.3974,77.2027521 269.01692,76.8714291 C269.63644,76.5401062 270.250943,76.3636633 271.945541,76.3636633 L278.672275,76.3636633 Z M316.688275,76.3636633 C318.382874,76.3636633 318.997377,76.5401062 319.616897,76.8714291 C320.236417,77.2027521 320.72262,77.688955 321.053943,78.308475 C321.385265,78.927995 321.561708,79.5424975 321.561708,81.2370963 L321.561708,91.2902303 C321.561708,92.9848291 321.385265,93.5993316 321.053943,94.2188516 C320.72262,94.8383716 320.236417,95.3245745 319.616897,95.6558975 C319.036097,95.9665127 318.459707,96.1410029 316.99362,96.1616009 L309.961541,96.1636633 C308.266943,96.1636633 307.65244,95.9872204 307.03292,95.6558975 C306.4134,95.3245745 305.927197,94.8383716 305.595874,94.2188516 C305.285259,93.6380516 305.110769,93.0616615 305.090171,91.5955751 L305.088108,81.2370963 C305.088108,79.5424975 305.264551,78.927995 305.595874,78.308475 C305.927197,77.688955 306.4134,77.2027521 307.03292,76.8714291 C307.65244,76.5401062 308.266943,76.3636633 309.961541,76.3636633 L316.688275,76.3636633 Z M335.696275,76.3636633 C337.390874,76.3636633 338.005377,76.5401062 338.624897,76.8714291 C339.244417,77.2027521 339.73062,77.688955 340.061943,78.308475 C340.393265,78.927995 340.569708,79.5424975 340.569708,81.2370963 L340.569708,91.2902303 C340.569708,92.9848291 340.393265,93.5993316 340.061943,94.2188516 C339.73062,94.8383716 339.244417,95.3245745 338.624897,95.6558975 C338.044097,95.9665127 337.467707,96.1410029 336.00162,96.1616009 L328.969541,96.1636633 C327.274943,96.1636633 326.66044,95.9872204 326.04092,95.6558975 C325.4214,95.3245745 324.935197,94.8383716 324.603874,94.2188516 C324.293259,93.6380516 324.118769,93.0616615 324.098171,91.5955751 L324.096108,81.2370963 C324.096108,79.5424975 324.272551,78.927995 324.603874,78.308475 C324.935197,77.688955 325.4214,77.2027521 326.04092,76.8714291 C326.66044,76.5401062 327.274943,76.3636633 328.969541,76.3636633 L335.696275,76.3636633 Z M354.704275,76.3636633 C356.398874,76.3636633 357.013377,76.5401062 357.632897,76.8714291 C358.252417,77.2027521 358.73862,77.688955 359.069943,78.308475 C359.401265,78.927995 359.577708,79.5424975 359.577708,81.2370963 L359.577708,91.2902303 C359.577708,92.9848291 359.401265,93.5993316 359.069943,94.2188516 C358.73862,94.8383716 358.252417,95.3245745 357.632897,95.6558975 C357.052097,95.9665127 356.475707,96.1410029 355.00962,96.1616009 L347.977541,96.1636633 C346.282943,96.1636633 345.66844,95.9872204 345.04892,95.6558975 C344.4294,95.3245745 343.943197,94.8383716 343.611874,94.2188516 C343.301259,93.6380516 343.126769,93.0616615 343.106171,91.5955751 L343.104108,81.2370963 C343.104108,79.5424975 343.280551,78.927995 343.611874,78.308475 C343.943197,77.688955 344.4294,77.2027521 345.04892,76.8714291 C345.66844,76.5401062 346.282943,76.3636633 347.977541,76.3636633 L354.704275,76.3636633 Z M183.632275,76.3636633 C185.326874,76.3636633 185.941377,76.5401062 186.560897,76.8714291 C187.180417,77.2027521 187.66662,77.688955 187.997943,78.308475 C188.329265,78.927995 188.505708,79.5424975 188.505708,81.2370963 L188.505708,91.2902303 C188.505708,92.9848291 188.329265,93.5993316 187.997943,94.2188516 C187.66662,94.8383716 187.180417,95.3245745 186.560897,95.6558975 C185.980097,95.9665127 185.403707,96.1410029 183.93762,96.1616009 L176.905541,96.1636633 C175.210943,96.1636633 174.59644,95.9872204 173.97692,95.6558975 C173.3574,95.3245745 172.871197,94.8383716 172.539874,94.2188516 C172.229259,93.6380516 172.054769,93.0616615 172.034171,91.5955751 L172.032108,81.2370963 C172.032108,79.5424975 172.208551,78.927995 172.539874,78.308475 C172.871197,77.688955 173.3574,77.2027521 173.97692,76.8714291 C174.59644,76.5401062 175.210943,76.3636633 176.905541,76.3636633 L183.632275,76.3636633 Z M202.640275,76.3636633 C204.334874,76.3636633 204.949377,76.5401062 205.568897,76.8714291 C206.188417,77.2027521 206.67462,77.688955 207.005943,78.308475 C207.316558,78.889275 207.491048,79.4656651 207.511646,80.9317515 L207.513708,91.2902303 C207.513708,92.9848291 207.337265,93.5993316 207.005943,94.2188516 C206.67462,94.8383716 206.188417,95.3245745 205.568897,95.6558975 C204.988097,95.9665127 204.411707,96.1410029 202.94562,96.1616009 L195.913541,96.1636633 C194.218943,96.1636633 193.60444,95.9872204 192.98492,95.6558975 C192.3654,95.3245745 191.879197,94.8383716 191.547874,94.2188516 C191.216551,93.5993316 191.040108,92.9848291 191.040108,91.2902303 L191.040108,81.2370963 C191.040108,79.5424975 191.216551,78.927995 191.547874,78.308475 C191.879197,77.688955 192.3654,77.2027521 192.98492,76.8714291 C193.60444,76.5401062 194.218943,76.3636633 195.913541,76.3636633 L202.640275,76.3636633 Z M221.648275,76.3636633 C223.342874,76.3636633 223.957377,76.5401062 224.576897,76.8714291 C225.196417,77.2027521 225.68262,77.688955 226.013943,78.308475 C226.324558,78.889275 226.499048,79.4656651 226.519646,80.9317515 L226.521708,91.2902303 C226.521708,92.9848291 226.345265,93.5993316 226.013943,94.2188516 C225.68262,94.8383716 225.196417,95.3245745 224.576897,95.6558975 C223.996097,95.9665127 223.419707,96.1410029 221.95362,96.1616009 L214.921541,96.1636633 C213.226943,96.1636633 212.61244,95.9872204 211.99292,95.6558975 C211.3734,95.3245745 210.887197,94.8383716 210.555874,94.2188516 C210.224551,93.5993316 210.048108,92.9848291 210.048108,91.2902303 L210.048108,81.2370963 C210.048108,79.5424975 210.224551,78.927995 210.555874,78.308475 C210.887197,77.688955 211.3734,77.2027521 211.99292,76.8714291 C212.61244,76.5401062 213.226943,76.3636633 214.921541,76.3636633 L221.648275,76.3636633 Z M240.656275,76.3636633 C242.350874,76.3636633 242.965377,76.5401062 243.584897,76.8714291 C244.204417,77.2027521 244.69062,77.688955 245.021943,78.308475 C245.353265,78.927995 245.529708,79.5424975 245.529708,81.2370963 L245.529708,91.2902303 C245.529708,92.9848291 245.353265,93.5993316 245.021943,94.2188516 C244.69062,94.8383716 244.204417,95.3245745 243.584897,95.6558975 C243.004097,95.9665127 242.427707,96.1410029 240.96162,96.1616009 L233.929541,96.1636633 C232.234943,96.1636633 231.62044,95.9872204 231.00092,95.6558975 C230.3814,95.3245745 229.895197,94.8383716 229.563874,94.2188516 C229.253259,93.6380516 229.078769,93.0616615 229.058171,91.5955751 L229.056108,81.2370963 C229.056108,79.5424975 229.232551,78.927995 229.563874,78.308475 C229.895197,77.688955 230.3814,77.2027521 231.00092,76.8714291 C231.62044,76.5401062 232.234943,76.3636633 233.929541,76.3636633 L240.656275,76.3636633 Z M297.680275,76.3636633 C299.374874,76.3636633 299.989377,76.5401062 300.608897,76.8714291 C301.228417,77.2027521 301.71462,77.688955 302.045943,78.308475 C302.356558,78.889275 302.531048,79.4656651 302.551646,80.9317515 L302.553708,91.2902303 C302.553708,92.9848291 302.377265,93.5993316 302.045943,94.2188516 C301.71462,94.8383716 301.228417,95.3245745 300.608897,95.6558975 C300.028097,95.9665127 299.451707,96.1410029 297.98562,96.1616009 L290.953541,96.1636633 C289.258943,96.1636633 288.64444,95.9872204 288.02492,95.6558975 C287.4054,95.3245745 286.919197,94.8383716 286.587874,94.2188516 C286.256551,93.5993316 286.080108,92.9848291 286.080108,91.2902303 L286.080108,81.2370963 C286.080108,79.5424975 286.256551,78.927995 286.587874,78.308475 C286.919197,77.688955 287.4054,77.2027521 288.02492,76.8714291 C288.64444,76.5401062 289.258943,76.3636633 290.953541,76.3636633 L297.680275,76.3636633 Z" id="形状结合" fill="#FFFFFF" transform="translate(265.171308, 121.006063) rotate(-330.000000) translate(-265.171308, -121.006063) "></path>
            </g>
        </g>
    </g>
</svg>