<?xml version="1.0" encoding="UTF-8"?>
<svg width="24px" height="24px" viewBox="0 0 24 24" version="1.1" xmlns="http://www.w3.org/2000/svg" xmlns:xlink="http://www.w3.org/1999/xlink">
    <!-- Generator: Sketch 60.1 (88133) - https://sketch.com -->
    <title>f3</title>
    <desc>Created with Sketch.</desc>
    <g id="f3" stroke="none" stroke-width="1" fill="none" fill-rule="evenodd">
        <g transform="translate(-8.000000, -8.000000)" fill="#000000" id="形状结合">
            <path d="M17,12 C13.6862915,12 11,14.6862915 11,18 L11.0078396,18.3090014 C11.0130578,18.4116495 11.020873,18.5139177 11.0312607,18.6157233 L11.045,18.727 L11.0229589,18.7422071 C9.78361482,19.5595834 9,20.9573419 9,22.5 C9,24.9852814 11.0147186,27 13.5,27 L26.5,27 C28.9852814,27 31,24.9852814 31,22.5 L30.9948015,22.282302 C30.9050246,20.4060402 29.6610033,18.8110144 27.9312757,18.2328083 L27.806,18.194 L27.7677675,18.0690381 C27.1665047,16.272345 25.4697085,15 23.5,15 L23.2357438,15.0076633 C22.9726977,15.0229528 22.7135504,15.0610102 22.4607186,15.120836 L22.288,15.166 L22.233847,15.0633 C21.1928601,13.2090009 19.2131428,12 17,12 Z M17,14 C18.7487327,14 20.2793185,15.1325443 20.8077264,16.7703637 L21.1872709,17.9467757 L22.2584658,17.3298959 C22.6318754,17.1148567 23.0563103,17 23.5,17 C24.7560784,17 25.8131764,17.9323137 25.9778007,19.1645122 L26.0790683,19.9224907 L26.8371011,20.0233507 C28.0678751,20.1871113 29,21.2440261 29,22.5 C29,23.8807119 27.8807119,25 26.5,25 L13.5,25 C12.1192881,25 11,23.8807119 11,22.5 C11,21.4793658 11.6170593,20.5730607 12.544018,20.1890088 L13.3484692,19.8557133 L13.1289594,19.0130728 C13.0437297,18.6858986 13,18.3461151 13,18 C13,15.790861 14.790861,14 17,14 Z"></path>
        </g>
    </g>
</svg>