<?xml version="1.0" encoding="UTF-8"?>
<svg width="24px" height="24px" viewBox="0 0 24 24" version="1.1" xmlns="http://www.w3.org/2000/svg" xmlns:xlink="http://www.w3.org/1999/xlink">
    <!-- Generator: Sketch 60.1 (88133) - https://sketch.com -->
    <title>f6</title>
    <desc>Created with Sketch.</desc>
    <g id="f6" stroke="none" stroke-width="1" fill="none" fill-rule="evenodd">
        <g transform="translate(-8.000000, -8.000000)" fill="#000000" id="1">
            <path d="M21.3914747,8.80591623 L12.4895755,19.8944792 C12.1723362,20.30136 12,20.7301639 12,21.2199268 L12.0057946,21.3698532 C12.0787326,22.3067208 12.8314824,22.9952054 13.7662589,22.9952054 L17.817,22.994366 L15.4634967,29.3659829 C14.6388489,31.5916801 17.1705701,32.9588818 18.6085253,31.1920208 L27.5014115,20.1148497 C27.8216767,19.7205444 28,19.2722693 28,18.7780102 L27.9941823,18.6289295 C27.9209592,17.6973091 27.165436,17.0119813 26.2337411,17.0119813 L22.182,17.0114438 L24.5366431,10.6315755 C25.364129,8.41669919 22.8295943,7.03885329 21.3914747,8.80591623 Z M14.239,20.9422576 L22.297,10.904369 L19.2868759,19.0640897 L25.753,19.0635523 L17.703,29.0911803 L20.7137352,20.943097 L14.239,20.9422576 Z"></path>
        </g>
    </g>
</svg>