<?xml version="1.0" encoding="UTF-8"?>
<svg width="24px" height="24px" viewBox="0 0 24 24" version="1.1" xmlns="http://www.w3.org/2000/svg" xmlns:xlink="http://www.w3.org/1999/xlink">
    <!-- Generator: Sketch 60.1 (88133) - https://sketch.com -->
    <title>f7</title>
    <desc>Created with Sketch.</desc>
    <g id="f7" stroke="none" stroke-width="1" fill="none" fill-rule="evenodd">
        <g transform="translate(-8.000000, -8.000000)" fill="#000000" id="形状结合">
            <path d="M14,18 C11.790861,18 10,16.209139 10,14 C10,11.790861 11.790861,10 14,10 C15.8639271,10 17.4300871,11.2748927 17.8740452,13.0002435 L23.75,13 C25.959139,13 27.75,14.790861 27.75,17 C27.75,19.1421954 26.0660315,20.8910789 23.9496403,20.9951047 L23.75,21 L15.75,21 C14.6454305,21 13.75,21.8954305 13.75,23 C13.75,24.0543618 14.5658778,24.9181651 15.6007377,24.9945143 L15.75,25 L22.1259548,25.0002435 C22.5699129,23.2748927 24.1360729,22 26,22 C28.209139,22 30,23.790861 30,26 C30,28.209139 28.209139,30 26,30 C24.1364348,30 22.570521,28.7256022 22.1262135,27.0007613 L15.75,27 C13.540861,27 11.75,25.209139 11.75,23 C11.75,20.8578046 13.4339685,19.1089211 15.5503597,19.0048953 L15.75,19 L23.75,19 C24.8545695,19 25.75,18.1045695 25.75,17 C25.75,15.9456382 24.9341222,15.0818349 23.8992623,15.0054857 L23.75,15 L17.8737865,15.0007613 C17.429479,16.7256022 15.8635652,18 14,18 Z M26,24 C24.8954305,24 24,24.8954305 24,26 C24,27.1045695 24.8954305,28 26,28 C27.1045695,28 28,27.1045695 28,26 C28,24.8954305 27.1045695,24 26,24 Z M14,12 C12.8954305,12 12,12.8954305 12,14 C12,15.1045695 12.8954305,16 14,16 C15.1045695,16 16,15.1045695 16,14 C16,12.8954305 15.1045695,12 14,12 Z"></path>
        </g>
    </g>
</svg>