<?xml version="1.0" encoding="UTF-8"?>
<svg width="24px" height="24px" viewBox="0 0 24 24" version="1.1" xmlns="http://www.w3.org/2000/svg" xmlns:xlink="http://www.w3.org/1999/xlink">
    <!-- Generator: Sketch 60.1 (88133) - https://sketch.com -->
    <title>f8</title>
    <desc>Created with Sketch.</desc>
    <g id="f8" stroke="none" stroke-width="1" fill="none" fill-rule="evenodd">
        <g transform="translate(-8.000000, -8.000000)" fill="#000000" id="形状结合">
            <path d="M20,12 C26.5586379,12 32,15.462685 32,20 C32,24.537315 26.5586379,28 20,28 C13.4413621,28 8,24.537315 8,20 C8,15.462685 13.4413621,12 20,12 Z M20,14 C14.4083734,14 10,16.8053285 10,20 C10,23.1946715 14.4083734,26 20,26 C25.5916266,26 30,23.1946715 30,20 C30,16.8053285 25.5916266,14 20,14 Z M20,16 C22.209139,16 24,17.790861 24,20 C24,22.209139 22.209139,24 20,24 C17.790861,24 16,22.209139 16,20 C16,17.790861 17.790861,16 20,16 Z M21,17 C20.4477153,17 20,17.4477153 20,18 C20,18.5522847 20.4477153,19 21,19 C21.5522847,19 22,18.5522847 22,18 C22,17.4477153 21.5522847,17 21,17 Z"></path>
        </g>
    </g>
</svg>