<?xml version="1.0" encoding="UTF-8"?>
<svg width="24px" height="24px" viewBox="0 0 24 24" version="1.1" xmlns="http://www.w3.org/2000/svg" xmlns:xlink="http://www.w3.org/1999/xlink">
    <!-- Generator: Sketch 60.1 (88133) - https://sketch.com -->
    <title>f9</title>
    <desc>Created with Sketch.</desc>
    <g id="f9" stroke="none" stroke-width="1" fill="none" fill-rule="evenodd">
        <g transform="translate(-8.000000, -8.000000)" fill="#000000" id="形状">
            <path d="M21.0832083,8.45745339 C21.7036004,7.95991332 22.3906602,7.91285698 23.0016032,8.10423894 L23.1411738,8.15254012 L23.3585922,8.23525782 L23.5190867,8.30661073 C23.9093064,8.11712406 24.3608388,8.04597671 24.8261312,8.12709268 C25.5881783,8.25994291 26.0304074,8.63061994 26.6524031,9.35189689 C26.9546691,9.70240989 27.2090327,10.1815303 27.5422877,10.9370126 C27.7627147,11.4367313 27.8945287,11.9691227 27.9326592,12.507078 L27.943894,12.7763938 L28,16.2977377 C27.999094,17.3401323 27.8877814,18.319404 27.6677303,19.2314478 C27.842613,19.4819779 27.9585398,19.7892678 27.9880685,20.1503549 L27.995506,20.3353679 L27.9952327,23.4806256 C27.9952327,28.186156 24.1112408,32 19.3210243,32 C18.6227603,32 17.9340595,31.9185699 17.2661655,31.7590798 L16.8339163,31.64487 C16.703369,31.6053468 16.633054,31.5628596 16.2463214,31.3291803 L15.9640892,31.0293752 L15.7457475,30.9788881 C15.4764791,30.9102761 15.2142454,30.8266888 14.9614454,30.7290527 L14.7118788,30.626768 L14.4691343,30.5153233 C14.3658876,30.4652636 14.2673566,30.4063108 14.1746972,30.3391567 C13.409519,29.7845998 12.7411038,29.1098223 12.19778,28.343173 L12.1476419,28.2692222 L12.1006739,28.1933348 L12.0446611,28.0888936 L11.9628584,27.9568757 C11.4409247,27.0775795 11.1202288,26.0948925 11.0278284,25.0690169 L11.0069841,24.7600187 L11,24.4487905 C11,22.7313826 11.6369557,21.1060431 12.7692006,19.842709 C13.8610001,18.6245029 15.8766778,19.2156252 16.1507145,20.7717038 L16.1712216,20.9203874 C16.2065621,21.2715652 16.3116681,21.6074833 16.479195,21.9140577 L16.6306453,22.1696179 L16.7110332,22.2765434 C17.3869211,23.1316668 18.3749512,23.6904186 19.4812957,23.8263776 L19.4492454,15.9957177 L19.4431191,15.8851741 C19.413759,15.6669201 19.2615551,15.5776005 18.6299994,15.437097 C17.7203348,15.2347065 17.0141452,14.5403744 16.8019295,13.6578263 L16.7679987,13.4902171 L16.7587366,13.4340902 C16.5696801,12.2828647 17.3261348,11.1859362 18.4846068,10.9325733 C18.9274141,10.8357294 19.3385753,10.7354622 19.7175342,10.6328158 C19.7787618,10.5326742 19.8512913,10.4417573 19.93188,10.3512637 L19.9930779,10.2850668 L20.1850062,10.0984967 L20.2128996,10.0569501 L20.2249527,10.0341306 C20.2558477,9.9721204 20.2765278,9.91833238 20.2943559,9.85817515 L20.3737874,9.55526562 C20.4981416,9.12006806 20.6467327,8.80749667 21.0832083,8.45745339 Z M20.478064,25.7536297 C20.3196248,25.768438 20.1586046,25.7754956 19.9951052,25.7742241 C17.9165357,25.7742241 16.0804011,24.7522432 14.9767703,23.1907934 C14.9632087,23.171606 14.9532914,23.1510841 14.9470185,23.1292278 C14.5591768,22.5354158 14.3060848,21.8481875 14.2316916,21.1089438 C13.4332552,21.9998217 12.9489946,23.1687749 12.9489946,24.4487905 C12.9489946,25.4551164 13.2483078,26.3927966 13.7642857,27.180675 C13.7711907,27.2046691 13.7821073,27.2271982 13.7970354,27.2482623 C14.2188133,27.843406 14.7377846,28.3671614 15.3313731,28.79736 C15.9032416,29.0746338 16.7051002,29.2897728 17.5851284,29.2872916 L17.8269601,29.2811026 C18.3140434,29.2574661 18.8202775,29.1648776 19.3210243,28.9781044 C18.8532656,29.6226319 17.2391763,29.7663036 17.4691475,29.8308472 C17.9594022,29.9684418 18.472549,30.0527743 19.0016817,30.077063 L19.3210243,30.0843768 L19.5522273,30.0805475 C23.0826595,29.9634314 25.9230682,27.1743227 26.0423385,23.7076529 L26.0462382,23.4806256 L26.0465114,20.3352043 C25.6852468,22.1803638 23.6745941,25.2998046 20.7137742,25.7256766 L20.478064,25.7536297 Z M25.1656192,10.5904997 L24.9736843,10.3772756 C24.2094189,9.5716982 24.2895247,10.2632645 23.946092,10.8149903 C23.0525048,11.6008259 21.3731184,12.2633172 18.9079327,12.8024641 C18.7784166,12.8307899 18.6874226,12.9399902 18.679601,13.0652008 L18.682828,13.1288399 L18.691849,13.1835025 C18.7232455,13.3737494 18.8690448,13.5261926 19.0602969,13.5687441 C20.5480788,13.8997338 21.3257831,14.6518968 21.3934095,15.8252331 L21.431889,24.057204 C24.4149026,22.586063 25.9531011,20.1088631 26.0464843,16.6256041 L26.0510061,16.2961012 L25.9951406,12.8065328 C25.9903517,12.4252945 25.9084182,12.0488049 25.7541178,11.6989985 L25.5920536,11.3427438 C25.4134077,10.9637539 25.2712629,10.7130059 25.1656192,10.5904997 Z M22.4399054,9.93986535 C22.1833182,9.84260976 22.3139471,10.1969877 21.9753423,10.8766099 C21.6579003,11.5137557 21.2590485,11.6305854 21.4052624,11.6853721 L21.4558821,11.6990845 C21.5394694,11.7174574 21.99464,11.7706309 23.2739895,10.9249476 C23.1218434,10.3317027 22.8822799,10.1310969 22.6641416,10.0279387 L22.6052623,10.0019989 L22.4399054,9.93986535 Z"></path>
        </g>
    </g>
</svg>