<?xml version="1.0" encoding="UTF-8"?>
<svg width="48px" height="48px" viewBox="0 0 48 48" version="1.1" xmlns="http://www.w3.org/2000/svg" xmlns:xlink="http://www.w3.org/1999/xlink">
    <!-- Generator: Sketch 60.1 (88133) - https://sketch.com -->
    <title>位图备份</title>
    <desc>Created with Sketch.</desc>
    <defs>
        <path d="M16.6652538,-6.732962e-16 L31.3347462,6.732962e-16 C37.129618,-3.91204482e-16 39.2309786,0.603366472 41.3494971,1.73636257 C43.4680156,2.86935868 45.1306413,4.53198441 46.2636374,6.65050293 C47.3966335,8.76902145 48,10.870382 48,16.6652538 L48,31.3347462 C48,37.129618 47.3966335,39.2309786 46.2636374,41.3494971 C45.1306413,43.4680156 43.4680156,45.1306413 41.3494971,46.2636374 C39.2309786,47.3966335 37.129618,48 31.3347462,48 L16.6652538,48 C10.870382,48 8.76902145,47.3966335 6.65050293,46.2636374 C4.53198441,45.1306413 2.86935868,43.4680156 1.73636257,41.3494971 C0.603366472,39.2309786 2.60802988e-16,37.129618 -4.48864133e-16,31.3347462 L4.48864133e-16,16.6652538 C-2.60802988e-16,10.870382 0.603366472,8.76902145 1.73636257,6.65050293 C2.86935868,4.53198441 4.53198441,2.86935868 6.65050293,1.73636257 C8.76902145,0.603366472 10.870382,3.91204482e-16 16.6652538,-6.732962e-16 Z" id="path-1"></path>
        <linearGradient x1="5.99042709%" y1="0%" x2="50%" y2="100%" id="linearGradient-3">
            <stop stop-color="#C9C9C9" offset="0%"></stop>
            <stop stop-color="#A2A2A2" offset="100%"></stop>
        </linearGradient>
        <path d="M4.80728475,-1.94220058e-16 L27.0677153,1.94220058e-16 C28.7393129,-1.12847447e-16 29.3454746,0.174048021 29.9565857,0.50087382 C30.5676968,0.827699618 31.0473004,1.30730319 31.3741262,1.91841431 C31.700952,2.52952542 31.875,3.13568711 31.875,4.80728475 L31.875,27.0677153 C31.875,28.7393129 31.700952,29.3454746 31.3741262,29.9565857 C31.0473004,30.5676968 30.5676968,31.0473004 29.9565857,31.3741262 C29.3454746,31.700952 28.7393129,31.875 27.0677153,31.875 L4.80728475,31.875 C3.13568711,31.875 2.52952542,31.700952 1.91841431,31.3741262 C1.30730319,31.0473004 0.827699618,30.5676968 0.50087382,29.9565857 C0.174048021,29.3454746 7.52316311e-17,28.7393129 -1.29480038e-16,27.0677153 L1.29480038e-16,4.80728475 C-7.52316311e-17,3.13568711 0.174048021,2.52952542 0.50087382,1.91841431 C0.827699618,1.30730319 1.30730319,0.827699618 1.91841431,0.50087382 C2.52952542,0.174048021 3.13568711,1.12847447e-16 4.80728475,-1.94220058e-16 Z" id="path-4"></path>
        <filter x="-6.3%" y="-3.1%" width="112.5%" height="112.5%" filterUnits="objectBoundingBox" id="filter-5">
            <feOffset dx="0" dy="1" in="SourceAlpha" result="shadowOffsetOuter1"></feOffset>
            <feGaussianBlur stdDeviation="0.5" in="shadowOffsetOuter1" result="shadowBlurOuter1"></feGaussianBlur>
            <feColorMatrix values="0 0 0 0 0.696076766   0 0 0 0 0.696076766   0 0 0 0 0.696076766  0 0 0 0.632293488 0" type="matrix" in="shadowBlurOuter1"></feColorMatrix>
        </filter>
        <linearGradient x1="5.99042709%" y1="2.89792388%" x2="50%" y2="97.1020761%" id="linearGradient-6">
            <stop stop-color="#BEBCBC" offset="0%"></stop>
            <stop stop-color="#A2A1A1" offset="100%"></stop>
        </linearGradient>
        <path d="M4.80728475,-1.94220058e-16 L27.0677153,1.94220058e-16 C28.7393129,-1.12847447e-16 29.3454746,0.174048021 29.9565857,0.50087382 C30.5676968,0.827699618 31.0473004,1.30730319 31.3741262,1.91841431 C31.700952,2.52952542 31.875,3.13568711 31.875,4.80728475 L31.875,18.9192881 C31.875,23.0982822 31.4398799,24.6136865 30.6228155,26.1414642 C29.805751,27.669242 28.606742,28.868251 27.0789642,29.6853155 C25.5511865,30.5023799 24.0357822,30.9375 19.8567881,30.9375 L4.80728475,30.9375 C3.13568711,30.9375 2.52952542,30.763452 1.91841431,30.4366262 C1.30730319,30.1098004 0.827699618,29.6301968 0.50087382,29.0190857 C0.174048021,28.4079746 7.52316311e-17,27.8018129 -1.29480038e-16,26.1302153 L1.29480038e-16,4.80728475 C-7.52316311e-17,3.13568711 0.174048021,2.52952542 0.50087382,1.91841431 C0.827699618,1.30730319 1.30730319,0.827699618 1.91841431,0.50087382 C2.52952542,0.174048021 3.13568711,1.12847447e-16 4.80728475,-1.94220058e-16 Z" id="path-7"></path>
        <filter x="-6.3%" y="-3.2%" width="112.5%" height="112.9%" filterUnits="objectBoundingBox" id="filter-8">
            <feOffset dx="0" dy="1" in="SourceAlpha" result="shadowOffsetOuter1"></feOffset>
            <feGaussianBlur stdDeviation="0.5" in="shadowOffsetOuter1" result="shadowBlurOuter1"></feGaussianBlur>
            <feColorMatrix values="0 0 0 0 0.644474638   0 0 0 0 0.644474638   0 0 0 0 0.644474638  0 0 0 0.418460446 0" type="matrix" in="shadowBlurOuter1"></feColorMatrix>
        </filter>
        <radialGradient cx="39.2910432%" cy="41.1835593%" fx="39.2910432%" fy="41.1835593%" r="54.4369397%" gradientTransform="translate(0.392910,0.411836),rotate(45.937623),scale(1.000000,1.431436),translate(-0.392910,-0.411836)" id="radialGradient-9">
            <stop stop-color="#D5D5D5" offset="0%"></stop>
            <stop stop-color="#E2E2E2" offset="63.4011474%"></stop>
            <stop stop-color="#E9E9E9" offset="100%"></stop>
        </radialGradient>
        <path d="M30.6228155,26.1414642 C29.805751,27.669242 28.606742,28.868251 27.0789642,29.6853155 C25.7455985,30.3984072 24.1640625,30.9140625 21.3282583,30.9164719 C27.0703125,30.9375 26.765625,28.5703125 28.0078125,27.1171875 C29.25,25.6640625 31.875,25.6640625 31.8539719,20.3907583 C31.8515625,23.0859375 31.3359072,24.8080985 30.6228155,26.1414642 Z" id="path-10"></path>
        <filter x="-14.3%" y="-14.3%" width="128.5%" height="128.5%" filterUnits="objectBoundingBox" id="filter-11">
            <feOffset dx="0" dy="0" in="SourceAlpha" result="shadowOffsetOuter1"></feOffset>
            <feGaussianBlur stdDeviation="0.5" in="shadowOffsetOuter1" result="shadowBlurOuter1"></feGaussianBlur>
            <feColorMatrix values="0 0 0 0 0.83055933   0 0 0 0 0.83055933   0 0 0 0 0.83055933  0 0 0 0.0908271416 0" type="matrix" in="shadowBlurOuter1"></feColorMatrix>
        </filter>
        <filter x="-14.3%" y="-14.3%" width="128.5%" height="128.5%" filterUnits="objectBoundingBox" id="filter-12">
            <feGaussianBlur stdDeviation="0.5" in="SourceAlpha" result="shadowBlurInner1"></feGaussianBlur>
            <feOffset dx="0" dy="0" in="shadowBlurInner1" result="shadowOffsetInner1"></feOffset>
            <feComposite in="shadowOffsetInner1" in2="SourceAlpha" operator="arithmetic" k2="-1" k3="1" result="shadowInnerInner1"></feComposite>
            <feColorMatrix values="0 0 0 0 0.819689764   0 0 0 0 0.819689764   0 0 0 0 0.819689764  0 0 0 0.576540647 0" type="matrix" in="shadowInnerInner1"></feColorMatrix>
        </filter>
        <filter x="-26.0%" y="-26.0%" width="152.1%" height="152.1%" filterUnits="objectBoundingBox" id="filter-13">
            <feGaussianBlur stdDeviation="0.175533068 -0.534410322" in="SourceGraphic"></feGaussianBlur>
        </filter>
        <radialGradient cx="43.3860398%" cy="37.3635035%" fx="43.3860398%" fy="37.3635035%" r="67.6937725%" gradientTransform="translate(0.433860,0.373635),scale(0.927083,1.000000),rotate(43.854775),scale(1.000000,0.860901),translate(-0.433860,-0.373635)" id="radialGradient-14">
            <stop stop-color="#ABABAB" offset="0%"></stop>
            <stop stop-color="#9E9E9E" offset="88.6560389%"></stop>
            <stop stop-color="#888888" offset="100%"></stop>
        </radialGradient>
        <filter x="-46.2%" y="-44.4%" width="192.3%" height="188.9%" filterUnits="objectBoundingBox" id="filter-15">
            <feGaussianBlur stdDeviation="0.404589208 -0.631512132" in="SourceGraphic"></feGaussianBlur>
        </filter>
        <radialGradient cx="43.3860398%" cy="37.3635035%" fx="43.3860398%" fy="37.3635035%" r="66.5704403%" gradientTransform="translate(0.433860,0.373635),scale(0.957895,1.000000),rotate(44.791098),scale(1.000000,0.860901),translate(-0.433860,-0.373635)" id="radialGradient-16">
            <stop stop-color="#A2A2A2" offset="0%"></stop>
            <stop stop-color="#8E8E8E" offset="87.9539696%"></stop>
            <stop stop-color="#818181" offset="100%"></stop>
        </radialGradient>
        <filter x="-15.9%" y="-17.0%" width="131.8%" height="134.1%" filterUnits="objectBoundingBox" id="filter-17">
            <feGaussianBlur stdDeviation="0.234375" in="SourceGraphic"></feGaussianBlur>
        </filter>
    </defs>
    <g id="页面-1" stroke="none" stroke-width="1" fill="none" fill-rule="evenodd">
        <g id="桌面端-HD" transform="translate(-1162.000000, -4593.000000)">
            <g id="编组-10" transform="translate(0.000000, 4234.000000)">
                <g id="位图备份" transform="translate(1162.000000, 359.000000)">
                    <mask id="mask-2" fill="white">
                        <use xlink:href="#path-1"></use>
                    </mask>
                    <use id="蒙版" fill="#FFFFFF" xlink:href="#path-1"></use>
                    <g id="编组-3" mask="url(#mask-2)">
                        <g transform="translate(8.000000, 8.000000)">
                            <g id="矩形备份-6" stroke="none" fill="none">
                                <use fill="black" fill-opacity="1" filter="url(#filter-5)" xlink:href="#path-4"></use>
                                <use fill="url(#linearGradient-3)" fill-rule="evenodd" xlink:href="#path-4"></use>
                            </g>
                            <g id="矩形备份-6" stroke="none" fill="none">
                                <use fill="black" fill-opacity="1" filter="url(#filter-8)" xlink:href="#path-7"></use>
                                <use fill="url(#linearGradient-6)" fill-rule="evenodd" xlink:href="#path-7"></use>
                            </g>
                            <g id="路径" stroke="none" fill="none" opacity="0.800000012">
                                <use fill="black" fill-opacity="1" filter="url(#filter-11)" xlink:href="#path-10"></use>
                                <use fill="url(#radialGradient-9)" fill-rule="evenodd" style="mix-blend-mode: multiply;" xlink:href="#path-10"></use>
                                <use fill="black" fill-opacity="1" filter="url(#filter-12)" xlink:href="#path-10"></use>
                            </g>
                            <rect id="矩形备份-3" stroke="none" fill="#FFFFFF" fill-rule="evenodd" opacity="0.5" x="12.1875" y="10.3125" width="12.1875" height="4.6875" rx="0.9375"></rect>
                            <rect id="矩形备份-2" stroke="none" fill="#FFFFFF" fill-rule="evenodd" opacity="0.900000036" x="5.625" y="16.875" width="18.75" height="4.6875" rx="0.9375"></rect>
                            <rect id="矩形" stroke="none" fill="#FFFFFF" fill-rule="evenodd" opacity="0.5" x="5.625" y="10.3125" width="4.6875" height="4.6875" rx="0.9375"></rect>
                            <g id="编组" stroke="none" stroke-width="1" fill="none" fill-rule="evenodd" transform="translate(4.815394, 4.256051) rotate(2.000000) translate(-4.815394, -4.256051) translate(1.315394, 0.756051)">
                                <circle id="椭圆形" fill-opacity="0.5" fill="#3D3D3D" style="mix-blend-mode: multiply;" filter="url(#filter-13)" cx="3.3298531" cy="3.47424665" r="3.24"></circle>
                                <ellipse id="椭圆形备份" fill="url(#radialGradient-14)" cx="3.24" cy="3.226875" rx="3.24" ry="3.00375"></ellipse>
                                <path d="M6.16728471,3.85930507 C5.94348677,3.94401545 5.66472936,4.16357045 5.3310125,4.51797007 C5.23179274,4.62331363 5.16314707,4.75369508 5.13242959,4.89511028 L5.00775677,5.4690712 L5.00775677,5.4690712 C5.11102117,5.31850488 5.24082271,5.10829851 5.39716138,4.83845209 C5.55858441,4.55982989 5.81529218,4.23344755 6.16728471,3.85930507 Z" id="路径-7备份" fill="#FFFFFF" opacity="0.300000012" transform="translate(5.587521, 4.664188) rotate(-179.000000) translate(-5.587521, -4.664188) "></path>
                                <g id="编组-2" transform="translate(0.606103, 0.000057)">
                                    <ellipse id="椭圆形" fill-opacity="0.796437937" fill="#676767" style="mix-blend-mode: multiply;" filter="url(#filter-15)" cx="2.71875" cy="3.375" rx="2.4375" ry="2.53125"></ellipse>
                                    <ellipse id="椭圆形备份-2" fill="url(#radialGradient-16)" cx="2.2265625" cy="2.1328125" rx="2.2265625" ry="2.1328125"></ellipse>
                                    <path d="M3.132322,0.132336908 C3.91317866,0.466101902 4.45853186,1.22545101 4.45853186,2.10878326 C4.45853186,3.30037515 3.46613639,4.26635123 2.24195453,4.26635123 C1.106599,4.26635123 0.170613459,3.43547132 0.0407612648,2.3643217 C0.295533614,3.18044498 1.07260412,3.77455706 1.99170193,3.77455706 C3.11784505,3.77455706 4.03076443,2.88262433 4.03076443,1.78236956 C4.03076443,1.13221901 3.71199713,0.554809012 3.2188306,0.191188837 Z" id="形状结合" fill="#000000" style="mix-blend-mode: multiply;" opacity="0.149999991" filter="url(#filter-17)"></path>
                                    <path d="M1.51791858,0.483745899 L1.26304473,0.587375925 C0.689434511,0.820602059 0.333591424,1.39916465 0.384185887,2.01630589 L0.400731081,2.2181209 L0.400731081,2.2181209 C0.634764887,1.67053112 1.14076719,0.901994666 1.51791858,0.483745899 Z" id="路径-7" fill="#FFFFFF" opacity="0.400000006"></path>
                                </g>
                            </g>
                            <path d="M25.9730898,19.171875 C27.7828773,19.171875 29.25,17.723796 29.25,15.9375 C29.25,14.151204 27.7828773,12.703125 25.9730898,12.703125 L25.59375,12.703125" id="路径" stroke="#8F8F8F" stroke-width="0.65625" fill="none" stroke-linecap="round" stroke-linejoin="round"></path>
                            <polyline id="路径" stroke="#8F8F8F" stroke-width="0.65625" fill="none" stroke-linecap="round" stroke-linejoin="round" transform="translate(25.781250, 19.125000) rotate(-270.000000) translate(-25.781250, -19.125000) " points="26.765625 18.515625 25.78125 19.734375 24.796875 18.515625"></polyline>
                        </g>
                    </g>
                </g>
            </g>
        </g>
    </g>
</svg>