<?xml version="1.0" encoding="UTF-8"?>
<svg width="56px" height="56px" viewBox="0 0 56 56" version="1.1" xmlns="http://www.w3.org/2000/svg" xmlns:xlink="http://www.w3.org/1999/xlink">
    <!-- Generator: Sketch 60.1 (88133) - https://sketch.com -->
    <title>m1</title>
    <desc>Created with Sketch.</desc>
    <g id="m1" stroke="none" stroke-width="1" fill="none" fill-rule="evenodd">
        <g id="编组-14" transform="translate(1.500000, 2.000000)">
            <path d="M3.0638852,-1.03584031e-16 L13.9361148,1.03584031e-16 C14.8276335,-6.01853049e-17 15.1509198,0.0928256111 15.4768457,0.267132704 C15.8027716,0.441439796 16.0585602,0.697228371 16.2328673,1.0231543 C16.4071744,1.34908022 16.5,1.67236646 16.5,2.5638852 L16.5,50.7180574 C16.5,51.1638168 16.4535872,51.3254599 16.3664336,51.4884229 C16.2792801,51.6513858 16.1513858,51.7792801 15.9884229,51.8664336 C15.8254599,51.9535872 15.6638168,52 15.2180574,52 L1.7819426,52 C1.33618323,52 1.17454011,51.9535872 1.01157715,51.8664336 C0.848614185,51.7792801 0.720719898,51.6513858 0.633566352,51.4884229 C0.546412806,51.3254599 0.5,51.1638168 0.5,50.7180574 L0.5,2.5638852 C0.5,1.67236646 0.592825611,1.34908022 0.767132704,1.0231543 C0.941439796,0.697228371 1.19722837,0.441439796 1.5231543,0.267132704 C1.84908022,0.0928256111 2.17236646,6.01853049e-17 3.0638852,-1.03584031e-16 Z" id="矩形" stroke="#6AD2A9" stroke-width="4" stroke-linejoin="round" transform="translate(8.500000, 26.000000) scale(-1, -1) rotate(-360.000000) translate(-8.500000, -26.000000) "></path>
            <path d="M-13.5,22 C-12.9477153,22 -12.5,22.4477153 -12.5,23 L-12.5,29 C-12.5,29.5522847 -12.9477153,30 -13.5,30 C-14.0522847,30 -14.5,29.5522847 -14.5,29 L-14.5,23 C-14.5,22.4477153 -14.0522847,22 -13.5,22 Z M-4.5,23 C-3.94771525,23 -3.5,23.4477153 -3.5,24 L-3.5,29 C-3.5,29.5522847 -3.94771525,30 -4.5,30 C-5.05228475,30 -5.5,29.5522847 -5.5,29 L-5.5,24 C-5.5,23.4477153 -5.05228475,23 -4.5,23 Z M13.5,23 C14.0522847,23 14.5,23.4477153 14.5,24 L14.5,29 C14.5,29.5522847 14.0522847,30 13.5,30 C12.9477153,30 12.5,29.5522847 12.5,29 L12.5,24 C12.5,23.4477153 12.9477153,23 13.5,23 Z M4.5,22 C5.05228475,22 5.5,22.4477153 5.5,23 L5.5,29 C5.5,29.5522847 5.05228475,30 4.5,30 C3.94771525,30 3.5,29.5522847 3.5,29 L3.5,23 C3.5,22.4477153 3.94771525,22 4.5,22 Z M22.5,22 C23.0522847,22 23.5,22.4477153 23.5,23 L23.5,29 C23.5,29.5522847 23.0522847,30 22.5,30 C21.9477153,30 21.5,29.5522847 21.5,29 L21.5,23 C21.5,22.4477153 21.9477153,22 22.5,22 Z" id="形状结合" fill="#6AD2A9" transform="translate(4.500000, 26.000000) scale(1, -1) rotate(-90.000000) translate(-4.500000, -26.000000) "></path>
            <polygon id="路径-6" stroke="#935ED9" stroke-width="4" stroke-linejoin="round" points="22.5 -6.58501031e-15 22.5 52 52.5 52"></polygon>
            <polyline id="路径-8" stroke="#FFAA00" stroke-width="3" stroke-linecap="round" stroke-linejoin="round" points="29 29 29 46 41.5 46"></polyline>
        </g>
    </g>
</svg>