<?xml version="1.0" encoding="UTF-8"?>
<svg width="56px" height="56px" viewBox="0 0 56 56" version="1.1" xmlns="http://www.w3.org/2000/svg" xmlns:xlink="http://www.w3.org/1999/xlink">
    <!-- Generator: Sketch 60.1 (88133) - https://sketch.com -->
    <title>m2</title>
    <desc>Created with Sketch.</desc>
    <g id="m2" stroke="none" stroke-width="1" fill="none" fill-rule="evenodd">
        <path d="M37.8458278,16 L50.1541722,16 C51.4914503,16 51.9763797,16.1392384 52.4652686,16.4006991 C52.9541574,16.6621597 53.3378403,17.0458426 53.5993009,17.5347314 C53.8607616,18.0236203 54,18.5085497 54,19.8458278 L54,50.1541722 C54,51.4914503 53.8607616,51.9763797 53.5993009,52.4652686 C53.3378403,52.9541574 52.9541574,53.3378403 52.4652686,53.5993009 C51.9763797,53.8607616 51.4914503,54 50.1541722,54 L37.8458278,54 C36.5085497,54 36.0236203,53.8607616 35.5347314,53.5993009 C35.0458426,53.3378403 34.6621597,52.9541574 34.4006991,52.4652686 C34.1392384,51.9763797 34,51.4914503 34,50.1541722 L34,19.8458278 C34,18.5085497 34.1392384,18.0236203 34.4006991,17.5347314 C34.6621597,17.0458426 35.0458426,16.6621597 35.5347314,16.4006991 C36.0236203,16.1392384 36.5085497,16 37.8458278,16 Z" id="矩形备份-39" stroke="#7CD7B3" stroke-width="4"></path>
        <path d="M5.8458278,2 L36.1541722,2 C37.4914503,2 37.9763797,2.13923842 38.4652686,2.40069906 C38.9541574,2.66215969 39.3378403,3.04584256 39.5993009,3.53473144 C39.8607616,4.02362033 40,4.50854969 40,5.8458278 L40,45.1541722 C40,46.4914503 39.8607616,46.9763797 39.5993009,47.4652686 C39.3378403,47.9541574 38.9541574,48.3378403 38.4652686,48.5993009 C37.9763797,48.8607616 37.4914503,49 36.1541722,49 L5.8458278,49 C4.50854969,49 4.02362033,48.8607616 3.53473144,48.5993009 C3.04584256,48.3378403 2.66215969,47.9541574 2.40069906,47.4652686 C2.13923842,46.9763797 2,46.4914503 2,45.1541722 L2,5.8458278 C2,4.50854969 2.13923842,4.02362033 2.40069906,3.53473144 C2.66215969,3.04584256 3.04584256,2.66215969 3.53473144,2.40069906 C4.02362033,2.13923842 4.50854969,2 5.8458278,2 Z" id="矩形" stroke="#935ED9" stroke-width="4"></path>
        <rect id="矩形" fill="#FFAA00" x="11" y="43" width="20" height="3" rx="1"></rect>
    </g>
</svg>