<?xml version="1.0" encoding="UTF-8"?>
<svg width="56px" height="56px" viewBox="0 0 56 56" version="1.1" xmlns="http://www.w3.org/2000/svg" xmlns:xlink="http://www.w3.org/1999/xlink">
    <!-- Generator: Sketch 60.1 (88133) - https://sketch.com -->
    <title>m3</title>
    <desc>Created with Sketch.</desc>
    <g id="m3" stroke="none" stroke-width="1" fill="none" fill-rule="evenodd">
        <path d="M42.8458278,39 L50.1541722,39 C51.4914503,39 51.9763797,39.1392384 52.4652686,39.4006991 C52.9541574,39.6621597 53.3378403,40.0458426 53.5993009,40.5347314 C53.8607616,41.0236203 54,41.5085497 54,42.8458278 L54,50.1541722 C54,51.4914503 53.8607616,51.9763797 53.5993009,52.4652686 C53.3378403,52.9541574 52.9541574,53.3378403 52.4652686,53.5993009 C51.9763797,53.8607616 51.4914503,54 50.1541722,54 L42.8458278,54 C41.5085497,54 41.0236203,53.8607616 40.5347314,53.5993009 C40.0458426,53.3378403 39.6621597,52.9541574 39.4006991,52.4652686 C39.1392384,51.9763797 39,51.4914503 39,50.1541722 L39,42.8458278 C39,41.5085497 39.1392384,41.0236203 39.4006991,40.5347314 C39.6621597,40.0458426 40.0458426,39.6621597 40.5347314,39.4006991 C41.0236203,39.1392384 41.5085497,39 42.8458278,39 Z" id="矩形备份-38" stroke="#FEA903" stroke-width="4"></path>
        <path d="M5.8458278,16 L29.1541722,16 C30.4914503,16 30.9763797,16.1392384 31.4652686,16.4006991 C31.9541574,16.6621597 32.3378403,17.0458426 32.5993009,17.5347314 C32.8607616,18.0236203 33,18.5085497 33,19.8458278 L33,43.1541722 C33,44.4914503 32.8607616,44.9763797 32.5993009,45.4652686 C32.3378403,45.9541574 31.9541574,46.3378403 31.4652686,46.5993009 C30.9763797,46.8607616 30.4914503,47 29.1541722,47 L5.8458278,47 C4.50854969,47 4.02362033,46.8607616 3.53473144,46.5993009 C3.04584256,46.3378403 2.66215969,45.9541574 2.40069906,45.4652686 C2.13923842,44.9763797 2,44.4914503 2,43.1541722 L2,19.8458278 C2,18.5085497 2.13923842,18.0236203 2.40069906,17.5347314 C2.66215969,17.0458426 3.04584256,16.6621597 3.53473144,16.4006991 C4.02362033,16.1392384 4.50854969,16 5.8458278,16 Z" id="矩形" stroke="#6AD2A9" stroke-width="4"></path>
        <path d="M20.8458278,2 L44.1541722,2 C45.4914503,2 45.9763797,2.13923842 46.4652686,2.40069906 C46.9541574,2.66215969 47.3378403,3.04584256 47.5993009,3.53473144 C47.8607616,4.02362033 48,4.50854969 48,5.8458278 L48,29.1541722 C48,30.4914503 47.8607616,30.9763797 47.5993009,31.4652686 C47.3378403,31.9541574 46.9541574,32.3378403 46.4652686,32.5993009 C45.9763797,32.8607616 45.4914503,33 44.1541722,33 L20.8458278,33 C19.5085497,33 19.0236203,32.8607616 18.5347314,32.5993009 C18.0458426,32.3378403 17.6621597,31.9541574 17.4006991,31.4652686 C17.1392384,30.9763797 17,30.4914503 17,29.1541722 L17,5.8458278 C17,4.50854969 17.1392384,4.02362033 17.4006991,3.53473144 C17.6621597,3.04584256 18.0458426,2.66215969 18.5347314,2.40069906 C19.0236203,2.13923842 19.5085497,2 20.8458278,2 Z" id="矩形备份-37" stroke="#935ED9" stroke-width="4"></path>
    </g>
</svg>