<?xml version="1.0" encoding="UTF-8"?>
<svg width="56px" height="56px" viewBox="0 0 56 56" version="1.1" xmlns="http://www.w3.org/2000/svg" xmlns:xlink="http://www.w3.org/1999/xlink">
    <!-- Generator: Sketch 60.1 (88133) - https://sketch.com -->
    <title>m4</title>
    <desc>Created with Sketch.</desc>
    <g id="m4" stroke="none" stroke-width="1" fill="none" fill-rule="evenodd">
        <g id="编组-22" transform="translate(2.000000, 2.000000)">
            <path d="M25.75,0 C23.4166667,4.33333333 23.4166667,7.5 25.75,9.5 C28.0833333,11.5 27.9166667,15.3333333 25.25,21" id="路径-5" stroke="#6AD2A9" stroke-width="4" stroke-linecap="round" stroke-linejoin="round"></path>
            <path d="M3.8458278,22 L48.1541722,22 C49.4914503,22 49.9763797,22.1392384 50.4652686,22.4006991 C50.9541574,22.6621597 51.3378403,23.0458426 51.5993009,23.5347314 C51.8607616,24.0236203 52,24.5085497 52,25.8458278 L52,48.1541722 C52,49.4914503 51.8607616,49.9763797 51.5993009,50.4652686 C51.3378403,50.9541574 50.9541574,51.3378403 50.4652686,51.5993009 C49.9763797,51.8607616 49.4914503,52 48.1541722,52 L3.8458278,52 C2.50854969,52 2.02362033,51.8607616 1.53473144,51.5993009 C1.04584256,51.3378403 0.662159695,50.9541574 0.400699056,50.4652686 C0.139238417,49.9763797 6.01853049e-17,49.4914503 -1.03584031e-16,48.1541722 L1.03584031e-16,25.8458278 C-6.01853049e-17,24.5085497 0.139238417,24.0236203 0.400699056,23.5347314 C0.662159695,23.0458426 1.04584256,22.6621597 1.53473144,22.4006991 C2.02362033,22.1392384 2.50854969,22 3.8458278,22 Z" id="矩形" stroke="#935ED9" stroke-width="4"></path>
            <path d="M8.2819426,42 L43.7180574,42 C44.1638168,42 44.3254599,42.0464128 44.4884229,42.1335664 C44.6513858,42.2207199 44.7792801,42.3486142 44.8664336,42.5115771 C44.9535872,42.6745401 45,42.8361832 45,43.2819426 L45,46.7180574 C45,47.1638168 44.9535872,47.3254599 44.8664336,47.4884229 C44.7792801,47.6513858 44.6513858,47.7792801 44.4884229,47.8664336 C44.3254599,47.9535872 44.1638168,48 43.7180574,48 L8.2819426,48 C7.83618323,48 7.67454011,47.9535872 7.51157715,47.8664336 C7.34861419,47.7792801 7.2207199,47.6513858 7.13356635,47.4884229 C7.04641281,47.3254599 7,47.1638168 7,46.7180574 L7,43.2819426 C7,42.8361832 7.04641281,42.6745401 7.13356635,42.5115771 C7.2207199,42.3486142 7.34861419,42.2207199 7.51157715,42.1335664 C7.67454011,42.0464128 7.83618323,42 8.2819426,42 Z" id="矩形" fill="#FFAA00"></path>
            <path d="M8.2819426,26 L11.7180574,26 C12.1638168,26 12.3254599,26.0464128 12.4884229,26.1335664 C12.6513858,26.2207199 12.7792801,26.3486142 12.8664336,26.5115771 C12.9535872,26.6745401 13,26.8361832 13,27.2819426 L13,30.7180574 C13,31.1638168 12.9535872,31.3254599 12.8664336,31.4884229 C12.7792801,31.6513858 12.6513858,31.7792801 12.4884229,31.8664336 C12.3254599,31.9535872 12.1638168,32 11.7180574,32 L8.2819426,32 C7.83618323,32 7.67454011,31.9535872 7.51157715,31.8664336 C7.34861419,31.7792801 7.2207199,31.6513858 7.13356635,31.4884229 C7.04641281,31.3254599 7,31.1638168 7,30.7180574 L7,27.2819426 C7,26.8361832 7.04641281,26.6745401 7.13356635,26.5115771 C7.2207199,26.3486142 7.34861419,26.2207199 7.51157715,26.1335664 C7.67454011,26.0464128 7.83618323,26 8.2819426,26 Z" id="矩形备份-35" fill="#6AD2A9"></path>
            <path d="M16.2819426,26 L19.7180574,26 C20.1638168,26 20.3254599,26.0464128 20.4884229,26.1335664 C20.6513858,26.2207199 20.7792801,26.3486142 20.8664336,26.5115771 C20.9535872,26.6745401 21,26.8361832 21,27.2819426 L21,30.7180574 C21,31.1638168 20.9535872,31.3254599 20.8664336,31.4884229 C20.7792801,31.6513858 20.6513858,31.7792801 20.4884229,31.8664336 C20.3254599,31.9535872 20.1638168,32 19.7180574,32 L16.2819426,32 C15.8361832,32 15.6745401,31.9535872 15.5115771,31.8664336 C15.3486142,31.7792801 15.2207199,31.6513858 15.1335664,31.4884229 C15.0464128,31.3254599 15,31.1638168 15,30.7180574 L15,27.2819426 C15,26.8361832 15.0464128,26.6745401 15.1335664,26.5115771 C15.2207199,26.3486142 15.3486142,26.2207199 15.5115771,26.1335664 C15.6745401,26.0464128 15.8361832,26 16.2819426,26 Z" id="矩形备份-46" fill="#6AD2A9"></path>
            <path d="M8.2819426,34 L11.7180574,34 C12.1638168,34 12.3254599,34.0464128 12.4884229,34.1335664 C12.6513858,34.2207199 12.7792801,34.3486142 12.8664336,34.5115771 C12.9535872,34.6745401 13,34.8361832 13,35.2819426 L13,38.7180574 C13,39.1638168 12.9535872,39.3254599 12.8664336,39.4884229 C12.7792801,39.6513858 12.6513858,39.7792801 12.4884229,39.8664336 C12.3254599,39.9535872 12.1638168,40 11.7180574,40 L8.2819426,40 C7.83618323,40 7.67454011,39.9535872 7.51157715,39.8664336 C7.34861419,39.7792801 7.2207199,39.6513858 7.13356635,39.4884229 C7.04641281,39.3254599 7,39.1638168 7,38.7180574 L7,35.2819426 C7,34.8361832 7.04641281,34.6745401 7.13356635,34.5115771 C7.2207199,34.3486142 7.34861419,34.2207199 7.51157715,34.1335664 C7.67454011,34.0464128 7.83618323,34 8.2819426,34 Z" id="矩形备份-45" fill="#6AD2A9"></path>
            <path d="M16.2819426,34 L19.7180574,34 C20.1638168,34 20.3254599,34.0464128 20.4884229,34.1335664 C20.6513858,34.2207199 20.7792801,34.3486142 20.8664336,34.5115771 C20.9535872,34.6745401 21,34.8361832 21,35.2819426 L21,38.7180574 C21,39.1638168 20.9535872,39.3254599 20.8664336,39.4884229 C20.7792801,39.6513858 20.6513858,39.7792801 20.4884229,39.8664336 C20.3254599,39.9535872 20.1638168,40 19.7180574,40 L16.2819426,40 C15.8361832,40 15.6745401,39.9535872 15.5115771,39.8664336 C15.3486142,39.7792801 15.2207199,39.6513858 15.1335664,39.4884229 C15.0464128,39.3254599 15,39.1638168 15,38.7180574 L15,35.2819426 C15,34.8361832 15.0464128,34.6745401 15.1335664,34.5115771 C15.2207199,34.3486142 15.3486142,34.2207199 15.5115771,34.1335664 C15.6745401,34.0464128 15.8361832,34 16.2819426,34 Z" id="矩形备份-47" fill="#6AD2A9"></path>
            <path d="M24.2819426,26 L27.7180574,26 C28.1638168,26 28.3254599,26.0464128 28.4884229,26.1335664 C28.6513858,26.2207199 28.7792801,26.3486142 28.8664336,26.5115771 C28.9535872,26.6745401 29,26.8361832 29,27.2819426 L29,30.7180574 C29,31.1638168 28.9535872,31.3254599 28.8664336,31.4884229 C28.7792801,31.6513858 28.6513858,31.7792801 28.4884229,31.8664336 C28.3254599,31.9535872 28.1638168,32 27.7180574,32 L24.2819426,32 C23.8361832,32 23.6745401,31.9535872 23.5115771,31.8664336 C23.3486142,31.7792801 23.2207199,31.6513858 23.1335664,31.4884229 C23.0464128,31.3254599 23,31.1638168 23,30.7180574 L23,27.2819426 C23,26.8361832 23.0464128,26.6745401 23.1335664,26.5115771 C23.2207199,26.3486142 23.3486142,26.2207199 23.5115771,26.1335664 C23.6745401,26.0464128 23.8361832,26 24.2819426,26 Z" id="矩形备份-49" fill="#6AD2A9"></path>
            <path d="M32.2819426,26 L35.7180574,26 C36.1638168,26 36.3254599,26.0464128 36.4884229,26.1335664 C36.6513858,26.2207199 36.7792801,26.3486142 36.8664336,26.5115771 C36.9535872,26.6745401 37,26.8361832 37,27.2819426 L37,30.7180574 C37,31.1638168 36.9535872,31.3254599 36.8664336,31.4884229 C36.7792801,31.6513858 36.6513858,31.7792801 36.4884229,31.8664336 C36.3254599,31.9535872 36.1638168,32 35.7180574,32 L32.2819426,32 C31.8361832,32 31.6745401,31.9535872 31.5115771,31.8664336 C31.3486142,31.7792801 31.2207199,31.6513858 31.1335664,31.4884229 C31.0464128,31.3254599 31,31.1638168 31,30.7180574 L31,27.2819426 C31,26.8361832 31.0464128,26.6745401 31.1335664,26.5115771 C31.2207199,26.3486142 31.3486142,26.2207199 31.5115771,26.1335664 C31.6745401,26.0464128 31.8361832,26 32.2819426,26 Z" id="矩形备份-50" fill="#6AD2A9"></path>
            <path d="M24.2819426,34 L27.7180574,34 C28.1638168,34 28.3254599,34.0464128 28.4884229,34.1335664 C28.6513858,34.2207199 28.7792801,34.3486142 28.8664336,34.5115771 C28.9535872,34.6745401 29,34.8361832 29,35.2819426 L29,38.7180574 C29,39.1638168 28.9535872,39.3254599 28.8664336,39.4884229 C28.7792801,39.6513858 28.6513858,39.7792801 28.4884229,39.8664336 C28.3254599,39.9535872 28.1638168,40 27.7180574,40 L24.2819426,40 C23.8361832,40 23.6745401,39.9535872 23.5115771,39.8664336 C23.3486142,39.7792801 23.2207199,39.6513858 23.1335664,39.4884229 C23.0464128,39.3254599 23,39.1638168 23,38.7180574 L23,35.2819426 C23,34.8361832 23.0464128,34.6745401 23.1335664,34.5115771 C23.2207199,34.3486142 23.3486142,34.2207199 23.5115771,34.1335664 C23.6745401,34.0464128 23.8361832,34 24.2819426,34 Z" id="矩形备份-48" fill="#6AD2A9"></path>
            <path d="M32.2819426,34 L43.7180574,34 C44.1638168,34 44.3254599,34.0464128 44.4884229,34.1335664 C44.6513858,34.2207199 44.7792801,34.3486142 44.8664336,34.5115771 C44.9535872,34.6745401 45,34.8361832 45,35.2819426 L45,38.7180574 C45,39.1638168 44.9535872,39.3254599 44.8664336,39.4884229 C44.7792801,39.6513858 44.6513858,39.7792801 44.4884229,39.8664336 C44.3254599,39.9535872 44.1638168,40 43.7180574,40 L32.2819426,40 C31.8361832,40 31.6745401,39.9535872 31.5115771,39.8664336 C31.3486142,39.7792801 31.2207199,39.6513858 31.1335664,39.4884229 C31.0464128,39.3254599 31,39.1638168 31,38.7180574 L31,35.2819426 C31,34.8361832 31.0464128,34.6745401 31.1335664,34.5115771 C31.2207199,34.3486142 31.3486142,34.2207199 31.5115771,34.1335664 C31.6745401,34.0464128 31.8361832,34 32.2819426,34 Z" id="矩形备份-51" fill="#6AD2A9"></path>
            <path d="M40.2819426,26 L43.7180574,26 C44.1638168,26 44.3254599,26.0464128 44.4884229,26.1335664 C44.6513858,26.2207199 44.7792801,26.3486142 44.8664336,26.5115771 C44.9535872,26.6745401 45,26.8361832 45,27.2819426 L45,30.7180574 C45,31.1638168 44.9535872,31.3254599 44.8664336,31.4884229 C44.7792801,31.6513858 44.6513858,31.7792801 44.4884229,31.8664336 C44.3254599,31.9535872 44.1638168,32 43.7180574,32 L40.2819426,32 C39.8361832,32 39.6745401,31.9535872 39.5115771,31.8664336 C39.3486142,31.7792801 39.2207199,31.6513858 39.1335664,31.4884229 C39.0464128,31.3254599 39,31.1638168 39,30.7180574 L39,27.2819426 C39,26.8361832 39.0464128,26.6745401 39.1335664,26.5115771 C39.2207199,26.3486142 39.3486142,26.2207199 39.5115771,26.1335664 C39.6745401,26.0464128 39.8361832,26 40.2819426,26 Z" id="矩形备份-53" fill="#6AD2A9"></path>
        </g>
    </g>
</svg>