<?xml version="1.0" encoding="UTF-8"?>
<svg width="48px" height="48px" viewBox="0 0 48 48" version="1.1" xmlns="http://www.w3.org/2000/svg" xmlns:xlink="http://www.w3.org/1999/xlink">
    <!-- Generator: Sketch 60.1 (88133) - https://sketch.com -->
    <title>m4</title>
    <desc>Created with Sketch.</desc>
    <g id="m4" stroke="none" stroke-width="1" fill="none" fill-rule="evenodd">
        <g id="编组-22" transform="translate(1.714286, 1.714286)">
            <path d="M22.0714286,0 C20.0714286,3.71428571 20.0714286,6.42857143 22.0714286,8.14285714 C24.0714286,9.85714286 23.9285714,13.1428571 21.6428571,18" id="路径-5" stroke="#6AD2A9" stroke-width="3.42857143" stroke-linecap="round" stroke-linejoin="round"></path>
            <path d="M3.29642383,18.8571429 L41.2750047,18.8571429 C42.4212431,18.8571429 42.8368969,18.9764901 43.2559445,19.2005992 C43.6749921,19.4247083 44.0038631,19.7535793 44.2279722,20.172627 C44.4520814,20.5916746 44.5714286,21.0073283 44.5714286,22.1535667 L44.5714286,41.2750047 C44.5714286,42.4212431 44.4520814,42.8368969 44.2279722,43.2559445 C44.0038631,43.6749921 43.6749921,44.0038631 43.2559445,44.2279722 C42.8368969,44.4520814 42.4212431,44.5714286 41.2750047,44.5714286 L3.29642383,44.5714286 C2.15018545,44.5714286 1.73453171,44.4520814 1.3154841,44.2279722 C0.896436476,44.0038631 0.567565453,43.6749921 0.343456333,43.2559445 C0.119347214,42.8368969 7.10208342e-16,42.4212431 -1.22232899e-15,41.2750047 L-1.37922223e-16,22.1535667 C8.01367833e-17,21.0073283 0.119347214,20.5916746 0.343456333,20.172627 C0.567565453,19.7535793 0.896436476,19.4247083 1.3154841,19.2005992 C1.73453171,18.9764901 2.15018545,18.8571429 3.29642383,18.8571429 Z" id="矩形" stroke="#935ED9" stroke-width="3.42857143"></path>
            <path d="M7.09880794,36 L37.4726206,36 C37.8547001,36 37.9932513,36.0397824 38.1329339,36.1144854 C38.2726164,36.1891885 38.3822401,36.2988122 38.4569431,36.4384947 C38.5316462,36.5781772 38.5714286,36.7167285 38.5714286,37.0988079 L38.5714286,40.0440492 C38.5714286,40.4261287 38.5316462,40.5646799 38.4569431,40.7043624 C38.3822401,40.844045 38.2726164,40.9536687 38.1329339,41.0283717 C37.9932513,41.1030747 37.8547001,41.1428571 37.4726206,41.1428571 L7.09880794,41.1428571 C6.71672848,41.1428571 6.57817724,41.1030747 6.4384947,41.0283717 C6.29881216,40.9536687 6.18918848,40.844045 6.11448544,40.7043624 C6.0397824,40.5646799 6,40.4261287 6,40.0440492 L6,37.0988079 C6,36.7167285 6.0397824,36.5781772 6.11448544,36.4384947 C6.18918848,36.2988122 6.29881216,36.1891885 6.4384947,36.1144854 C6.57817724,36.0397824 6.71672848,36 7.09880794,36 Z" id="矩形" fill="#FFAA00"></path>
            <path d="M7.09880794,22.2857143 L10.0440492,22.2857143 C10.4261287,22.2857143 10.5646799,22.3254967 10.7043624,22.4001997 C10.844045,22.4749028 10.9536687,22.5845264 11.0283717,22.724209 C11.1030747,22.8638915 11.1428571,23.0024428 11.1428571,23.3845222 L11.1428571,26.3297635 C11.1428571,26.7118429 11.1030747,26.8503942 11.0283717,26.9900767 C10.9536687,27.1297593 10.844045,27.2393829 10.7043624,27.314086 C10.5646799,27.388789 10.4261287,27.4285714 10.0440492,27.4285714 L7.09880794,27.4285714 C6.71672848,27.4285714 6.57817724,27.388789 6.4384947,27.314086 C6.29881216,27.2393829 6.18918848,27.1297593 6.11448544,26.9900767 C6.0397824,26.8503942 6,26.7118429 6,26.3297635 L6,23.3845222 C6,23.0024428 6.0397824,22.8638915 6.11448544,22.724209 C6.18918848,22.5845264 6.29881216,22.4749028 6.4384947,22.4001997 C6.57817724,22.3254967 6.71672848,22.2857143 7.09880794,22.2857143 Z" id="矩形备份-35" fill="#6AD2A9"></path>
            <path d="M13.9559508,22.2857143 L16.9011921,22.2857143 C17.2832715,22.2857143 17.4218228,22.3254967 17.5615053,22.4001997 C17.7011878,22.4749028 17.8108115,22.5845264 17.8855146,22.724209 C17.9602176,22.8638915 18,23.0024428 18,23.3845222 L18,26.3297635 C18,26.7118429 17.9602176,26.8503942 17.8855146,26.9900767 C17.8108115,27.1297593 17.7011878,27.2393829 17.5615053,27.314086 C17.4218228,27.388789 17.2832715,27.4285714 16.9011921,27.4285714 L13.9559508,27.4285714 C13.5738713,27.4285714 13.4353201,27.388789 13.2956376,27.314086 C13.155955,27.2393829 13.0463313,27.1297593 12.9716283,26.9900767 C12.8969253,26.8503942 12.8571429,26.7118429 12.8571429,26.3297635 L12.8571429,23.3845222 C12.8571429,23.0024428 12.8969253,22.8638915 12.9716283,22.724209 C13.0463313,22.5845264 13.155955,22.4749028 13.2956376,22.4001997 C13.4353201,22.3254967 13.5738713,22.2857143 13.9559508,22.2857143 Z" id="矩形备份-46" fill="#6AD2A9"></path>
            <path d="M7.09880794,29.1428571 L10.0440492,29.1428571 C10.4261287,29.1428571 10.5646799,29.1826395 10.7043624,29.2573426 C10.844045,29.3320456 10.9536687,29.4416693 11.0283717,29.5813518 C11.1030747,29.7210344 11.1428571,29.8595856 11.1428571,30.2416651 L11.1428571,33.1869063 C11.1428571,33.5689858 11.1030747,33.707537 11.0283717,33.8472196 C10.9536687,33.9869021 10.844045,34.0965258 10.7043624,34.1712288 C10.5646799,34.2459319 10.4261287,34.2857143 10.0440492,34.2857143 L7.09880794,34.2857143 C6.71672848,34.2857143 6.57817724,34.2459319 6.4384947,34.1712288 C6.29881216,34.0965258 6.18918848,33.9869021 6.11448544,33.8472196 C6.0397824,33.707537 6,33.5689858 6,33.1869063 L6,30.2416651 C6,29.8595856 6.0397824,29.7210344 6.11448544,29.5813518 C6.18918848,29.4416693 6.29881216,29.3320456 6.4384947,29.2573426 C6.57817724,29.1826395 6.71672848,29.1428571 7.09880794,29.1428571 Z" id="矩形备份-45" fill="#6AD2A9"></path>
            <path d="M13.9559508,29.1428571 L16.9011921,29.1428571 C17.2832715,29.1428571 17.4218228,29.1826395 17.5615053,29.2573426 C17.7011878,29.3320456 17.8108115,29.4416693 17.8855146,29.5813518 C17.9602176,29.7210344 18,29.8595856 18,30.2416651 L18,33.1869063 C18,33.5689858 17.9602176,33.707537 17.8855146,33.8472196 C17.8108115,33.9869021 17.7011878,34.0965258 17.5615053,34.1712288 C17.4218228,34.2459319 17.2832715,34.2857143 16.9011921,34.2857143 L13.9559508,34.2857143 C13.5738713,34.2857143 13.4353201,34.2459319 13.2956376,34.1712288 C13.155955,34.0965258 13.0463313,33.9869021 12.9716283,33.8472196 C12.8969253,33.707537 12.8571429,33.5689858 12.8571429,33.1869063 L12.8571429,30.2416651 C12.8571429,29.8595856 12.8969253,29.7210344 12.9716283,29.5813518 C13.0463313,29.4416693 13.155955,29.3320456 13.2956376,29.2573426 C13.4353201,29.1826395 13.5738713,29.1428571 13.9559508,29.1428571 Z" id="矩形备份-47" fill="#6AD2A9"></path>
            <path d="M20.8130937,22.2857143 L23.7583349,22.2857143 C24.1404144,22.2857143 24.2789656,22.3254967 24.4186482,22.4001997 C24.5583307,22.4749028 24.6679544,22.5845264 24.7426574,22.724209 C24.8173605,22.8638915 24.8571429,23.0024428 24.8571429,23.3845222 L24.8571429,26.3297635 C24.8571429,26.7118429 24.8173605,26.8503942 24.7426574,26.9900767 C24.6679544,27.1297593 24.5583307,27.2393829 24.4186482,27.314086 C24.2789656,27.388789 24.1404144,27.4285714 23.7583349,27.4285714 L20.8130937,27.4285714 C20.4310142,27.4285714 20.292463,27.388789 20.1527804,27.314086 C20.0130979,27.2393829 19.9034742,27.1297593 19.8287712,26.9900767 C19.7540681,26.8503942 19.7142857,26.7118429 19.7142857,26.3297635 L19.7142857,23.3845222 C19.7142857,23.0024428 19.7540681,22.8638915 19.8287712,22.724209 C19.9034742,22.5845264 20.0130979,22.4749028 20.1527804,22.4001997 C20.292463,22.3254967 20.4310142,22.2857143 20.8130937,22.2857143 Z" id="矩形备份-49" fill="#6AD2A9"></path>
            <path d="M27.6702365,22.2857143 L30.6154778,22.2857143 C30.9975572,22.2857143 31.1361085,22.3254967 31.275791,22.4001997 C31.4154736,22.4749028 31.5250972,22.5845264 31.5998003,22.724209 C31.6745033,22.8638915 31.7142857,23.0024428 31.7142857,23.3845222 L31.7142857,26.3297635 C31.7142857,26.7118429 31.6745033,26.8503942 31.5998003,26.9900767 C31.5250972,27.1297593 31.4154736,27.2393829 31.275791,27.314086 C31.1361085,27.388789 30.9975572,27.4285714 30.6154778,27.4285714 L27.6702365,27.4285714 C27.2881571,27.4285714 27.1496058,27.388789 27.0099233,27.314086 C26.8702407,27.2393829 26.7606171,27.1297593 26.685914,26.9900767 C26.611211,26.8503942 26.5714286,26.7118429 26.5714286,26.3297635 L26.5714286,23.3845222 C26.5714286,23.0024428 26.611211,22.8638915 26.685914,22.724209 C26.7606171,22.5845264 26.8702407,22.4749028 27.0099233,22.4001997 C27.1496058,22.3254967 27.2881571,22.2857143 27.6702365,22.2857143 Z" id="矩形备份-50" fill="#6AD2A9"></path>
            <path d="M20.8130937,29.1428571 L23.7583349,29.1428571 C24.1404144,29.1428571 24.2789656,29.1826395 24.4186482,29.2573426 C24.5583307,29.3320456 24.6679544,29.4416693 24.7426574,29.5813518 C24.8173605,29.7210344 24.8571429,29.8595856 24.8571429,30.2416651 L24.8571429,33.1869063 C24.8571429,33.5689858 24.8173605,33.707537 24.7426574,33.8472196 C24.6679544,33.9869021 24.5583307,34.0965258 24.4186482,34.1712288 C24.2789656,34.2459319 24.1404144,34.2857143 23.7583349,34.2857143 L20.8130937,34.2857143 C20.4310142,34.2857143 20.292463,34.2459319 20.1527804,34.1712288 C20.0130979,34.0965258 19.9034742,33.9869021 19.8287712,33.8472196 C19.7540681,33.707537 19.7142857,33.5689858 19.7142857,33.1869063 L19.7142857,30.2416651 C19.7142857,29.8595856 19.7540681,29.7210344 19.8287712,29.5813518 C19.9034742,29.4416693 20.0130979,29.3320456 20.1527804,29.2573426 C20.292463,29.1826395 20.4310142,29.1428571 20.8130937,29.1428571 Z" id="矩形备份-48" fill="#6AD2A9"></path>
            <path d="M27.6702365,29.1428571 L37.4726206,29.1428571 C37.8547001,29.1428571 37.9932513,29.1826395 38.1329339,29.2573426 C38.2726164,29.3320456 38.3822401,29.4416693 38.4569431,29.5813518 C38.5316462,29.7210344 38.5714286,29.8595856 38.5714286,30.2416651 L38.5714286,33.1869063 C38.5714286,33.5689858 38.5316462,33.707537 38.4569431,33.8472196 C38.3822401,33.9869021 38.2726164,34.0965258 38.1329339,34.1712288 C37.9932513,34.2459319 37.8547001,34.2857143 37.4726206,34.2857143 L27.6702365,34.2857143 C27.2881571,34.2857143 27.1496058,34.2459319 27.0099233,34.1712288 C26.8702407,34.0965258 26.7606171,33.9869021 26.685914,33.8472196 C26.611211,33.707537 26.5714286,33.5689858 26.5714286,33.1869063 L26.5714286,30.2416651 C26.5714286,29.8595856 26.611211,29.7210344 26.685914,29.5813518 C26.7606171,29.4416693 26.8702407,29.3320456 27.0099233,29.2573426 C27.1496058,29.1826395 27.2881571,29.1428571 27.6702365,29.1428571 Z" id="矩形备份-51" fill="#6AD2A9"></path>
            <path d="M34.5273794,22.2857143 L37.4726206,22.2857143 C37.8547001,22.2857143 37.9932513,22.3254967 38.1329339,22.4001997 C38.2726164,22.4749028 38.3822401,22.5845264 38.4569431,22.724209 C38.5316462,22.8638915 38.5714286,23.0024428 38.5714286,23.3845222 L38.5714286,26.3297635 C38.5714286,26.7118429 38.5316462,26.8503942 38.4569431,26.9900767 C38.3822401,27.1297593 38.2726164,27.2393829 38.1329339,27.314086 C37.9932513,27.388789 37.8547001,27.4285714 37.4726206,27.4285714 L34.5273794,27.4285714 C34.1452999,27.4285714 34.0067487,27.388789 33.8670661,27.314086 C33.7273836,27.2393829 33.6177599,27.1297593 33.5430569,26.9900767 C33.4683538,26.8503942 33.4285714,26.7118429 33.4285714,26.3297635 L33.4285714,23.3845222 C33.4285714,23.0024428 33.4683538,22.8638915 33.5430569,22.724209 C33.6177599,22.5845264 33.7273836,22.4749028 33.8670661,22.4001997 C34.0067487,22.3254967 34.1452999,22.2857143 34.5273794,22.2857143 Z" id="矩形备份-53" fill="#6AD2A9"></path>
        </g>
    </g>
</svg>