<?xml version="1.0" encoding="UTF-8"?>
<svg width="56px" height="56px" viewBox="0 0 56 56" version="1.1" xmlns="http://www.w3.org/2000/svg" xmlns:xlink="http://www.w3.org/1999/xlink">
    <!-- Generator: Sketch 60.1 (88133) - https://sketch.com -->
    <title>m5</title>
    <desc>Created with Sketch.</desc>
    <g id="m5" stroke="none" stroke-width="1" fill="none" fill-rule="evenodd">
        <g id="编组-21">
            <path d="M2,0 L24,0 C25.1045695,-2.02906125e-16 26,0.8954305 26,2 C26,3.1045695 25.1045695,4 24,4 L2,4 C0.8954305,4 1.3527075e-16,3.1045695 0,2 C-1.3527075e-16,0.8954305 0.8954305,2.02906125e-16 2,0 Z" id="矩形" fill="#FFAA00"></path>
            <path d="M32,52 L54,52 C55.1045695,52 56,52.8954305 56,54 C56,55.1045695 55.1045695,56 54,56 L32,56 C30.8954305,56 30,55.1045695 30,54 C30,52.8954305 30.8954305,52 32,52 Z" id="矩形备份-44" fill="#FFAA00"></path>
            <path d="M5.5638852,10 L20.4361148,10 C21.3276335,10 21.6509198,10.0928256 21.9768457,10.2671327 C22.3027716,10.4414398 22.5585602,10.6972284 22.7328673,11.0231543 C22.9071744,11.3490802 23,11.6723665 23,12.5638852 L23,51.4361148 C23,52.3276335 22.9071744,52.6509198 22.7328673,52.9768457 C22.5585602,53.3027716 22.3027716,53.5585602 21.9768457,53.7328673 C21.6509198,53.9071744 21.3276335,54 20.4361148,54 L5.5638852,54 C4.67236646,54 4.34908022,53.9071744 4.0231543,53.7328673 C3.69722837,53.5585602 3.4414398,53.3027716 3.2671327,52.9768457 C3.09282561,52.6509198 3,52.3276335 3,51.4361148 L3,12.5638852 C3,11.6723665 3.09282561,11.3490802 3.2671327,11.0231543 C3.4414398,10.6972284 3.69722837,10.4414398 4.0231543,10.2671327 C4.34908022,10.0928256 4.67236646,10 5.5638852,10 Z" id="矩形备份-34" stroke="#935ED9" stroke-width="4"></path>
            <path d="M35.5638852,2 L50.4361148,2 C51.3276335,2 51.6509198,2.09282561 51.9768457,2.2671327 C52.3027716,2.4414398 52.5585602,2.69722837 52.7328673,3.0231543 C52.9071744,3.34908022 53,3.67236646 53,4.5638852 L53,43.4361148 C53,44.3276335 52.9071744,44.6509198 52.7328673,44.9768457 C52.5585602,45.3027716 52.3027716,45.5585602 51.9768457,45.7328673 C51.6509198,45.9071744 51.3276335,46 50.4361148,46 L35.5638852,46 C34.6723665,46 34.3490802,45.9071744 34.0231543,45.7328673 C33.6972284,45.5585602 33.4414398,45.3027716 33.2671327,44.9768457 C33.0928256,44.6509198 33,44.3276335 33,43.4361148 L33,4.5638852 C33,3.67236646 33.0928256,3.34908022 33.2671327,3.0231543 C33.4414398,2.69722837 33.6972284,2.4414398 34.0231543,2.2671327 C34.3490802,2.09282561 34.6723665,2 35.5638852,2 Z" id="矩形备份-36" stroke="#6AD2A9" stroke-width="4"></path>
        </g>
    </g>
</svg>