<?xml version="1.0" encoding="UTF-8"?>
<svg width="56px" height="54px" viewBox="0 0 56 54" version="1.1" xmlns="http://www.w3.org/2000/svg" xmlns:xlink="http://www.w3.org/1999/xlink">
    <!-- Generator: Sketch 60.1 (88133) - https://sketch.com -->
    <title>m6</title>
    <desc>Created with Sketch.</desc>
    <g id="m6" stroke="none" stroke-width="1" fill="none" fill-rule="evenodd">
        <g id="编组-18" transform="translate(2.000000, 2.000000)">
            <circle id="椭圆形备份-8" stroke="#FEA800" stroke-width="4" cx="42" cy="40" r="10"></circle>
            <circle id="椭圆形" stroke="#935ED9" stroke-width="4" cx="25" cy="25" r="25"></circle>
            <path d="M42,14.7750002 L41.976257,17.1265848 L29.7486034,17.4796981 L29.7509777,27.497098 L34.6206704,44.1109558 L32.4006983,45 L25.5104749,28.749273 L24.4918994,28.749273 L17.601676,45 L15.3817039,44.1109558 L20.2513966,27.497098 L20.2513966,17.4796981 L8.02374302,17.1265848 L8,14.7750002 L42,14.7750002 Z M25.001133,6.00000022 C26.878901,6.00071817 28.4006255,7.74738938 28.4,9.90129977 C28.3993741,12.0552102 26.8766351,13.8007177 24.998867,13.8000002 C23.121099,13.7992822 21.5993745,12.052611 21.6,9.89870063 C21.6006259,7.74479024 23.1233649,5.99928271 25.001133,6.00000022 Z" id="形状结合" fill="#6AD2A9" fill-rule="nonzero"></path>
        </g>
    </g>
</svg>