<?xml version="1.0" encoding="UTF-8"?>
<svg width="28px" height="22px" viewBox="0 0 28 22" version="1.1" xmlns="http://www.w3.org/2000/svg" xmlns:xlink="http://www.w3.org/1999/xlink">
    <!-- Generator: Sketch 60.1 (88133) - https://sketch.com -->
    <title>menu</title>
    <desc>Created with Sketch.</desc>
    <g id="页面-1" stroke="none" stroke-width="1" fill="none" fill-rule="evenodd">
        <g id="桌面端-HD" transform="translate(-1335.000000, -21.000000)" fill="#333333">
            <path d="M1357,39 C1358.10457,39 1359,39.8954305 1359,41 C1359,42.1045695 1358.10457,43 1357,43 L1337,43 C1335.89543,43 1335,42.1045695 1335,41 C1335,39.8954305 1335.89543,39 1337,39 L1357,39 Z M1349,30 C1350.10457,30 1351,30.8954305 1351,32 C1351,33.1045695 1350.10457,34 1349,34 L1337,34 C1335.89543,34 1335,33.1045695 1335,32 C1335,30.8954305 1335.89543,30 1337,30 L1349,30 Z M1361,21 C1362.10457,21 1363,21.8954305 1363,23 C1363,24.1045695 1362.10457,25 1361,25 L1337,25 C1335.89543,25 1335,24.1045695 1335,23 C1335,21.8954305 1335.89543,21 1337,21 L1361,21 Z" id="menu"></path>
        </g>
    </g>
</svg>