<svg xmlns="http://www.w3.org/2000/svg" width="108.852" height="40" xmlns:v="https://vecta.io/nano"><path d="M99.322 0L8.44.002l-.92.013a13.215 13.215 0 0 0-2.004.177 6.665 6.665 0 0 0-1.901.627 6.438 6.438 0 0 0-1.619 1.179A6.258 6.258 0 0 0 .819 3.618a6.601 6.601 0 0 0-.625 1.903 12.993 12.993 0 0 0-.179 2.002L0 8.444V31.56l.015.922a12.992 12.992 0 0 0 .179 2.002 6.588 6.588 0 0 0 .625 1.904 6.208 6.208 0 0 0 1.178 1.614 6.274 6.274 0 0 0 1.619 1.179 6.701 6.701 0 0 0 1.901.631 13.455 13.455 0 0 0 2.004.177l.92.01L9.535 40l91.793-.013a13.279 13.279 0 0 0 2-.177 6.804 6.804 0 0 0 1.908-.631 6.277 6.277 0 0 0 1.617-1.179 6.395 6.395 0 0 0 1.182-1.614 6.604 6.604 0 0 0 .619-1.904 13.506 13.506 0 0 0 .186-2.002l.004-.922.008-1.094-.012-22.94a13.507 13.507 0 0 0-.186-2.002 6.618 6.618 0 0 0-.619-1.903 6.466 6.466 0 0 0-2.799-2.8 6.768 6.768 0 0 0-1.908-.627 13.044 13.044 0 0 0-2-.177l-.922-.013L99.322 0z"/><path d="M8.445 39.125a39.93 39.93 0 0 1-.904-.011 12.687 12.687 0 0 1-1.869-.163 5.884 5.884 0 0 1-1.657-.548 5.406 5.406 0 0 1-1.397-1.017 5.321 5.321 0 0 1-1.021-1.397 5.722 5.722 0 0 1-.543-1.657 12.414 12.414 0 0 1-.166-1.875l-.015-.913v-23.1l.015-.895a12.37 12.37 0 0 1 .166-1.872 5.756 5.756 0 0 1 .543-1.662 5.373 5.373 0 0 1 1.015-1.398 5.565 5.565 0 0 1 1.402-1.022 5.823 5.823 0 0 1 1.653-.544A12.586 12.586 0 0 1 7.543.887l.902-.012 92.87.013a12.385 12.385 0 0 1 1.858.163 5.938 5.938 0 0 1 1.671.548 5.594 5.594 0 0 1 2.415 2.42 5.763 5.763 0 0 1 .535 1.649 12.995 12.995 0 0 1 .174 1.887l.003.9.008 1.092-.012 22.934a12.731 12.731 0 0 1-.171 1.853 5.739 5.739 0 0 1-.54 1.67 5.48 5.48 0 0 1-1.016 1.386 5.413 5.413 0 0 1-1.399 1.023 5.862 5.862 0 0 1-1.668.55 12.542 12.542 0 0 1-1.869.163l-.897.01-1.084.002z" fill="#fff"/><path d="M24.997 19.9a5.146 5.146 0 0 1 2.451-4.318 5.268 5.268 0 0 0-4.15-2.244c-1.746-.183-3.44 1.045-4.33 1.045-.907 0-2.277-1.027-3.752-.996a5.527 5.527 0 0 0-4.651 2.837c-2 3.482-.5 8.6 1.416 11.414.964 1.378 2.1 2.918 3.564 2.863 1.442-.06 1.98-.92 3.722-.92 1.725 0 2.23.92 3.734.885 1.548-.025 2.523-1.384 3.453-2.776a11.399 11.399 0 0 0 1.579-3.216 4.973 4.973 0 0 1-3.036-4.575zm-2.84-8.413a5.067 5.067 0 0 0 1.159-3.63 5.155 5.155 0 0 0-3.336 1.726 4.821 4.821 0 0 0-1.189 3.496 4.263 4.263 0 0 0 3.366-1.591zm19.01 5.078h-4.052l-.973 2.873h-1.716l3.838-10.63h1.783l3.838 10.63H42.14zm-3.632-1.326h3.212l-1.583-4.663h-.044zm14.638.324c0 2.408-1.3 3.955-3.234 3.955a2.627 2.627 0 0 1-2.438-1.356h-.037V22h-1.6V11.678h1.54v1.3h.03a2.749 2.749 0 0 1 2.468-1.37c1.967 0 3.263 1.555 3.263 3.956zm-1.635 0c0-1.57-.8-2.6-2.048-2.6-1.215 0-2.033 1.053-2.033 2.6 0 1.56.818 2.607 2.033 2.607 1.237 0 2.048-1.024 2.048-2.607zm10.165 0c0 2.408-1.3 3.955-3.234 3.955a2.627 2.627 0 0 1-2.438-1.356h-.037V22h-1.6V11.678h1.54v1.3h.03a2.749 2.749 0 0 1 2.468-1.37c1.967 0 3.264 1.555 3.264 3.956zm-1.635 0c0-1.57-.8-2.6-2.048-2.6-1.215 0-2.033 1.053-2.033 2.6 0 1.56.818 2.607 2.033 2.607 1.237 0 2.048-1.024 2.048-2.607zm7.272.913c.118 1.054 1.142 1.746 2.54 1.746 1.34 0 2.305-.692 2.305-1.643 0-.825-.582-1.32-1.96-1.658l-1.378-.332c-1.952-.47-2.858-1.384-2.858-2.865 0-1.834 1.598-3.094 3.867-3.094 2.247 0 3.787 1.26 3.838 3.094H71.1c-.096-1.06-.973-1.7-2.254-1.7s-2.158.648-2.158 1.6c0 .75.56 1.194 1.93 1.532l1.17.288c2.18.516 3.086 1.392 3.086 2.947 0 2-1.583 3.234-4.103 3.234-2.357 0-3.95-1.216-4.052-3.14zm9.96-6.622v1.834h1.474v1.26H76.3V17.2c0 .664.295.973.943.973a4.971 4.971 0 0 0 .523-.037v1.252a4.368 4.368 0 0 1-.884.074c-1.57 0-2.18-.6-2.18-2.092v-4.442h-1.127v-1.26H74.7V9.844zm2.326 5.71c0-2.438 1.436-3.97 3.675-3.97 2.247 0 3.676 1.532 3.676 3.97 0 2.445-1.422 3.97-3.676 3.97s-3.675-1.526-3.675-3.97zm5.73 0c0-1.673-.767-2.66-2.055-2.66s-2.055.995-2.055 2.66c0 1.68.767 2.66 2.055 2.66s2.055-.98 2.055-2.66zm2.934-3.875h1.517v1.32h.037a1.848 1.848 0 0 1 1.864-1.4 2.453 2.453 0 0 1 .545.059v1.488a2.224 2.224 0 0 0-.715-.096 1.603 1.603 0 0 0-1.658 1.783v4.597h-1.6zm11.296 5.472a3.11 3.11 0 0 1-3.337 2.372c-2.254 0-3.654-1.5-3.654-3.934s1.407-4.007 3.587-4.007c2.144 0 3.492 1.473 3.492 3.823v.545H93.2v.096a2.018 2.018 0 0 0 2.085 2.195 1.753 1.753 0 0 0 1.79-1.09zm-5.376-2.3h3.874a1.864 1.864 0 0 0-1.901-1.967 1.962 1.962 0 0 0-1.974 1.967zm-58.78 9.2h7.46v.78h-3.547v1.104q.762.353 1.535.778.772.425 1.562.912l-.46.717q-.813-.52-1.46-.914-.648-.396-1.176-.657v4.608h-.8V24.82H34.43zm9.526.234h1.562v-.63h.772v.63h1.447v.717H46.3v.6h1.824q-.018-.45-.037-.94-.02-.5-.02-1.026h.767q0 .546.016 1.03.016.485.035.935h2.03v.727H48.92q.037.505.094.923l.104.75a1.657 1.657 0 0 1 .055.224l.037.218a8.074 8.074 0 0 0 .34-.859q.152-.454.276-.974l.703.32a9.738 9.738 0 0 1-1.006 2.578l.08.186q.043.094.1.182.3.574.46.574.115 0 .267-1.208l.675.358q-.3 1.677-.854 1.677-.428 0-.97-.754a2.133 2.133 0 0 1-.188-.358 5.12 5.12 0 0 1-1.402 1.204l-.436-.63a4.192 4.192 0 0 0 1.488-1.402q-.083-.27-.167-.558-.085-.287-.145-.6a12.605 12.605 0 0 1-.262-1.852h-4.63v-.727h2v-.6h-1.562zm3.78 5.288v.7q-.303.037-.613.068l-.627.07v.95h-.772v-.854q-.437.037-.887.068l-.914.083-.1-.744q.5-.02.98-.053.47-.035.924-.062v-.62H44.2l-.16-.63a5.213 5.213 0 0 0 .556-.887h-.8v-.703h1.116a1.733 1.733 0 0 0 .097-.269q.037-.135.092-.287l.753.134-.073.228a.992.992 0 0 1-.078.194h2.1v.703h-2.37q-.124.25-.25.46-.127.2-.237.4h.8v-.557h.772v.557h1.194v.647h-1.194v.537l.627-.062q.3-.035.613-.07zm1.346-5.46l.584-.395a12.556 12.556 0 0 1 .979 1.236l-.593.422q-.18-.284-.42-.604-.242-.32-.55-.66z"/></svg>