<svg xmlns="http://www.w3.org/2000/svg" xmlns:xlink="http://www.w3.org/1999/xlink" width="119.664" height="40" xmlns:v="https://vecta.io/nano"><path d="M110.135 0L8.44.002l-.92.013a13.215 13.215 0 0 0-2.004.177 6.665 6.665 0 0 0-1.901.627 6.438 6.438 0 0 0-1.619 1.179A6.258 6.258 0 0 0 .819 3.618a6.601 6.601 0 0 0-.625 1.903 12.993 12.993 0 0 0-.179 2.002L0 8.444V31.56l.015.922a12.992 12.992 0 0 0 .179 2.002 6.588 6.588 0 0 0 .625 1.904 6.208 6.208 0 0 0 1.178 1.614 6.274 6.274 0 0 0 1.619 1.179 6.701 6.701 0 0 0 1.901.631 13.455 13.455 0 0 0 2.004.177l.92.01L9.535 40l102.606-.013a13.279 13.279 0 0 0 2-.177 6.804 6.804 0 0 0 1.908-.631 6.277 6.277 0 0 0 1.617-1.179 6.395 6.395 0 0 0 1.182-1.614 6.604 6.604 0 0 0 .619-1.904 13.506 13.506 0 0 0 .186-2.002l.004-.922.008-1.094-.012-22.94a13.507 13.507 0 0 0-.186-2.002 6.618 6.618 0 0 0-.619-1.903 6.466 6.466 0 0 0-2.799-2.8 6.768 6.768 0 0 0-1.908-.627 13.044 13.044 0 0 0-2-.177l-.922-.013L110.135 0z"/><path d="M8.445 39.125a39.93 39.93 0 0 1-.904-.011 12.687 12.687 0 0 1-1.869-.163 5.884 5.884 0 0 1-1.657-.548 5.406 5.406 0 0 1-1.397-1.017 5.321 5.321 0 0 1-1.021-1.397 5.722 5.722 0 0 1-.543-1.657 12.414 12.414 0 0 1-.166-1.875l-.015-.913v-23.1l.015-.895a12.37 12.37 0 0 1 .166-1.872 5.756 5.756 0 0 1 .543-1.662 5.373 5.373 0 0 1 1.015-1.398 5.565 5.565 0 0 1 1.402-1.022 5.823 5.823 0 0 1 1.653-.544A12.586 12.586 0 0 1 7.543.887l.902-.012 103.682.013a12.385 12.385 0 0 1 1.858.163 5.938 5.938 0 0 1 1.671.548 5.594 5.594 0 0 1 2.415 2.42 5.763 5.763 0 0 1 .535 1.649 12.995 12.995 0 0 1 .174 1.887l.003.9.008 1.092-.012 22.934a12.731 12.731 0 0 1-.171 1.853 5.739 5.739 0 0 1-.54 1.67 5.48 5.48 0 0 1-1.016 1.386 5.413 5.413 0 0 1-1.399 1.023 5.862 5.862 0 0 1-1.668.55 12.542 12.542 0 0 1-1.869.163l-.897.01-1.084.002z" fill="#fff"/><path d="M24.997 19.9a5.146 5.146 0 0 1 2.451-4.318 5.268 5.268 0 0 0-4.15-2.244c-1.746-.183-3.44 1.045-4.33 1.045-.907 0-2.277-1.027-3.752-.996a5.527 5.527 0 0 0-4.651 2.837c-2 3.482-.5 8.6 1.416 11.414.964 1.378 2.1 2.918 3.564 2.863 1.442-.06 1.98-.92 3.722-.92 1.725 0 2.23.92 3.734.885 1.548-.025 2.523-1.384 3.453-2.776a11.399 11.399 0 0 0 1.579-3.216 4.973 4.973 0 0 1-3.036-4.575zm-2.84-8.413a5.067 5.067 0 0 0 1.159-3.63 5.155 5.155 0 0 0-3.336 1.726 4.821 4.821 0 0 0-1.189 3.496 4.263 4.263 0 0 0 3.366-1.591zM42.302 27.14H37.57l-1.137 3.356h-2.005L38.9 18.078h2.083l4.483 12.418h-2.04zM38.06 25.6h3.752l-1.85-5.447h-.052zm17.1.38c0 2.813-1.506 4.62-3.778 4.62a3.069 3.069 0 0 1-2.849-1.584H48.5V33.5h-1.86V21.44h1.8v1.506h.034a3.212 3.212 0 0 1 2.883-1.601c2.298 0 3.813 1.816 3.813 4.622zm-1.9 0c0-1.833-.947-3.038-2.393-3.038-1.42 0-2.375 1.23-2.375 3.038 0 1.824.955 3.046 2.375 3.046 1.445 0 2.393-1.196 2.393-3.046zm11.865 0c0 2.813-1.506 4.62-3.78 4.62a3.069 3.069 0 0 1-2.849-1.584h-.043V33.5h-1.858V21.44h1.8v1.506h.034a3.212 3.212 0 0 1 2.883-1.601c2.298 0 3.813 1.816 3.813 4.622zm-1.9 0c0-1.833-.947-3.038-2.393-3.038-1.42 0-2.375 1.23-2.375 3.038 0 1.824.955 3.046 2.375 3.046 1.445 0 2.393-1.196 2.393-3.046zm8.495 1.066c.138 1.23 1.334 2.04 2.97 2.04 1.566 0 2.693-.8 2.693-1.92 0-.964-.68-1.54-2.3-1.937l-1.6-.388c-2.28-.55-3.34-1.617-3.34-3.348 0-2.143 1.867-3.614 4.518-3.614 2.625 0 4.424 1.472 4.484 3.614H77.26c-.112-1.24-1.137-1.987-2.634-1.987s-2.52.757-2.52 1.858c0 .878.654 1.395 2.255 1.8l1.368.336c2.548.603 3.605 1.626 3.605 3.442 0 2.323-1.85 3.778-4.793 3.778-2.754 0-4.613-1.42-4.733-3.667zM83.346 19.3v2.143h1.722v1.472h-1.722v5c0 .775.345 1.137 1.102 1.137a5.808 5.808 0 0 0 .611-.043v1.463a5.104 5.104 0 0 1-1.032.086c-1.833 0-2.548-.688-2.548-2.444v-5.2h-1.316v-1.472h1.316V19.3zm2.718 6.67c0-2.85 1.678-4.64 4.294-4.64 2.625 0 4.295 1.8 4.295 4.64 0 2.856-1.66 4.64-4.295 4.64s-4.294-1.782-4.294-4.64zm6.695 0c0-1.954-.896-3.107-2.4-3.107s-2.4 1.162-2.4 3.107c0 1.962.896 3.106 2.4 3.106s2.4-1.145 2.4-3.106zm3.426-4.528h1.772v1.54H98a2.159 2.159 0 0 1 2.178-1.636 2.866 2.866 0 0 1 .637.069v1.738a2.598 2.598 0 0 0-.835-.112 1.873 1.873 0 0 0-1.937 2.083v5.37h-1.858zm13.198 6.395c-.25 1.644-1.85 2.77-3.898 2.77-2.634 0-4.27-1.765-4.27-4.596 0-2.84 1.644-4.682 4.2-4.682 2.505 0 4.08 1.72 4.08 4.466v.637H103.1v.112a2.358 2.358 0 0 0 2.436 2.564 2.048 2.048 0 0 0 2.091-1.273zm-6.282-2.702h4.526a2.177 2.177 0 0 0-2.221-2.298 2.292 2.292 0 0 0-2.306 2.298zM37.826 8.73a2.64 2.64 0 0 1 2.808 2.965c0 1.906-1.03 3.002-2.808 3.002H35.67V8.73zm-1.23 5.123h1.125a1.876 1.876 0 0 0 1.968-2.146 1.881 1.881 0 0 0-1.968-2.134h-1.125z"/><use xlink:href="#B"/><path d="M51.573 14.698h-.922l-.93-3.316h-.07l-.927 3.316h-.913l-1.24-4.503h.9l.807 3.436h.066l.926-3.436h.853l.926 3.436h.07l.803-3.436h.89z"/><use xlink:href="#C"/><path d="M59.094 8.437h.9v6.26h-.9zm2.124 4.007a2.133 2.133 0 1 1 4.248 0 2.134 2.134 0 1 1-4.248 0zm3.333 0c0-.976-.438-1.547-1.208-1.547s-1.207.57-1.207 1.547c0 .984.435 1.55 1.207 1.55s1.208-.57 1.208-1.55zm1.85.98c0-.8.604-1.278 1.675-1.344l1.22-.07v-.4c0-.476-.314-.744-.922-.744-.496 0-.84.182-.938.5h-.86c.1-.773.818-1.27 1.84-1.27 1.13 0 1.766.562 1.766 1.513v3.077h-.855v-.633h-.07a1.515 1.515 0 0 1-1.353.707 1.36 1.36 0 0 1-1.501-1.348zm2.895-.385v-.376l-1.1.07c-.62.04-.9.252-.9.65 0 .405.352.64.835.64a1.062 1.062 0 0 0 1.166-.984zm2.053-.595c0-1.423.73-2.324 1.87-2.324a1.484 1.484 0 0 1 1.381.79h.066V8.437h.9v6.26h-.852v-.7h-.07a1.563 1.563 0 0 1-1.414.786c-1.146 0-1.87-.9-1.87-2.328zm.918 0c0 .955.45 1.53 1.203 1.53s1.212-.583 1.212-1.526-.468-1.53-1.212-1.53-1.203.58-1.203 1.526z"/><use xlink:href="#B" x="37.55"/><use xlink:href="#C" x="30.816"/><path d="M93.515 9.074v1.142h.976v.75h-.976v2.315c0 .472.194.678.637.678a2.967 2.967 0 0 0 .339-.021v.74a2.916 2.916 0 0 1-.483.045c-.988 0-1.382-.348-1.382-1.216v-2.543h-.715v-.75h.715v-1.14zm2.2-.637h.88v2.48h.07a1.386 1.386 0 0 1 1.373-.807 1.483 1.483 0 0 1 1.551 1.679v2.907h-.9V12c0-.72-.335-1.084-.963-1.084a1.052 1.052 0 0 0-1.134 1.142v2.63h-.9zm9.055 5.045a1.828 1.828 0 0 1-1.951 1.303 2.045 2.045 0 0 1-2.08-2.324 2.077 2.077 0 0 1 2.076-2.353c1.253 0 2 .856 2 2.27v.3h-3.18v.05a1.19 1.19 0 0 0 1.199 1.29 1.079 1.079 0 0 0 1.071-.546zm-3.126-1.45h2.274a1.086 1.086 0 0 0-1.108-1.166 1.152 1.152 0 0 0-1.166 1.166z"/><defs ><path id="B" d="M41.68 12.444a2.133 2.133 0 1 1 4.247 0 2.134 2.134 0 1 1-4.247 0zm3.333 0c0-.976-.438-1.547-1.208-1.547s-1.207.57-1.207 1.547c0 .984.435 1.55 1.207 1.55s1.208-.57 1.208-1.55z"/><path id="C" d="M53.854 10.195h.855v.715h.066a1.348 1.348 0 0 1 1.344-.802 1.465 1.465 0 0 1 1.559 1.675v2.915h-.89v-2.692c0-.724-.314-1.083-.972-1.083a1.033 1.033 0 0 0-1.075 1.141v2.634h-.89z"/></defs></svg>