<svg xmlns="http://www.w3.org/2000/svg" width="24" height="24" xmlns:v="https://vecta.io/nano"><path d="M13.083.457c.62-.498 1.307-.545 1.918-.353l.14.048.217.083.16.07c.4-.19.842-.26 1.307-.18.762.133 1.204.504 1.826 1.225.302.35.557.83.9 1.585a4.72 4.72 0 0 1 .39 1.57l.01.27.056 3.52c-.001 1.042-.112 2.022-.332 2.934.175.25.29.558.32.92l.007.185v3.145c0 4.706-3.884 8.52-8.674 8.52a8.84 8.84 0 0 1-2.055-.241l-.432-.114c-.13-.04-.2-.082-.588-.316l-.282-.3-.218-.05a6.92 6.92 0 0 1-.784-.25l-.25-.102-.243-.11c-.103-.05-.202-.11-.294-.176a8.63 8.63 0 0 1-1.977-1.996l-.05-.074-.047-.076-.056-.104-.082-.132c-.522-.88-.843-1.862-.935-2.888l-.02-.31L3 16.45a6.88 6.88 0 0 1 1.769-4.606c1.092-1.218 3.107-.627 3.382.93l.02.15c.035.35.14.687.308.994l.15.256.08.107c.676.855 1.664 1.414 2.77 1.55l-.032-7.83-.006-.11c-.03-.218-.182-.308-.813-.448a2.41 2.41 0 0 1-1.828-1.779L8.768 5.5l-.01-.056c-.19-1.15.567-2.248 1.726-2.502a25.87 25.87 0 0 0 1.233-.3 1.97 1.97 0 0 1 .214-.282l.06-.066.192-.187.028-.042.012-.023a1.04 1.04 0 0 0 .069-.176l.08-.303c.124-.435.273-.748.71-1.098zm-.605 17.296c-.158.015-.32.022-.483.02a6.13 6.13 0 0 1-5.018-2.583c-.014-.02-.023-.04-.03-.062-.388-.594-.64-1.28-.715-2.02-.798.89-1.283 2.06-1.283 3.34a4.97 4.97 0 0 0 .815 2.732c.007.024.018.047.033.068a6.7 6.7 0 0 0 1.534 1.549c.572.277 1.374.492 2.254.5l.242-.006c.487-.024.993-.116 1.494-.303-.468.645-2.082.788-1.852.853.5.138 1.003.222 1.533.246l.32.007.23-.004c3.53-.117 6.37-2.906 6.5-6.373l.004-.227v-3.145c-.36 1.845-2.372 4.965-5.333 5.4l-.236.028zM17.166 2.6l-.192-.213c-.764-.806-.684-.114-1.028.438-.894.786-2.573 1.448-5.038 1.987a.29.29 0 0 0-.228.263l.003.064.01.055c.03.2.177.343.368.385 1.488.33 2.265 1.083 2.333 2.256l.038 8.232c2.983-1.47 4.52-3.948 4.615-7.432l.005-.33-.056-3.5a2.83 2.83 0 0 0-.241-1.108l-.162-.356c-.18-.38-.32-.63-.426-.752zm-2.726-.65c-.257-.097-.126.257-.465.937-.317.637-.716.754-.57.81l.05.014c.084.018.54.072 1.818-.774-.152-.593-.392-.794-.6-.897l-.06-.026-.165-.062z" fill="#fff" fill-rule="evenodd"/></svg>