<svg xmlns="http://www.w3.org/2000/svg" xmlns:xlink="http://www.w3.org/1999/xlink" width="400" height="320" xmlns:v="https://vecta.io/nano"><style><![CDATA[.B{fill:#fff}.C{stroke-linecap:round}.D{stroke:#1b4f7a}.E{fill-rule:nonzero}]]></style><defs><rect id="A" width="112" height="44" rx="8"/><filter x="-8.9%" y="-18.2%" width="117.9%" height="145.5%" id="B"><feOffset dy="2" in="SourceAlpha"/><feGaussianBlur stdDeviation="3"/><feColorMatrix values="0 0 0 0 0 0 0 0 0 0 0 0 0 0 0 0 0 0 0.15 0"/></filter><rect id="C" width="52" height="52" rx="8"/><filter x="-19.2%" y="-15.4%" width="138.5%" height="138.5%" id="D"><feOffset dy="2" in="SourceAlpha"/><feGaussianBlur stdDeviation="3"/><feColorMatrix values="0 0 0 0 0 0 0 0 0 0 0 0 0 0 0 0 0 0 0.15 0"/></filter></defs><g fill="none" fill-rule="evenodd"><g fill="#ff9500" opacity=".2"><path d="M33.61 79.963C8.28 69.137 0 49.545 0 35.494 0-12.29 50.1-8.275 60.85 26.43s24.4 42.805 46.836 53.48-48.748 10.88-74.076.053z"/><path d="M343.94 320c26.368-50.88 42.774-92.09 49.216-123.63C433.58-1.555 285.314-17.98 200.87 95.633S0 164.89 0 228.422c0 42.355 18.504 72.88 55.51 91.578H343.94z"/></g><path d="M355.255 224.07l-1.84 1.385c-3.93 2.992-13.8 10.667-25.983 21.405 1.553-12.953 8.99-22.214 10.714-24.2l.314-.355-.33.355c-11.053 12.012-10.893 22.425-10.766 24.27l-1.8 1.592c-7.863 6.992-16.6 15.18-25.267 24.153-5.367-16.143 3.815-34.87 4.2-35.623l-.385.743c-11.095 21.686-5.678 32.5-3.978 35.063-7.157 7.407-14.275 15.348-20.84 23.59-12.31-21.37-.887-40.89-1.026-40.838-12.048 21.837-2.215 37.07.883 41.02-1.965 2.47-3.88 4.966-5.73 7.483l-.354.58c-2.416 4.033.07 1.955 2.715-1.008l1.55-1.914c4.41-5.414 9.7-11.636 15.834-18.463l.096.31c1.19 3.67 7.536 17.463 34.27 10.834.044-.098-25.128 6.83-34.284-11.238a554.59 554.59 0 0 1 20.882-21.937l.167.365c1.97 4.155 9.667 15.03 33.816 5.38l.625-.255c-2.736 1.083-25.38 9.47-34.47-5.626 11.742-11.678 25.407-24.253 40.996-37.058zm-19.44 16.96l.17.213c.967 1.148 6.035 6.37 14.6 1.398.044-.1-7.854 3.833-14.77-1.61z" class="B"/><path d="M25.88 224.102c5.977.334 12.924 4.424 20.842 12.27 4.74 3.95 11.197 3.476 19.37-1.426 7.826-2.32 13.54 2.626 17.14 14.838-.03 7.607 3.914 9.2 11.83 4.777 10.775-4.824 17.182.558 19.22 16.147-.59 15.57-5.118 27.54-13.587 35.91l-8.288 13.114c-28.185.62-43.984-.598-47.398-3.656-.576.36-8.412-7.608-2.62-17.115l.18-.29s6.15-13.9-8.32-16.276c-.326-.493-15.72.296-14.98-13.315l1.206-4.9c1.468-1.946 8.318-11.992.04-20.118-8.344-11.044-6.556-17.7 5.364-19.964z" fill="#bc8aff"/><path d="M22.75 234.608l-1.28-1.058c.62.458 11.137 8.27 25.012 20.5-1.344-11.202-7.575-19.336-9.438-21.55l-.482-.554.295.317c9.946 10.81 9.8 20.183 9.686 21.84 7.488 6.596 15.95 14.474 24.36 23.17 4.302-12.94-1.783-27.724-3.403-31.282l-.368-.78.347.67c9.985 19.516 5.11 29.248 3.58 31.556 6.44 6.667 12.847 13.814 18.756 21.23 11.08-19.232.798-36.802.924-36.754 10.844 19.654 1.993 33.363-.795 36.918 1.77 2.222 3.492 4.47 5.158 6.734l.34.558c2.137 3.58-.094 1.713-2.466-.944l-.958-1.184c-4.058-4.997-8.954-10.783-14.69-17.156l-.12.385c-1.158 3.454-6.998 15.55-30.81 9.645l.025.002c.837.15 22.754 5.818 30.83-10.115-5.496-6.105-11.76-12.746-18.795-19.746l-.15.33c-1.772 3.74-8.7 13.528-30.433 4.842l-.562-.23c2.463.974 22.84 8.522 31.023-5.063a524.2 524.2 0 0 0-35.586-32.272h0zm16.185 14.184l-.147.184c-.855 1.018-5.42 5.75-13.146 1.265-.04-.09 7.07 3.45 13.293-1.45z" class="B"/><g transform="matrix(-1 0 0 1 365 216)"><path d="M11.377 0c6.466.363 13.98 4.803 22.544 13.32 5.128 4.3 12.112 3.774 20.95-1.548 8.465-2.52 14.645 2.85 18.54 16.1-.033 8.26 4.233 9.988 12.798 5.187 11.655-5.237 18.585.606 20.79 17.53-.637 16.906-5.536 29.903-14.696 39L83.34 103.83c-30.487.674-47.577-.65-51.27-3.97-.623.392-9.1-8.26-2.833-18.582l.194-.313s6.652-15.08-9-17.67c-.353-.535-17.006.32-16.204-14.456l1.305-5.32c1.588-2.113 8.998-13.02.042-21.843C-3.45 9.685-1.517 2.46 11.377 0z" fill="#fe889d"/><path d="M8.387 10.912L7 9.758c.67.5 12.055 9.014 27.073 22.33-1.454-12.21-8.2-21.073-10.216-23.485L23.336 8l.32.345C34.42 20.128 34.262 30.342 34.14 32.148c8.105 7.188 17.264 15.774 26.366 25.25 4.657-14.103-1.93-30.215-3.684-34.093l-.398-.85.375.73c10.808 21.27 5.532 31.876 3.876 34.39 6.972 7.266 13.906 15.055 20.302 23.138 11.993-20.96.864-40.108 1-40.056 11.737 21.42 2.157 36.36-.86 40.235 1.914 2.42 3.78 4.87 5.583 7.34l.37.61c2.313 3.902-.102 1.867-2.67-1.03l-1.037-1.29c-4.392-5.446-9.692-11.752-15.9-18.697l-.13.42C66.078 72 59.757 85.192 33.984 78.757l.027.002c.906.164 24.63 6.34 33.37-11.023-5.95-6.654-12.73-13.89-20.344-21.52l-.162.36c-1.918 4.077-9.417 14.743-32.942 5.277l-.61-.25c2.666 1.062 24.723 9.288 33.58-5.518-11.082-11.098-23.92-23.02-38.518-35.172h0zm17.52 15.46l-.16.2c-.926 1.11-5.866 6.268-14.23 1.38-.043-.097 7.65 3.76 14.388-1.58z" class="B"/></g><path d="M65.154 205.91s-9.122-26.924 17.504-19.67c0 0 9.368 4.672 17.258 25.326 0 0 3.205 10.327 23.544 7.622 0 0 14.792 2.1 11.587 26.063 0 0-8.26 13.646 11.834 11.556 0 0 22.312 0 13.067 29.506 0 0-12.82 25.695-34.022 33.686H85.37s-24.654-8.36-28.845-17.703c-.863.123-5.917-13.4 6.163-21.392 0 0 14.3-12.91-1.233-23.113-.123-.738-18.367-7.745-10.478-23.113 1.602-2.828 1.726-2.705 3.452-4.795 0 0 17.258-8.483 10.724-23.973z" fill="#fe889d"/><path d="M90.415 201.15c5.954 17.673.946 28.467-.042 30.33 5.277 11.513 11.022 25.016 16.283 39.44 12.965-14.204 12.237-37.666 12.18-39.083l-.002-.037.057.954c1.503 27.785-9.175 36.552-12.14 38.438 4.027 11.055 7.765 22.648 10.788 34.3 22.775-16.58 19.924-42.26 20.045-42.14 2.427 28.388-14.915 39.714-19.98 42.396.904 3.49 1.742 6.984 2.504 10.47.895 6.396-.82 2.97-2.264-1.544a561.31 561.31 0 0 0-8.674-29.343c-2.4 2.82-15.456 15.6-41.042-4.338 0-.122 23.048 18.8 40.997 4.202-3.222-9.916-7.057-20.85-11.598-32.595-3.527 3.215-16.774 12.156-38.132-9.794l-.534-.556c2.352 2.4 22.083 21.672 38.585 10.145-6.826-17.643-15.244-37.114-25.562-57.72 0 0 8.364 14.72 18.446 36.7 4.73-15.32.37-29.345-.082-30.72zM84.3 221.405s-8.76 5.058-16.16-5.182c0-.123 6.415 7.65 16.16 5.182z" class="B"/><path d="M135.23 37H264.77c6.686 0 9.11.696 11.555 2.003a13.63 13.63 0 0 1 5.67 5.67c1.307 2.444 2.003 4.87 2.003 11.555V320H116V56.23c0-6.686.696-9.11 2.003-11.555a13.63 13.63 0 0 1 5.67-5.67c2.444-1.307 4.87-2.003 11.555-2.003z" fill="#3a3a3a"/><path d="M264.18 43c4.458 0 6.074.464 7.704 1.336s2.91 2.15 3.78 3.78S277 51.362 277 55.82V320H123V55.82c0-4.458.464-6.074 1.336-7.704s2.15-2.91 3.78-3.78S131.362 43 135.82 43h15.25a7.06 7.06 0 0 0-.071 1h0v7a7 7 0 0 0 7 7h85a7 7 0 0 0 7-7h0v-7a7.06 7.06 0 0 0-.071-1h14.25z" class="B"/><rect fill="#ffe8c7" x="130" y="83" width="140" height="61" rx="6"/><rect fill="#eddcff" x="130" y="160" width="140" height="77" rx="6"/><path d="M223.42 214.4l-3.972 10H140l3.972-10h79.448zm-79.448-18.538l113.5.042-3.972 9.958-113.5-.042 3.972-9.958zM185 176v10h-45v-10h45z" class="B"/><path d="M136 253h128a6 6 0 0 1 6 6v61H130v-61a6 6 0 0 1 6-6z" fill="#c5f6e3"/><g class="B"><path d="M225 120v10h-85v-10h85zm38-19v10H140v-10h123z" opacity=".9"/><rect opacity=".5" x="180" y="45" width="39.724" height="3.972" rx="1.986"/></g><g fill="#ff8e00"><path opacity=".3" d="M139.972 97.945h104v15.9h-104z"/><path d="M139.972 90c2.194 0 3.972 1.78 3.972 3.972 0 1.73-1.105 3.2-2.648 3.746V112.5c0 .73-.593 1.324-1.324 1.324s-1.324-.593-1.324-1.324V97.72c-1.543-.545-2.648-2.017-2.648-3.746 0-2.194 1.78-3.972 3.972-3.972zm104 31.78c2.194 0 3.972-1.78 3.972-3.972 0-1.73-1.105-3.2-2.648-3.746V99.27c0-.73-.593-1.324-1.324-1.324s-1.324.593-1.324 1.324v14.792c-1.543.545-2.648 2.017-2.648 3.746 0 2.194 1.78 3.972 3.972 3.972z"/></g><path d="M181.11 65h130.785c2.125 0 2.895.22 3.672.637a4.33 4.33 0 0 1 1.802 1.802c.415.777.637 1.547.637 3.672v12.804c0 2.125-.22 2.895-.637 3.672a4.33 4.33 0 0 1-1.802 1.802c-.777.415-1.547.637-3.672.637H204.793l-5.96 6.554-5.96-6.554H181.11c-2.125 0-2.895-.22-3.672-.637a4.33 4.33 0 0 1-1.802-1.802c-.415-.777-.637-1.547-.637-3.672V71.11c0-2.125.22-2.895.637-3.672a4.33 4.33 0 0 1 1.802-1.802c.777-.415 1.547-.637 3.672-.637z" fill="#626262"/><path d="M221.477 65h90.42c2.125 0 2.895.22 3.672.637a4.33 4.33 0 0 1 1.802 1.802c.415.777.637 1.547.637 3.672v12.804c0 2.125-.22 2.895-.637 3.672a4.33 4.33 0 0 1-1.802 1.802c-.777.415-1.547.637-3.672.637h-90.42V65z" fill="#000" opacity=".5"/><g class="B"><path d="M189.997 81.824c1.536 0 2.63-.628 3.183-1.74.093-.186.14-.343.14-.524 0-.273-.198-.47-.477-.47-.233 0-.378.11-.49.367-.396.943-1.257 1.402-2.35 1.402-1.658 0-2.712-1.315-2.712-3.375 0-2.042 1.065-3.37 2.706-3.37 1.036 0 1.938.535 2.333 1.525.116.297.297.436.553.436.285 0 .47-.186.47-.477 0-.122-.03-.268-.087-.413-.495-1.25-1.74-2.037-3.27-2.037-2.298 0-3.782 1.7-3.782 4.335 0 2.66 1.466 4.34 3.782 4.34zm6.784-.035c1.67 0 2.8-1.205 2.8-3.13 0-1.932-1.13-3.13-2.8-3.13-1.676 0-2.805 1.2-2.805 3.13 0 1.926 1.13 3.13 2.805 3.13zm0-.9c-1.07 0-1.775-.815-1.775-2.24s.704-2.24 1.775-2.24 1.77.815 1.77 2.24-.698 2.24-1.77 2.24zm4.037 2.92c.297 0 .506-.22.506-.54V80.7h.023c.36.663 1.06 1.088 1.926 1.088 1.525 0 2.566-1.234 2.566-3.13s-1.047-3.13-2.59-3.13c-.88 0-1.583.448-1.955 1.13h-.023v-.617c0-.303-.198-.512-.477-.512-.285 0-.483.21-.483.512v7.24c0 .32.21.54.506.54zm2.234-2.92c-1.036 0-1.734-.9-1.734-2.24 0-1.344.698-2.24 1.734-2.24 1.077 0 1.752.873 1.752 2.24 0 1.373-.675 2.24-1.752 2.24zm3.94 3.05c1 0 1.495-.448 2.02-1.84l2.234-5.848c.035-.1.052-.192.052-.268 0-.273-.204-.466-.495-.466-.25 0-.384.105-.477.372l-1.676 4.772h-.017l-1.67-4.772c-.093-.268-.244-.372-.483-.372-.29 0-.506.186-.506.466 0 .076.017.17.052.268l2.083 5.43-.14.425c-.24.733-.605.966-.99.966-.157 0-.198-.006-.343-.006-.256 0-.407.15-.407.372 0 .32.273.5.762.5z" class="E"/><path opacity=".2" d="M221.477 65h1.192v25.026h-1.192zm48.86 0h1.192v25.026h-1.192z"/><path d="M216.608 279c4.275 0 6.392 2.1 6.392 6.23h0v24.54c0 4.14-2.117 6.23-6.392 6.23h0-35.216c-4.254 0-6.392-2.07-6.392-6.23h0v-24.54c0-4.16 2.137-6.23 6.392-6.23h0zm-9.486 17.706c-1.16 0-2.28.402-3.277 1.286h0l-9.73 8.52-3.888-3.457c-.896-.824-1.934-1.226-2.93-1.226-.896 0-1.873.402-2.768 1.186h0l-6.25 5.386v1.226c0 1.97 1.18 3.135 3.155 3.135h35.155c1.934 0 3.135-1.166 3.135-3.095h0v-3.095l-9.364-8.562c-.957-.884-2.117-1.306-3.237-1.306zm-16.855-8.642c-2.768 0-5.028 2.25-5.028 4.964 0 2.733 2.26 4.964 5.028 4.964 2.748 0 5.008-2.23 5.008-4.964 0-2.713-2.26-4.964-5.008-4.964z" class="E"/></g><g transform="translate(49 116)"><use fill="#000" filter="url(#B)" xlink:href="#A"/><use xlink:href="#A" class="B"/><path d="M11 5a6 6 0 1 1 0 12 6 6 0 1 1 0-12zm0 3a.5.5 0 0 0-.5.5h0v2h-2a.5.5 0 1 0 0 1h2v2a.5.5 0 1 0 1 0h0v-2h2a.5.5 0 1 0 0-1h0-2v-2A.5.5 0 0 0 11 8z" fill="#007cff"/><path opacity=".1" d="M40 9h65v6H40zm0 10h65v6H40zm0 10h35v6H40zM5 29h18v6H5z" fill="#000"/></g><g transform="translate(250 130)"><use fill="#000" filter="url(#D)" xlink:href="#C"/><use xlink:href="#C" class="B"/><path fill="#000" opacity=".1" d="M5 38h36v8H5z"/><path d="M14 5a3 3 0 0 1 3 3v6a3 3 0 0 1-3 3H8a3 3 0 0 1-3-3V8a3 3 0 0 1 3-3h6zm-3.956 6.482a.18.18 0 0 0-.185.17c-.094.85-.123.88-.996.984-.094.012-.167.09-.167.185s.067.167.16.185c.89.176.908.173 1.002.987.012.1.09.167.185.167s.173-.067.185-.173c.09-.823.12-.87.976-.98.117-.015.185-.088.185-.185s-.067-.167-.16-.185l-.265-.053c-.63-.13-.658-.202-.734-.928-.012-.105-.088-.173-.185-.173zm.797-1.22c-.243.237-.24.64 0 .88l2.777 2.818c.234.237.64.237.882 0a.63.63 0 0 0 0-.879l-2.78-2.818c-.234-.237-.64-.237-.88 0zm2.382 2.077l.964.958c.094.097.135.223.038.32-.09.085-.22.053-.316-.047l-.95-.952.264-.278zM8.538 9.394c-.076 0-.132.056-.14.132-.062.645-.085.642-.744.738-.076.012-.13.064-.13.138s.05.126.123.14c.665.132.65.135.75.744.012.067.064.126.14.126s.132-.06.138-.132c.064-.63.09-.63.735-.738.09-.015.14-.064.14-.14s-.05-.123-.126-.138c-.668-.138-.662-.132-.75-.735-.01-.08-.064-.135-.138-.135zm4.567-1.055c-.073 0-.126.053-.138.126-.097.642-.082.67-.74.738-.076.01-.138.064-.132.14s.047.123.13.138c.662.13.68.13.744.74.006.073.064.126.138.126s.13-.053.144-.13c.126-.62.088-.63.73-.738.09-.015.146-.064.146-.138s-.056-.126-.13-.14c-.668-.135-.69-.126-.747-.732-.006-.08-.067-.132-.144-.132zm-2.912-.905c-.067 0-.117.05-.13.117-.097.58-.073.604-.674.67-.067.01-.12.062-.12.13s.044.114.117.13c.604.126.612.114.677.674a.13.13 0 0 0 .129.114c.07 0 .117-.05.13-.117.094-.57.082-.568.668-.67.085-.015.13-.062.13-.13s-.044-.114-.117-.13c-.61-.13-.624-.117-.68-.668-.006-.07-.06-.12-.13-.12z" fill="#ff8c59"/></g><path d="M337.5 304.5c.23 1.587.23 2.92 0 4s-.73 2.08-1.5 3c2.852 1.3 5.68 1.223 8.5.5-.5-3-1.34-5.98-.5-9l-6.5 1.5z" fill="#eca2a2"/><path d="M336.5 310.5c-2.05 1.333-3.742 2-5.075 2h-6.5c-1.075 0-2.73.595-1.5 4 .785 2.173 8.575 3 19.075 3 .376 0 1.21-.333 2.5-1 .854-5.513.354-7.846-1.5-7-4 .667-6.333.333-7-1z" fill="#1a5781"/><path d="M345 318.5l-.463.234c-1.03.5-1.708.766-2.037.766l-1.415-.005c-9.78-.073-16.91-.92-17.66-2.995-.44-1.216-.5-2.138-.353-2.797.067.39.673 1.323.928 1.797 1.075 2 8 2.5 18.5 2.5.376 0 1.21-.333 2.5-1 .333-.333.333.167 0 1.5z" fill="#a4c8e1"/><path d="M333 312l.5 1m1.5-2l.5 1" stroke="#ef9519" class="C"/><path d="M385.015 301.36c1.216 1.046 2.09 2.053 2.624 3.02s.812 2.05.836 3.248c3.012-.882 5.1-2.804 6.743-5.2-2.346-1.936-4.933-3.634-6.282-6.464l-3.922 5.396z" fill="#eca2a2"/><path d="M388.196 306.546c-.672 2.35-1.512 3.964-2.518 4.84-1.51 1.312-4.094.56-4.906 1.264l-.113.104c-.77.745-1.4 2.218 1.605 3.9 2.018 1.125 8.44-.36 16.364-7.25.284-.247.694-1.045 1.23-2.395l-.352-.55c-2.772-4.28-4.563-5.53-5.373-3.748-2.58 3.127-4.56 4.407-5.94 3.838z" fill="#1a5781"/><path d="M399.86 307.007l-.195.48-.183.43c-.355.806-.64 1.3-.852 1.486l-1.07.924c-7.428 6.36-13.367 7.4-15.293 6.326-1.13-.63-1.78-1.285-2.102-1.88.28.23 1.203.506 1.743.698l.137.05c2.123.804 7.678-.362 15.602-7.25.284-.247.694-1.045 1.23-2.395.033-.47.36-.093.984 1.132z" fill="#a4c8e1"/><path d="M386.54 309.974l1.033.427m-.18-2.494l1.033.427" stroke="#ef9519" class="C"/><path d="M314.707 173.637c-4 5-8.333 5.5-13 1.5-7-6-12-17-11.5-18.5s.5-3.5.5-4-.707-1-1.207 0-.793 2.5-1.293 1.5-5-6.5-5.5-6.5-1 .5-.5 1.5c.333.667 1.098 1.833 2.293 3.5-1.667 2.333-2.167 4-1.5 5 1 1.5 1.5 2.5 2.707 3s2.5 5 3 6.5 2 28.5 16 26.5c9.333-1.333 16.167-5.333 20.5-12l-10.5-8zm43.793 1c4.667 4.333 7.333 6.5 8 6.5 1 0-9 18-10 18-.667 0-.667 1.667 0 5 9.667-6.333 15-10.333 16-12 1.5-2.5 9-12 7.5-16-1-2.667-5.5-8.333-13.5-17l-8 15.5z" fill="#ffb0b0"/><path d="M330 202.637L327 253c0 2.5 3 53.137 3 53.137l17.5-.137-2-38 2-26 12 30 23.5 35.5 9.5-11.363-16.5-30.5c-1-1.333-7.667-24.833-20-70.5l-26 7.5z" fill="#2e6298"/><path d="M391.182 293.634l1.318 2.503L383 307.5l-1.386-2.003zM347.5 303v3l-17.5.137-.383-3.134L347.5 303z" fill="#1b4f7a"/><path d="M341 143.137l-2.5 8.5 7.5-1.5-1-10-4 3z" fill="#ffa4a4"/><path d="M338.37 130.42l-.87 5.32-1.5 2.5 1.403 1.18.097 6.32c5.42-.11 8.452-.637 9.097-1.584s1.613-3.474 2.903-7.58l-9.194-7.58-1.935 1.42z" fill="#ffb0b0"/><circle fill="#ff8585" cx="340" cy="138" r="1"/><path d="M338.413 132.1c-1.7-2.943-3.66-5.243-1.372-7.927s5.945-.113 6.402 1.286 2.744 2.445 5.488 2.445 5.03 5.596 3.66 8.747-4.573 9.792-6.402 9.326-2.287-2.218-1.372-3.617 2.287-4.197 1.372-4.776-.915.82-1.83.466-4.235-3.006-5.945-5.95z" fill="#634215"/><g class="C"><path d="M337.5 141.5l1.5-.5m0-6v1" stroke="#000" stroke-width=".5"/><path d="M338.5 202l-2.5 52.5 2.5 48.5" class="D"/></g><path fill="#1b4f7a" d="M347.5 242v-21l2 26z"/><path d="M333.14 202c-.648 5.476.972 8.8 4.86 10" class="C D"/><path d="M314 174.637c4-11 9.5-18.333 16.5-22 3.376-1.77 8.905-2.423 11.5-3 4.5-1 4.5-.876 8-2 6.5 1 13.5 3 17.5 12-3.5 7.5-7.5 15-9 15-1.333-.758-2.5-1.803-3.5-3.137 1.667 16.758 2.167 25.137 1.5 25.137-1 0-18 5.274-22 6a22.21 22.21 0 0 1-8 0v-22c-.175.616-.842 1.45-2 2.5s-4.658-1.783-10.5-8.5z" fill="#5386e7"/><path d="M326.5 183.805V181.5c1.282-.513 1.282.256.001 2.305zm-.516-2.23l-.052.067c-.338.437-.816.935-1.434 1.495-1.158 1.05-4.658-1.783-10.5-8.5a72.2 72.2 0 0 1 1.097-2.833c5.45 6.413 9.08 9.67 10.888 9.77zm41.516-21.938c-3.5 7.5-7.5 15-9 15-.35-.2-.688-.418-1.015-.656 1.626-2.56 4.5-8.247 8.6-17.066a23.08 23.08 0 0 1 1.425 2.722z" fill="#ffedd4"/><path d="M374.5 266c-2.667 2.667-4.833 4-6.5 4" class="C D"/><path d="M329 175.5c0 3-.833 6.167-2.5 9.5v-4.5c.333-.333 1.167-2 2.5-5zm25.5-7.5l3 6a6.03 6.03 0 0 1-2.5-2.5l-.5-3.5z" fill="#2f5aac"/><path d="M283 148l3.5 4m-2.5 2l1 1m-2 1l1 1" stroke="#000" stroke-width=".5" class="C"/></g></svg>