<svg xmlns="http://www.w3.org/2000/svg" width="400" height="320" fill="none" fill-rule="evenodd" xmlns:v="https://vecta.io/nano"><path d="M72 320c-36.994-55.192-58.713-99.895-65.155-134.108C-33.58-28.806 114.686-46.622 199.13 76.62S400 151.744 400 220.66c0 45.944-18.504 79.058-55.5 99.34H72zM383.687 95.6c15.844-12.316 18.003-27.545 15.36-37.35-8.992-33.345-43.598-21.13-44.663 5.114s-9.164 34.456-23 46.124 36.462-1.57 52.306-13.887z" fill="#ff9500" opacity=".2"/><g transform="matrix(-1 0 0 1 384 185)"><path d="M16.154 20.91S7.032-6.013 33.66 1.24c0 0 9.368 4.672 17.258 25.326 0 0 3.205 10.327 23.544 7.622 0 0 14.792 2.1 11.587 26.063 0 0-8.26 13.646 11.834 11.556 0 0 22.312 0 13.067 29.506 0 0-12.82 25.695-34.022 33.686H36.37s-24.654-8.36-28.845-17.703c-.863.123-5.917-13.4 6.163-21.392 0 0 14.3-12.91-1.233-23.113-.123-.738-18.367-7.745-10.478-23.113 1.602-2.828 1.726-2.705 3.452-4.795 0 0 17.258-8.483 10.724-23.973z" fill="#fe889d"/><path d="M41.415 16.15c5.954 17.673.946 28.467-.042 30.33 5.277 11.513 11.022 25.016 16.283 39.44 12.965-14.204 12.237-37.666 12.18-39.083l-.002-.037.057.954c1.503 27.785-9.175 36.552-12.14 38.438 4.027 11.055 7.765 22.648 10.788 34.3 22.775-16.58 19.924-42.26 20.045-42.14 2.427 28.388-14.915 39.714-19.98 42.396.904 3.49 1.742 6.984 2.504 10.47.895 6.396-.82 2.97-2.264-1.544a561.31 561.31 0 0 0-8.674-29.343c-2.4 2.82-15.456 15.6-41.042-4.338 0-.122 23.048 18.8 40.997 4.202-3.222-9.916-7.057-20.85-11.598-32.595C45 70.815 31.753 79.755 10.395 57.805l-.534-.556c2.352 2.4 22.083 21.672 38.585 10.145C41.62 49.75 33.202 30.28 22.884 9.675c0 0 8.364 14.72 18.446 36.7 4.73-15.32.37-29.345-.082-30.72zM35.3 36.405s-8.76 5.058-16.16-5.182c0-.123 6.415 7.65 16.16 5.182z" fill="#fff"/></g><g transform="matrix(-1 0 0 1 400 224)"><path d="M10.88.102c5.977.334 12.924 4.424 20.842 12.27 4.74 3.95 11.197 3.476 19.37-1.426 7.826-2.32 13.54 2.626 17.14 14.838-.03 7.607 3.914 9.2 11.83 4.777 10.775-4.824 17.182.558 19.22 16.147-.59 15.57-5.118 27.54-13.587 35.91l-8.288 13.114c-28.185.62-43.984-.598-47.398-3.656-.576.36-8.412-7.608-2.62-17.115l.18-.29s6.15-13.9-8.32-16.276c-.326-.493-15.72.296-14.98-13.315l1.206-4.9c1.468-1.946 8.318-11.992.04-20.118C-2.828 9.022-1.04 2.367 10.88.102z" fill="#bc8aff"/><path d="M7.75 10.608L6.47 9.55c.62.458 11.137 8.27 25.012 20.5-1.344-11.202-7.575-19.336-9.438-21.55l-.482-.554.295.317c9.946 10.81 9.8 20.183 9.686 21.84 7.488 6.596 15.95 14.474 24.36 23.17 4.302-12.94-1.783-27.724-3.403-31.282l-.368-.78.347.67c9.985 19.516 5.11 29.248 3.58 31.556 6.44 6.667 12.847 13.814 18.756 21.23 11.08-19.232.798-36.802.924-36.754 10.844 19.654 1.993 33.363-.795 36.918 1.77 2.222 3.492 4.47 5.158 6.734l.34.558c2.137 3.58-.094 1.713-2.466-.944l-.958-1.184C72.96 74.99 68.065 69.203 62.33 62.83l-.12.385C61.05 66.67 55.21 78.765 31.4 72.86l.025.002c.837.15 22.754 5.818 30.83-10.115-5.496-6.105-11.76-12.746-18.795-19.746l-.15.33c-1.772 3.74-8.7 13.528-30.433 4.842l-.562-.23c2.463.974 22.84 8.522 31.023-5.063A524.2 524.2 0 0 0 7.751 10.608h0zm16.185 14.184l-.147.184c-.855 1.018-5.42 5.75-13.146 1.265-.04-.09 7.07 3.45 13.293-1.45z" fill="#fff"/></g><g transform="matrix(-1 0 0 1 112 214)"><path d="M98.324.113c-6.64.37-14.36 4.902-23.157 13.594-5.268 4.378-12.442 3.85-21.52-1.58l-.457-.276s-12.586-3.58-18.587 16.717c.034 8.428-4.348 10.193-13.146 5.293-11.972-5.345-19.09.62-21.357 17.9.654 17.252 5.686 30.515 15.096 39.79L24.637 106H49c16.94-1.07 26.296-2.397 28.068-3.98.64.4 9.347-8.43 2.9-18.963-4.688-10.473-1.673-16.59 9.045-18.353.362-.546 17.468.328 16.645-14.753S91 41 104.284 22.233c10.96-12.198 8.973-19.572-5.96-22.12z" fill="#bc8aff"/><path d="M102.255 10.07l-1.84 1.385c-3.93 2.992-13.8 10.667-25.983 21.405 1.553-12.953 8.99-22.214 10.714-24.2l.314-.355-.33.355C74.078 20.66 74.238 31.075 74.365 32.92l-1.8 1.592c-7.863 6.992-16.6 15.18-25.267 24.153-5.367-16.143 3.815-34.87 4.2-35.623l-.385.743c-11.095 21.686-5.678 32.5-3.978 35.063-7.157 7.407-14.275 15.348-20.84 23.59-12.31-21.37-.887-40.89-1.026-40.838-12.048 21.837-2.215 37.07.883 41.02-1.965 2.47-3.88 4.966-5.73 7.483l-.354.58c-2.416 4.033.07 1.955 2.715-1.008l1.55-1.914c4.41-5.414 9.7-11.636 15.834-18.463l.096.31c1.19 3.67 7.536 17.463 34.27 10.834.044-.098-25.128 6.83-34.284-11.238a554.59 554.59 0 0 1 20.882-21.937l.167.365c1.97 4.155 9.667 15.03 33.816 5.38l.625-.255c-2.736 1.083-25.38 9.47-34.47-5.626C73.002 35.45 86.667 22.875 102.255 10.07zm-19.44 16.96l.17.213c.967 1.148 6.035 6.37 14.6 1.398.044-.1-7.854 3.833-14.77-1.61z" fill="#fff"/></g><path d="M93 37h214c8.284 0 15 6.716 15 15v268H78V52c0-8.284 6.716-15 15-15z" fill="#3a3a3a"/><g fill="#fff"><circle opacity=".1" cx="201" cy="42" r="2"/><path d="M87.5 319.5h225V58.82c0-3.99-.33-5.698-1.277-7.468-.825-1.542-2.033-2.75-3.575-3.575-1.77-.946-3.48-1.277-7.468-1.277H99.82c-3.99 0-5.698.33-7.468 1.277-1.542.825-2.75 2.033-3.575 3.575-.946 1.77-1.277 3.48-1.277 7.468V319.5z" stroke="#f1f1f1"/></g><g fill="#f1f1f1"><path d="M163.5 46a.5.5 0 0 1 .5.5V320h-1V46.5a.5.5 0 0 1 .5-.5z"/><path d="M163 46h137.18c4.458 0 6.074.464 7.704 1.336s2.91 2.15 3.78 3.78S313 54.362 313 58.82V84H163V46z"/></g><g fill="#ff8e00"><circle opacity=".6" cx="173" cy="74" r="5"/><path d="M303 69a2 2 0 0 1 2 2v6a2 2 0 0 1-2 2h-6a2 2 0 0 1-2-2v-6a2 2 0 0 1 2-2h6zm-16 0a2 2 0 0 1 2 2v6a2 2 0 0 1-2 2h-6a2 2 0 0 1-2-2v-6a2 2 0 0 1 2-2h6zm-16 0a2 2 0 0 1 2 2v6a2 2 0 0 1-2 2h-6a2 2 0 0 1-2-2v-6a2 2 0 0 1 2-2h6zm-16 0a2 2 0 0 1 2 2v6a2 2 0 0 1-2 2h-6a2 2 0 0 1-2-2v-6a2 2 0 0 1 2-2h6z" opacity=".6"/></g><path fill="#007cff" opacity=".2" d="M178 109h51v10h-51z"/><path opacity=".1" d="M178 145h92v8h-92zm0-16h117v8H178zm-85-20h55v8H93zm0 16h48v8H93zm0 16h55v8H93zm0 16h40v8H93z" fill="#000"/><path fill="#007cff" opacity=".2" d="M178 169h66v10h-66z"/><path d="M183 197v-4.797h-1.875v-.52c0-1.588.625-2.55 1.875-2.885h0V187c-3.333.28-5 2.404-5 6.37h0V197h5zm7 0v-4.797h-1.875v-.52c0-1.588.625-2.55 1.875-2.885h0V187c-3.333.28-5 2.404-5 6.37h0V197h5zm96 23v4.797h1.875v.52c0 1.588-.625 2.55-1.875 2.885h0v1.8c3.333-.28 5-2.404 5-6.37h0V220h-5zm-7 0v4.797h1.875v.52c0 1.588-.625 2.55-1.875 2.885h0v1.8c3.333-.28 5-2.404 5-6.37h0V220h-5z" fill="#eddcff"/><path opacity=".1" d="M200.357 189H298l-2.857 8H197.5zm-19.5 16H298l-2.857 8H178zm-.012 16h90L268 229h-90z" fill="#000"/><path fill="#007cff" opacity=".2" d="M178 245h59v10h-59z"/><g fill="#000"><path opacity=".1" d="M191 265h104v8H191zm0 16h69v8h-69zm0 16h69v8h-69z"/><path d="M96.256 79v-3.45H99.8v-1.23h-3.545v-2.496h3.88v-1.277h-5.39V79h1.512zm6.002-7.148c.445 0 .797-.357.797-.79a.79.79 0 0 0-.797-.791c-.445 0-.803.352-.803.79 0 .434.357.79.803.79zM103 79v-6.21h-1.46V79H103zm3.137 0v-8.455h-1.46V79h1.46zm4.385.123c1.47 0 2.56-.81 2.748-1.98h-1.365c-.158.516-.674.855-1.354.855-.955 0-1.564-.668-1.564-1.664v-.088h4.342v-.475c0-1.887-1.102-3.11-2.865-3.11-1.793 0-2.93 1.295-2.93 3.258 0 1.98 1.125 3.205 2.988 3.205zm1.377-3.838h-2.9c.06-.867.65-1.494 1.47-1.494.838 0 1.4.615 1.43 1.494zm5.21 3.838c1.523 0 2.602-.79 2.602-1.963 0-.902-.498-1.4-1.787-1.687l-1.03-.23c-.65-.146-.908-.393-.908-.75 0-.457.428-.762 1.072-.762.674 0 1.1.357 1.148.92h1.36c-.035-1.178-.996-1.992-2.508-1.992-1.5 0-2.5.773-2.5 1.9 0 .92.598 1.506 1.787 1.77l1.03.23c.65.146.873.357.873.732 0 .463-.44.756-1.148.756-.738 0-1.154-.305-1.266-.908h-1.436c.117 1.2 1.078 1.975 2.7 1.975z" fill-rule="nonzero" opacity=".6"/></g><path d="M180 298a3 3 0 1 1 0 6 3 3 0 1 1 0-6zm0-16a3 3 0 1 1 0 6 3 3 0 1 1 0-6zm0-16a3 3 0 1 1 0 6 3 3 0 1 1 0-6z" fill="#c5f6e3"/><path d="M89.05 152.775c-2.1-2.7-1.65-5.25 1.35-7.65 4.5-3.6 8.1-2.25 7.2-7.2s-9.45-7.2-16.2-1.8-7.65 11.25-9 19.35-8.72 11.953-11.7 28.35c-1.8 9.9-13.95 12.6-11.7 23.85s9.45 13.5 20.25 13.5c7.2 0 11.25-10.5 12.15-31.5l9.45-31.5-1.8-5.4z" fill="#000"/><path d="M94.9 153.225c-.3 2.1 0 3.45.9 4.05 1.35.9 3.6 1.8 3.6 1.8l-3.6 5.85-13.05-1.8c4.5-1.8 7.627-4.22 5.85-9l6.3-.9z" fill="#ffb7b7"/><path d="M116.92 229.413l.03-.138c-.9 4.5-1.35 4.95-6.75 7.2-4.914 2.048-32.988 4.033-39.15 4.05C59.5 241.5 58.495 238.285 58 238c2.25-5.4 9.173-5.852 15.3-5.125 13.886 1.542 22.496 1.582 25.83.12l.27-.12c3.134-1.425 8.974-2.58 17.52-3.462z" fill="#103458"/><path d="M95.955 141.975c.548 3.647 1.097 5.747 1.645 6.3a10.63 10.63 0 0 1-.823.751v4.147c-.327.524-1.287.938-2.88 1.244s-3.358.208-5.3-.292c-3.838-6.083-1.387-10.133 7.355-12.15z" fill="#ffc3c3"/><circle fill="#ff8585" cx="90.4" cy="149.175" r="1"/><path d="M57.5 188c-3.067 5.967-5.75 8.626-8.05 7.975-3.45-.975-.95-4.975 1.35-4.5 1.31.27 2.2.025 4.2-1.475 1.048-.786 1.88-1.452 2.5-2z" fill="#000"/><path d="M108.5 220c14.333 30.15 21.233 48.15 20.7 54-.7 6.725-1.7 6.225-4.5 6.75-2.25 1.35-43.3-2.55-62.2-14.25-12.6-7.8-10.267-8.467 7-2l4 2c18.833-1.3 29.9-1.35 33.2-.15s-2.85-10.8-18.45-36l4.05-9 16.2-1.35z" fill="#fbbfbf"/><path d="M99.5 223c-1.667 9-3.21 15.068-4.627 18.205L93 238l6.5-15z" fill="#dd9090"/><path d="M65.3 261.666v7.834h-1.107c-2.233-.98-4.285-2.03-6.093-3.15-11.472-7.102-9.072-8.663 7.2-4.684z" fill="#2b1800"/><path d="M101.5 221.225c-14.196 30.384-22.344 46.025-24.444 46.925C74.398 269.29 45.5 294 33.5 303.5c-2.01 1.6-2.752 3.8-3.244 3.8-2.1 0-2.852-1.267-2.256-3.8 8.667-12.6 14.5-20.1 17.5-22.5s8.27-7.583 15.806-15.55C69.97 239.95 74.3 226.3 74.3 224.5s9.067-2.892 27.2-3.275z" fill="#ffc3c3"/><path d="M108.25 206.57l.15.206c2.66 3.547 9.252 17.58 8.585 22.295l-.035.205-.03.138C108.56 230.278 106 233 99 235s-9.5-1.5-22.5 2-16.64 3.423-20.5 1-9.752-9.857 2-15c12.235-5.63 18.835-9.987 19.8-13.075l-.852-.53c-2.456-1.545-4.547-3-6.272-4.395 17.217-2 27.824-3.833 31.824-5.5.76-.316 1.356-.753 1.82-1.283 1.1 3.096 2.564 6.434 3.93 8.353z" fill="#215387"/><path d="M99.4 159.075c4.95 2.25 12.15 9 14.4 10.35s18.9-4.05 23.85-9.45l.65.845c1.62 2.058 2.424 2.382 1.15 3.655l-2.292 2.877c-4.365 5.507-6.876 8.85-7.533 10.032l-.075.14c-.9 1.8-10.35 12.15-25.2 5.4 0 4.05 4.15 14.075-1.85 16.575-4 1.667-14.608 3.5-31.824 5.5-3.28-2.634-5.236-4.98-5.872-7.04l-.237-.832-.738-2.44c-1.066-3.652-1.607-7.312 2.27-14.01 5.1-8.4 10.65-14.25 16.65-17.55 8.7.6 14.25-.75 16.65-4.05z" fill="#f48d00"/><path d="M84.55 182.925l-2.25 4.4-1.8.72 4.05-5.13zm19.35-4.5c.903 2.538 6.853 5.464 9 6.75-2.25 0-7.2-1.35-8.55-2.25l-.45-4.5z" fill="#d07900"/><g transform="matrix(.939693 -.34202 .34202 .939693 61.470549 194.933027)"><rect fill="#d0d0d0" width="43.2" height="18.9" rx=".9"/><g fill="#fff"><rect x="12.6" y="15.3" width="18" height="2.7" rx=".45"/><rect x="8.1" y="15.3" width="3.6" height="2.7" rx=".45"/><rect x="31.5" y="15.3" width="3.6" height="2.7" rx=".45"/><rect x=".9" y="15.3" width="2.7" height="2.7" rx=".45"/><rect x="4.5" y="15.3" width="2.7" height="2.7" rx=".45"/><rect x="39.6" y="15.3" width="2.7" height="2.7" rx=".45"/><rect x="36" y="15.3" width="2.7" height="2.7" rx=".45"/><rect x=".9" y="11.7" width="6.3" height="2.7" rx=".45"/><rect x="36.9" y="11.7" width="5.4" height="2.7" rx=".45"/><rect x=".9" y="8.1" width="4.5" height="2.7" rx=".45"/><rect x="38.7" y="8.1" width="3.6" height="2.7" rx=".45"/><rect x="11.7" y="11.7" width="2.7" height="2.7" rx=".45"/><rect x="9.9" y="8.1" width="2.7" height="2.7" rx=".45"/><rect x="4.5" y="4.5" width="2.7" height="2.7" rx=".45"/><rect x="36" y=".9" width="2.7" height="2.7" rx=".45"/><rect x="28.8" y=".9" width="2.7" height="2.7" rx=".45"/><rect x="39.6" y=".9" width="2.7" height="2.7" rx=".45"/><rect x="32.4" y=".9" width="2.7" height="2.7" rx=".45"/><rect x="21.6" y=".9" width="2.7" height="2.7" rx=".45"/><rect x="25.2" y=".9" width="2.7" height="2.7" rx=".45"/><rect x="14.4" y=".9" width="2.7" height="2.7" rx=".45"/><rect x="18" y=".9" width="2.7" height="2.7" rx=".45"/><rect x="7.2" y=".9" width="2.7" height="2.7" rx=".45"/><rect x="10.8" y=".9" width="2.7" height="2.7" rx=".45"/><rect x=".9" y=".9" width="5.4" height="2.7" rx=".45"/><rect x="11.7" y="4.5" width="2.7" height="2.7" rx=".45"/><rect x="8.1" y="11.7" width="2.7" height="2.7" rx=".45"/><rect x="6.3" y="8.1" width="2.7" height="2.7" rx=".45"/><rect x=".9" y="4.5" width="2.7" height="2.7" rx=".45"/><rect x="8.1" y="4.5" width="2.7" height="2.7" rx=".45"/><rect x="18.9" y="4.5" width="2.7" height="2.7" rx=".45"/><rect x="15.3" y="4.5" width="2.7" height="2.7" rx=".45"/><rect x="26.1" y="4.5" width="2.7" height="2.7" rx=".45"/><rect x="22.5" y="4.5" width="2.7" height="2.7" rx=".45"/><rect x="33.3" y="4.5" width="2.7" height="2.7" rx=".45"/><rect x="29.7" y="4.5" width="2.7" height="2.7" rx=".45"/><rect x="15.3" y="11.7" width="2.7" height="2.7" rx=".45"/><rect x="13.5" y="8.1" width="2.7" height="2.7" rx=".45"/><rect x="18.9" y="11.7" width="2.7" height="2.7" rx=".45"/><rect x="17.1" y="8.1" width="2.7" height="2.7" rx=".45"/><rect x="22.5" y="11.7" width="2.7" height="2.7" rx=".45"/><rect x="20.7" y="8.1" width="2.7" height="2.7" rx=".45"/><rect x="26.1" y="11.7" width="2.7" height="2.7" rx=".45"/><rect x="29.7" y="11.7" width="2.7" height="2.7" rx=".45"/><rect x="33.3" y="11.7" width="2.7" height="2.7" rx=".45"/><rect x="24.3" y="8.1" width="2.7" height="2.7" rx=".45"/><rect x="27.9" y="8.1" width="2.7" height="2.7" rx=".45"/><rect x="31.5" y="8.1" width="2.7" height="2.7" rx=".45"/><rect x="35.1" y="8.1" width="2.7" height="2.7" rx=".45"/><rect x="36.9" y="4.5" width="5.4" height="2.7" rx=".45"/></g></g><path d="M79.15 190.125l.008.14c.15 1.615 2.227 12.976 3.945 14.627l.097.083c1.187.9-.952 3.15-2.934 4.328l-3.126.224-.855-.512c-3.496-2.127-11.062-8.418-12.784-15.515l17.113-5.625-.324.417c-.76.99-1.14 1.602-1.14 1.834z" fill="#f48d00"/><path d="M30.572 298.6c-.4 4.9-.15 7.8.75 8.7.3 3.3-5.4 13.5-8.1 12.6-1.35-6.3 4.04-10.947.9-16.65-.27-.493.02-3.488.15-3.75.6-1.2 2.7-1.5 6.3-.9z" fill="#2b1800"/><path d="M94.45 145.125v.9m2.25 4.5c-.6.3-1.2.45-1.8.45" stroke="#000" stroke-width=".5" stroke-linecap="round"/><path d="M137.65 159.975c1.2-1.2 1.8-2.1 1.8-2.7v-1.8c.3-.3.6-.3.9 0 .45.45.45 2.25.9 2.25s2.25-.9 3.15-2.25 2.7-2.25 2.25 1.35c-.6 3-2.85 5.25-6.75 6.75l-2.25-3.6z" fill="#fbb"/><path d="M140.395 159.075c.6.9.45 1.65-.45 2.25m5.805-6.3c-.9 1.5-1.65 2.4-2.25 2.7m1.8-.45c-.6.9-1.2 1.5-1.8 1.8" stroke="#000" stroke-width=".5" stroke-linecap="round"/><g fill="#fbb"><path d="M75.55 208.575c3.72-.085 6.966-.623 7.65-3.6 1.8 2.4 1.5 4.05-.9 4.95-2.1.9-4.35.45-6.75-1.35z"/><path d="M83.2 204.975c.3 0 .75.15 1.35.45.3.6.15 1.05-.45 1.35l-.9-1.8z"/></g><path d="M99.4 159.075c.7.323 1.466.738 2.247 1.216-.782 1.407-1.347 2.834-4.947 2.384s-4.426 1.817-5.4 2.25c-4.05 1.8-7.37.793-10.35-.9.47-.294 1.35-.9 1.8-.9 8.7.6 14.25-.75 16.65-4.05z" fill="#fffafb"/></svg>