<svg xmlns="http://www.w3.org/2000/svg" xmlns:xlink="http://www.w3.org/1999/xlink" width="400" height="320" xmlns:v="https://vecta.io/nano"><style><![CDATA[.B{fill:#000}.C{stroke-linecap:round}.D{fill:#fff}.E{stroke-width:.5}.F{stroke:#000}.G{fill-rule:nonzero}]]></style><defs><rect id="A" width="140" height="40" rx="8"/><filter x="-7.1%" y="-20.0%" width="114.3%" height="150.0%" id="B"><feOffset dy="2" in="SourceAlpha"/><feGaussianBlur stdDeviation="3"/><feColorMatrix values="0 0 0 0 0 0 0 0 0 0 0 0 0 0 0 0 0 0 0.15 0"/></filter><rect id="C" x=".446" y=".055" width="131" height="40" rx="8"/><filter x="-7.6%" y="-20.0%" width="115.3%" height="150.0%" id="D"><feOffset dy="2" in="SourceAlpha"/><feGaussianBlur stdDeviation="3"/><feColorMatrix values="0 0 0 0 0 0 0 0 0 0 0 0 0 0 0 0 0 0 0.15 0"/></filter><rect id="E" width="140" height="40" rx="8"/><rect id="F" width="131" height="50" rx="8"/><filter x="-7.6%" y="-16.0%" width="115.3%" height="140.0%" id="G"><feOffset dy="2" in="SourceAlpha"/><feGaussianBlur stdDeviation="3"/><feColorMatrix values="0 0 0 0 0 0 0 0 0 0 0 0 0 0 0 0 0 0 0.15 0"/></filter></defs><g fill="none" fill-rule="evenodd"><g fill="#ff9500" opacity=".2"><path d="M33.61 79.963C8.28 69.137 0 49.545 0 35.494 0-12.29 50.1-8.275 60.85 26.43s24.4 42.805 46.836 53.48-48.748 10.88-74.076.053z"/><path d="M343.94 320c26.368-50.88 42.774-92.09 49.216-123.63C433.58-1.555 285.314-17.98 200.87 95.633S0 164.89 0 228.422c0 42.355 18.504 72.88 55.51 91.578H343.94z"/></g><path d="M11.486 261.35C5.97 255.697-5.28 251.983 10 241c5.512-1.708 13.04-.943 22.584 2.294 5.993 1.473 11.588-1.785 16.784-9.772l.26-.404.166-.136c1.263-.983 9.63-6.605 21.483 6.363l.15.383c.797 1.91 4.812 9.892 12.58-1.276l.28-.404c.43-.5 11.335-12.79 24.075 6.5l.395.606.35.855c1.607 4.074 7.99 21.94 2.787 36.77l-1.7 15.42c-16.486 15.04-31.22 20.87-44.203 17.492-.36.577-10.896-3.15-9.856-14.234-.35-10.346-5.21-14.12-14.578-11.32-.51-.3-14 7.158-19.3-5.4-3.5-11.82-7.09-19.613-10.765-23.38z" fill="#bc8aff"/><path d="M10.267 252.218l-1.616-.4 2.36.46c4.584.92 15.377 3.22 29.104 6.992-6.118-9.48-15.285-14.058-17.93-15.23l-.676-.287.404.156c13.68 5.357 17.656 13.845 18.28 15.384l2.16.6c9.1 2.55 19.36 5.723 29.89 9.546-1.806-13.517-13.756-24.137-16.772-26.624l-.672-.54.605.45c17.53 13.163 17.415 24.047 17.052 26.792 8.712 3.17 17.602 6.784 26.165 10.86 1.528-22.143-15.416-33.427-15.28-33.44 18.362 12.91 16.416 29.113 15.47 33.53 2.564 1.222 5.097 2.486 7.588 3.792l.552.352.47.315c2.74 1.895.035 1.2-3.1-.083l-1.38-.644-1.482-.685c-5.52-2.538-11.955-5.35-19.24-8.295l.06.4.04.35c.414 4.06-.233 16.846-23.504 21.824l.097-.028c1.622-.398 22.933-5.083 23.202-22.587l-2.2-.883c-7.05-2.808-14.85-5.723-23.347-8.625l.01.36v.393c-.087 4.447-2.588 15.63-25.23 17.3l-.425.026c3.317-.28 24.112-2.654 25.483-18.136-13.225-4.514-28.127-8.997-44.5-13.007l-1.64-.4zm20.765 5.654l-.05.23c-.322 1.3-2.35 7.545-11.26 6.9-.074-.062 7.865.002 11.312-7.13z" class="D"/><g transform="matrix(-1 0 0 1 162 203)"><path d="M108.643.125c-7.338.41-15.868 5.41-25.588 15.005l-.623.62c-1.142 1.082-8.11 6.627-23.157-2.365-9.608-2.837-16.622 3.212-21.042 18.147.037 9.303-4.805 11.25-14.526 5.843-13.228-5.9-21.094.683-23.6 19.747C.266 82.135 9.632 101.908 27.222 117l43.91-.22c5.25-.393 9.194-1.27 11.87-2.28 11.656-4.393 12.484-11.198 5.37-22.824-5.18-11.56-1.85-18.313 9.995-20.258.4-.602 19.3.362 18.392-16.284-7.796-13.77-8.305-23.97-1.53-30.594 12.1-13.464 9.914-21.603-6.586-24.416z" fill="#fe889d"/><path d="M104.255 21.07l-1.84 1.385c-3.93 2.992-13.8 10.667-25.983 21.405 1.553-12.953 8.99-22.214 10.714-24.2l.314-.355-.33.355C76.078 31.66 76.238 42.075 76.365 43.92l-1.8 1.592c-7.863 6.992-16.6 15.18-25.267 24.153-5.367-16.143 3.815-34.87 4.2-35.623l-.385.743c-11.095 21.686-5.678 32.5-3.978 35.063-7.157 7.407-14.275 15.348-20.84 23.59-12.31-21.37-.887-40.89-1.026-40.838-12.048 21.837-2.215 37.07.883 41.02-1.965 2.47-3.88 4.966-5.73 7.483l-.354.58c-2.416 4.033.07 1.955 2.715-1.008l1.55-1.914c4.41-5.414 9.7-11.636 15.834-18.463l.096.31c1.19 3.67 7.536 17.463 34.27 10.834.044-.098-25.128 6.83-34.284-11.238a554.59 554.59 0 0 1 20.882-21.937l.167.365c1.97 4.155 9.667 15.03 33.816 5.38l.625-.255c-2.736 1.083-25.38 9.47-34.47-5.626C75.002 46.45 88.667 33.875 104.255 21.07zm-19.44 16.96l.17.213c.967 1.148 6.035 6.37 14.6 1.398.044-.1-7.854 3.833-14.77-1.61z" class="D"/></g><g transform="matrix(-1 0 0 1 387 224)"><path d="M5.213 19.774c-.57-.63-14.492-16.22 5.667-19.67C20.96 3.367 28.076 7.626 32.23 12.88c6.23 7.88 6.605 5.418 18.862-1.934l.41-.25S62.83 7.466 68.23 25.784l-.034.41c-.122 2.067-.01 11 11.865 4.368l.41-.232s15.752-7.004 18.812 16.38l.09.718s-.972 22.64-13.675 35.193l-8.288 13.114c-28.185.62-43.984-.598-47.398-3.656-.576.36-8-9.576-2.62-17.115s6.33-14.18-8.14-16.564c-.326-.493-15.72.296-14.98-13.315 6.35-11.26 6.765-19.6 1.245-25.016l-.303-.293z" fill="#fe889d"/><path d="M6.47 9.55c.62.458 11.137 8.27 25.012 20.5-1.344-11.202-7.575-19.336-9.438-21.55l-.482-.554.295.317c9.946 10.81 9.8 20.183 9.686 21.84 7.488 6.596 15.95 14.474 24.36 23.17 4.302-12.94-1.783-27.724-3.403-31.282l-.368-.78.347.67c9.985 19.516 5.11 29.248 3.58 31.556 6.44 6.667 12.847 13.814 18.756 21.23 11.08-19.232.798-36.802.924-36.754 10.844 19.654 1.993 33.363-.795 36.918 1.77 2.222 3.492 4.47 5.158 6.734l-3.082-1.57C72.96 74.99 68.065 69.203 62.33 62.83l-.12.385C61.05 66.67 55.21 78.765 31.4 72.86l.025.002c.837.15 22.754 5.818 30.83-10.115-5.496-6.105-11.76-12.746-18.795-19.746l-.15.33c-1.772 3.74-8.7 13.528-30.433 4.842l-.562-.23c2.463.974 22.84 8.522 31.023-5.063A524.2 524.2 0 0 0 7.751 10.608L6.47 9.55zm17.466 15.243l-.147.184c-.855 1.018-5.42 5.75-13.146 1.265-.04-.09 7.07 3.45 13.293-1.45z" class="D"/></g><g transform="matrix(-1 0 0 1 346 185)"><path d="M16.154 20.91S7.032-6.013 33.66 1.24c0 0 9.368 4.672 17.258 25.326 0 0 3.205 10.327 23.544 7.622 0 0 14.792 2.1 11.587 26.063 0 0-8.26 13.646 11.834 11.556 0 0 22.312 0 13.067 29.506 0 0-12.82 25.695-34.022 33.686H36.37s-24.654-8.36-28.845-17.703c-.863.123-5.917-13.4 6.163-21.392 0 0 14.3-12.91-1.233-23.113-.123-.738-18.367-7.745-10.478-23.113 1.602-2.828 1.726-2.705 3.452-4.795 0 0 17.258-8.483 10.724-23.973z" fill="#bc8aff"/><path d="M41.415 16.15c5.954 17.673.946 28.467-.042 30.33 5.277 11.513 11.022 25.016 16.283 39.44 12.965-14.204 12.237-37.666 12.18-39.083l-.002-.037.057.954c1.503 27.785-9.175 36.552-12.14 38.438 4.027 11.055 7.765 22.648 10.788 34.3 22.775-16.58 19.924-42.26 20.045-42.14 2.427 28.388-14.915 39.714-19.98 42.396.904 3.49 1.742 6.984 2.504 10.47.895 6.396-.82 2.97-2.264-1.544a561.31 561.31 0 0 0-8.674-29.343c-2.4 2.82-15.456 15.6-41.042-4.338 0-.122 23.048 18.8 40.997 4.202-3.222-9.916-7.057-20.85-11.598-32.595C45 70.815 31.753 79.755 10.395 57.805l-.534-.556c2.352 2.4 22.083 21.672 38.585 10.145C41.62 49.75 33.202 30.28 22.884 9.675c0 0 8.364 14.72 18.446 36.7 4.73-15.32.37-29.345-.082-30.72zM35.3 36.405s-8.76 5.058-16.16-5.182c0-.123 6.415 7.65 16.16 5.182z" class="D"/></g><path d="M135.23 37H264.77c6.686 0 9.11.696 11.555 2.003a13.63 13.63 0 0 1 5.67 5.67c1.307 2.444 2.003 4.87 2.003 11.555V320H116V56.23c0-6.686.696-9.11 2.003-11.555a13.63 13.63 0 0 1 5.67-5.67c2.444-1.307 4.87-2.003 11.555-2.003z" fill="#3a3a3a"/><path d="M264.18 43c4.458 0 6.074.464 7.704 1.336s2.91 2.15 3.78 3.78S277 51.362 277 55.82V320H123V55.82c0-4.458.464-6.074 1.336-7.704s2.15-2.91 3.78-3.78S131.362 43 135.82 43h15.25a7.06 7.06 0 0 0-.071 1h0v7a7 7 0 0 0 7 7h85a7 7 0 0 0 7-7h0v-7a7.06 7.06 0 0 0-.071-1h14.25z" fill="#fafafa"/><rect opacity=".5" x="180" y="45" width="39.724" height="3.972" rx="1.986" class="D"/><g transform="translate(130 114)"><use filter="url(#B)" xlink:href="#A" class="B"/><use xlink:href="#A" class="D"/><path opacity=".1" d="M5 26h117v8H5z" class="B"/><path d="M14 5a3 3 0 0 1 3 3v6a3 3 0 0 1-3 3H8a3 3 0 0 1-3-3V8a3 3 0 0 1 3-3h6zm.055 4.2l-2.56.923c-.372.135-.54.32-.64.668l-.062.223c-.047.164-.12.237-.375.37l-.334.18c-.08.04-.123.053-.182.053-.258 0-.34-.23-.914-.23-.688 0-1.242.557-1.242 1.248a1.24 1.24 0 0 0 1.242 1.248 1.24 1.24 0 0 0 1.248-1.248c0-.25.023-.354.223-.46l5-2.657c-.123-.48-.647-.595-1.415-.316zM8.99 12a.63.63 0 1 1 0 1.266.63.63 0 0 1-.624-.633.63.63 0 0 1 .624-.633zm4-.91l-1.33.7v.044l2.405.894c.77.284 1.292.173 1.415-.325l-2.5-1.312zm-1.427-.55c.135 0 .25.108.25.246s-.114.24-.25.24c-.126 0-.24-.108-.24-.24 0-.138.114-.246.24-.246zM8.99 8.055c-.688 0-1.242.557-1.242 1.25s.55 1.245 1.242 1.245c.574 0 .645-.223.914-.223a.34.34 0 0 1 .182.05l.396.21.167.097h.023c.08-.284.176-.445.375-.583v-.023l-.562-.3c-.22-.117-.246-.208-.246-.475a1.24 1.24 0 0 0-1.248-1.251zm0 .615a.63.63 0 0 1 .633.636c0 .343-.28.63-.633.63-.343 0-.624-.287-.624-.63 0-.357.28-.636.624-.636z" fill="#ff8c59"/></g><g transform="matrix(.992546 -.121869 .121869 .992546 110.05084 171.131519)"><use filter="url(#D)" xlink:href="#C" class="B"/><use xlink:href="#C" class="D"/><path opacity=".1" d="M5 26h117v8H5z" class="B"/><path d="M14 5a3 3 0 0 1 3 3v6a3 3 0 0 1-3 3H8a3 3 0 0 1-3-3V8a3 3 0 0 1 3-3h6zm-3.956 6.482a.18.18 0 0 0-.185.17c-.094.85-.123.88-.996.984-.094.012-.167.09-.167.185s.067.167.16.185c.89.176.908.173 1.002.987.012.1.09.167.185.167s.173-.067.185-.173c.09-.823.12-.87.976-.98.117-.015.185-.088.185-.185s-.067-.167-.16-.185l-.265-.053c-.63-.13-.658-.202-.734-.928-.012-.105-.088-.173-.185-.173zm.797-1.22c-.243.237-.24.64 0 .88l2.777 2.818c.234.237.64.237.882 0a.63.63 0 0 0 0-.879l-2.78-2.818c-.234-.237-.64-.237-.88 0zm2.382 2.077l.964.958c.094.097.135.223.038.32-.09.085-.22.053-.316-.047l-.95-.952.264-.278zM8.538 9.394c-.076 0-.132.056-.14.132-.062.645-.085.642-.744.738-.076.012-.13.064-.13.138s.05.126.123.14c.665.132.65.135.75.744.012.067.064.126.14.126s.132-.06.138-.132c.064-.63.09-.63.735-.738.09-.015.14-.064.14-.14s-.05-.123-.126-.138c-.668-.138-.662-.132-.75-.735-.01-.08-.064-.135-.138-.135zm4.567-1.055c-.073 0-.126.053-.138.126-.097.642-.082.67-.74.738-.076.01-.138.064-.132.14s.047.123.13.138c.662.13.68.13.744.74.006.073.064.126.138.126s.13-.053.144-.13c.126-.62.088-.63.73-.738.09-.015.146-.064.146-.138s-.056-.126-.13-.14c-.668-.135-.69-.126-.747-.732-.006-.08-.067-.132-.144-.132zm-2.912-.905c-.067 0-.117.05-.13.117-.097.58-.073.604-.674.67-.067.01-.12.062-.12.13s.044.114.117.13c.604.126.612.114.677.674a.13.13 0 0 0 .129.114c.07 0 .117-.05.13-.117.094-.57.082-.568.668-.67.085-.015.13-.062.13-.13s-.044-.114-.117-.13c-.61-.13-.624-.117-.68-.668-.006-.07-.06-.12-.13-.12z" fill="#65ae76"/></g><g transform="translate(130 274)"><use filter="url(#B)" xlink:href="#E" class="B"/><use xlink:href="#E" class="D"/><path opacity=".1" d="M5 26h117v8H5z" class="B"/><path d="M14 5a3 3 0 0 1 3 3v6a3 3 0 0 1-3 3H8a3 3 0 0 1-3-3V8a3 3 0 0 1 3-3h6zm-2.562 3.125c-.255 0-.442.2-.442.448v1h-.062c-1.954 0-2.91 1.257-2.91 3.354 0 .46.167.694.4.694a.47.47 0 0 0 .454-.296c.416-.776 1.022-1.113 2.045-1.113h.062v.996c0 .25.188.437.437.437.173 0 .305-.07.472-.22l2.326-2.174c.114-.11.167-.25.167-.366a.51.51 0 0 0-.164-.363l-2.33-2.165c-.187-.158-.3-.23-.466-.23z" fill="#6db3bf"/></g><g transform="translate(138 214)"><use filter="url(#G)" xlink:href="#F" class="B"/><use xlink:href="#F" class="D"/><path opacity=".1" d="M5 26h117v8H5zm0 12h94v8H5z" class="B"/><path d="M14 5a3 3 0 0 1 3 3v6a3 3 0 0 1-3 3H8a3 3 0 0 1-3-3V8a3 3 0 0 1 3-3h6zm-5.333 5.23l-.237.24a.47.47 0 0 0 .009.735l.753.76c-.34.173-.946.404-1.216.668-.416.4-.4.973.038 1.406s.996.445 1.403.035c.267-.267.495-.87.67-1.216l.756.753c.237.24.513.237.738.015l.24-.243c.226-.226.226-.498-.01-.735l-2.408-2.408c-.237-.237-.5-.237-.738-.01zm.188 2.96c.097.1.097.25 0 .352-.097.097-.252.103-.352 0s-.097-.252 0-.352.252-.097.352 0zm1.94-5.672c-.325.407-.296 1.13-.973 1.934-.21.252-.23.478.003.712L11.8 12.14c.23.226.478.202.7-.02l1.418-1.412c.226-.223.25-.472.02-.697l-.322-.32c-.346.31-1.318 1.005-1.47.853-.044-.044-.012-.088.02-.123.31-.334.747-.853.803-1.38l-1.535-1.535c-.193-.193-.472-.2-.64.012z" fill="#fcbd4d"/></g><path d="M131.717 91l.72-2.186h3.11l.72 2.186h1.594l-3-8.455h-1.705l-3 8.455h1.56zm3.475-3.352h-2.402l1.184-3.61h.04l1.178 3.61zm6.377 3.475c1.56 0 2.63-.914 2.748-2.303h-1.377c-.135.703-.615 1.125-1.354 1.125-.926 0-1.523-.75-1.523-2.05 0-1.277.592-2.05 1.512-2.05.78 0 1.242.498 1.36 1.16h1.377c-.1-1.307-1.113-2.344-2.754-2.344-1.805 0-2.977 1.248-2.977 3.234 0 2.016 1.172 3.23 2.988 3.23zm6.3-.094c.31 0 .598-.023.756-.06v-1.113a2.83 2.83 0 0 1-.416.029c-.516 0-.75-.234-.75-.744v-3.23h1.172V84.79h-1.172v-1.453H146v1.453h-.89v1.125h.89v3.434c0 1.207.527 1.682 1.87 1.682zm2.926-7.178c.445 0 .797-.357.797-.79a.79.79 0 0 0-.797-.791c-.445 0-.803.352-.803.79 0 .434.357.79.803.79zm.732 7.148v-6.21h-1.46V91h1.46zm4.385.123c1.822 0 3.006-1.213 3.006-3.23 0-2-1.195-3.234-3.006-3.234s-3.006 1.23-3.006 3.234c0 2.016 1.184 3.23 3.006 3.23zm0-1.154c-.926 0-1.523-.75-1.523-2.074 0-1.318.604-2.074 1.523-2.074.926 0 1.523.756 1.523 2.074 0 1.324-.598 2.074-1.523 2.074zm5.814 1.03v-3.598c0-.89.533-1.494 1.37-1.494.832 0 1.242.492 1.242 1.37V91h1.46v-4.014c0-1.436-.78-2.314-2.15-2.314-.955 0-1.617.445-1.95 1.184h-.03V84.79h-1.4V91h1.46zm8.082.123c1.523 0 2.602-.79 2.602-1.963 0-.902-.498-1.4-1.787-1.687l-1.03-.23c-.65-.146-.908-.393-.908-.75 0-.457.428-.762 1.072-.762.674 0 1.1.357 1.148.92h1.36c-.035-1.178-.996-1.992-2.508-1.992-1.5 0-2.5.773-2.5 1.9 0 .92.598 1.506 1.787 1.77l1.03.23c.65.146.873.357.873.732 0 .463-.44.756-1.148.756-.738 0-1.154-.305-1.266-.908h-1.436c.117 1.2 1.078 1.975 2.7 1.975z" opacity=".6" class="B G"/><g transform="translate(289 87)"><path d="M50 195.5l.066 1.707.4 6.033.02.164c.503 3.743 1.388 5.616 2.653 5.62 3.862-2.024 2.303-6.045 2.207-11.08l-.022-.837c-.142-4.2-.725-4.21-2.706-4.246-1.404-.026-2.276.854-2.618 2.64z" fill="#272d33"/><path d="M46.95 27.775c2.1-2.7 1.65-5.25-1.35-7.65-4.5-3.6-8.1-2.25-7.2-7.2S48.75 4.1 55.5 9.5s3.65 11.9 5 20 11.82 12.93 14.8 29.325c1.8 9.9-4.55 14.425-6.8 25.675s-6.2 7-17 7c-7.2 0-6.167-8.942 3.1-26.825l-9.45-31.5 1.8-5.4z" class="B"/><path d="M41.1 28.225c.3 2.1 0 3.45-.9 4.05-1.35.9-3.6 1.8-3.6 1.8l3.6 5.85 13.05-1.8c-4.5-1.8-7.627-4.22-5.85-9l-6.3-.9z" fill="#ffb7b7"/><path d="M40.045 16.975c-.548 3.647-1.097 5.747-1.645 6.3a10.63 10.63 0 0 0 .823.751v4.147c.327.524 1.287.938 2.88 1.244s3.358.208 5.3-.292c3.838-6.083 1.387-10.133-7.355-12.15z" fill="#ffc3c3"/><circle fill="#ff8585" transform="matrix(-1 0 0 1 91.2 0)" cx="45.6" cy="24.175" r="1"/><path d="M27.5 90c-14.333 30.15-21.233 48.15-20.7 54 .7 6.725 1.7 6.225 4.5 6.75C13.55 152.1 52 149 68.5 138.5c0-2-1.833-3-5.5-3-19.167-.633-30.4-.35-33.7.85s2.85-10.8 18.45-36L27.5 90z" fill="#fdbdbd"/><path d="M36.5 93c1.667 9 3.21 15.068 4.627 18.205L43 108l-6.5-15z" fill="#dd9090"/><path d="M34.5 91.225c2.925 30.05 5.073 48.525 6.444 55.425C43 157 45.735 168.044 50 191.5c1 5.5 0 6.5 2.5 6.5 1.667 0 2.333-1.333 2-4 .333-14.333.833-25.167 1.5-32.5a52.3 52.3 0 0 0-2.5-21.5L59 93c0-1.8-8.167-2.392-24.5-1.775z" fill="#ffc3c3"/><path d="M33.5 73.283c2.876 1.198 16.42.522 24.5 3.5-.667 1-.6 3.308.2 6.925.965 3.088 3.232 7.446 6.8 13.075 3 4 7.5 17.5-5.5 14s-15.5 0-22.5-2c-6.83-1.95-12.724-2.677-17.92-5.587s-6.634-5.27-7.08-8.413c-.658-4.647 11-4.283 15.476-14.066 2.07-3.747 3.472-6.653 4.207-8.716a4.83 4.83 0 0 0 1.818 1.283z" fill="#215387"/><path d="M36.6 34.075c-4.95 2.25-12.15 9-14.4 10.35S15.5 38.5 14 32.5H9.5C7.88 34.558 5.05 44.975 5 51s11.8 13.675 26.65 6.925c0 4.05-4.15 14.075 1.85 16.575 2.876 1.198 17.5 4 21.5 2-1 3.5-3.5 5.5 0 7 2.333 1 4.167 1 5.5 0 5-2.5 10.606-10.162 11.67-13.813s1.607-7.312-2.27-14.01c-5.1-8.4-10.65-14.25-16.65-17.55-8.7.6-14.25-.75-16.65-4.05z" fill="#f48d00"/><path d="M52.5 56.5l1.2 5.835c.96 9.014 1.56 13.57 1.8 13.665s.24-4.22 0-12.945l-3-6.555zm-20.4-3.075c-.903 2.538-6.853 5.464-9 6.75 2.25 0 7.2-1.35 8.55-2.25l.45-4.5z" fill="#d07900"/><path d="M63 135.5c1.428 2.33 1.873 4.073 1.335 5.226.847 3.204 7.77 10.27 10 8.5-.886-6.382-5.53-6.232-4.53-12.665.086-.556-1.21-3.27-1.424-3.473-.974-.922-2.768-.12-5.38 2.41z" fill="#272d33"/><path d="M41.55 20.125v.9m-2.25 4.5c.6.3 1.2.45 1.8.45" class="C E F"/><path d="M14 32.5c0-.667.167-1.167.5-1.5.5-.5.858-1.646 1-2s0-.5-.5-.5-1 1.5-1.5.5-.5-3 0-4.5-.195-3.088-1-2c-.214.29-.66 4.182-1.103 4.53-.33.3-1.397.47-1.897.97-1.2 1.2-1.2 2.7 0 4.5H14z" fill="#fbb"/><g class="C E F"><path d="M10.8 29c-.234.69-.834 1.29-1.8 1.8" transform="matrix(-.515038 -.857167 -.857167 .515038 40.628179 22.986318)"/><path d="M11.8 28c-.6.9-1.2 1.5-1.8 1.8" transform="matrix(-.515038 -.857167 -.857167 .515038 41.28605 23.358523)"/></g><path d="M60.45 83.575C58.427 85.31 50.5 87 50 85s2.456-1.8 2.896-3.272c-.46-.3-.564-.734-.315-1.303.466-.267.83-.415 1.088-.444.887 2.013 3.147 3.21 6.78 3.594z" fill="#fbb"/><path d="M36.6 34.075c-.7.323-1.466.738-2.247 1.216.782 1.407 1.347 2.834 4.947 2.384s4.426 1.817 5.4 2.25c4.05 1.8 7.37.793 10.35-.9-.47-.294-1.35-.9-1.8-.9-8.7.6-14.25-.75-16.65-4.05z" fill="#fffafb"/><path d="M13.5 22.5L13 27" class="C E F"/><path d="M14 20c5.483 0 10-4.515 10-9.995S19.474 0 14 0C8.517 0 4 4.524 4 10.005S8.517 20 14 20zm-2.7-6.714v-6.58c0-.46.545-.68.967-.43l5.455 3.204a.61.61 0 0 1 0 1.052l-5.455 3.195c-.44.258-.967.03-.967-.44z" fill="#007cff" class="G"/><path d="M4.895 13.782c-2.363 1.113-3.727 2.17-3.54 2.916.377 1.51 6.98 1.165 14.75-.773s13.764-4.733 13.387-6.243c-.195-.784-2.776-1.026-5.62-.847" stroke="#004b9a" class="E"/><path d="M35 121.5l1.322-12.084.892 8.443c.057.525-.68 1.74-2.214 3.64z" fill="#ec9a9a"/><path d="M51 84.75c1.167 0 1.833-.167 2-.5m-1 1.5c1.167 0 1.833-.167 2-.5" class="C E F"/></g><g transform="translate(0 141)"><path d="M86.3 40.813c5.064 6.917 10.073 9.004 15.027 6.26 3.74-2.07 7.477-5.433 10.172-8.074 1 5 1 6.5 1.5 10-3.603 7.375-11.93 20.914-21.104 17.53-8.106-2.988-9.97-11.56-5.595-25.718z" fill="#fe9c9c"/><path d="M90.04 161.645c-.88 1.34-1.444 2.55-1.7 3.625s-.216 2.193.092 3.353c-3.138-.018-5.666-1.292-7.915-3.14 1.72-2.508 3.74-4.853 4.257-7.945l5.257 4.106z" fill="#eca2a2"/><path d="M88.4 167.505c1.294 2.075 2.546 3.394 3.754 3.957l5.89 2.747c.974.454 2.223 1.693-.33 4.26-1.63 1.638-8.708-1.03-18.224-5.47-.227-.106-.9-.927-1.988-2.463 1.485-4.878 2.862-6.572 4.132-5.084 3.343 2.295 5.6 2.98 6.767 2.052z" fill="#1a5781"/><path d="M77.326 171.163l1.843 1.963 2.125.975c8.48 3.824 14.925 5.88 16.43 4.368.912-.917 1.357-1.726 1.502-2.386-.225.324-1.17.915-1.6 1.237-1.82 1.358-8.307-1.115-17.823-5.553-.34-.16-.955-.813-1.843-1.963-.16-.443-.373.01-.634 1.36z" fill="#a4c8e1"/><path d="M90.948 170.344l-.876.695m-.514-2.447l-.876.695" stroke="#ef9519" class="C"/><path d="M14.845 159.59c-1.216 1.046-2.09 2.053-2.624 3.02s-.812 2.05-.836 3.248c-3.012-.882-5.1-2.804-6.743-5.2 2.346-1.936 4.933-3.634 6.282-6.464l3.922 5.396z" fill="#eca2a2"/><path d="M11.664 164.775c.672 2.35 1.512 3.964 2.518 4.84 1.51 1.312 4.094.56 4.906 1.264l.113.104c.77.745 1.4 2.218-1.605 3.9-2.018 1.125-8.44-.36-16.364-7.25-.19-.164-.482-1.146-.88-2.946 2.772-4.28 4.563-5.53 5.373-3.748 2.58 3.127 4.56 4.407 5.94 3.838z" fill="#1a5781"/><path d="M0 165.236l1.23 2.395 1.07.924c7.428 6.36 13.367 7.4 15.293 6.326 1.13-.63 1.78-1.285 2.102-1.88-.28.23-1.203.506-1.743.698l-.137.05c-2.123.804-7.678-.362-15.602-7.25-.284-.247-.694-1.045-1.23-2.395-.033-.47-.36-.093-.984 1.132z" fill="#a4c8e1"/><g stroke="#ef9519" class="C"><path transform="matrix(-.75471 -.656059 -.656059 .75471 132.958782 49.711252)" d="M12.554 167.916l.5 1"/><path transform="matrix(-.75471 -.656059 -.656059 .75471 130.105422 48.644424)" d="M11.7 165.85l.5 1"/></g><path d="M103.225 52.637c4 5 8.333 5.5 13 1.5 7-6 12.275-19.637 11.775-21.137-.302-.907-.5-2.5 0-3s.922.83 1 .5c.226-.958 0-1 0-2.5 0-.296-.5-2 2.5-1 2.206 1.8.068 6.5-.5 7-1.02.898-1.275 10.637-1.775 12.137s-2 28.5-16 26.5c-9.333-1.333-16.167-5.333-20.5-12l10.5-8z" fill="#ffb0b0"/><path d="M87.932 81.637c20 27.242 30 42.697 30 46.363 0 5.5-23.432 34-23.432 34l-17.5-.137L97.432 131.5l-20.5-24.5-16.5 21L15 165.363 5.5 154l35.932-32c1-1.333 7.833-17.288 20.5-47.863l26 7.5z" fill="#2e6298"/><path d="M61.33 75.587C62.1 87.53 67.333 98 77 107l-16.568 21L15 165.363 5.5 154l12.456-10.88 23.542-21.216c1.186-1.84 7.797-17.28 19.833-46.317z" fill="#215387"/><path d="M17 163.863L7.432 152 5 154.366l9.5 11.363zm60.618-4.003l-1.118 2.503 18.117.134 1.5-2.637z" fill="#1b4f7a"/><path d="M76.932 22.137l2.5 8.5-7.5-1.5 1-10 4 3z" fill="#ffa4a4"/><g transform="matrix(-.987688 -.156434 -.156434 .987688 85.694347 3.471277)"><path d="M2.37 7.42l-.87 5.32-1.5 2.5 1.403 1.18.097 6.32c5.42-.11 8.452-.637 9.097-1.584s1.613-3.474 2.903-7.58L2.37 7.42z" fill="#ffb0b0"/><circle fill="#ff8585" cx="4" cy="15" r="1"/><path d="M2.413 9.1c-1.7-2.943-3.66-5.243-1.372-7.927S6.986 1.06 7.444 2.46s2.744 2.445 5.488 2.445 5.03 5.596 3.66 8.747-4.573 9.792-6.402 9.326S7.9 20.758 8.815 19.36s2.287-4.197 1.372-4.776-.915.82-1.83.466-4.235-3.006-5.945-5.95z" fill="#634215"/><path d="M1.5 18.5L3 18m0-6v1" class="C E F"/></g><g stroke="#1b4f7a" class="C"><path d="M75.432 79c2.616 15.505 18.73 32.37 32.5 49L86 161.363"/><path d="M84.793 81c.648 5.476-.972 8.8-4.86 10"/></g><path d="M103.932 53.637c-4-11-9.5-18.333-16.5-22C84.056 29.868 76.5 28 72 29s-8.5 10-7 23-4.568 23.637-3.568 23.637 18 5.274 22 6a22.21 22.21 0 0 0 8 0v-22c.175.616.842 1.45 2 2.5s4.658-1.783 10.5-8.5z" fill="#5386e7"/><path d="M91.43 62.805l.001-2.305c-1.282-.513-1.282.256-.001 2.305zm.516-2.23l.052.067c.338.437.816.935 1.434 1.495 1.158 1.05 4.658-1.783 10.5-8.5a72.2 72.2 0 0 0-1.097-2.833c-5.45 6.413-9.08 9.67-10.888 9.77z" fill="#ffedd4"/><path d="M42.932 124c2.667 2.667 4.833 4 6.5 4" stroke="#1b4f7a" class="C"/><path d="M91.432 64v-4.5c-.333-.333-1.167-2-2.5-5 0 3 .833 6.167 2.5 9.5z" fill="#3868c4"/><path d="M129.9 27c.333.952.5 1.62.5 2m.5-2c.333 1.03.5 1.695.5 2" class="C E F"/></g></g></svg>