<?xml version="1.0" encoding="UTF-8"?>
<svg width="400px" height="320px" viewBox="0 0 400 320" version="1.1" xmlns="http://www.w3.org/2000/svg" xmlns:xlink="http://www.w3.org/1999/xlink">
    <!-- Generator: Sketch 60.1 (88133) - https://sketch.com -->
    <title>03-actions</title>
    <desc>Created with Sketch.</desc>
    <defs>
        <rect id="path-1" x="0" y="0" width="140" height="40" rx="8"></rect>
        <filter x="-7.1%" y="-20.0%" width="114.3%" height="150.0%" filterUnits="objectBoundingBox" id="filter-2">
            <feOffset dx="0" dy="2" in="SourceAlpha" result="shadowOffsetOuter1"></feOffset>
            <feGaussianBlur stdDeviation="3" in="shadowOffsetOuter1" result="shadowBlurOuter1"></feGaussianBlur>
            <feColorMatrix values="0 0 0 0 0   0 0 0 0 0   0 0 0 0 0  0 0 0 0.15 0" type="matrix" in="shadowBlurOuter1"></feColorMatrix>
        </filter>
        <rect id="path-3" x="0.445811832" y="0.05473881" width="131" height="40" rx="8"></rect>
        <filter x="-7.6%" y="-20.0%" width="115.3%" height="150.0%" filterUnits="objectBoundingBox" id="filter-4">
            <feOffset dx="0" dy="2" in="SourceAlpha" result="shadowOffsetOuter1"></feOffset>
            <feGaussianBlur stdDeviation="3" in="shadowOffsetOuter1" result="shadowBlurOuter1"></feGaussianBlur>
            <feColorMatrix values="0 0 0 0 0   0 0 0 0 0   0 0 0 0 0  0 0 0 0.15 0" type="matrix" in="shadowBlurOuter1"></feColorMatrix>
        </filter>
        <rect id="path-5" x="0" y="0" width="140" height="40" rx="8"></rect>
        <filter x="-7.1%" y="-20.0%" width="114.3%" height="150.0%" filterUnits="objectBoundingBox" id="filter-6">
            <feOffset dx="0" dy="2" in="SourceAlpha" result="shadowOffsetOuter1"></feOffset>
            <feGaussianBlur stdDeviation="3" in="shadowOffsetOuter1" result="shadowBlurOuter1"></feGaussianBlur>
            <feColorMatrix values="0 0 0 0 0   0 0 0 0 0   0 0 0 0 0  0 0 0 0.15 0" type="matrix" in="shadowBlurOuter1"></feColorMatrix>
        </filter>
        <rect id="path-7" x="0" y="0" width="131" height="50" rx="8"></rect>
        <filter x="-7.6%" y="-16.0%" width="115.3%" height="140.0%" filterUnits="objectBoundingBox" id="filter-8">
            <feOffset dx="0" dy="2" in="SourceAlpha" result="shadowOffsetOuter1"></feOffset>
            <feGaussianBlur stdDeviation="3" in="shadowOffsetOuter1" result="shadowBlurOuter1"></feGaussianBlur>
            <feColorMatrix values="0 0 0 0 0   0 0 0 0 0   0 0 0 0 0  0 0 0 0.15 0" type="matrix" in="shadowBlurOuter1"></feColorMatrix>
        </filter>
    </defs>
    <g id="页面-1" stroke="none" stroke-width="1" fill="none" fill-rule="evenodd">
        <g id="03-actions" transform="translate(0.000000, -10.000000)">
            <g transform="translate(0.000000, 10.000000)">
                <g id="编组-3备份-2" fill="#FF9500" opacity="0.200000003">
                    <path d="M33.6086051,79.9632567 C8.28039212,69.1368581 0,49.5450946 0,35.4937806 C0,-12.2891411 50.0900469,-8.27516144 60.8488572,26.431454 C71.6076676,61.1380694 85.2392157,69.2364784 107.685085,79.9107005 C130.130955,90.5849226 58.936818,90.7896554 33.6086051,79.9632567 Z" id="椭圆形"></path>
                    <path d="M343.938774,320 C370.307217,269.119703 386.712505,227.909427 393.154639,196.369172 C433.580961,-1.55537986 285.314284,-17.979896 200.869401,95.6328369 C116.424517,209.24557 0,164.889067 0,228.421642 C0,270.776692 18.503639,301.302811 55.510917,320 L343.938774,320 Z" id="椭圆形"></path>
                </g>
                <g id="编组-5" transform="translate(1.763442, 230.928050)">
                    <path d="M9.72251755,30.4205681 C4.20847735,24.7691859 -7.04163531,21.0553097 8.23655774,10.0719504 C13.7485512,8.36395258 21.2766995,9.12877151 30.8210029,12.3664072 C36.8143955,13.8391536 42.4089012,10.5817176 47.60452,2.59409917 L47.8645554,2.18967257 L48.0304694,2.05386383 C49.2933568,1.07121832 57.6605327,-4.55156892 69.5137752,8.41711193 L69.6626017,8.80012881 C70.4591137,10.7115399 74.4749186,18.6924487 82.2419336,7.52450538 L82.5214042,7.12085319 C82.9524542,6.62146671 93.8561034,-5.670383 106.596258,13.6108299 L106.990778,14.2171434 L107.340257,15.0718874 C108.947383,19.146326 115.33147,37.0129623 110.126988,51.843109 L108.426717,67.2629415 C91.9403053,82.3015151 77.2058614,88.1322007 64.2233849,84.7549982 C63.8638999,85.332404 53.3269618,81.6043387 54.3669313,70.5206146 C54.0155168,60.1750709 49.1561325,56.4020108 39.7887787,59.2014342 C39.2798436,58.9016371 25.7882836,66.3593574 20.4878146,53.8011327 C16.9869767,41.9816778 13.3985443,34.1881563 9.72251755,30.4205681 Z" id="路径" fill="#BC8AFF"></path>
                    <path d="M8.50398622,21.2896984 L6.88830471,20.9000593 L9.24696828,21.3599081 C13.831159,22.2811911 24.6243873,24.578692 38.3513117,28.3519277 C32.2330075,18.8724348 23.066311,14.293672 20.4220487,13.1211448 L19.7456706,12.8344597 L20.1495185,12.9900282 C33.8282583,18.3469446 37.8054123,26.8346447 38.4292191,28.3740128 L40.5905171,28.9739188 C49.6907119,31.5233751 59.9518842,34.6966322 70.4794826,38.5200374 C68.6733856,25.0033973 56.7239123,14.3831534 53.7077471,11.8959281 L53.0355986,11.3571998 L53.6405053,11.806348 C71.1699601,24.9697628 71.0552833,35.853721 70.6920868,38.5988157 C79.4036791,41.7673523 88.2941481,45.3826955 96.8569359,49.4584949 C98.384685,27.3159545 81.4413014,16.031434 81.5754838,16.0194602 C99.9373368,28.9306368 97.9919067,45.1326355 97.044963,49.5495203 C99.6086545,50.7710967 102.142296,52.0352706 104.63261,53.3411794 L105.184216,53.6934803 L105.654004,54.0086501 C108.395259,55.9039141 105.688505,55.207712 102.55379,53.9257445 L101.17392,53.2812777 L99.6916625,52.596041 C94.1731019,50.0582269 87.7368395,47.2465774 80.4511236,44.3010528 L80.5107529,44.7001295 L80.5515731,45.0512511 C80.96557,49.110746 80.3180733,61.8974028 57.0478008,66.8748767 L57.145161,66.8468516 C58.7671428,66.4483962 80.0778544,61.7637625 80.3468,44.2599208 L78.145668,43.3767024 C71.0960351,40.5682728 63.2943027,37.6540339 54.7982599,34.7513448 L54.8077383,35.1127937 L54.80609,35.5056181 C54.719308,39.9529188 52.2182358,51.1366979 29.5770318,52.8061317 L29.1521447,52.8319516 C32.4687031,52.5513847 53.264015,50.1779211 54.6353805,34.6963253 C41.4105441,30.1824409 26.5085341,25.699025 10.1451843,21.6890966 L8.50398622,21.2896984 Z M29.2685959,26.943344 L29.2172179,27.1733109 C28.8949739,28.4631303 26.8670839,34.7179474 17.9565528,34.073425 C17.8820933,34.010946 25.8219488,34.0752252 29.2685959,26.943344 Z" id="形状" fill="#FFFFFF"></path>
                </g>
                <g id="编组-15备份" transform="translate(100.500000, 261.500000) scale(-1, 1) translate(-100.500000, -261.500000) translate(39.000000, 203.000000)">
                    <path d="M14.3832874,0.125076253 C21.7217378,0.534027659 30.2509573,5.53562416 39.9709457,15.1298658 L40.5935938,15.7511879 C41.7358526,16.8335532 48.7022837,22.3778446 63.7504626,13.3860544 C73.3583583,10.549062 80.3724395,16.5979012 84.7927062,31.5325722 C84.7555758,40.8354867 89.5974164,42.7830205 99.318228,37.3751736 C112.546362,31.4757152 120.412558,38.0579776 122.916815,57.1219608 C122.759836,82.1351505 113.393959,101.907772 95.8035421,117 C73.2850735,117 58.6487768,116.926461 51.8946521,116.779382 C46.6452352,116.386614 42.7002124,115.50801 40.0258391,114.5 C28.3700598,110.10677 27.5418764,103.301839 34.6546838,91.6761739 C39.8348556,80.1159743 36.5033296,73.3634467 24.6601058,71.4185912 C24.259862,70.8162073 5.35862203,71.7806952 6.26852725,55.1350601 C14.0643137,41.3639608 14.5739439,31.1658235 7.79741771,24.5406481 C-4.31216472,11.0766604 -2.11687482,2.93813642 14.3832874,0.125076253 Z" id="路径" fill="#FE889D" transform="translate(61.512920, 58.562538) scale(-1, 1) translate(-61.512920, -58.562538) "></path>
                    <path d="M104.255445,21.0700772 L102.415965,22.4547637 C98.4855824,25.4467575 88.625566,33.122187 76.4329182,43.8599898 C77.9862964,30.9066637 85.421919,21.6461526 87.1467588,19.6499253 L87.4608352,19.2945954 L87.1309269,19.6494941 C76.0782678,31.6610954 76.2383008,42.0749304 76.3651261,43.9194406 L74.5662531,45.511631 C66.7028898,52.5039424 57.9757675,60.6923335 49.2995515,69.6642818 C43.9328332,53.5212105 53.1140543,34.7957433 53.4893931,34.0414099 L53.1045383,34.7842143 C42.0093936,56.4697887 47.4268501,67.2833022 49.1262234,69.8468057 C41.969368,77.2536559 34.8516723,85.1946183 28.2855135,93.4358202 C15.9749071,72.0666681 27.3989436,52.5448247 27.2591099,52.598224 C15.2111405,74.4348391 25.0442598,89.6671801 28.141751,93.6177073 C26.1769947,96.0867473 24.26245,98.5833744 22.4115065,101.100577 L22.0570302,101.679621 C19.6408492,105.713104 22.12744,103.634312 24.7722703,100.671809 L26.3229725,98.7578491 C30.734464,93.3434636 36.012501,87.1218911 42.1571012,80.2945281 L42.2533049,80.605055 C43.4446744,84.2746905 49.7889087,98.0680806 76.5245352,91.4385763 C76.5680947,91.34074 51.3969902,98.2675305 42.2406933,80.2008174 C48.3480632,73.4189128 55.3085865,66.0408839 63.1228595,58.2638797 L63.2895491,58.6292853 C65.2597925,62.7840667 72.9568888,73.6588364 97.1059038,64.0082465 L97.7305958,63.7536014 C94.9942542,64.8362513 72.3518912,73.2230589 63.2599445,58.127638 C75.0021316,46.4492189 88.6673183,33.8748131 104.255445,21.0700772 Z M84.8167043,38.029881 L84.9867206,38.242473 C85.9536903,39.3900511 91.0218091,44.6127504 99.5865028,39.6405488 C99.6304304,39.5418859 91.732523,43.4734162 84.8167043,38.029881 Z" id="形状" fill="#FFFFFF"></path>
                </g>
                <g id="编组-13备份" transform="translate(337.000000, 272.000000) scale(-1, 1) translate(-337.000000, -272.000000) translate(287.000000, 224.000000)">
                    <path d="M5.21286754,19.7737111 C4.64214423,19.1451167 -9.27962644,3.55255405 10.8798701,0.102272556 C20.9599567,3.36742419 28.0762043,7.62648575 32.2286129,12.8794572 C38.4572259,20.7589145 38.8332795,18.2979528 51.0902786,10.9455309 L51.5012858,10.6960267 C51.5012858,10.6960267 62.8289716,7.46589603 68.2295459,25.7836054 L68.1954068,26.1931 C68.0733995,28.2602328 68.1841809,37.1938391 80.0608318,30.5609934 L80.4702926,30.3288103 C80.4702926,30.3288103 96.222644,23.3251751 99.2822847,46.7075788 L99.3710866,47.4254759 C99.3710866,47.4254759 98.3990118,70.064029 85.6957556,82.6182937 L77.4079522,95.7321975 C49.2229296,96.3532655 33.4236949,95.1346958 30.0102479,92.0764887 C29.4340268,92.4378697 22,82.5 27.3912691,74.9619246 C32.7825383,67.4238492 33.7202769,60.78308 19.2505144,58.3976711 C18.924509,57.9051128 3.52912577,58.6937568 4.27025914,45.0829265 C10.6200605,33.8225515 11.035163,25.4837218 5.51556656,20.0664375 L5.21286754,19.7737111 Z" id="路径" fill="#FE889D"></path>
                    <path d="M6.46998191,9.55000495 C7.08861314,10.0077934 17.6072556,17.8208894 31.4820612,30.0401743 C30.138502,18.8379745 23.9067272,10.7041945 22.0440821,8.49116577 L21.561832,7.93699022 L21.8566113,8.25384959 C31.8026637,19.0649789 31.6565432,28.4371429 31.5424025,30.0941766 C39.0302255,36.6899566 47.4923059,44.5677088 55.901264,53.2632739 C60.2032599,40.3228574 54.1187528,25.5391412 52.4981694,21.9814381 L52.1302092,21.2025817 L52.4770021,21.8714471 C62.4619105,41.3870531 57.5876264,51.119219 56.0578173,53.4272789 C62.4987495,60.0940515 68.904588,67.2408255 74.8140578,74.6578088 C85.8938404,55.4259465 75.6120364,37.8559961 75.7378877,37.9040558 C86.5815245,57.5578511 77.7304948,71.2672905 74.9431525,74.8220476 C76.7118794,77.0438416 78.4349242,79.290749 80.1007307,81.5561737 L77.01834,79.9861446 C72.9608099,74.9887235 68.0645308,69.2027877 62.3294852,62.8304958 L62.2081359,63.2153234 C61.0499786,66.6694147 55.2105135,78.7647978 31.3990049,72.8603729 L31.4235862,72.8624455 C32.2601455,73.012676 54.1773163,78.6809072 62.2537509,62.7477941 C56.7578507,56.6426802 50.4927652,50.0018069 43.4591605,43.0017999 L43.3092309,43.330823 C41.5369584,47.0717591 34.6093927,56.8584096 12.8757732,48.1730761 L12.3135504,47.9438955 C14.7762325,48.9182704 35.153966,56.4662522 43.3368844,42.880947 C33.0989819,32.6980266 21.2372136,21.7592907 7.7513403,10.6084784 L6.46998191,9.55000495 Z M23.9360527,24.7925471 L23.7890637,24.9767174 C22.9340131,25.9947369 18.3694263,30.7275608 10.643234,26.2421482 C10.6036992,26.1533515 17.7118159,29.6917288 23.9360527,24.7925471 Z" id="形状" fill="#FFFFFF"></path>
                </g>
                <g id="编组-10备份" transform="translate(289.000000, 252.500000) scale(-1, 1) translate(-289.000000, -252.500000) translate(232.000000, 185.000000)">
                    <path d="M16.1543919,20.9110225 C16.1543919,20.9110225 7.03247064,-6.01299263 33.6586192,1.24050917 C33.6586192,1.24050917 43.0270789,5.91225609 50.9163081,26.5662951 C50.9163081,26.5662951 54.1213075,36.8933146 74.4607266,34.188619 C74.4607266,34.188619 89.2530313,36.2786111 86.048032,60.2520492 C86.048032,60.2520492 77.7889951,73.8984679 97.8818758,71.8084758 C97.8818758,71.8084758 120.193602,71.8084758 110.948412,101.314246 C110.948412,101.314246 98.1284142,127.008854 76.9261107,135 L36.3705418,135 C36.3705418,135 11.7167005,126.640032 7.52554746,117.296538 C6.66266302,117.419479 1.60862555,103.896001 13.6890078,95.9048547 C13.6890078,95.9048547 27.9882357,82.9960803 12.4563157,72.7920015 C12.3330465,72.0543573 -5.91079604,65.0467369 1.97843317,49.6791483 C3.58093286,46.851512 3.70420206,46.9744527 5.42997095,44.8844607 C5.42997095,44.8844607 22.6876599,36.4015518 16.1543919,20.9110225 Z" id="路径" fill="#BC8AFF" transform="translate(56.596154, 67.500000) rotate(-360.000000) translate(-56.596154, -67.500000) "></path>
                    <path d="M41.4145897,16.1489807 C47.3689659,33.8224725 42.3603267,44.6162547 41.3723873,46.4789855 C46.6494045,57.992204 52.3943825,71.4949968 57.6555719,85.9186289 C70.6206443,71.7143838 69.8924368,48.2524536 69.8360001,46.8353915 L69.8342539,46.7980639 L69.8909582,47.7521041 C71.3937702,75.5369181 60.7163706,84.304375 57.75186,86.1900341 C61.7789622,97.2446472 65.5170807,108.838333 68.5401635,120.489081 C91.315465,103.909264 88.4641255,78.2294815 88.5852385,78.3501755 C91.0124103,106.737898 73.670677,118.064471 68.604459,120.746651 C69.5088831,124.235275 70.3468431,127.730223 71.1088695,131.217092 C72.0035001,137.613525 70.2900385,134.186602 68.8445078,129.672797 C66.646676,121.386866 63.7990194,111.507578 60.1700427,100.330205 C57.7706762,103.149836 44.7144847,115.929641 19.1283616,95.9924023 C19.1283616,95.8700688 42.176615,114.792871 60.1256717,100.194844 C56.9040696,90.2789541 53.0684028,79.3456989 48.5271877,67.5994397 C44.9999027,70.8147512 31.7534896,79.7550367 10.3953101,57.8049992 L9.86172562,57.2490208 C12.2141655,59.6501234 31.9451449,78.9214621 48.4464414,67.3944849 C41.6201067,49.75146 33.2020402,30.2801698 22.8842693,9.67506386 C22.8842693,9.67506386 31.2481383,24.3945905 41.3303621,46.3854412 C46.0614853,31.06477 41.6999628,17.0404578 41.2483722,15.6659251 Z M35.2897308,36.4050639 C35.2897308,36.4050639 26.5305155,41.4632023 19.1283616,31.2235562 C19.1283616,31.1001869 25.5435616,38.8724485 35.2897308,36.4050639 Z" id="形状结合" fill="#FFFFFF" transform="translate(49.304011, 72.206145) rotate(-360.000000) translate(-49.304011, -72.206145) "></path>
                </g>
                <g id="编组-4" transform="translate(116.000000, 37.000000)">
                    <path d="M19.229139,-7.76880231e-16 L148.770861,7.76880231e-16 C155.457252,-4.51389787e-16 157.881898,0.696192084 160.326343,2.00349528 C162.770787,3.31079847 164.689202,5.22921278 165.996505,7.67365722 C167.303808,10.1181017 168,12.5427485 168,19.229139 L168,283 L168,283 L0,283 L5.17920154e-16,19.229139 C-3.00926524e-16,12.5427485 0.696192084,10.1181017 2.00349528,7.67365722 C3.31079847,5.22921278 5.22921278,3.31079847 7.67365722,2.00349528 C10.1181017,0.696192084 12.5427485,4.51389787e-16 19.229139,-7.76880231e-16 Z" id="矩形备份-16" fill="#3A3A3A"></path>
                    <path d="M148.180574,6 C152.638168,6 154.254599,6.46412806 155.884229,7.33566352 C157.513858,8.20719898 158.792801,9.48614185 159.664336,11.1157715 C160.535872,12.7454011 161,14.3618323 161,18.819426 L161,283 L7,283 L7,18.819426 C7,14.3618323 7.46412806,12.7454011 8.33566352,11.1157715 C9.20719898,9.48614185 10.4861419,8.20719898 12.1157715,7.33566352 C13.7454011,6.46412806 15.3618323,6 19.819426,6 L35.0709211,5.99977492 C35.0241831,6.32644959 35,6.66040067 35,7 L35,7 L35,14 C35,17.8659932 38.1340068,21 42,21 L42,21 L127,21 C130.865993,21 134,17.8659932 134,14 L134,14 L134,7 C134,6.66040067 133.975817,6.32644959 133.929079,5.99977492 L148.180574,6 Z" id="形状结合备份-2" fill="#FAFAFA"></path>
                    <rect id="矩形备份-20" fill="#FFFFFF" opacity="0.5" x="64" y="8" width="39.7241379" height="3.97241379" rx="1.9862069"></rect>
                </g>
                <g id="编组-7备份" transform="translate(130.000000, 114.000000)">
                    <g id="矩形">
                        <use fill="black" fill-opacity="1" filter="url(#filter-2)" xlink:href="#path-1"></use>
                        <use fill="#FFFFFF" fill-rule="evenodd" xlink:href="#path-1"></use>
                    </g>
                    <rect id="矩形备份-10" fill="#000000" opacity="0.100000001" x="5" y="26" width="117" height="8"></rect>
                    <path d="M14,5 C15.6568542,5 17,6.34314575 17,8 L17,14 C17,15.6568542 15.6568542,17 14,17 L8,17 C6.34314575,17 5,15.6568542 5,14 L5,8 C5,6.34314575 6.34314575,5 8,5 L14,5 Z M14.0546875,9.20019531 L11.4941406,10.1230469 C11.1220703,10.2578125 10.9550781,10.4423828 10.8554688,10.7910156 L10.7939453,11.0136719 C10.7470703,11.1777344 10.6738281,11.2509766 10.4189453,11.3828125 L10.0849609,11.5615234 C10.0058594,11.6025391 9.96191406,11.6142578 9.90332031,11.6142578 C9.64550781,11.6142578 9.56347656,11.3857422 8.98925781,11.3857422 C8.30078125,11.3857422 7.74707031,11.9423828 7.74707031,12.6337891 C7.74707031,13.328125 8.29785156,13.8818359 8.98925781,13.8818359 C9.68359375,13.8818359 10.2373047,13.3310547 10.2373047,12.6337891 C10.2373047,12.3847656 10.2607422,12.2792969 10.4599609,12.1738281 L15.4697266,9.51660156 C15.3466797,9.03613281 14.8222656,8.921875 14.0546875,9.20019531 Z M8.98925781,12.0009766 C9.34082031,12.0009766 9.62207031,12.2822266 9.62207031,12.6337891 C9.62207031,12.9824219 9.34082031,13.2666016 8.98925781,13.2666016 C8.64648438,13.2666016 8.36523438,12.9824219 8.36523438,12.6337891 C8.36523438,12.2822266 8.64648438,12.0009766 8.98925781,12.0009766 Z M12.9794922,11.0898438 L11.6494141,11.7900391 L11.6494141,11.8339844 L14.0546875,12.7275391 C14.8251953,13.0117188 15.3466797,12.9003906 15.4697266,12.4023438 L12.9794922,11.0898438 Z M11.5527344,10.5390625 C11.6875,10.5390625 11.8017578,10.6474609 11.8017578,10.7851562 C11.8017578,10.9199219 11.6875,11.0253906 11.5527344,11.0253906 C11.4267578,11.0253906 11.3125,10.9169922 11.3125,10.7851562 C11.3125,10.6474609 11.4267578,10.5390625 11.5527344,10.5390625 Z M8.98925781,8.0546875 C8.30078125,8.0546875 7.74707031,8.61132812 7.74707031,9.30566406 C7.74707031,9.99707031 8.29785156,10.5507812 8.98925781,10.5507812 C9.56347656,10.5507812 9.63378906,10.328125 9.90332031,10.328125 C9.96777344,10.328125 10.0146484,10.3398438 10.0849609,10.3779297 L10.4804688,10.5888672 C10.5478516,10.6269531 10.6035156,10.6591797 10.6474609,10.6855469 L10.6708984,10.6855469 C10.75,10.4013672 10.8466797,10.2402344 11.0458984,10.1025391 L11.0458984,10.0791016 L10.4833984,9.78027344 C10.2636719,9.66308594 10.2373047,9.57226562 10.2373047,9.30566406 C10.2373047,8.60839844 9.68359375,8.0546875 8.98925781,8.0546875 Z M8.98925781,8.66992188 C9.34082031,8.66992188 9.62207031,8.94824219 9.62207031,9.30566406 C9.62207031,9.6484375 9.34082031,9.93554688 8.98925781,9.93554688 C8.64648438,9.93554688 8.36523438,9.6484375 8.36523438,9.30566406 C8.36523438,8.94824219 8.64648438,8.66992188 8.98925781,8.66992188 Z" id="形状结合" fill="#FF8C59"></path>
                </g>
                <g id="编组-7备份-2" transform="translate(178.057208, 183.435338) rotate(-7.000000) translate(-178.057208, -183.435338) translate(112.057208, 162.935338)">
                    <g id="矩形">
                        <use fill="black" fill-opacity="1" filter="url(#filter-4)" xlink:href="#path-3"></use>
                        <use fill="#FFFFFF" fill-rule="evenodd" xlink:href="#path-3"></use>
                    </g>
                    <rect id="矩形备份-10" fill="#000000" opacity="0.100000001" x="5" y="26" width="117" height="8"></rect>
                    <path d="M14,5 C15.6568542,5 17,6.34314575 17,8 L17,14 C17,15.6568542 15.6568542,17 14,17 L8,17 C6.34314575,17 5,15.6568542 5,14 L5,8 C5,6.34314575 6.34314575,5 8,5 L14,5 Z M10.0439453,11.4824219 C9.94433594,11.4824219 9.87109375,11.5498047 9.859375,11.6523438 C9.765625,12.5019531 9.73632813,12.53125 8.86328125,12.6367188 C8.76953125,12.6484375 8.69628906,12.7275391 8.69628906,12.8212891 C8.69628906,12.9150391 8.76367188,12.9882813 8.85742188,13.0058594 C9.74804688,13.1816406 9.765625,13.1787109 9.859375,13.9931641 C9.87109375,14.0927734 9.95019531,14.1601563 10.0439453,14.1601563 C10.140625,14.1601563 10.2167969,14.0927734 10.2285156,13.9873047 C10.3193359,13.1640625 10.3486328,13.1171875 11.2041016,13.0058594 C11.3212891,12.9912109 11.3886719,12.9179688 11.3886719,12.8212891 C11.3886719,12.7275391 11.3212891,12.6542969 11.2275391,12.6367188 L10.9622798,12.5836749 C10.333261,12.4533058 10.3040365,12.3818359 10.2285156,11.6552734 C10.2167969,11.5498047 10.140625,11.4824219 10.0439453,11.4824219 Z M10.8408203,10.2636719 C10.5976563,10.5009766 10.6005859,10.9023438 10.8408203,11.1425781 L13.6181641,13.9609375 C13.8525391,14.1982422 14.2568359,14.1982422 14.5,13.9609375 C14.7402344,13.7236328 14.7373047,13.3222656 14.5,13.0820313 L11.7197266,10.2636719 C11.4853516,10.0263672 11.0810547,10.0263672 10.8408203,10.2636719 Z M13.2226563,12.3408203 L14.1865234,13.2988281 C14.2802734,13.3955078 14.3212891,13.5214844 14.2246094,13.6181641 C14.1337891,13.703125 14.0048828,13.6708984 13.9082031,13.5712891 L12.9589844,12.6191406 L13.2226563,12.3408203 Z M8.53808594,9.39355469 C8.46191406,9.39355469 8.40625,9.44921875 8.39746094,9.52539063 C8.3359375,10.1699219 8.3125,10.1669922 7.65332031,10.2636719 C7.57714844,10.2753906 7.52441406,10.328125 7.52441406,10.4013672 C7.52441406,10.4775391 7.57421875,10.5273438 7.64746094,10.5419922 C8.3125,10.6738281 8.29785156,10.6767578 8.39746094,11.2861328 C8.40917969,11.3535156 8.46191406,11.4121094 8.53808594,11.4121094 C8.61132813,11.4121094 8.66992188,11.3535156 8.67578125,11.2802734 C8.74023438,10.6503906 8.76660156,10.6503906 9.41113281,10.5419922 C9.50195313,10.5273438 9.55175781,10.4775391 9.55175781,10.4013672 C9.55175781,10.328125 9.50195313,10.2783203 9.42578125,10.2636719 C8.7578125,10.1259766 8.76367188,10.1318359 8.67578125,9.52832031 C8.66699219,9.44921875 8.61132813,9.39355469 8.53808594,9.39355469 Z M13.1054688,8.33886719 C13.0322266,8.33886719 12.9794922,8.39160156 12.9677734,8.46484375 C12.8710938,9.10644531 12.8857422,9.13574219 12.2265625,9.203125 C12.1503906,9.21191406 12.0888672,9.26757813 12.0947266,9.34375 C12.0976563,9.41699219 12.1416016,9.46679688 12.2236328,9.48144531 C12.8857422,9.61035156 12.9033203,9.61035156 12.9677734,10.2226563 C12.9736328,10.2958984 13.0322266,10.3486328 13.1054688,10.3486328 C13.1816406,10.3486328 13.234375,10.2958984 13.2490234,10.2197266 C13.375,9.59863281 13.3369141,9.58984375 13.9785156,9.48144531 C14.0693359,9.46679688 14.125,9.41699219 14.125,9.34375 C14.125,9.26757813 14.0693359,9.21777344 13.9960938,9.203125 C13.328125,9.06835938 13.3046875,9.07714844 13.2490234,8.47070313 C13.2431641,8.39160156 13.1816406,8.33886719 13.1054688,8.33886719 Z M10.1933594,7.43359375 C10.1259766,7.43359375 10.0761719,7.48339844 10.0644531,7.55078125 C9.96777344,8.13085938 9.99121094,8.15429688 9.390625,8.22167969 C9.32324219,8.23046875 9.27050781,8.28320313 9.27050781,8.35058594 C9.27050781,8.41796875 9.31445313,8.46484375 9.38769531,8.47949219 C9.99121094,8.60546875 10,8.59375 10.0644531,9.15332031 C10.0732422,9.21777344 10.1259766,9.26757813 10.1933594,9.26757813 C10.2636719,9.26757813 10.3105469,9.21777344 10.3222656,9.15039063 C10.4160156,8.57910156 10.4042969,8.58203125 10.9902344,8.47949219 C11.0751953,8.46484375 11.1191406,8.41796875 11.1191406,8.35058594 C11.1191406,8.28320313 11.0751953,8.23632813 11.0019531,8.22167969 C10.3925781,8.09277344 10.3779297,8.10449219 10.3222656,7.55371094 C10.3164063,7.48339844 10.2636719,7.43359375 10.1933594,7.43359375 Z" id="形状结合" fill="#65AE76"></path>
                </g>
                <g id="编组-7备份-4" transform="translate(130.000000, 274.000000)">
                    <g id="矩形">
                        <use fill="black" fill-opacity="1" filter="url(#filter-6)" xlink:href="#path-5"></use>
                        <use fill="#FFFFFF" fill-rule="evenodd" xlink:href="#path-5"></use>
                    </g>
                    <rect id="矩形备份-10" fill="#000000" opacity="0.100000001" x="5" y="26" width="117" height="8"></rect>
                    <path d="M14,5 C15.6568542,5 17,6.34314575 17,8 L17,14 C17,15.6568542 15.6568542,17 14,17 L8,17 C6.34314575,17 5,15.6568542 5,14 L5,8 C5,6.34314575 6.34314575,5 8,5 L14,5 Z M11.4375,8.125 C11.1826172,8.125 10.9951172,8.32421875 10.9951172,8.57324219 L10.9951172,9.57226562 L10.9335938,9.57226562 C8.97949219,9.57226562 8.02441406,10.8291016 8.02441406,12.9267578 C8.02441406,13.3867188 8.19140625,13.6210938 8.43457031,13.6210938 C8.61035156,13.6210938 8.765625,13.5595703 8.88867188,13.3251953 C9.3046875,12.5488281 9.91113281,12.2119141 10.9335938,12.2119141 L10.9951172,12.2119141 L10.9951172,13.2080078 C10.9951172,13.4570312 11.1826172,13.6445312 11.4316406,13.6445312 C11.6044922,13.6445312 11.7363281,13.5742188 11.9033203,13.4248047 L14.2294922,11.2509766 C14.34375,11.1396484 14.3964844,11.0019531 14.3964844,10.8847656 C14.3964844,10.7646484 14.3466797,10.6328125 14.2324219,10.5214844 L11.9033203,8.35644531 C11.7158203,8.19824219 11.6044922,8.125 11.4375,8.125 Z" id="形状结合" fill="#6DB3BF"></path>
                </g>
                <g id="编组-7备份-3" transform="translate(138.000000, 214.000000)">
                    <g id="矩形">
                        <use fill="black" fill-opacity="1" filter="url(#filter-8)" xlink:href="#path-7"></use>
                        <use fill="#FFFFFF" fill-rule="evenodd" xlink:href="#path-7"></use>
                    </g>
                    <rect id="矩形备份-10" fill="#000000" opacity="0.100000001" x="5" y="26" width="117" height="8"></rect>
                    <rect id="矩形备份-11" fill="#000000" opacity="0.100000001" x="5" y="38" width="94" height="8"></rect>
                    <path d="M14,5 C15.6568542,5 17,6.34314575 17,8 L17,14 C17,15.6568542 15.6568542,17 14,17 L8,17 C6.34314575,17 5,15.6568542 5,14 L5,8 C5,6.34314575 6.34314575,5 8,5 L14,5 Z M8.66699219,10.2285156 L8.4296875,10.46875 C8.20117188,10.6943359 8.20117188,10.9638672 8.43847656,11.2041016 L9.19140625,11.9628906 C8.8515625,12.1357422 8.24511719,12.3671875 7.97558594,12.6308594 C7.55957031,13.0410156 7.57421875,13.6035156 8.01367188,14.0371094 C8.45019531,14.4677734 9.00976562,14.4824219 9.41699219,14.0722656 C9.68359375,13.8056641 9.91210938,13.2021484 10.0878906,12.8564453 L10.84375,13.609375 C11.0810547,13.8496094 11.3564453,13.8466797 11.5820312,13.6240234 L11.8222656,13.3808594 C12.0478516,13.1552734 12.0478516,12.8828125 11.8134766,12.6455078 L9.40527344,10.2373047 C9.16796875,10 8.89550781,10 8.66699219,10.2285156 Z M8.85449219,13.1875 C8.95117188,13.2871094 8.95117188,13.4365234 8.85449219,13.5390625 C8.7578125,13.6357422 8.60253906,13.6416016 8.50292969,13.5390625 C8.40332031,13.4365234 8.40625,13.2871094 8.50292969,13.1875 C8.60253906,13.0878906 8.75488281,13.0908203 8.85449219,13.1875 Z M10.7939453,7.515625 C10.46875,7.92285156 10.4980469,8.64648438 9.82128906,9.44921875 C9.61035156,9.70117188 9.58984375,9.92675781 9.82421875,10.1611328 L11.7988281,12.1386719 C12.0273438,12.3642578 12.2763672,12.3408203 12.4990234,12.1181641 L13.9169922,10.7060547 C14.1425781,10.4833984 14.1660156,10.234375 13.9375,10.0087891 L13.6152344,9.68945312 C13.2695312,10 12.296875,10.6943359 12.1445312,10.5419922 C12.1005859,10.4980469 12.1328125,10.4541016 12.1650391,10.4189453 C12.4755859,10.0849609 12.9121094,9.56640625 12.9677734,9.0390625 L11.4326172,7.50390625 C11.2392578,7.31054688 10.9609375,7.3046875 10.7939453,7.515625 Z" id="形状结合" fill="#FCBD4D"></path>
                </g>
                <path d="M131.716797,91 L132.4375,88.8144531 L135.548828,88.8144531 L136.269531,91 L137.863281,91 L134.863281,82.5449219 L133.158203,82.5449219 L130.158203,91 L131.716797,91 Z M135.191406,87.6484375 L132.789062,87.6484375 L133.972656,84.0390625 L134.013672,84.0390625 L135.191406,87.6484375 Z M141.56825,91.1230469 C143.126844,91.1230469 144.199109,90.2089844 144.316297,88.8203125 L142.939344,88.8203125 C142.804578,89.5234375 142.324109,89.9453125 141.585828,89.9453125 C140.660047,89.9453125 140.062391,89.1953125 140.062391,87.8945312 C140.062391,86.6171875 140.654188,85.84375 141.574109,85.84375 C142.353406,85.84375 142.816297,86.3417969 142.933484,87.0039062 L144.310438,87.0039062 C144.210828,85.6972656 143.197156,84.6601562 141.556531,84.6601562 C139.751844,84.6601562 138.579969,85.9082031 138.579969,87.8945312 C138.579969,89.9101562 139.751844,91.1230469 141.56825,91.1230469 Z M147.868922,91.0292969 C148.179469,91.0292969 148.466578,91.0058594 148.624781,90.9707031 L148.624781,89.8574219 C148.531031,89.875 148.343531,89.8867188 148.208766,89.8867188 C147.693141,89.8867188 147.458766,89.6523438 147.458766,89.1425781 L147.458766,85.9140625 L148.630641,85.9140625 L148.630641,84.7890625 L147.458766,84.7890625 L147.458766,83.3359375 L145.999781,83.3359375 L145.999781,84.7890625 L145.109156,84.7890625 L145.109156,85.9140625 L145.999781,85.9140625 L145.999781,89.3476562 C145.999781,90.5546875 146.527125,91.0292969 147.868922,91.0292969 Z M150.794594,83.8515625 C151.239906,83.8515625 151.591469,83.4941406 151.591469,83.0605469 C151.591469,82.6210938 151.239906,82.2695312 150.794594,82.2695312 C150.349281,82.2695312 149.991859,82.6210938 149.991859,83.0605469 C149.991859,83.4941406 150.349281,83.8515625 150.794594,83.8515625 Z M151.527016,91 L151.527016,84.7890625 L150.068031,84.7890625 L150.068031,91 L151.527016,91 Z M155.911672,91.1230469 C157.733937,91.1230469 158.917531,89.9101562 158.917531,87.8945312 C158.917531,85.8847656 157.722219,84.6601562 155.911672,84.6601562 C154.101125,84.6601562 152.905812,85.890625 152.905812,87.8945312 C152.905812,89.9101562 154.089406,91.1230469 155.911672,91.1230469 Z M155.911672,89.96875 C154.985891,89.96875 154.388234,89.21875 154.388234,87.8945312 C154.388234,86.5761719 154.99175,85.8203125 155.911672,85.8203125 C156.837453,85.8203125 157.435109,86.5761719 157.435109,87.8945312 C157.435109,89.21875 156.837453,89.96875 155.911672,89.96875 Z M161.726016,91 L161.726016,87.4023438 C161.726016,86.5117188 162.259219,85.9082031 163.097109,85.9082031 C163.929141,85.9082031 164.339297,86.4003906 164.339297,87.2792969 L164.339297,91 L165.798281,91 L165.798281,86.9863281 C165.798281,85.5507812 165.018984,84.671875 163.647891,84.671875 C162.692813,84.671875 162.030703,85.1171875 161.696719,85.8554688 L161.667422,85.8554688 L161.667422,84.7890625 L160.267031,84.7890625 L160.267031,91 L161.726016,91 Z M169.807937,91.1230469 C171.331375,91.1230469 172.4095,90.3320312 172.4095,89.1601562 C172.4095,88.2578125 171.911453,87.7597656 170.622391,87.4726562 L169.591141,87.2441406 C168.94075,87.0976562 168.682937,86.8515625 168.682937,86.4941406 C168.682937,86.0371094 169.110672,85.7324219 169.755203,85.7324219 C170.429031,85.7324219 170.845047,86.0898438 170.903641,86.6523438 L172.263016,86.6523438 C172.227859,85.4746094 171.266922,84.6601562 169.755203,84.6601562 C168.255203,84.6601562 167.264969,85.4335938 167.264969,86.5703125 C167.264969,87.4902344 167.862625,88.0761719 169.052078,88.3398438 L170.083328,88.5683594 C170.733719,88.7148438 170.956375,88.9257812 170.956375,89.3007812 C170.956375,89.7636719 170.516922,90.0566406 169.807937,90.0566406 C169.069656,90.0566406 168.653641,89.7519531 168.542312,89.1484375 L167.106766,89.1484375 C167.223953,90.3496094 168.184891,91.1230469 169.807937,91.1230469 Z" id="Actions" fill="#000000" fill-rule="nonzero" opacity="0.600000024"></path>
                <g id="编组" transform="translate(289.000000, 87.000000)">
                    <path d="M50,195.5 L50.065562,197.207348 C50.1831999,200.038898 50.3160857,202.049834 50.4642194,203.240155 L50.4854851,203.404619 C50.9889303,207.147721 51.8732598,209.020725 53.1384737,209.023632 C57,207 55.4418057,202.978819 55.3457137,197.943844 L55.3240556,197.106457 C55.1822278,192.90764 54.5993616,192.897 52.6176164,192.860824 C51.2138802,192.835199 50.3413414,193.714925 50,195.5 Z" id="路径-37" fill="#272D33"></path>
                    <path d="M66.9282997,27.775487 C64.8282997,25.075487 65.2782997,22.525487 68.2782997,20.125487 C72.7782997,16.525487 76.3782997,17.875487 75.4782997,12.925487 C74.5782997,7.97548699 65.1282997,4.1 58.3782997,9.5 C51.6282997,14.9 54.7282997,21.4 53.3782997,29.5 C52.0282997,37.6 41.5595663,42.4285207 38.5782997,58.825487 C36.7782997,68.725487 43.1282997,73.25 45.3782997,84.5 C47.6282997,95.75 51.5782997,91.5 62.3782997,91.5 C69.5782997,91.5 68.5449664,82.5584957 59.2782997,64.675487 L68.7282997,33.175487 L66.9282997,27.775487 Z" id="路径-31" fill="#000000" transform="translate(56.939150, 49.586715) scale(-1, 1) translate(-56.939150, -49.586715) "></path>
                    <path d="M48.75,28.225487 C48.45,30.325487 48.75,31.675487 49.65,32.275487 C51,33.175487 53.25,34.075487 53.25,34.075487 C53.25,34.075487 52.05,36.025487 49.65,39.925487 L36.6,38.125487 C41.1,36.325487 44.2270848,33.9061013 42.45,29.125487 L48.75,28.225487 Z" id="路径-33" fill="#FFB7B7" transform="translate(44.925000, 34.075487) scale(-1, 1) translate(-44.925000, -34.075487) "></path>
                    <path d="M47.5117126,16.975487 C48.060057,20.622506 48.6084014,22.722506 49.1567457,23.275487 C48.8825735,23.5519775 48.6084014,23.8021465 48.3342292,24.0259942 L48.3342292,28.1733513 C48.006877,28.6970488 47.0472744,29.1117845 45.4554212,29.4175585 C43.8635681,29.7233324 42.0973429,29.6259753 40.1567457,29.125487 C36.3183351,23.0426965 38.7699908,18.9926965 47.5117126,16.975487 Z" id="路径-32" fill="#FFC3C3" transform="translate(43.778373, 23.283496) scale(-1, 1) translate(-43.778373, -23.283496) "></path>
                    <circle id="椭圆形" fill="#FF8585" transform="translate(45.600000, 24.175487) scale(-1, 1) translate(-45.600000, -24.175487) " cx="45.6" cy="24.175487" r="1"></circle>
                    <path d="M47.7713004,90 C62.1046338,120.149675 69.0046338,138.149675 68.4713004,144 C67.7713004,150.724513 66.7713004,150.224513 63.9713004,150.75 C61.7213004,152.1 23.2713004,149 6.77130045,138.5 C6.77130045,136.5 8.60463378,135.5 12.2713004,135.5 C31.4379671,134.866667 42.6713004,135.15 45.9713004,136.35 C49.2713004,137.55 43.1213004,125.55 27.5213004,100.35 L47.7713004,90 Z" id="路径-30" fill="#FDBDBD" transform="translate(37.635650, 120.523787) scale(-1, 1) translate(-37.635650, -120.523787) "></path>
                    <path d="M43,93 C41.3333333,102 39.7909918,108.068216 38.3729755,111.204649 C37.6635033,109.974837 36.9505967,108.743407 36.5,108 L43,93 Z" id="路径" fill="#DD9090" transform="translate(39.750000, 102.102324) scale(-1, 1) translate(-39.750000, -102.102324) "></path>
                    <path d="M59,91.224513 C56.075,121.274838 53.9270833,139.75 52.55625,146.65 C50.5,157 47.7647882,168.043665 43.5,191.5 C42.5,197 43.5,198 41,198 C39.3333333,198 38.6666667,196.666667 39,194 C38.6666667,179.666667 38.1666667,168.833333 37.5,161.5 C36.8333333,154.166667 37.6666667,147 40,140 C36.3333333,110.466667 34.5,94.8 34.5,93 C34.5,91.2 42.6666667,90.608171 59,91.224513 Z" id="路径-36" fill="#FFC3C3" transform="translate(46.750000, 144.494348) scale(-1, 1) translate(-46.750000, -144.494348) "></path>
                    <path d="M33.5,73.2829202 C36.3763301,74.4813911 49.92119,73.8047762 58,76.7829202 C57.3333333,77.7829202 57.4,80.0914159 58.2,83.7084072 C59.1649123,86.7961265 61.4315789,91.1542975 65,96.7829202 C68,100.78292 72.5,114.28292 59.5,110.78292 C46.5,107.28292 44,110.78292 37,108.78292 C30.1707317,106.831701 24.2756738,106.10631 19.0793422,103.196364 C13.8830105,100.286419 12.4450444,97.927125 12,94.7829202 C11.3422506,90.1359705 23,90.5 27.475612,80.7164497 C29.5454341,76.9693004 30.9476258,74.0638171 31.682187,72 C32.1446779,72.5301978 32.7411622,72.9667378 33.5,73.2829202 Z" id="路径" fill="#215387"></path>
                    <path d="M41.3488936,34.075487 C46.2988936,36.325487 53.4988936,43.075487 55.7488936,44.425487 C57.9988936,45.775487 62.4488936,38.5 63.9488936,32.5 L68.4488936,32.5 C70.0690663,34.5582434 72.8988936,44.974513 72.9492079,51 C72.9988936,57.025487 61.1488936,64.675487 46.2988936,57.925487 C46.2988936,61.975487 50.4488936,72 44.4488936,74.5 C41.5725635,75.6984709 26.9488936,78.5 22.9488936,76.5 C23.9488936,80 26.4488936,82 22.9488936,83.5 C20.6155603,84.5 18.7822269,84.5 17.4488936,83.5 C12.4488936,81 6.84336691,73.3382456 5.77775235,69.6865048 C4.71213779,66.034764 4.17051847,62.3744986 8.04889359,55.675487 C13.1488936,47.275487 18.6988936,41.425487 24.6988936,38.125487 C33.3988936,38.725487 38.9488936,37.375487 41.3488936,34.075487 Z" id="路径" fill="#F48D00" transform="translate(38.974447, 58.375000) scale(-1, 1) translate(-38.974447, -58.375000) "></path>
                    <path d="M26.2794784,56.5 L25.0794784,62.335487 C24.1187829,71.3494405 23.5187829,75.9042782 23.2794784,76 C23.0401739,76.0957218 23.0401739,71.7808841 23.2794784,63.055487 L26.2794784,56.5 Z M46.6794784,53.425487 C47.5820153,55.9635707 53.5328299,58.8898901 55.6794784,60.175487 C53.4294784,60.175487 48.4794784,58.825487 47.1294784,57.925487 L46.6794784,53.425487 Z" id="形状结合" fill="#D07900" transform="translate(39.389739, 64.713523) scale(-1, 1) translate(-39.389739, -64.713523) "></path>
                    <path d="M71.1702695,134.059361 C70.6257751,136.737799 70.8035279,138.527019 71.7035279,139.427019 C72.0034544,142.727019 67.9137729,151.734607 65.2137729,150.834607 C63.8637729,144.534607 68.2784,143.086924 65.1393965,137.383932 C64.8681136,136.891061 65.1582344,133.896404 65.28947,133.633932 C65.88947,132.433932 67.8497365,132.575742 71.1702695,134.059361 Z" id="路径-37备份-2" fill="#272D33" transform="translate(68.334161, 141.863260) scale(-1, 1) rotate(20.000000) translate(-68.334161, -141.863260) "></path>
                    <line x1="41.55" y1="20.125487" x2="41.55" y2="21.025487" id="路径-38" stroke="#000000" stroke-width="0.5" stroke-linecap="round" transform="translate(41.550000, 20.575487) scale(-1, 1) translate(-41.550000, -20.575487) "></line>
                    <path d="M41.1,25.525487 C40.5,25.825487 39.9,25.975487 39.3,25.975487" id="路径-39" stroke="#000000" stroke-width="0.5" stroke-linecap="round" transform="translate(40.200000, 25.750487) scale(-1, 1) translate(-40.200000, -25.750487) "></path>
                    <path d="M7.20826084,28.6574189 C7.77970571,28.3140602 8.12244968,27.9136799 8.23649276,27.4562781 C8.40755737,26.7701754 9.2053436,25.8726511 9.43578928,25.5690347 C9.66623497,25.2654182 9.86437293,25.3115156 10.121892,25.7400993 C10.379411,26.1686829 9.3511791,27.3698237 10.4658654,27.2833693 C11.5805518,27.1969148 13.2948864,26.1668387 14.3231183,24.9656979 C15.3513502,23.7645572 17.0708999,23.5422721 16.552491,24.7927891 C16.4148367,25.1248416 13.3072519,27.5118907 13.2372756,28.0717013 C13.1495251,28.5104539 13.5542496,29.5108977 13.383185,30.1970004 C12.9724167,31.844502 11.6866658,32.6170591 9.52593218,32.5146717 L7.20826084,28.6574189 Z" id="路径-40" fill="#FFBBBB" transform="translate(11.927990, 28.238795) scale(-1, 1) rotate(-59.000000) translate(-11.927990, -28.238795) "></path>
                    <path d="M10.8,29 C10.5659214,29.6912345 9.96592143,30.2912345 9,30.8" id="路径-42备份" stroke="#000000" stroke-width="0.5" stroke-linecap="round" transform="translate(9.900000, 29.900000) scale(-1, 1) rotate(-59.000000) translate(-9.900000, -29.900000) "></path>
                    <path d="M11.8,28 C11.2,28.9 10.6,29.5 10,29.8" id="路径-42备份-2" stroke="#000000" stroke-width="0.5" stroke-linecap="round" transform="translate(10.900000, 28.900000) scale(-1, 1) rotate(-59.000000) translate(-10.900000, -28.900000) "></path>
                    <path d="M60.45,83.575487 C58.4265855,85.3112013 50.5,87 50,85 C49.5,83 52.4563806,83.1986795 52.8963146,81.7282981 C52.4375624,81.4287739 52.3323696,80.9946098 52.5811659,80.425487 C53.0474672,80.1588203 53.4101459,80.0106722 53.6692022,79.9810425 C54.5564007,81.9936808 56.8166667,83.191829 60.45,83.575487 Z" id="路径" fill="#FFBBBB"></path>
                    <path d="M52.8028297,34.075487 C53.5126923,34.3981518 54.2688272,34.8133612 55.05,35.2919178 C54.2682021,36.6984182 53.7028297,38.125487 50.1028297,37.675487 C46.5028297,37.225487 45.6770286,39.4925097 44.7028297,39.925487 C40.6528297,41.725487 37.3317105,40.7180654 34.3528297,39.025487 C34.8215932,38.7314716 35.7028297,38.125487 36.1528297,38.125487 C44.8528297,38.725487 50.4028297,37.375487 52.8028297,34.075487 Z" id="路径" fill="#FFFAFB" transform="translate(44.701415, 37.476764) scale(-1, 1) translate(-44.701415, -37.476764) "></path>
                    <path d="M13.5,22.5 C13.1666667,25.1666667 13,26.6666667 13,27" id="路径-34" stroke="#000000" stroke-width="0.5" stroke-linecap="round"></path>
                    <path d="M14,20 C19.4832536,20 24,15.4854137 24,10.0047824 C24,4.52415112 19.4736842,0 14,0 C8.51674641,0 4,4.52415112 4,10.0047824 C4,15.4854137 8.51674641,20 14,20 Z M11.3014354,13.2855093 L11.3014354,6.70492587 C11.3014354,6.2458154 11.84689,6.02582496 12.2679426,6.2745098 L17.722488,9.47871832 C18.1244019,9.71783835 18.1244019,10.2917264 17.722488,10.5308465 L12.2679426,13.7254902 C11.8277512,13.9837398 11.3014354,13.7541846 11.3014354,13.2855093 Z" id="5" fill="#007CFF" fill-rule="nonzero"></path>
                    <path d="M5.14140057,11.2083208 C2.57951389,11.7167456 1,12.4129882 1,13.1809542 C1,14.7378702 7.49187113,16 15.5,16 C23.5081289,16 30,14.7378702 30,13.1809542 C30,12.372962 27.5545688,11.5139936 24.7531249,11" id="路径" stroke="#004B9A" stroke-width="0.5" transform="translate(15.500000, 13.500000) rotate(-14.000000) translate(-15.500000, -13.500000) "></path>
                    <path d="M35,121.5 L36.3217235,109.416199 L36.9079231,115.005717 C37.01123,115.977224 37.1131686,116.928349 37.2137387,117.859091 C37.2704803,118.384214 36.5325674,119.597851 35,121.5 Z" id="路径" fill="#EC9A9A"></path>
                    <path d="M51,84.75 C52.1666667,84.75 52.8333333,84.5833333 53,84.25" id="路径-46" stroke="#000000" stroke-width="0.5" stroke-linecap="round"></path>
                    <path d="M52,85.75 C53.1666667,85.75 53.8333333,85.5833333 54,85.25" id="路径-46备份" stroke="#000000" stroke-width="0.5" stroke-linecap="round"></path>
                </g>
                <g id="编组-3" transform="translate(0.000000, 141.000000)">
                    <g id="编组-2" transform="translate(84.000000, 39.000000)" fill="#FE9C9C">
                        <path d="M2.30139447,1.81346438 C7.36536672,8.73045225 12.3742422,10.8174622 17.328021,8.07449424 C21.0690992,6.00301343 24.8049102,2.64109486 27.5,9.59232693e-14 C28.5,5 28.5,6.5 29,10 C25.3965456,17.3750946 17.0714255,30.9136246 7.89646986,27.5313114 C-0.209821725,24.5429572 -2.07484686,15.9703415 2.30139447,1.81346438 Z" id="路径-6备份"></path>
                    </g>
                    <path d="M83.4194327,160.176989 C83.6506893,161.764459 83.6506893,163.097792 83.4194327,164.176989 C83.1881761,165.256187 82.6881761,166.256187 81.9194327,167.176989 C84.7711542,168.48724 87.6004052,168.40002 90.4194327,167.676989 C89.9194327,164.676989 89.0803719,161.697821 89.9194327,158.676989 L83.4194327,160.176989 Z" id="路径-13" fill="#ECA2A2" transform="translate(86.169433, 163.437209) scale(-1, 1) rotate(-25.000000) translate(-86.169433, -163.437209) "></path>
                    <path d="M88.4102057,167.505112 C89.704547,169.579843 90.9559228,170.898955 92.1643332,171.462446 L98.0553338,174.209465 C99.0294667,174.66371 100.27788,175.90219 97.7243224,178.468623 C96.0949819,180.106179 89.0162318,177.437492 79.5,173 C79.272796,172.894053 78.6100757,172.073058 77.5118389,170.537016 C78.9969086,165.659227 80.3741066,163.964586 81.6434329,165.453092 C84.9869185,167.74777 87.2425095,168.431777 88.4102057,167.505112 Z" id="路径-15" fill="#1A5781"></path>
                    <path d="M77.3256434,171.163319 C78.3840079,172.392427 78.9983916,173.046712 79.1687946,173.126172 L81.2937119,174.101072 C89.7745707,177.924903 96.2184168,179.982121 97.7243224,178.468623 C98.63644,177.551907 99.081778,176.742769 99.2264895,176.082711 C99.0016502,176.406954 98.057318,176.997321 97.6259617,177.319379 C95.8065923,178.677749 89.3189538,176.204202 79.802722,171.76671 C79.4619161,171.60779 78.8475323,170.953506 77.9595708,169.803857 C77.7983409,169.360882 77.5870318,169.814036 77.3256434,171.163319 Z" id="路径" fill="#A4C8E1"></path>
                    <line x1="90.9483555" y1="170.343737" x2="90.0725834" y2="171.038736" id="路径-17" stroke="#EF9519" stroke-linecap="round"></line>
                    <line x1="89.5583582" y1="168.592193" x2="88.6825861" y2="169.287192" id="路径-17备份" stroke="#EF9519" stroke-linecap="round"></line>
                    <path d="M7.88080039,156.986676 C8.11205696,158.574146 8.11205696,159.907479 7.88080039,160.986676 C7.64954382,162.065874 7.14954382,163.065874 6.38080039,163.986676 C9.23252193,165.296928 12.0617729,165.209707 14.8808004,164.486676 C14.3808004,161.486676 13.5417396,158.507509 14.3808004,155.486676 L7.88080039,156.986676 Z" id="路径-13" fill="#ECA2A2" transform="translate(10.630800, 160.246896) scale(-1, 1) rotate(-41.000000) translate(-10.630800, -160.246896) "></path>
                    <path d="M8.52875706,164.774856 C7.85642994,167.125985 7.01712666,168.738922 6.01084722,169.613668 C4.50142806,170.925786 1.91642452,170.172895 1.10523495,170.878051 L0.992146836,170.981768 C0.222866253,171.726457 -0.417563698,173.199828 2.5974067,174.880978 C4.6150008,176.00599 11.0370952,174.519508 18.9615458,167.630888 C19.1507453,167.466419 19.4437786,166.484561 19.8406457,164.685313 C17.0686042,160.405822 15.27765,159.156435 14.4677831,160.937152 C11.8863175,164.064528 9.90664215,165.343763 8.52875706,164.774856 Z" id="路径-15" fill="#1A5781" transform="translate(10.096130, 167.686401) scale(-1, 1) translate(-10.096130, -167.686401) "></path>
                    <path d="M19.6964763,165.236031 C19.0178994,166.709251 18.607661,167.507537 18.4657614,167.630888 L17.3947392,168.555055 C9.96658425,174.915776 4.02750758,175.954854 2.1016223,174.880978 C0.972157401,174.251187 0.321042419,173.596146 0,173.001545 C0.280044406,173.230445 1.20288007,173.507657 1.74250081,173.699144 L1.87939805,173.749142 C4.00270568,174.553405 9.55722227,173.387443 17.4816729,166.498824 C17.7654721,166.252121 18.1757105,165.453835 18.7123878,164.103967 C18.7452713,163.63371 19.0733008,164.011065 19.6964763,165.236031 Z" id="路径" fill="#A4C8E1" transform="translate(9.848238, 169.578547) scale(-1, 1) translate(-9.848238, -169.578547) "></path>
                    <line x1="12.5541917" y1="167.916467" x2="13.0541917" y2="168.916467" id="路径-17" stroke="#EF9519" stroke-linecap="round" transform="translate(12.804192, 168.416467) scale(-1, 1) rotate(-41.000000) translate(-12.804192, -168.416467) "></line>
                    <line x1="11.7008316" y1="165.849639" x2="12.2008316" y2="166.849639" id="路径-17备份" stroke="#EF9519" stroke-linecap="round" transform="translate(11.950832, 166.349639) scale(-1, 1) rotate(-41.000000) translate(-11.950832, -166.349639) "></line>
                    <path d="M121.97734,52.6368143 C117.97734,57.6368143 113.644007,58.1368143 108.97734,54.1368143 C101.97734,48.1368143 96.7025345,34.5 97.2025345,33 C97.505013,32.0925645 97.7025345,30.5 97.2025345,30 C96.7025345,29.5 96.2807539,30.8309614 96.2025345,30.5 C95.9760611,29.5417467 96.2025345,29.5 96.2025345,28 C96.2025345,27.7035799 96.7025345,26 93.7025345,27 C91.496471,28.7900114 93.6348353,33.5 94.2025345,34 C95.2221228,34.8980005 95.4773405,44.6368143 95.9773405,46.1368143 C96.4773405,47.6368143 97.9773405,74.6368143 111.97734,72.6368143 C121.310674,71.303481 128.144007,67.303481 132.47734,60.6368143 L121.97734,52.6368143 Z" id="路径-6" fill="#FFB0B0" transform="translate(112.601267, 49.715683) scale(-1, 1) translate(-112.601267, -49.715683) "></path>
                    <path d="M35.5,81.6368143 C15.5,108.878938 5.5,124.333333 5.5,128 C5.5,133.5 28.9323008,162.000255 28.9323008,162.000255 C28.9323008,162.000255 34.7656342,161.95465 46.4323008,161.863441 L26,131.5 L46.5,107 L63,128 L108.432301,165.363441 L117.932301,154.000255 C94.9774336,134.000085 83,123.333333 82,122 C81,120.666667 74.1666667,104.712271 61.5,74.1368143 L35.5,81.6368143 Z" id="路径-5" fill="#2E6298" transform="translate(61.716150, 119.750127) scale(-1, 1) translate(-61.716150, -119.750127) "></path>
                    <path d="M61.3311857,75.5874056 C62.1103952,87.5291352 67.3333333,98 77,107 L60.4323008,128 L15,165.363441 L5.5,154.000255 L17.9556283,143.120163 C32.8067433,130.106721 40.6323008,123.066667 41.4323008,122 L41.4981234,121.904284 C42.6839431,120.063416 49.2949639,104.624457 61.3311857,75.5874056 Z" id="路径" fill="#215387"></path>
                    <polygon id="路径" fill="#1B4F7A" points="17 163.863441 7.43230083 152 5 154.366062 14.5 165.729248"></polygon>
                    <polygon id="路径" fill="#1B4F7A" points="77.618 159.860513 76.5 162.363441 94.6173522 162.497327 96.1173522 159.860513"></polygon>
                    <path d="M74.4323008,22.1368143 C74.4323008,22.1368143 73.5989675,24.9701476 71.9323008,30.6368143 L79.4323008,29.1368143 L78.4323008,19.1368143 C75.7656342,21.1368143 74.4323008,22.1368143 74.4323008,22.1368143 Z" id="路径-12" fill="#FFA4A4" transform="translate(75.682301, 24.886814) scale(-1, 1) translate(-75.682301, -24.886814) "></path>
                    <g id="编组-8" transform="translate(75.500000, 13.500000) scale(-1, 1) rotate(-9.000000) translate(-75.500000, -13.500000) translate(67.000000, 2.000000)">
                        <path d="M2.37096774,7.42105263 L1.5,12.7418654 L0,15.2418654 L1.40322581,16.4210526 L1.5,22.7418654 C6.91935484,22.6332534 9.9516129,22.1052632 10.5967742,21.1578947 C11.2419355,20.2105263 12.2096774,17.6842105 13.5,13.5789474 L2.37096774,7.42105263 Z" id="路径-11" fill="#FFB0B0"></path>
                        <circle id="椭圆形" fill="#FF8585" cx="4" cy="15" r="1"></circle>
                        <path d="M2.41299313,9.10058459 C0.702853101,6.15800714 -1.24556557,3.85805585 1.04103362,1.17335547 C3.32763281,-1.5113449 6.98619151,1.06021028 7.44351135,2.45913306 C7.90083119,3.85805585 10.1874304,4.90381624 12.9313494,4.90381624 C15.6752684,4.90381624 17.9618676,10.4995074 16.5899081,13.6505153 C15.2179486,16.8015233 12.0167097,23.4429749 10.1874304,22.9766673 C8.35815103,22.5103597 7.90083119,20.7582745 8.81547086,19.3593517 C9.73011054,17.9604289 11.1020701,15.1625833 10.1874304,14.5831305 C9.2727907,14.0036777 9.2727907,15.4026005 8.35815103,15.0494381 C7.44351135,14.6962757 4.12313316,12.043162 2.41299313,9.10058459 Z" id="路径-9" fill="#634215"></path>
                        <line x1="1.5" y1="18.5" x2="3" y2="18" id="路径-28" stroke="#000000" stroke-width="0.5" stroke-linecap="round"></line>
                        <line x1="3" y1="12" x2="3" y2="13" id="路径-27" stroke="#000000" stroke-width="0.5" stroke-linecap="round"></line>
                    </g>
                    <path d="M107.932301,79 C105.315919,94.5049914 89.2032192,111.370532 75.4323008,128 L97.3646017,161.363441" id="路径-19" stroke="#1B4F7A" stroke-linecap="round" transform="translate(91.682301, 120.181720) scale(-1, 1) translate(-91.682301, -120.181720) "></path>
                    <path d="M80.0711897,81 C79.4230416,86.4761905 81.0434119,89.8095238 84.9323008,91" id="路径-21" stroke="#1B4F7A" stroke-linecap="round" transform="translate(82.432301, 86.000000) scale(-1, 1) translate(-82.432301, -86.000000) "></path>
                    <path d="M61.3203321,53.6368143 C65.3203321,42.6368143 70.8203321,35.303481 77.8203321,31.6368143 C81.1965682,29.8683097 88.7526329,28 93.2526329,29 C97.7526329,30 101.752633,39 100.252633,52 C98.7526329,65 104.820332,75.6368143 103.820332,75.6368143 C102.820332,75.6368143 85.8203321,80.9104429 81.8203321,81.6368143 C79.1536654,82.1210619 76.4869988,82.1210619 73.8203321,81.6368143 L73.8203321,59.6368143 C73.6450707,60.2532229 72.978404,61.0865562 71.8203321,62.1368143 C70.6622602,63.1870724 67.1622602,60.353739 61.3203321,53.6368143 Z" id="路径-4" fill="#5386E7" transform="translate(82.626316, 55.360092) scale(-1, 1) translate(-82.626316, -55.360092) "></path>
                    <path d="M102.972195,62.8053995 L102.970762,60.5 L102.970762,60.5 C104.252336,59.9873706 104.252813,60.7558371 102.972195,62.8053995 Z M102.455966,60.5744782 L102.404345,60.6415105 C102.066262,61.078242 101.588401,61.5766767 100.970762,62.1368143 C99.8126905,63.1870724 96.3126905,60.353739 90.4707624,53.6368143 C90.8246332,52.6636694 91.1902439,51.7192218 91.5675944,50.8034716 C97.018113,57.216622 100.647143,60.473064 102.455966,60.5744782 Z" id="形状结合" fill="#FFEDD4" transform="translate(97.201532, 56.804621) scale(-1, 1) translate(-97.201532, -56.804621) "></path>
                    <path d="M49.4323008,124 C46.7656342,126.666667 44.5989675,128 42.9323008,128" id="路径-22" stroke="#1B4F7A" stroke-linecap="round" transform="translate(46.182301, 126.000000) scale(-1, 1) translate(-46.182301, -126.000000) "></path>
                    <path d="M88.9323008,64 L88.9323008,59.5 C89.2656342,59.1666667 90.0989675,57.5 91.4323008,54.5 C91.4323008,57.5 90.5989675,60.6666667 88.9323008,64 Z" id="路径-23" fill="#3868C4" transform="translate(90.182301, 59.250000) scale(-1, 1) translate(-90.182301, -59.250000) "></path>
                    <path d="M129.9,27 C130.233333,27.952381 130.4,28.6190476 130.4,29" id="路径-26" stroke="#000000" stroke-width="0.5" stroke-linecap="round"></path>
                    <path d="M130.9,27 C131.233333,28.0285714 131.4,28.6952381 131.4,29" id="路径-26备份" stroke="#000000" stroke-width="0.5" stroke-linecap="round"></path>
                </g>
            </g>
        </g>
    </g>
</svg>