<svg xmlns="http://www.w3.org/2000/svg" width="430" height="325" xmlns:v="https://vecta.io/nano"><defs><linearGradient x1="70.1853884%" y1="12.0084503%" x2="44.5971621%" y2="91.6404399%" id="A"><stop stop-color="#ff0e0e" offset="0%"/><stop stop-color="#ffa64a" offset="100%"/></linearGradient><linearGradient x1="98.254299%" y1="0%" x2="36.7715488%" y2="66.6609784%" id="B"><stop stop-color="#fff" offset="0%"/><stop stop-color="#ffd8ae" offset="100%"/></linearGradient><linearGradient x1="36.5119503%" y1="28.6866299%" x2="50%" y2="62.5475617%" id="C"><stop stop-color="#245dec" offset="0%"/><stop stop-color="#0fabb8" offset="100%"/></linearGradient></defs><g fill="none" fill-rule="evenodd"><g fill="#fff"><circle opacity=".2" cx="38.467" cy="81.407" r="15.208"/><circle opacity=".3" cx="325.34" cy="68.962" r="60.038"/></g><path d="M208.796 16.997c89.13 0 161.383 72.254 161.383 161.383 0 55.3-27.804 104.085-70.192 133.168h-182.38c-42.39-29.082-70.192-77.878-70.192-133.168 0-89.13 72.254-161.383 161.383-161.383z" fill="url(#A)" opacity=".5"/><path d="M326.97 268.822c3.982-26.837 12.73-44.133 26.246-51.886s20.87-22.215 22.062-43.387" stroke="#fff" stroke-width="1.789" stroke-linecap="round"/><path d="M338.6 90.405c2.373 62.24-10.968 92.855.088 184.044a4.15 4.15 0 0 0-.822.824 162.3 162.3 0 0 1-37.881 36.275h-182.38c-9.403-6.452-18.09-13.873-25.913-22.12 5.038-34.14 2.573-126.396-.088-199.022 103.002 15.503 167.458 2.097 246.994 0z" fill="#fff0e5"/><g stroke="#fff" stroke-width="1.789" stroke-linecap="round"><path d="M103.79 300.58c-.895-27.44-11.182-64.03-30.863-109.766S55.93 91.9 80.978 31.3"/><path d="M77.83 270.164c.62-20.148 7.756-47.012 21.406-80.592s11.79-72.617-5.584-117.11"/></g><path d="M405.33 179.022c-3.952.333-6.55 2.787-7.792 7.365-1.17 4.305-.58 8.95 1.765 13.938-3.267 6.747-9.76 15.282-17.878 23.776 1.93-4.5 2.4-8.734 1.407-12.706-1.2-4.76-4.175-7.255-8.957-7.485-3.48 2.284-4.623 5.807-3.433 10.567 1.13 4.516 4.086 8.448 8.87 11.795-5.052 5.107-10.646 10.143-16.432 14.707 3.36-2.88 5.574-6.17 6.642-9.868 1.458-5.054.043-8.96-4.247-11.717-4.437.27-7.385 2.934-8.843 7.988s-.694 10.586 2.294 16.596c.654-.402 1.28-.814 1.88-1.235-2.702 2.055-5.436 3.998-8.165 5.788l-.636.414c-2.166 1.402-4.257 2.91-6.274 4.522 3.51-3.85 5.538-7.98 6.084-12.385.71-5.74-1.563-9.747-6.822-12.023-4.88 1.042-7.673 4.433-8.385 10.173s1.132 11.625 5.53 17.655l-.16-.22c-2.675 2.43-5.206 5.064-7.594 7.902.755-1.87 1.254-3.79 1.498-5.757.787-6.35-1.59-10.764-7.132-13.248-5.16 1.18-8.133 4.946-8.92 11.295s1.124 12.842 5.733 19.48c.333-.292.658-.585.975-.88-3.4 5.502-6.4 11.565-9.01 18.187l-.283.726 1.592.6c2.695-6.963 5.823-13.3 9.384-19 4.394 4.89 9.302 7.856 14.722 8.902 6.306 1.217 10.82-.436 13.543-4.957-.66-6.015-4.142-9.632-10.448-10.848-4.563-.88-9.303-.364-14.218 1.55 3.478-4.804 7.31-9.095 11.5-12.875 4.79 6.012 10.224 9.604 16.306 10.778 6.306 1.217 10.82-.436 13.543-4.957-.66-6.015-4.142-9.632-10.448-10.848-5.26-1.015-10.757-.173-16.486 2.528 1.98-1.613 4.03-3.12 6.158-4.523l.54-.352a143.22 143.22 0 0 0 8.309-5.824c3.697 6.073 8.264 9.987 13.7 11.743 5.69 1.838 10.065.783 13.122-3.166.105-5.724-2.688-9.505-8.38-11.343-4.76-1.537-9.96-1.346-15.6.574 4.325-3.407 8.544-7.077 12.516-10.847 3.837 5.354 8.333 8.67 13.488 9.946 5.465 1.353 9.504.07 12.117-3.852-.274-5.398-3.144-8.774-8.61-10.127-4.5-1.112-9.27-.625-14.34 1.46 5.114-5.05 9.737-10.216 13.54-15.12 3.307 4.036 6.998 6.374 11.07 7.014 4.346.683 7.417-.683 9.212-4.097-.548-4.398-2.996-6.94-7.342-7.622-3.593-.565-7.315.22-11.165 2.35 2.947-4.014 5.285-7.803 6.82-11.15 4.246-3.08 6.93-6.685 8.052-10.817 1.243-4.577-.063-8.064-3.917-10.46zm-18.142 12c-2.927 1.95-3.866 4.99-2.818 9.125s3.812 7.722 8.29 10.766c2.5-4.754 3.227-9.197 2.18-13.33s-3.6-6.32-7.65-6.56z" fill="#0d9575"/><g fill="#031a42"><path d="M138.166 167.45l5.926-27.567c2.32.515 4.552.945 6.656.945 3.435 0 5.282-1.718 5.367-5.453-1.16.472-3.006.902-4.98.902-4.208 0-5.797-.988-10.993-.988-10.606 0-14.643 5.453-14.643 11.164 0 3.092 1.632 4.165 4.595 4.165-.043-.386-.6-.73-.6-2.92 0-6.913 3.52-8.674 8.073-8.674h.515l-6.097 28.426h6.183zm24.962.258c2.32 0 6.183-.945 8.63-7.944h-1.803c-.644 2.147-1.803 4.036-3.478 4.036-1.202 0-1.76-.644-1.76-1.846a5.96 5.96 0 0 1 .172-1.374l3.092-14.6h-6.183l-.472 2.276v-.3c0-1.245-1.03-2.2-3.478-2.2-7.472 0-11.036 9.232-11.036 15.03 0 5.1 2.79 6.913 5.71 6.913 3.05 0 5.067-1.975 6.398-3.95.258 2.576 1.803 3.95 4.208 3.95zm-7.815-4.165c-.773 0-2.147-.043-2.147-3.35 0-4.036 2.362-11.766 6.012-11.766 1.374 0 1.76 1.116 1.76 1.632l-2.06 9.704c-.515 2.49-2.32 3.78-3.564 3.78zm23.288-19.88c1.89 0 3.435-1.503 3.435-3.392s-1.546-3.435-3.435-3.435-3.392 1.546-3.392 3.435a3.37 3.37 0 0 0 3.392 3.392zm-2.92 24.046c2.32 0 6.57-.945 9.017-7.944h-1.803c-.644 2.147-2.2 3.78-3.865 3.78-1.202 0-1.76-.386-1.76-1.59a5.96 5.96 0 0 1 .172-1.374l3.092-14.6h-6.183l-2.92 13.784c-.215 1.03-.344 1.975-.344 2.79 0 3.607 2.018 5.153 4.595 5.153zm14.957-.086c5.4 0 9.704-5.196 10.22-13.44 2.276-1.245 3.564-3.908 4.423-5.754h-1.374c-.472.816-1.546 2.662-3.05 2.963-.258-3.822-2.06-5.797-5.453-5.797-8.846 0-11.637 10.306-11.637 15.244 0 4.895 2.877 6.785 6.87 6.785zm1.718-3.865c-1.632 0-2.2-.644-2.2-3.478 0-4.208 2.533-12.066 5.582-12.066 1.073 0 1.546.644 1.632 2.448-.73.344-1.202 1.073-1.202 2.233 0 1.073.344 1.675 1.03 1.932-.644 5.067-2.748 8.932-4.852 8.932z" fill-rule="nonzero"/><path d="M202.175 243.524a5.37 5.37 0 0 1 5.367 5.367 5.37 5.37 0 0 1-5.367 5.367H130.61a5.37 5.37 0 0 1-5.367-5.367 5.37 5.37 0 0 1 5.367-5.367h71.567zm93.93-26.837a5.37 5.37 0 0 1 5.367 5.367 5.37 5.37 0 0 1-5.367 5.367H130.61a5.37 5.37 0 0 1-5.367-5.367 5.37 5.37 0 0 1 5.367-5.367h165.498zm-31.3-26.837a5.37 5.37 0 0 1 5.367 5.367 5.37 5.37 0 0 1-5.367 5.367H130.61a5.37 5.37 0 0 1-5.367-5.367 5.37 5.37 0 0 1 5.367-5.367h134.187z" opacity=".2"/></g><path d="M22.1 207.28c-6.858-11.63-6.4-26.93 1.407-45.9l6.817 21.864c-6.26-24.83 9.845-49.803 26.25-78.122l16.447 22.14-3.48-35.107c25.304-19.142 44.413-30.477 57.33-34.006C178.16 44.133 209.62 24.75 221.25 0c8.05 32.8 3.578 68.137-13.42 106.008-33.2 73.06-119.975 60.282-125.638 67.115 6.326 5.06 18.344 6.537 36.056 4.428-40.928 30.737-72.978 40.648-96.15 29.73z" fill="url(#B)" transform="translate(204.29)"/><path d="M337.44 112.293c.717-.198 1.523.17 1.8.825s-.073 1.286-.797 1.542c-41.145 14.594-84.647 53.276-115.873 122.25-.927 2.048-17.883 18.318-17.628 17.684 28.793-71.49 84.84-129.137 132.497-142.3z" fill="#1b1b1b" fill-rule="nonzero"/><g fill="#fff"><circle cx="81.854" cy="31.758" r="8.499"/><circle cx="96.168" cy="76.487" r="7.604"/><circle cx="375.318" cy="178.51" r="6.099"/><circle cx="63.068" cy="160.578" r="4.92"/><path d="M15.175 162.105c-.882 3.487.46 6.44 4.02 8.858 3.183 2.16 7.098 3.052 11.747 2.675 1.814 1.794 3.708 4.043 5.627 6.647-2.696-2.215-5.55-3.45-8.56-3.7-3.858-.322-6.49 1.22-7.892 4.623.81 3.086 3.143 4.79 7 5.113 3.698.31 7.43-.88 11.2-3.57 2.462 3.588 4.935 7.708 7.3 12.156-2.94-2.345-6.04-3.66-9.3-3.944-4.438-.386-7.462 1.437-9.072 5.47.934 3.658 3.62 5.68 8.057 6.067 4.055.353 8.146-.908 12.272-3.784a165.97 165.97 0 0 1 6.264 14.222c-1.243-1.9-2.752-3.488-4.527-4.734-3.908-2.744-7.68-2.684-11.314.18-1.078 3.885.337 7.2 4.245 9.944 3.803 2.67 8.615 3.67 14.438 2.997l.106-.013a126.77 126.77 0 0 1 1.947 6.735l.17.668a69.79 69.79 0 0 0 1.396 4.807c-2.09-3.183-4.664-5.52-7.718-7.014-4.718-2.306-8.83-1.54-12.337 2.298-.547 4.492 1.54 7.9 6.257 10.196 4.56 2.23 9.944 2.45 16.148.666 5.036 11.536 13.287 22.157 24.745 31.858l.544.458.99-1.186c-11.63-9.733-19.945-20.382-24.952-31.95l-.342.117c6.96-2.32 11.895-6.004 14.802-11.052s2.822-9.408-.255-13.08c-5.36-1.212-9.492.706-12.4 5.754-2.682 4.656-3.5 10.228-2.45 16.717-1.112-2.75-2.04-5.55-2.784-8.4l-.145-.567c-.73-2.893-1.59-5.838-2.563-8.792l.57-.12c6.267-1.383 10.95-4.137 14.05-8.262 3.26-4.337 3.645-8.4 1.158-12.188-4.883-1.782-8.954-.504-12.213 3.833-3 3.99-4.36 9.056-4.08 15.197-1.778-5.212-3.885-10.432-6.188-15.432 6.008-1.686 10.36-4.614 13.06-8.783 2.776-4.286 2.867-8.13.273-11.53-4.715-1.36-8.46.104-11.238 4.4-2.52 3.892-3.47 8.664-2.847 14.316-3.023-6.388-6.35-12.37-9.7-17.455l-.327.11c4.933-1.636 8.334-4.216 10.205-7.74s1.605-6.562-.796-9.11c-3.938-.83-6.842.52-8.712 4.044-1.746 3.29-2.064 7.23-.955 11.82-2.56-3.807-5.125-7.074-7.567-9.582-1.342-5.117-3.75-8.855-7.223-11.212-3.563-2.418-6.942-2.33-10.137.268z"/><circle opacity=".2" cx="253.167" cy="62.621" r="6.262"/><circle opacity=".2" cx="144.475" cy="55.017" r="4.92"/></g><path d="M125.755 311.547c-27.096-43.934-50.344-68.4-94.892-72.998-12.822-1.49-23.1-4.473-30.863-8.946 1.112 20.834 8.684 33.68 22.717 38.538 21.05 7.287 30.83 10.953 52.736 15.82s15.415 10.953 42.19 27.585c3.977-.006 2.435-.043 8.113 0z" fill="#1d6ab9"/><path d="M18.3 198.782c4.164-.16 7.188 2.078 9.07 6.715 1.675 4.124 1.75 8.77.222 13.94 1.57 2.525 3.67 5.268 6.19 8.135-1.884-3.622-2.605-7.186-2.163-10.7.564-4.467 2.944-7.086 7.14-7.86 3.303 1.666 4.672 4.733 4.108 9.2-.542 4.288-2.796 8.253-6.764 11.895 3.48 3.7 7.588 7.55 12.107 11.36-2-3.96-2.767-7.848-2.298-11.667.63-5.14 3.426-8.14 8.384-8.996 3.92 1.946 5.566 5.5 4.934 10.63-.58 4.715-3 9.078-7.293 13.09a191.96 191.96 0 0 0 14.958 10.813c-2.013-1.95-3.538-4.146-4.575-6.59-2.168-5.11-1.192-9.384 2.93-12.825 4.663-.287 8.078 2.124 10.247 7.233s2.08 11.004-.267 17.686l.114-.33c2.486 1.425 4.98 2.765 7.457 4l.715.354a80.74 80.74 0 0 1 5.062 2.714c-3.224-3.204-5.324-6.766-6.302-10.687-1.477-5.923.382-10.416 5.576-13.477 5.222.464 8.57 3.658 10.048 9.58 1.43 5.736.38 11.923-3.153 18.56a85.51 85.51 0 0 1 8.124 6.561 24.02 24.02 0 0 1-1.708-4.698c-1.634-6.552.28-11.485 5.742-14.8 5.533.574 9.116 4.137 10.75 10.688s.472 13.602-3.485 21.152l.006-.012a111.62 111.62 0 0 1 3.837 5.277c-.1-1.3-.094-2.505.04-3.596.823-6.702 4.378-10.622 10.665-11.76 4.96 2.52 7.028 7.13 6.206 13.83-.693 5.64-3.298 11.467-7.934 16.415l-.008.01c-.288.307-.583.61-.887.9h0-2.367c-5.274.406-16.632-.81-18.66-.81-3.942-3.255-3.17-8.497-2.415-9.068 2.512-1.904 5.776-2.355 9.79-1.354 2.51.626 4.882 1.677 7.112 3.152-.356-1.174-.664-2.36-.913-3.53a110.86 110.86 0 0 0-7.052-9.869c-4.005 5.886-8.824 9.744-14.457 11.574-6.422 2.087-11.342.936-14.76-3.452-.083-6.39 3.087-10.626 9.508-12.713 4.865-1.58 10.127-1.58 15.787-.002-4.39-4.833-9.115-9.032-14.17-12.598l.23-.4c-4.306 7.356-9.67 12.078-16.09 14.164s-11.342.936-14.76-3.452c-.083-6.39 3.087-10.626 9.508-12.713 5.87-1.908 12.322-1.514 19.35 1.182-2.71-1.805-5.51-3.433-8.402-4.885l-.607-.3c-3.202-1.573-6.432-3.32-9.644-5.202-3.094 7.085-7.423 11.926-12.987 14.52-5.7 2.658-10.398 2.115-14.092-1.63-.843-5.985 1.586-10.307 7.287-12.965 5.172-2.412 11.144-2.76 17.916-1.042-5.395-3.253-10.714-6.863-15.74-10.634-3.354 6.392-7.71 10.616-13.07 12.672-5.527 2.12-9.904 1.296-13.132-2.477-.405-5.692 2.156-9.6 7.682-11.72 4.967-1.907 10.54-1.853 16.722.16C47.208 243.2 41.29 238 36.395 233l.22-.372c-3.042 5.215-6.786 8.46-11.232 9.735s-7.824.24-10.134-3.108c.01-4.68 2.236-7.657 6.682-8.93 4.13-1.184 8.65-.605 13.555 1.737-3.654-3.814-6.686-7.494-8.88-10.845-5.524-2.77-9.21-6.427-11.054-10.97-1.883-4.637-.967-8.46 2.746-11.465z" fill="#ff9400"/><g transform="translate(236.906 264.491)"><path d="M20.788 6.313h-1.893a2.37 2.37 0 0 1-2.367-2.367V3A2.37 2.37 0 0 1 18.895.632h52.078A2.37 2.37 0 0 1 73.341 3v.947a2.37 2.37 0 0 1-2.367 2.367H69.08v7.102h9.22c6.275 0 11.363 5.087 11.363 11.363v25.74c0 4.707-3.815 8.522-8.522 8.522H8.727c-4.707 0-8.522-3.815-8.522-8.522v-25.74c0-6.275 5.087-11.363 11.363-11.363h9.22l-.001-7.102z" fill="url(#C)" opacity=".95"/><path d="M.205 38.972h89.458v12.054c0 4.707-3.815 8.522-8.522 8.522H8.727c-4.707 0-8.522-3.815-8.522-8.522V38.972z" fill="#02133c" opacity=".95"/><rect fill="#fff" opacity=".9" x="19.369" y="23.357" width="52.552" height="24.145" rx="1.42"/></g></g></svg>