<?xml version="1.0" encoding="UTF-8"?>
<svg width="430px" height="325px" viewBox="0 0 430 325" version="1.1" xmlns="http://www.w3.org/2000/svg" xmlns:xlink="http://www.w3.org/1999/xlink">
    <!-- Generator: Sketch 60.1 (88133) - https://sketch.com -->
    <title>banner</title>
    <desc>Created with Sketch.</desc>
    <defs>
        <linearGradient x1="70.1853884%" y1="12.0084503%" x2="44.5971621%" y2="91.6404399%" id="linearGradient-1">
            <stop stop-color="#FF0E0E" offset="0%"></stop>
            <stop stop-color="#FFA64A" offset="100%"></stop>
        </linearGradient>
        <linearGradient x1="98.254299%" y1="0%" x2="36.7715488%" y2="66.6609784%" id="linearGradient-2">
            <stop stop-color="#FFFFFF" offset="0%"></stop>
            <stop stop-color="#FFD8AE" offset="100%"></stop>
        </linearGradient>
        <linearGradient x1="36.5119503%" y1="28.6866299%" x2="50%" y2="62.5475617%" id="linearGradient-3">
            <stop stop-color="#245DEC" offset="0%"></stop>
            <stop stop-color="#0FABB8" offset="100%"></stop>
        </linearGradient>
    </defs>
    <g id="页面-1" stroke="none" stroke-width="1" fill="none" fill-rule="evenodd">
        <g id="banner备份">
            <circle id="椭圆形备份-19" fill="#FFFFFF" opacity="0.200000003" cx="38.4670599" cy="81.4070338" r="15.2079074"></circle>
            <circle id="椭圆形备份-21" fill="#FFFFFF" opacity="0.300000012" cx="325.339623" cy="68.9622642" r="60.0377358"></circle>
            <path d="M208.795623,16.997073 C297.924847,16.997073 370.178358,89.2505847 370.178358,178.379808 C370.178358,233.669403 342.374471,282.465051 299.985907,311.547543 L117.605339,311.547543 C75.2167752,282.465051 47.4128878,233.669403 47.4128878,178.379808 C47.4128878,89.2505847 119.666399,16.997073 208.795623,16.997073 Z" id="路径" fill="url(#linearGradient-1)" opacity="0.5"></path>
            <path d="M326.970009,268.822128 C330.952194,241.984644 339.700791,224.689377 353.215801,216.936326 C366.73081,209.183276 374.084703,194.720854 375.27748,173.549061" id="路径-47备份" stroke="#FFFFFF" stroke-width="1.78916558" stroke-linecap="round"></path>
            <path d="M338.599586,90.4051425 C340.972161,152.644456 327.631893,183.259685 338.6879,274.449056 C338.378263,274.682428 338.103613,274.956812 337.865712,275.273211 C327.302328,289.322141 314.498559,301.590659 299.985012,311.548157 L117.60617,311.548157 C108.202688,305.096537 99.5169508,297.674821 91.6932766,289.427284 C96.731217,255.286698 94.2665312,163.030847 91.6052776,90.4051425 C194.607558,105.908275 259.063646,92.5017645 338.599586,90.4051425 Z" id="路径" fill="#FFF0E5"></path>
            <path d="M103.789495,300.579817 C102.894912,273.138348 92.6072103,236.549722 72.926389,190.813939 C53.2455676,145.078157 55.929316,91.9103095 80.9776341,31.3103976" id="路径-47" stroke="#FFFFFF" stroke-width="1.78916558" stroke-linecap="round"></path>
            <path d="M108.244517,270.164002 C107.62404,250.015947 100.488547,223.151872 86.8380383,189.57178 C73.1875298,155.991687 75.0489628,116.954829 92.4223372,72.4612059" id="路径-47" stroke="#FFFFFF" stroke-width="1.78916558" stroke-linecap="round" transform="translate(93.036610, 171.312604) scale(-1, 1) translate(-93.036610, -171.312604) "></path>
            <path d="M313.899925,184.613734 C317.862602,184.462183 320.739724,186.582294 322.531291,190.974066 C324.21618,195.104336 324.198518,199.787413 322.478303,205.0233 C326.542951,211.322307 334.027023,219.002262 343.120231,226.443645 C340.655571,222.213504 339.674209,218.066976 340.175436,214.003811 C340.776131,209.134346 343.435587,206.294167 348.153804,205.483273 C351.884837,207.326772 353.450008,210.683254 352.849316,215.552719 C352.279427,220.172459 349.823695,224.43526 345.48212,228.341121 C351.118808,232.794707 357.285317,237.111224 363.584074,240.936293 C359.897882,238.487574 357.299413,235.492622 355.789031,231.95099 C353.725569,227.112382 354.654552,223.063193 358.575979,219.803424 C363.012935,219.531797 366.263159,221.815281 368.326651,226.653876 C370.390111,231.492484 370.305327,237.076395 368.072298,243.405608 C367.373793,243.086559 366.701698,242.75424 366.056013,242.408653 C368.988734,244.118843 371.938381,245.713976 374.865875,247.158276 L375.5477,247.492119 C377.867973,248.619517 380.127438,249.860784 382.326084,251.215843 C378.37222,247.822324 375.856561,243.971768 374.777687,239.66482 C373.372329,234.05446 375.140962,229.799588 380.083587,226.900203 C385.052768,227.339808 388.240046,230.364789 389.645419,235.975146 C391.050777,241.585506 389.938238,247.651328 386.307802,254.172613 L386.438811,253.933364 C389.38985,256.019204 392.223192,258.325141 394.93881,260.850973 C393.961317,259.087272 393.232332,257.242934 392.75046,255.319266 C391.196049,249.113867 393.017489,244.441167 398.21478,241.301166 C403.479951,241.844734 406.889751,245.219215 408.444179,251.424609 C409.99859,257.630007 408.893204,264.308116 405.128019,271.458937 C404.762162,271.210141 404.403978,270.958882 404.053468,270.705159 C408.097585,275.751866 411.816443,281.403801 415.211391,287.658791 L415.581035,288.344614 L414.07363,289.133981 C410.550419,282.55134 406.673447,276.64338 402.442574,271.408989 C398.676736,276.796634 394.167731,280.339537 388.914839,282.038368 C382.804016,284.014631 378.121982,282.924626 374.868737,278.768354 C374.789927,272.717384 377.805929,268.703755 383.916744,266.727466 C388.338652,265.297403 393.105788,265.232944 398.218151,266.534089 C394.181001,262.189679 389.852861,258.397562 385.234503,255.156414 C381.214106,261.707569 376.257031,265.934802 370.363581,267.840795 C364.252758,269.817058 359.570724,268.727053 356.317479,264.570781 C356.238669,258.519812 359.254671,254.506182 365.365486,252.529893 C370.463725,250.881102 376.020873,251.0476 382.036929,253.029386 C379.876586,251.66956 377.655291,250.423004 375.373909,249.290374 L374.795686,249.00637 C371.821649,247.561314 368.82261,245.959998 365.838647,244.238118 C362.909178,250.716403 358.853113,255.158148 353.671548,257.56312 C348.247099,260.080775 343.77726,259.566427 340.262032,256.020075 C339.460112,250.351398 341.771368,246.258212 347.195799,243.740518 C351.733217,241.63456 356.917911,241.19059 362.749879,242.408608 C358.04231,239.554033 353.407434,236.425997 349.005133,233.168166 C345.849054,238.949871 341.790562,242.788448 336.830025,244.683766 C331.571034,246.693082 327.405541,245.910921 324.333547,242.337281 C323.948104,236.945945 326.384873,233.245604 331.643853,231.236258 C335.965162,229.585203 340.769141,229.485973 346.055787,230.93857 C340.364507,226.548221 335.146463,221.98512 330.77498,217.582714 C327.984204,221.991536 324.606279,224.761759 320.641963,225.89322 C316.411556,227.100612 313.19721,226.119504 310.998925,222.949897 C311.00722,218.517674 313.126568,215.69786 317.356971,214.490455 C320.854391,213.492263 324.643827,213.816469 328.725279,215.463074 C325.311111,211.838416 322.529134,208.361792 320.597188,205.228421 C316.00794,202.690238 312.904508,199.438229 311.287053,195.473266 C309.495487,191.081493 310.366444,187.461649 313.899925,184.613734 Z M333.369426,194.313502 C336.512331,195.891869 337.815378,198.796323 337.278567,203.026863 C336.741756,207.257403 334.436175,211.155997 330.361823,214.722644 C327.300056,210.309244 326.037577,205.987274 326.574388,201.756734 C327.111199,197.526194 329.376211,195.045117 333.369426,194.313502 Z" id="形状结合备份" fill="#0D9575" transform="translate(362.981976, 236.870066) scale(-1, 1) rotate(7.000000) translate(-362.981976, -236.870066) "></path>
            <g id="编组-4" transform="translate(125.240264, 134.894178)" fill="#031A42">
                <path d="M12.9262588,32.5554555 L18.8519752,4.98799225 C21.1707338,5.50327194 23.4036124,5.93267168 25.5076711,5.93267168 C28.942869,5.93267168 30.7892879,4.21507272 30.8751679,0.479294997 C29.7157886,0.95163471 27.8693697,1.38103445 25.8941309,1.38103445 C21.6860135,1.38103445 20.0972344,0.393415049 14.9014976,0.393415049 C4.29532403,0.393415049 0.258966488,5.84679173 0.258966488,11.5578083 C0.258966488,14.6494864 1.8906855,15.7229857 4.85354369,15.7229857 C4.81060372,15.336526 4.25238406,14.9930062 4.25238406,12.8030675 C4.25238406,5.88973171 7.77346192,4.12919278 12.3250991,4.12919278 L12.8403788,4.12919278 L6.74290254,32.5554555 L12.9262588,32.5554555 Z M37.8886969,32.8130953 C40.2074555,32.8130953 44.0720532,31.8684159 46.5196317,24.8692002 L44.7161528,24.8692002 C44.0720532,27.0161989 42.9126739,28.9055577 41.2380149,28.9055577 C40.0356956,28.9055577 39.477476,28.2614581 39.477476,27.0591388 C39.477476,26.6726791 39.5204159,26.2432793 39.6492359,25.6850597 L42.740914,11.0854685 L36.5575577,11.0854685 L36.085218,13.3612872 L36.085218,13.0607073 C36.085218,11.8154481 35.0546587,10.8707687 32.6070801,10.8707687 C25.1355247,10.8707687 21.5715069,20.1028631 21.5715069,25.8997595 C21.5715069,31.0096164 24.3626052,32.8130953 27.2825234,32.8130953 C30.3312615,32.8130953 32.3494403,30.8378565 33.6805795,28.8626177 C33.9382193,31.4390162 35.4840584,32.8130953 37.8886969,32.8130953 Z M30.0736217,28.6479179 C29.3007022,28.6479179 27.926623,28.6049779 27.926623,25.2985999 C27.926623,21.2622424 30.2883216,13.5330471 33.9382193,13.5330471 C35.3122985,13.5330471 35.6987583,14.6494864 35.6987583,15.1647661 L33.6376395,24.8692002 C33.1223598,27.3597186 31.3188809,28.6479179 30.0736217,28.6479179 Z M53.3614009,8.76670996 C55.2507597,8.76670996 56.7965988,7.26381087 56.7965988,5.37445202 C56.7965988,3.48509317 55.2507597,1.93925411 53.3614009,1.93925411 C51.472042,1.93925411 49.9691429,3.48509317 49.9691429,5.37445202 C49.9691429,7.26381087 51.472042,8.76670996 53.3614009,8.76670996 Z M50.4414826,32.8130953 C52.7602412,32.8130953 57.0112986,31.8684159 59.4588772,24.8692002 L57.6553982,24.8692002 C57.0112986,27.0161989 55.4654596,28.6479179 53.7908006,28.6479179 C52.5884813,28.6479179 52.0302617,28.2614581 52.0302617,27.0591388 C52.0302617,26.6726791 52.0732016,26.2432793 52.2020216,25.6850597 L55.2936997,11.0854685 L49.1103434,11.0854685 L46.1904252,24.8692002 C45.9757254,25.8997595 45.8469054,26.844439 45.8469054,27.6602985 C45.8469054,31.2672563 47.8650842,32.8130953 50.4414826,32.8130953 Z M65.3989069,32.7272154 C70.8093436,32.7272154 75.103341,27.5314785 75.6186207,19.2870036 C77.8944393,18.0417443 79.1826385,15.3794659 80.041438,13.5330471 L78.6673588,13.5330471 C78.1950191,14.3489066 77.1215197,16.1953254 75.6186207,16.4959053 C75.3609808,12.6742476 73.5575019,10.6990088 70.165244,10.6990088 C61.3196094,10.6990088 58.5285111,21.0046025 58.5285111,25.9426995 C58.5285111,30.8378565 61.4054893,32.7272154 65.3989069,32.7272154 Z M67.1165058,28.8626177 C65.4847868,28.8626177 64.9265672,28.2185181 64.9265672,25.3844798 C64.9265672,21.1763624 67.4600256,13.3183472 70.5087638,13.3183472 C71.5822631,13.3183472 72.0546028,13.9624468 72.1404828,15.7659257 C71.4105032,16.1094455 70.9381635,16.839425 70.9381635,17.9988043 C70.9381635,19.0723037 71.2816833,19.6734633 71.9687229,19.9311032 C71.3246233,24.9980201 69.2205645,28.8626177 67.1165058,28.8626177 Z" id="Taio" fill-rule="nonzero"></path>
                <path d="M76.9354465,108.629846 C79.8998331,108.629846 82.3029433,111.032957 82.3029433,113.997343 C82.3029433,116.96173 79.8998331,119.36484 76.9354465,119.36484 L5.36882338,119.36484 C2.40443679,119.36484 0.00132664502,116.96173 0.00132664502,113.997343 C0.00132664502,111.032957 2.40443679,108.629846 5.36882338,108.629846 L76.9354465,108.629846 Z M170.866639,81.7923628 C173.831026,81.7923628 176.234136,84.1954729 176.234136,87.1598595 C176.234136,90.1242461 173.831026,92.5273562 170.866639,92.5273562 L5.36882338,92.5273562 C2.40443679,92.5273562 0.00132664502,90.1242461 0.00132664502,87.1598595 C0.00132664502,84.1954729 2.40443679,81.7923628 5.36882338,81.7923628 L170.866639,81.7923628 Z M139.556242,54.9548791 C142.520628,54.9548791 144.923738,57.3579892 144.923738,60.3223758 C144.923738,63.2867624 142.520628,65.6898726 139.556242,65.6898726 L5.36882338,65.6898726 C2.40443679,65.6898726 0.00132664502,63.2867624 0.00132664502,60.3223758 C0.00132664502,57.3579892 2.40443679,54.9548791 5.36882338,54.9548791 L139.556242,54.9548791 Z" id="形状结合" opacity="0.200000003"></path>
            </g>
            <g id="编组-5" transform="translate(204.290179, 0.000000)">
                <path d="M22.0987813,207.281167 C15.2403132,195.651591 15.7092477,180.351227 23.5055847,161.380076 L30.3221335,183.243676 C24.0630701,158.413425 40.1675742,133.440733 56.5736041,105.12183 L73.0203086,127.261624 L69.541198,92.1542361 C94.8448158,73.012685 113.954588,61.6772334 126.870515,58.1478813 C178.159928,44.1327509 209.619423,24.7501238 221.248999,0 C229.300244,32.8013689 224.82733,68.1373891 207.830257,106.008061 C174.620566,179.069382 87.8557306,166.289885 82.1925091,173.122627 C88.5181647,178.183152 100.53691,179.659138 118.248746,177.550586 C77.3205286,208.28802 45.2705404,218.198214 22.0987813,207.281167 Z" id="路径-16" fill="url(#linearGradient-2)"></path>
                <path d="M133.150522,112.292661 C133.867791,112.094533 134.67382,112.463804 134.95084,113.117451 C135.22786,113.771098 134.877541,114.40298 134.153699,114.659725 C93.0083238,129.253886 49.5066714,167.935394 18.2809838,236.90955 C17.3538516,238.957484 0.39832197,255.227422 0.653455962,254.593955 C29.4461314,183.105152 85.4939627,125.456612 133.150522,112.292661 Z" id="路径" fill="#1B1B1B" fill-rule="nonzero"></path>
            </g>
            <circle id="椭圆形" fill="#FFFFFF" cx="81.8543252" cy="31.757689" r="8.4985365"></circle>
            <circle id="椭圆形备份-2" fill="#FFFFFF" cx="96.1676498" cy="76.4868285" r="7.60395371"></circle>
            <circle id="椭圆形备份-17" fill="#FFFFFF" cx="375.318143" cy="178.509929" r="6.09942811"></circle>
            <circle id="椭圆形备份" fill="#FFFFFF" cx="63.0680866" cy="160.577611" r="4.92020534"></circle>
            <path d="M15.1748012,162.105361 C14.292946,165.592329 15.6333171,168.545059 19.1959146,170.963551 C22.3787028,173.124208 26.2942678,174.015983 30.9426094,173.638876 C32.7565409,175.432958 34.6508953,177.681754 36.5695127,180.286295 C33.8734868,178.071214 31.0202181,176.837514 28.0098423,176.585991 C24.1513672,176.263608 21.5207383,177.804694 20.1179557,181.209251 C20.9270714,184.295508 23.2608668,185.999829 27.1193419,186.322212 C30.8172639,186.631182 34.5507642,185.441263 38.3198427,182.752458 C40.7815962,186.340196 43.2545917,190.460638 45.6204949,194.908055 C42.6804838,192.562626 39.5808149,191.248109 36.3219636,190.964427 C31.8839968,190.578105 28.8600589,192.40134 27.2501499,196.434134 C28.1838294,200.092212 30.8696525,202.114413 35.3076192,202.500738 C39.3625194,202.853714 43.4532355,201.592402 47.5797674,198.716802 C49.8415638,203.260167 51.9672369,208.066061 53.8437105,212.938422 C52.6005371,211.028415 51.0916763,209.450489 49.3169655,208.20439 C45.4087984,205.460323 41.6374343,205.520096 38.002873,208.383709 C36.9249385,212.268776 38.3400497,215.58335 42.2482065,218.327432 C46.0507478,220.997335 50.8634183,221.996192 56.6862179,221.324006 L56.7924415,221.310782 C57.5123245,223.571967 58.1649633,225.823523 58.7391319,228.046094 L58.9095594,228.714128 C59.3172816,230.332833 59.7825883,231.935168 60.3054557,233.521124 C58.2146177,230.337827 55.6413168,227.999659 52.5870385,226.506787 C47.869356,224.200884 43.7569813,224.966745 40.2499144,228.804368 C39.7032791,233.295875 41.788801,236.694584 46.5064799,239.000494 C51.0673202,241.229735 56.4499841,241.451585 62.6544715,239.666044 C67.6902653,251.201938 75.9419117,261.822794 87.3995102,271.524007 L87.9439254,271.982255 L88.9347822,270.796039 C77.3034507,261.063057 68.989686,250.413918 63.9828111,238.844907 L63.6408432,238.961733 C70.6015473,236.641964 75.5356642,232.957945 78.4431941,227.909675 C81.3507105,222.861397 81.2655641,218.50186 78.187755,214.831064 C72.8286022,213.618864 68.6952612,215.536899 65.7877318,220.585169 C63.1061695,225.241125 62.2890519,230.813398 63.3363792,237.301986 C62.2247537,234.553373 61.2966442,231.753462 60.5524386,228.902291 L60.4071121,228.335593 C59.6783448,225.442302 58.816087,222.49776 57.844285,219.543496 L58.4132546,219.423171 C64.6798114,218.040468 69.3630679,215.286336 72.4630243,211.160777 C75.7219335,206.823636 76.1080281,202.761025 73.6213082,198.972943 C68.7380383,197.191388 64.6669394,198.469174 61.4080116,202.806301 C58.4092364,206.79724 57.0489885,211.862773 57.3272678,218.002902 C55.5489749,212.791209 53.4422368,207.571111 51.1391528,202.570784 C57.1468083,200.884427 61.5005039,197.956595 64.2004343,193.788126 C66.9766733,189.501811 67.0675237,185.658649 64.4729855,182.258641 C59.7574923,180.898928 56.0116192,182.362225 53.2353662,186.648531 C50.7147542,190.540176 49.7656529,195.312268 50.3880625,200.964809 C47.364696,194.576761 44.0366632,188.595232 40.6871799,183.509493 L40.3602244,183.620733 C45.29317,181.984953 48.6946773,179.404479 50.5647465,175.879313 C52.4348085,172.354142 52.1696067,169.317254 49.7691411,166.768648 C45.8312111,165.939306 42.9272117,167.287219 41.0571428,170.812386 C39.3112939,174.103407 38.9928605,178.043117 40.1018424,182.631517 C37.541071,178.824676 34.9765083,175.55798 32.534965,173.049809 C31.1928982,167.932419 28.7849533,164.194863 25.3121382,161.83732 C21.7495408,159.418828 18.3704284,159.508175 15.1748012,162.105361 Z" id="路径" fill="#FFFFFF"></path>
            <circle id="椭圆形备份-15" fill="#FFFFFF" opacity="0.200000003" cx="253.166929" cy="62.6207952" r="6.26207952"></circle>
            <circle id="椭圆形备份-16" fill="#FFFFFF" opacity="0.200000003" cx="144.47512" cy="55.0168415" r="4.92020534"></circle>
            <path d="M125.754717,311.54717 C98.6582957,267.61355 75.4110263,243.148096 30.8631062,238.549601 C18.0407529,237.05863 7.75305084,234.076688 0,229.603774 C1.11198288,250.437917 8.68430993,263.283829 22.7169811,268.141509 C43.7659879,275.428031 53.5471698,279.09434 75.4528302,283.962264 C97.3584906,288.830189 90.8679245,294.915094 117.641509,311.54717 C121.618092,311.541 120.076042,311.504526 125.754717,311.54717 Z" id="路径-48" fill="#1D6AB9"></path>
            <path d="M18.299726,198.781591 C22.4640242,198.621584 25.4875339,200.859992 27.370255,205.496816 C29.0449086,209.621205 29.119067,214.267697 27.5927303,219.436292 C29.162919,221.96131 31.2613719,224.704659 33.7818444,227.570829 C31.8976143,223.948447 31.176521,220.385088 31.6190646,216.881135 C32.1831883,212.414539 34.5634446,209.795023 38.7598335,209.022586 C42.0626492,210.689022 43.4319951,213.755539 42.8678714,218.222134 C42.3262816,222.510312 40.071457,226.475461 36.1033978,230.117581 C39.5844743,233.81681 43.6916432,237.667987 48.210439,241.478561 C46.2091199,237.519587 45.4432055,233.630702 45.9121355,229.811573 C46.543392,224.670402 49.33816,221.671747 54.2964398,220.815607 C58.2173071,222.761969 59.8621125,226.305735 59.2308561,231.446907 C58.6518928,236.162184 56.2207775,240.525259 51.9375101,244.53613 C56.6413943,248.295613 61.6972515,251.962871 66.8952751,255.349268 C64.8819018,253.399299 63.3570468,251.202887 62.3201692,248.760157 C60.1517033,243.651571 61.127945,239.37645 65.2488943,235.934793 C69.9116015,235.648009 73.3271881,238.05891 75.495654,243.167495 C77.6641198,248.276081 77.5750302,254.171559 75.2283852,260.853929 L75.3424709,260.522479 C77.8289325,261.947048 80.3220075,263.28714 82.7999524,264.523082 L83.5151752,264.877125 C85.2342064,265.721561 86.9214186,266.626235 88.5768081,267.591118 C85.3525086,264.387613 83.2524978,260.82512 82.2749549,256.90441 C80.7980843,250.981006 82.6567018,246.488721 87.8508072,243.427557 C93.0728201,243.891691 96.4222618,247.085461 97.8991324,253.008865 C99.3292984,258.744948 98.2781617,264.931974 94.7457224,271.569944 C97.5550367,273.565174 100.263093,275.752163 102.869777,278.130609 C102.134824,276.617953 101.565952,275.051772 101.162183,273.43234 C99.5286743,266.880696 101.442784,261.94727 106.904513,258.632063 C112.437576,259.205961 116.020862,262.768732 117.65437,269.320376 C119.287878,275.872021 118.126254,282.922754 114.169498,290.472575 L114.175656,290.460323 C115.487878,292.156801 116.766945,293.915797 118.012854,295.73728 C117.912171,294.446797 117.918601,293.231925 118.052505,292.141363 C118.875393,285.439479 122.430351,281.519685 128.717378,280.381981 C133.67727,282.900634 135.745772,287.510902 134.922884,294.212786 C134.230274,299.853647 131.624616,305.67937 126.988665,310.627705 C126.989722,310.628295 126.990743,310.62964 126.991763,310.630986 L126.980248,310.636685 C126.692453,310.943645 126.39684,311.247224 126.093384,311.54717 L126.093384,311.54717 L123.726415,311.54717 L123.726415,311.54717 C118.45283,311.95283 107.09434,310.735849 105.066037,310.73585 C101.124506,307.480646 101.897342,302.239348 102.650888,301.668336 C105.16338,299.764452 108.426891,299.312978 112.441419,300.313912 C114.952488,300.939992 117.323256,301.990721 119.553725,303.466099 C119.197816,302.291853 118.889757,301.105802 118.640822,299.937473 C116.405281,296.427683 114.054138,293.138094 111.588843,290.068147 C107.583538,295.954225 102.764489,299.811988 97.1313859,301.642294 C90.7096488,303.728843 85.7893955,302.578026 82.370626,298.189842 C82.2878059,291.801241 85.4572644,287.563666 91.8790014,285.477117 C96.7436676,283.896492 102.005929,283.895977 107.665786,285.475572 C103.274292,280.642293 98.5506474,276.443183 93.4967126,272.877989 L93.7276227,272.48823 C89.4217723,279.844545 84.0579786,284.565978 77.6362415,286.652527 C71.2145045,288.739075 66.2942512,287.588258 62.8754816,283.200074 C62.7926616,276.811473 65.9621201,272.573898 72.3838571,270.48735 C78.2551595,268.579648 84.7056293,268.973655 91.7352663,271.66937 C89.0266728,269.864809 86.2258256,268.23622 83.3328721,266.784186 L82.7263251,266.482998 C79.5240928,264.909972 76.2942275,263.162348 73.0821964,261.281066 C69.988659,268.366253 65.6593513,273.206628 60.0949113,275.801369 C54.3944768,278.459525 49.6972179,277.916488 46.0031344,274.172257 C45.1604136,268.187279 47.5892704,263.865712 53.2897049,261.207556 C58.4613901,258.79596 64.4332515,258.448565 71.2052891,260.165372 C65.8105149,256.911977 60.4913961,253.30203 55.4651923,249.531185 C52.1107186,255.922754 47.754287,260.146719 42.3964986,262.203381 C36.8699367,264.32483 32.4925071,263.499033 29.2642099,259.725991 C28.859156,254.03383 31.4199101,250.127025 36.946472,248.005577 C41.9137186,246.098829 47.48784,246.152373 53.6688362,248.166208 C47.2075252,243.201044 41.2888224,238.000815 36.3953193,233.000904 L36.6165537,232.629282 C33.5743616,237.844576 29.830442,241.089606 25.384795,242.364375 C20.9391481,243.639144 17.5612576,242.603296 15.2511236,239.256832 C15.2598402,234.5773 17.487022,231.60015 21.932669,230.325381 C26.0634335,229.140903 30.5818296,229.720038 35.4878573,232.062785 C31.8342774,228.2491 28.8016913,224.568383 26.6077095,221.217501 C21.0833839,218.447634 17.398812,214.79074 15.5539116,210.247062 C13.6711905,205.610238 14.5864619,201.788414 18.299726,198.781591 Z" id="形状结合" fill="#FF9400"></path>
            <g id="编组-10" transform="translate(236.905660, 264.490566)">
                <path d="M20.7882989,6.31331911 L18.8953323,6.31357862 C17.5879685,6.31357862 16.5281408,5.2537509 16.5281408,3.94638716 L16.5281408,2.99951057 C16.5281408,1.69214683 17.5879685,0.632319111 18.8953323,0.632319111 L70.9735445,0.632319111 C72.2809082,0.632319111 73.3407359,1.69214683 73.3407359,2.99951057 L73.3407359,3.94638716 C73.3407359,5.2537509 72.2809082,6.31357862 70.9735445,6.31357862 L69.0792989,6.31331911 L69.0797913,13.415153 L78.3010588,13.415153 C84.5764048,13.415153 89.6635778,18.5023261 89.6635778,24.777672 L89.6635778,50.516986 C89.6635778,55.2234955 85.848198,59.0388753 81.1416886,59.0388753 L8.72718817,59.0388753 C4.02067869,59.0388753 0.205298907,55.2234955 0.205298907,50.516986 L0.205298907,24.777672 C0.205298907,18.5023261 5.29247195,13.415153 11.5678179,13.415153 L20.7890855,13.415153 L20.7882989,6.31331911 Z" id="形状结合" fill="url(#linearGradient-3)" opacity="0.949999988"></path>
                <path d="M0.205298907,38.9724384 L89.6635778,38.9724384 L89.6635778,51.0259533 C89.6635778,55.7324628 85.848198,59.5478426 81.1416886,59.5478426 L8.72718817,59.5478426 C4.02067869,59.5478426 0.205298907,55.7324628 0.205298907,51.0259533 L0.205298907,38.9724384 L0.205298907,38.9724384 Z" id="矩形" fill="#02133C" opacity="0.949999988"></path>
                <rect id="矩形" fill="#FFFFFF" opacity="0.900000036" x="19.3687706" y="23.3573571" width="52.5516505" height="24.1453529" rx="1.42031488"></rect>
            </g>
        </g>
    </g>
</svg>