<?xml version="1.0" encoding="UTF-8"?>
<svg width="120px" height="40px" viewBox="0 0 120 40" version="1.1" xmlns="http://www.w3.org/2000/svg" xmlns:xlink="http://www.w3.org/1999/xlink">
    <!-- Generator: Sketch 60.1 (88133) - https://sketch.com -->
    <title>download</title>
    <desc>Created with Sketch.</desc>
    <g id="页面-1" stroke="none" stroke-width="1" fill="none" fill-rule="evenodd">
        <g id="画板" transform="translate(-427.000000, -819.000000)" fill-rule="nonzero">
            <g id="download" transform="translate(427.000000, 819.000000)">
                <g id="编组">
                    <g id="路径">
                        <path d="M110.13477,-0.00013 L9.53468,-0.00013 C9.16798,-0.00013 8.80568,-0.00013 8.43995,0.002 C8.1338,0.004 7.83009,0.00981 7.521,0.0147 C6.84951368,0.0226018036 6.17960647,0.0816762599 5.5171,0.19141 C4.85552408,0.303532628 4.21467252,0.51491574 3.61622,0.81841 C3.01849941,1.12447171 2.47234502,1.52216753 1.99757,1.99707 C1.5203025,2.47063699 1.12246318,3.01801638 0.81935,3.61816 C0.515400242,4.21710912 0.304640498,4.8589383 0.19435,5.52148 C0.0830109412,6.18318491 0.0230983806,6.85252054 0.01515,7.52348 C0.00587,7.83008 0.00489,8.1377 0,8.44434 L0,31.5586 C0.00489,31.8691 0.00587,32.1699 0.01515,32.4805 C0.023100818,33.1514262 0.0830133796,33.8207284 0.19435,34.4824 C0.304335953,35.145329 0.515108158,35.7875266 0.81935,36.3867 C1.12232555,36.9849029 1.52022081,37.5300662 1.99757,38.001 C2.47054482,38.478014 3.01705224,38.8759804 3.61622,39.1797 C4.21466797,39.4840065 4.85545044,39.6966478 5.5171,39.8105 C6.1797191,39.9193547 6.84955741,39.9784532 7.521,39.9873 C7.83009,39.9941 8.1338,39.998 8.43995,39.998 C8.80567,40 9.168,40 9.53468,40 L110.13477,40 C110.49417,40 110.85937,40 111.21877,39.998 C111.52347,39.998 111.83597,39.9941 112.14067,39.9873 C112.810843,39.9789237 113.47942,39.9198215 114.14067,39.8105 C114.804454,39.6958464 115.447534,39.4832614 116.04887,39.1797 C116.647497,38.8758046 117.1935,38.4778491 117.66607,38.001 C118.142188,37.5282218 118.540932,36.9834573 118.84767,36.3867 C119.149629,35.7870908 119.358395,35.1449445 119.46677,34.4824 C119.578285,33.8206376 119.640323,33.1514843 119.65237,32.4805 C119.65627,32.1699 119.65627,31.8691 119.65627,31.5586 C119.66407,31.1953 119.66407,30.834 119.66407,30.4648 L119.66407,9.53613 C119.66407,9.16992 119.66407,8.80664 119.65627,8.44434 C119.65627,8.1377 119.65627,7.83008 119.65237,7.52344 C119.640326,6.85242244 119.578287,6.18323567 119.46677,5.52144 C119.358093,4.8592816 119.149339,4.21750328 118.84767,3.61812 C118.230394,2.41519608 117.251573,1.4360254 116.04887,0.81832 C115.447532,0.51556738 114.804383,0.30424041 114.14067,0.19132 C113.479535,0.0811027831 112.810888,0.0220077649 112.14067,0.01456 C111.83597,0.00968 111.52347,0.00382 111.21877,0.00187 C110.85937,-0.00013 110.49417,-0.00013 110.13477,-0.00013 L110.13477,-0.00013 Z" fill="#A6A6A6"></path>
                        <path d="M8.44483,39.125 C8.14015,39.125 7.84283,39.1211 7.54054,39.1143 C6.91432177,39.1061407 6.28956717,39.051625 5.6714,38.9512 C5.0949903,38.8519282 4.53660424,38.6672645 4.01466,38.4033 C3.4975017,38.1415227 3.02581177,37.7982729 2.61766,37.3867 C2.20360033,36.9799753 1.85887673,36.508244 1.59715,35.9902 C1.33253926,35.4687891 1.14941288,34.9098996 1.05415,34.333 C0.951274358,33.7131149 0.895614374,33.0863132 0.88765,32.458 C0.88131,32.2471 0.87301,31.5449 0.87301,31.5449 L0.87301,8.44434 C0.87301,8.44434 0.88185,7.75293 0.8877,7.5498 C0.895325827,6.92248205 0.950662148,6.2966531 1.05323,5.67773 C1.14866872,5.09925008 1.33193687,4.53874887 1.59669,4.01563 C1.85745482,3.49794385 2.20026458,3.02586029 2.61183,2.61768 C3.02293283,2.20562142 3.49613161,1.86060412 4.01417,1.59521 C4.53491467,1.3320936 5.09224545,1.14873255 5.66749,1.05127 C6.28768733,0.949836139 6.91461084,0.894996084 7.543,0.88721 L8.44532,0.875 L111.21387,0.875 L112.12697,0.8877 C112.749643,0.895099198 113.370872,0.949450006 113.98537,1.05029 C114.566438,1.14897507 115.129577,1.33361553 115.65627,1.59814 C116.694088,2.13298605 117.538542,2.97916295 118.07127,4.01807 C118.331797,4.53757756 118.512239,5.09350676 118.60647,5.66699 C118.710259,6.29099138 118.768347,6.92173834 118.78027,7.5542 C118.78317,7.8374 118.78317,8.1416 118.78317,8.44434 C118.79107,8.81934 118.79107,9.17627 118.79107,9.53613 L118.79107,30.4648 C118.79107,30.8281 118.79107,31.1826 118.78317,31.54 C118.78317,31.8652 118.78317,32.1631 118.77927,32.4697 C118.767605,33.0908757 118.710486,33.7103642 118.60837,34.3232 C118.51506,34.9042612 118.33293,35.4675131 118.06837,35.9932 C117.804793,36.5056211 117.462049,36.9732662 117.05277,37.3789 C116.644251,37.7926846 116.171729,38.1379427 115.65337,38.4014 C115.128136,38.6673937 114.565826,38.8527403 113.98537,38.9512 C113.36725,39.052161 112.742435,39.1066802 112.11617,39.1143 C111.82327,39.1211 111.51657,39.125 111.21877,39.125 L110.13477,39.127 L8.44483,39.125 Z" fill="#000000"></path>
                    </g>
                    <g id="_Group_" transform="translate(9.714286, 8.714286)" fill="#FFFFFF">
                        <g id="_Group_2">
                            <g id="_Group_3">
                                <path d="M15.0545943,11.5863943 C15.0764513,9.8899234 15.9658372,8.3229004 17.4111543,7.43433429 C16.4952269,6.12622705 15.0161063,5.32659264 13.4199943,5.27665429 C11.7407543,5.10039429 10.1128043,6.28148429 9.25709429,6.28148429 C8.38482429,6.28148429 7.06732429,5.29415429 5.64859429,5.32334429 C3.78191555,5.3836527 2.08385146,6.41923977 1.17567429,8.05121429 C-0.758325714,11.3996343 0.684264286,16.3206843 2.53687429,19.0272943 C3.46377429,20.3526443 4.54705429,21.8330943 5.96450429,21.7805943 C7.35156429,21.7230643 7.86960429,20.8961143 9.54390429,20.8961143 C11.2026643,20.8961143 11.6886943,21.7805943 13.1349043,21.7472143 C14.6232843,21.7230543 15.5610343,20.4159743 16.4554143,19.0780743 C17.1213904,18.133714 17.633858,17.0899902 17.9738343,15.9855643 C16.2060909,15.2378956 15.0566575,13.5057486 15.0545943,11.5863943 L15.0545943,11.5863943 Z" id="_Path_"></path>
                                <path d="M12.3229643,3.49660429 C13.1344909,2.52239619 13.5342992,1.27021674 13.4374843,0.00598428571 C12.1976521,0.136204773 11.0523945,0.728763961 10.2299043,1.66559429 C9.41773301,2.58990331 9.00628892,3.79914696 9.08619429,5.02698429 C10.3426511,5.03992105 11.5356304,4.4758675 12.3229643,3.49660429 L12.3229643,3.49660429 Z" id="_Path_2"></path>
                            </g>
                        </g>
                        <g id="编组" transform="translate(24.285714, 9.000000)">
                            <path d="M8.30227,9.42536429 L3.56887,9.42536429 L2.43215,12.7818143 L0.42727,12.7818143 L4.91067,0.363814286 L6.99367,0.363814286 L11.47707,12.7818143 L9.438,12.7818143 L8.30227,9.42536429 Z M4.0591,7.87653429 L7.8111,7.87653429 L5.96149,2.42926429 L5.90973,2.42926429 L4.0591,7.87653429 Z" id="形状"></path>
                            <path d="M21.15969,8.25544429 C21.15969,11.0689243 19.65383,12.8765343 17.38137,12.8765343 C16.2067553,12.9379789 15.1003324,12.322745 14.53274,11.2925343 L14.48974,11.2925343 L14.48974,15.7769143 L12.63134,15.7769143 L12.63134,3.72809429 L14.4302,3.72809429 L14.4302,5.23395429 L14.46438,5.23395429 C15.0571883,4.2102022 16.1648043,3.59523312 17.34719,3.63336429 C19.645,3.63337429 21.15969,5.44977429 21.15969,8.25544429 Z M19.24953,8.25544429 C19.24953,6.42244429 18.30226,5.21735429 16.85695,5.21735429 C15.43703,5.21735429 14.48195,6.44782429 14.48195,8.25544429 C14.48195,10.0796643 15.43703,11.3013443 16.85695,11.3013443 C18.30227,11.3013443 19.24953,10.1050543 19.24953,8.25544429 Z" id="形状"></path>
                            <path d="M31.12453,8.25544429 C31.12453,11.0689243 29.61867,12.8765343 27.34621,12.8765343 C26.1715953,12.9379789 25.0651724,12.322745 24.49758,11.2925343 L24.45458,11.2925343 L24.45458,15.7769143 L22.59618,15.7769143 L22.59618,3.72809429 L24.395,3.72809429 L24.395,5.23395429 L24.42918,5.23395429 C25.0219926,4.21020282 26.1296128,3.59523736 27.312,3.63337429 C29.60988,3.63337429 31.12453,5.44977429 31.12453,8.25544429 Z M29.21438,8.25544429 C29.21438,6.42244429 28.2671,5.21735429 26.82179,5.21735429 C25.40187,5.21735429 24.44679,6.44782429 24.44679,8.25544429 C24.44679,10.0796643 25.40187,11.3013443 26.82179,11.3013443 C28.26711,11.3013443 29.21438,10.1050543 29.21438,8.25544429 L29.21438,8.25544429 Z" id="形状"></path>
                            <path d="M37.71047,9.32184429 C37.84817,10.5532943 39.04447,11.3618443 40.67922,11.3618443 C42.24563,11.3618443 43.37258,10.5532543 43.37258,9.44289429 C43.37258,8.47902429 42.69289,7.90189429 41.08352,7.50637429 L39.47415,7.11867429 C37.19388,6.56789429 36.13528,5.50148429 36.13528,3.77101429 C36.13528,1.62843429 38.00247,0.156754286 40.65383,0.156754286 C43.27783,0.156754286 45.07668,1.62843429 45.13723,3.77101429 L43.26123,3.77101429 C43.14893,2.53175429 42.12451,1.78371429 40.62744,1.78371429 C39.13037,1.78371429 38.10596,2.54055429 38.10596,3.64211429 C38.10596,4.52004429 38.76026,5.03664429 40.36084,5.43211429 L41.729,5.76805429 C44.27685,6.37059429 45.33545,7.39405429 45.33545,9.21043429 C45.33545,11.5336743 43.48486,12.9887543 40.5415,12.9887543 C37.78759,12.9887543 35.92822,11.5678543 35.8081,9.32175429 L37.71047,9.32184429 Z" id="路径"></path>
                            <path d="M49.34621,1.58551429 L49.34621,3.72809429 L51.06789,3.72809429 L51.06789,5.19977429 L49.34621,5.19977429 L49.34621,10.1909843 C49.34621,10.9663743 49.69094,11.3277043 50.44777,11.3277043 C50.6521614,11.3241402 50.8562221,11.3097869 51.0591,11.2847043 L51.0591,12.7475943 C50.7188283,12.8111738 50.3729708,12.8399688 50.02687,12.8335343 C48.19387,12.8335343 47.47902,12.1450543 47.47902,10.3891943 L47.47902,5.19977429 L46.16262,5.19977429 L46.16262,3.72809429 L47.479,3.72809429 L47.479,1.58551429 L49.34621,1.58551429 Z" id="路径"></path>
                            <path d="M52.065,8.25544429 C52.065,5.40681429 53.74273,3.61677429 56.35895,3.61677429 C58.98395,3.61677429 60.65387,5.40677429 60.65387,8.25544429 C60.65387,11.1118943 58.99274,12.8941143 56.35895,12.8941143 C53.72609,12.8941143 52.065,11.1118843 52.065,8.25544429 Z M58.76031,8.25544429 C58.76031,6.30134429 57.8648,5.14802429 56.35894,5.14802429 C54.85308,5.14802429 53.95855,6.31013429 53.95855,8.25544429 C53.95855,10.2173543 54.85308,11.3618943 56.35894,11.3618943 C57.8648,11.3618943 58.76031,10.2173543 58.76031,8.25544429 L58.76031,8.25544429 Z" id="形状"></path>
                            <path d="M62.18605,3.72809429 L63.95852,3.72809429 L63.95852,5.26909429 L64.00152,5.26909429 C64.248696,4.27708269 65.1576526,3.59434584 66.17925,3.63335429 C66.393414,3.63260652 66.6069872,3.65586503 66.81597,3.70269429 L66.81597,5.44097429 C66.545601,5.3583576 66.2635596,5.32042558 65.98097,5.32867429 C65.4346182,5.30650973 64.9058709,5.52424902 64.5335615,5.92472026 C64.161252,6.3251915 63.9825766,6.86838503 64.04445,7.41167429 L64.04445,12.7817943 L62.18605,12.7817943 L62.18605,3.72809429 Z" id="路径"></path>
                            <path d="M75.3843,10.1226243 C75.1343,11.7661743 73.53371,12.8941043 71.48586,12.8941043 C68.85207,12.8941043 67.21731,11.1294543 67.21731,8.29840429 C67.21731,5.45856429 68.86086,3.61676429 71.40774,3.61676429 C73.91262,3.61676429 75.48782,5.33746429 75.48782,8.08258429 L75.48782,8.71930429 L69.09329,8.71930429 L69.09329,8.83160429 C69.0335874,9.50563591 69.2663316,10.1728337 69.7323199,10.6634842 C70.1983083,11.1541347 70.8526275,11.4209476 71.52884,11.3960543 C72.4306823,11.4805539 73.2809431,10.962692 73.61966,10.1226143 L75.3843,10.1226243 Z M69.1020624,7.42048429 L73.62844,7.42048429 C73.6621655,6.81481178 73.4416965,6.22253737 73.0201501,5.78634583 C72.5986036,5.3501543 72.0142008,5.1095947 71.40774,5.12262429 C70.7964818,5.11897651 70.2090907,5.35964891 69.7761255,5.79114753 C69.3431603,6.22264615 69.1004963,6.8092172 69.1020624,7.42048429 L69.1020624,7.42048429 Z" id="形状"></path>
                        </g>
                    </g>
                </g>
                <g id="_Group_4" transform="translate(35.000000, 8.000000)" fill="#FFFFFF">
                    <g id="编组">
                        <path d="M2.82619,0.731 C3.61513656,0.674384181 4.38789226,0.974547428 4.93176129,1.54887182 C5.47563032,2.12319621 5.73328587,2.91114479 5.63381,3.69584 C5.63381,5.60209 4.60354,6.69784 2.82619,6.69784 L0.67092,6.69784 L0.67092,0.731 L2.82619,0.731 Z M1.59767,5.854 L2.72267,5.854 C3.28649194,5.88770201 3.83548652,5.66555901 4.21721851,5.24925179 C4.5989505,4.83294457 4.77277961,4.26679442 4.69044,3.708 C4.76678901,3.15152453 4.59045658,2.59004622 4.20967108,2.17713398 C3.82888557,1.76422175 3.28349567,1.5430863 2.72267,1.57421 L1.59767,1.57421 L1.59767,5.854 Z" id="形状"></path>
                        <path d="M6.68068,4.44434 C6.60346713,3.63722505 6.99048366,2.85611193 7.67941593,2.42859737 C8.36834819,2.0010828 9.24008181,2.0010828 9.92901407,2.42859737 C10.6179463,2.85611193 11.0049629,3.63722505 10.92775,4.44434 C11.0064319,5.25232226 10.6197687,6.03495038 9.93022554,6.4633853 C9.24068243,6.89182022 8.36774757,6.89182022 7.67820446,6.4633853 C6.98866134,6.03495038 6.60199806,5.25232226 6.68068,4.44434 Z M10.01369,4.44434 C10.01369,3.46827 9.5752,2.89747 8.80568,2.89747 C8.03322,2.89747 7.59868,3.46827 7.59868,4.44435 C7.59868,5.42824 8.03325,5.99464 8.80568,5.99464 C9.57522,5.99464 10.01369,5.42432 10.01369,4.44434 L10.01369,4.44434 Z" id="形状"></path>
                        <polygon id="路径" points="16.57326 6.69775 15.65139 6.69775 14.72073 3.38134 14.65042 3.38134 13.72366 6.69775 12.81057 6.69775 11.56936 2.19482 12.47073 2.19482 13.27737 5.63082 13.34378 5.63082 14.26956 2.19482 15.1221 2.19482 16.04788 5.63082 16.11819 5.63082 16.92092 2.19482 17.80959 2.19482"></polygon>
                        <path d="M18.85353,2.19482 L19.709,2.19482 L19.709,2.91015 L19.77541,2.91015 C20.0063449,2.38347794 20.5459729,2.06130747 21.11916,2.1079 C21.5629768,2.07453177 21.9978859,2.2447899 22.3010908,2.57060207 C22.6042957,2.89641424 22.7428931,3.34242376 22.67775,3.7827 L22.67775,6.6977 L21.78908,6.6977 L21.78908,4.00586 C21.78908,3.28223 21.47463,2.92236 20.8174,2.92236 C20.5163658,2.90833912 20.2242202,3.02648257 20.0175546,3.24581678 C19.810889,3.465151 19.710315,3.76380101 19.7422,4.06347 L19.7422,6.69775 L18.85353,6.69775 L18.85353,2.19482 Z" id="路径"></path>
                        <polygon id="路径" points="24.09377 0.437 24.98244 0.437 24.98244 6.69774 24.09377 6.69774"></polygon>
                        <path d="M26.21779,4.44434 C26.1406364,3.63717225 26.527714,2.85603936 27.2166974,2.4285182 C27.9056808,2.00099704 28.7774592,2.00099704 29.4664426,2.4285182 C30.155426,2.85603936 30.5425036,3.63717225 30.46535,4.44434 C30.543932,5.25235119 30.1571979,6.03495719 29.4676205,6.46337324 C28.7780432,6.89178929 27.9050968,6.89178929 27.2155195,6.46337324 C26.5259421,6.03495719 26.139208,5.25235119 26.21779,4.44434 L26.21779,4.44434 Z M29.5508,4.44434 C29.5508,3.46827 29.11231,2.89747 28.34279,2.89747 C27.57033,2.89747 27.13579,3.46827 27.13579,4.44435 C27.13579,5.42824 27.57036,5.99464 28.34279,5.99464 C29.11232,5.99464 29.5508,5.42432 29.5508,4.44434 L29.5508,4.44434 Z" id="形状"></path>
                        <path d="M31.4009,5.42432 C31.4009,4.61377 32.00442,4.14649 33.0757,4.08008 L34.29543,4.00977 L34.29543,3.6211 C34.29543,3.14551 33.98098,2.87696 33.37356,2.87696 C32.87747,2.87696 32.53372,3.05909 32.43508,3.37745 L31.57473,3.37745 C31.66555,2.60401 32.39309,2.10792 33.41457,2.10792 C34.54348,2.10792 35.1802,2.66992 35.1802,3.6211 L35.1802,6.69776 L34.32473,6.69776 L34.32473,6.06495 L34.25442,6.06495 C33.9638686,6.52707633 33.4471736,6.79716323 32.90188,6.77195 C32.5196161,6.81171181 32.1383711,6.68791066 31.8523958,6.43115244 C31.5664205,6.17439423 31.4024061,5.80864331 31.4009,5.42432 L31.4009,5.42432 Z M34.29543,5.03955 L34.29543,4.66309 L33.19582,4.7334 C32.5757,4.7749 32.29445,4.98584 32.29445,5.38281 C32.29445,5.78808 32.64601,6.02392 33.12945,6.02392 C33.4156361,6.05288986 33.7013264,5.96447505 33.9211204,5.77891559 C34.1409144,5.59335613 34.2759916,5.32654106 34.29543,5.03955 Z" id="形状"></path>
                        <path d="M36.34816,4.44434 C36.34816,3.02149 37.07961,2.12012 38.2173,2.12012 C38.7917768,2.09365013 39.3298275,2.40147287 39.59816,2.91012 L39.66457,2.91012 L39.66457,0.437 L40.55324,0.437 L40.55324,6.69774 L39.70168,6.69774 L39.70168,5.98631 L39.63137,5.98631 C39.3427542,6.49073698 38.7980745,6.79335648 38.21731,6.77195 C37.0718,6.772 36.34816,5.87061 36.34816,4.44434 Z M37.26616,4.44434 C37.26616,5.39942 37.71636,5.97413 38.46929,5.97413 C39.21829,5.97413 39.6812,5.39113 39.6812,4.44825 C39.6812,3.50977 39.21343,2.91846 38.46929,2.91846 C37.72121,2.91846 37.26613,3.49707 37.26613,4.44434 L37.26616,4.44434 Z" id="形状"></path>
                        <path d="M44.23,4.44434 C44.1527871,3.63722505 44.5398037,2.85611193 45.2287359,2.42859737 C45.9176682,2.0010828 46.7894018,2.0010828 47.4783341,2.42859737 C48.1672663,2.85611193 48.5542829,3.63722505 48.47707,4.44434 C48.5557519,5.25232226 48.1690887,6.03495038 47.4795455,6.4633853 C46.7900024,6.89182022 45.9170676,6.89182022 45.2275245,6.4633853 C44.5379813,6.03495038 44.1513181,5.25232226 44.23,4.44434 L44.23,4.44434 Z M47.563,4.44434 C47.563,3.46827 47.12452,2.89747 46.355,2.89747 C45.58254,2.89747 45.148,3.46827 45.148,4.44435 C45.148,5.42824 45.58257,5.99464 46.355,5.99464 C47.12453,5.99464 47.563,5.42432 47.563,4.44434 Z" id="形状"></path>
                        <path d="M49.66945,2.19482 L50.52492,2.19482 L50.52492,2.91015 L50.59133,2.91015 C50.8222649,2.38347794 51.3618929,2.06130747 51.93508,2.1079 C52.3788968,2.07453177 52.8138059,2.2447899 53.1170108,2.57060207 C53.4202157,2.89641424 53.5588131,3.34242376 53.49367,3.7827 L53.49367,6.6977 L52.605,6.6977 L52.605,4.00586 C52.605,3.28223 52.29055,2.92236 51.63332,2.92236 C51.3322858,2.90833912 51.0401402,3.02648257 50.8334746,3.24581678 C50.626809,3.465151 50.526235,3.76380101 50.55812,4.06347 L50.55812,6.69775 L49.66945,6.69775 L49.66945,2.19482 Z" id="路径"></path>
                        <path d="M58.51516,1.07373 L58.51516,2.21533 L59.49075,2.21533 L59.49075,2.96387 L58.51516,2.96387 L58.51516,5.2793 C58.51516,5.75098 58.7095,5.95752 59.15188,5.95752 C59.2651356,5.95715754 59.3782775,5.95030966 59.49075,5.93701 L59.49075,6.67724 C59.3311595,6.70579072 59.1694656,6.72098004 59.00735,6.72265 C58.01907,6.72265 57.62551,6.37499 57.62551,5.50683 L57.62551,2.96383 L56.91067,2.96383 L56.91067,2.21529 L57.62551,2.21529 L57.62551,1.07373 L58.51516,1.07373 Z" id="路径"></path>
                        <path d="M60.70461,0.437 L61.58547,0.437 L61.58547,2.91845 L61.65578,2.91845 C61.8978078,2.38716856 62.4468801,2.06458754 63.02878,2.11181 C63.4700766,2.08779728 63.8990983,2.26180371 64.1989893,2.58643385 C64.4988802,2.91106399 64.6384049,3.35250564 64.57956,3.79052 L64.57956,6.69775 L63.69,6.69775 L63.69,4.00975 C63.69,3.29051 63.355,2.92625 62.72711,2.92625 C62.417939,2.90089367 62.1133391,3.01329096 61.8947423,3.2333935 C61.6761456,3.45349605 61.5658419,3.75886031 61.59332,4.06785 L61.59332,6.69775 L60.70465,6.69775 L60.70461,0.437 Z" id="路径"></path>
                        <path d="M69.76125,5.48193 C69.512057,6.33130948 68.6900989,6.88010304 67.81008,6.78466 C67.2096439,6.8005102 66.6325914,6.5516307 66.2320282,6.10405516 C65.8314651,5.65647963 65.6478864,5.05545594 65.73,4.46045 C65.6500674,3.86379048 65.8329582,3.26180373 66.2312908,2.81044696 C66.6296234,2.35909018 67.204202,2.10277675 67.80617,2.10791 C69.0591,2.10791 69.81496,2.96391 69.81496,4.37791 L69.81496,4.688 L66.63527,4.688 L66.63527,4.7378 C66.607132,5.07194014 66.7212507,5.40244775 66.9495608,5.6480407 C67.1778709,5.89363365 67.4991879,6.03152392 67.83449,6.0278 C68.2692619,6.07999468 68.6924825,5.86433304 68.90578,5.4819 L69.76125,5.48193 Z M66.63525,4.03076 L68.90966,4.03076 C68.9323129,3.72516044 68.8248585,3.42420507 68.6137769,3.20205909 C68.4026954,2.97991311 68.1076175,2.85723623 67.80126,2.86426 C67.490752,2.86035891 67.191828,2.98202124 66.9722963,3.20164888 C66.7527647,3.42127653 66.6312331,3.72025374 66.63527,4.03076 L66.63525,4.03076 Z" id="形状"></path>
                    </g>
                </g>
            </g>
        </g>
    </g>
</svg>