<svg xmlns="http://www.w3.org/2000/svg" width="24" height="24" xmlns:v="https://vecta.io/nano"><path d="M9 4a6 6 0 0 0-6 6l.008.31.023.307.014.11-.022.015A4.5 4.5 0 0 0 5.5 19h13a4.5 4.5 0 0 0 4.5-4.5l-.005-.218c-.1-1.876-1.334-3.47-3.064-4.05l-.125-.04-.038-.125C19.167 8.272 17.47 7 15.5 7l-.264.008a4.5 4.5 0 0 0-.775.113l-.173.045-.054-.103C13.193 5.21 11.213 4 9 4zm0 2a4 4 0 0 1 3.808 2.77l.38 1.176 1.07-.617c.373-.215.798-.33 1.242-.33a2.5 2.5 0 0 1 2.478 2.165l.1.758.758.1A2.5 2.5 0 0 1 18.5 17h-13a2.5 2.5 0 0 1-.956-4.811l.804-.333-.22-.843C5.044 10.686 5 10.346 5 10a4 4 0 0 1 4-4z" fill-rule="evenodd"/></svg>