<svg xmlns="http://www.w3.org/2000/svg" width="48" height="48" fill="none" fill-rule="evenodd" xmlns:v="https://vecta.io/nano"><path d="M13.23 46.285h-9.32c-.764 0-1.04-.08-1.32-.23s-.5-.37-.648-.648-.23-.556-.23-1.32V2.813c0-.382.04-.52.114-.66a.78.78 0 0 1 .324-.324c.14-.075.278-.114.66-.114H14.33c.382 0 .52.04.66.114a.78.78 0 0 1 .324.324c.075.14.114.278.114.66v41.275c0 .764-.08 1.04-.23 1.32s-.37.5-.648.648-.556.23-1.32.23z" stroke="#6ad2a9" stroke-width="3.429" stroke-linejoin="round"/><path d="M1.715 8.57c0 .473.384.857.857.857h5.143c.473 0 .857-.384.857-.857s-.384-.857-.857-.857H2.572c-.473 0-.857.384-.857.857zm.857 7.714c0 .473.384.857.857.857h4.286c.473 0 .857-.384.857-.857s-.384-.857-.857-.857H3.43c-.473 0-.857.384-.857.857zm0 15.43c0 .473.384.857.857.857h4.286c.473 0 .857-.384.857-.857s-.384-.857-.857-.857H3.43c-.473 0-.857.384-.857.857zM1.715 24c0 .473.384.857.857.857h5.143c.473 0 .857-.384.857-.857s-.384-.857-.857-.857H2.572c-.473 0-.857.384-.857.857zm0 15.43c0 .473.384.857.857.857h5.143c.473 0 .857-.384.857-.857s-.384-.857-.857-.857H2.572c-.473 0-.857.384-.857.857z" fill="#6ad2a9"/><g stroke-linejoin="round"><path stroke="#935ed9" stroke-width="3.429" d="M20.572 1.714v44.57h25.714z"/><path stroke="#fa0" stroke-width="2.571" stroke-linecap="round" d="M26.143 26.57v14.57h10.714"/></g></svg>