<?xml version="1.0" encoding="UTF-8"?>
<svg width="48px" height="48px" viewBox="0 0 48 48" version="1.1" xmlns="http://www.w3.org/2000/svg" xmlns:xlink="http://www.w3.org/1999/xlink">
    <!-- Generator: Sketch 60.1 (88133) - https://sketch.com -->
    <title>m1</title>
    <desc>Created with Sketch.</desc>
    <g id="m1" stroke="none" stroke-width="1" fill="none" fill-rule="evenodd">
        <g id="编组-14" transform="translate(1.285714, 1.714286)">
            <path d="M2.62618731,1.15811063e-15 L11.9452413,-1.37922223e-16 C12.7094002,8.01367833e-17 12.9865027,0.0795648096 13.2658677,0.228970889 C13.5452328,0.378376968 13.7644802,0.597624318 13.9138863,0.876989397 C14.0632923,1.15635448 14.1428571,1.43345697 14.1428571,2.19761589 L14.1428571,43.4726206 C14.1428571,43.8547001 14.1030747,43.9932513 14.0283717,44.1329339 C13.9536687,44.2726164 13.844045,44.3822401 13.7043624,44.4569431 C13.5646799,44.5316462 13.4261287,44.5714286 13.0440492,44.5714286 L1.52737937,44.5714286 C1.14529991,44.5714286 1.00674867,44.5316462 0.867066127,44.4569431 C0.727383587,44.3822401 0.617759913,44.2726164 0.543056873,44.1329339 C0.468353833,43.9932513 0.428571429,43.8547001 0.428571429,43.4726206 L0.428571429,2.19761589 C0.428571429,1.43345697 0.508136238,1.15635448 0.657542318,0.876989397 C0.806948397,0.597624318 1.02619575,0.378376968 1.30556083,0.228970889 C1.5849259,0.0795648096 1.86202839,-6.72895627e-16 2.62618731,1.15811063e-15 Z" id="矩形" stroke="#6AD2A9" stroke-width="3.42857143" stroke-linejoin="round" transform="translate(7.285714, 22.285714) scale(-1, -1) rotate(-360.000000) translate(-7.285714, -22.285714) "></path>
            <path d="M-11.5714286,18.8571429 C-11.0980416,18.8571429 -10.7142857,19.2408988 -10.7142857,19.7142857 L-10.7142857,24.8571429 C-10.7142857,25.3305298 -11.0980416,25.7142857 -11.5714286,25.7142857 C-12.0448155,25.7142857 -12.4285714,25.3305298 -12.4285714,24.8571429 L-12.4285714,19.7142857 C-12.4285714,19.2408988 -12.0448155,18.8571429 -11.5714286,18.8571429 Z M-3.85714286,19.7142857 C-3.38375593,19.7142857 -3,20.0980416 -3,20.5714286 L-3,24.8571429 C-3,25.3305298 -3.38375593,25.7142857 -3.85714286,25.7142857 C-4.33052979,25.7142857 -4.71428571,25.3305298 -4.71428571,24.8571429 L-4.71428571,20.5714286 C-4.71428571,20.0980416 -4.33052979,19.7142857 -3.85714286,19.7142857 Z M11.5714286,19.7142857 C12.0448155,19.7142857 12.4285714,20.0980416 12.4285714,20.5714286 L12.4285714,24.8571429 C12.4285714,25.3305298 12.0448155,25.7142857 11.5714286,25.7142857 C11.0980416,25.7142857 10.7142857,25.3305298 10.7142857,24.8571429 L10.7142857,20.5714286 C10.7142857,20.0980416 11.0980416,19.7142857 11.5714286,19.7142857 Z M3.85714286,18.8571429 C4.33052979,18.8571429 4.71428571,19.2408988 4.71428571,19.7142857 L4.71428571,24.8571429 C4.71428571,25.3305298 4.33052979,25.7142857 3.85714286,25.7142857 C3.38375593,25.7142857 3,25.3305298 3,24.8571429 L3,19.7142857 C3,19.2408988 3.38375593,18.8571429 3.85714286,18.8571429 Z M19.2857143,18.8571429 C19.7591012,18.8571429 20.1428571,19.2408988 20.1428571,19.7142857 L20.1428571,24.8571429 C20.1428571,25.3305298 19.7591012,25.7142857 19.2857143,25.7142857 C18.8123274,25.7142857 18.4285714,25.3305298 18.4285714,24.8571429 L18.4285714,19.7142857 C18.4285714,19.2408988 18.8123274,18.8571429 19.2857143,18.8571429 Z" id="形状结合" fill="#6AD2A9" transform="translate(3.857143, 22.285714) scale(1, -1) rotate(-90.000000) translate(-3.857143, -22.285714) "></path>
            <polygon id="路径-6" stroke="#935ED9" stroke-width="3.42857143" stroke-linejoin="round" points="19.2857143 -5.64429456e-15 19.2857143 44.5714286 45 44.5714286"></polygon>
            <polyline id="路径-8" stroke="#FFAA00" stroke-width="2.57142857" stroke-linecap="round" stroke-linejoin="round" points="24.8571429 24.8571429 24.8571429 39.4285714 35.5714286 39.4285714"></polyline>
        </g>
    </g>
</svg>