<svg xmlns="http://www.w3.org/2000/svg" width="48" height="48" fill="none" fill-rule="evenodd" xmlns:v="https://vecta.io/nano"><g stroke-width="3.429"><path d="M32.44 13.714h10.55c1.146 0 1.562.12 1.98.343s.748.553.972.972.343.835.343 1.98v25.98c0 1.146-.12 1.562-.343 1.98s-.553.748-.972.972-.835.343-1.98.343H32.44c-1.146 0-1.562-.12-1.98-.343s-.748-.553-.972-.972-.343-.835-.343-1.98V17.01c0-1.146.12-1.562.343-1.98s.553-.748.972-.972.835-.343 1.98-.343z" stroke="#7cd7b3"/><path d="M5.01 1.714h25.98c1.146 0 1.562.12 1.98.343s.748.553.972.972.343.835.343 1.98v33.693c0 1.146-.12 1.562-.343 1.98s-.553.748-.972.972-.835.343-1.98.343H5.01c-1.146 0-1.562-.12-1.98-.343s-.748-.553-.972-.972-.343-.835-.343-1.98V5.01c0-1.146.12-1.562.343-1.98s.553-.748.972-.972.835-.343 1.98-.343z" stroke="#935ed9"/></g><rect fill="#fa0" x="9.429" y="36.857" width="17.143" height="2.571" rx=".857"/></svg>