<svg xmlns="http://www.w3.org/2000/svg" width="48" height="48" fill="none" stroke-width="3.429" xmlns:v="https://vecta.io/nano"><path d="M36.725 33.43h6.264c1.146 0 1.562.12 1.98.343s.748.553.972.972.343.835.343 1.98v6.264c0 1.146-.12 1.562-.343 1.98s-.553.748-.972.972-.835.343-1.98.343h-6.264c-1.146 0-1.562-.12-1.98-.343s-.748-.553-.972-.972-.343-.835-.343-1.98v-6.264c0-1.146.12-1.562.343-1.98s.553-.748.972-.972.835-.343 1.98-.343z" stroke="#fea903"/><path d="M5.01 13.714h19.98c1.146 0 1.562.12 1.98.343s.748.553.972.972.343.835.343 1.98v19.98c0 1.146-.12 1.562-.343 1.98s-.553.748-.972.972-.835.343-1.98.343H5.01c-1.146 0-1.562-.12-1.98-.343s-.748-.553-.972-.972-.343-.835-.343-1.98V17.01c0-1.146.12-1.562.343-1.98s.553-.748.972-.972.835-.343 1.98-.343z" stroke="#6ad2a9"/><path d="M17.868 1.714h19.98c1.146 0 1.562.12 1.98.343s.748.553.972.972.343.835.343 1.98v19.98c0 1.146-.12 1.562-.343 1.98s-.553.748-.972.972-.835.343-1.98.343h-19.98c-1.146 0-1.562-.12-1.98-.343s-.748-.553-.972-.972-.343-.835-.343-1.98V5.01c0-1.146.12-1.562.343-1.98s.553-.748.972-.972.835-.343 1.98-.343z" stroke="#935ed9"/></svg>