<svg xmlns="http://www.w3.org/2000/svg" xmlns:xlink="http://www.w3.org/1999/xlink" width="48" height="48" xmlns:v="https://vecta.io/nano"><g fill="none" fill-rule="evenodd"><g stroke-width="3.429"><path d="M23.785 1.714c-2 3.714-2 6.43 0 8.143s1.857 5-.43 9.857" stroke="#6ad2a9" stroke-linecap="round" stroke-linejoin="round"/><path d="M5 20.57h37.98c1.146 0 1.562.12 1.98.343s.748.553.972.972.343.835.343 1.98v19.12c0 1.146-.12 1.562-.343 1.98s-.553.748-.972.972-.835.343-1.98.343H5c-1.146 0-1.562-.12-1.98-.343s-.748-.553-.972-.972-.343-.835-.343-1.98v-19.12c0-1.146.12-1.562.343-1.98s.553-.748.972-.972.835-.343 1.98-.343z" stroke="#935ed9"/></g><path d="M8.813 37.714h30.374c.382 0 .52.04.66.114a.78.78 0 0 1 .324.324c.075.14.114.278.114.66v2.945c0 .382-.04.52-.114.66a.78.78 0 0 1-.324.324c-.14.075-.278.114-.66.114H8.813c-.382 0-.52-.04-.66-.114a.78.78 0 0 1-.324-.324c-.075-.14-.114-.278-.114-.66v-2.945c0-.382.04-.52.114-.66a.78.78 0 0 1 .324-.324c.14-.075.278-.114.66-.114z" fill="#fa0"/><g fill="#6ad2a9"><path d="M8.813 24h2.945c.382 0 .52.04.66.114a.78.78 0 0 1 .324.324c.075.14.114.278.114.66v2.945c0 .382-.04.52-.114.66a.78.78 0 0 1-.324.324c-.14.075-.278.114-.66.114H8.813c-.382 0-.52-.04-.66-.114a.78.78 0 0 1-.324-.324c-.075-.14-.114-.278-.114-.66V25.1c0-.382.04-.52.114-.66a.78.78 0 0 1 .324-.324c.14-.075.278-.114.66-.114zm6.857 0h2.945c.382 0 .52.04.66.114a.78.78 0 0 1 .324.324c.075.14.114.278.114.66v2.945c0 .382-.04.52-.114.66a.78.78 0 0 1-.324.324c-.14.075-.278.114-.66.114H15.67c-.382 0-.52-.04-.66-.114a.78.78 0 0 1-.324-.324c-.075-.14-.114-.278-.114-.66V25.1c0-.382.04-.52.114-.66a.78.78 0 0 1 .324-.324c.14-.075.278-.114.66-.114zm-6.857 6.857h2.945c.382 0 .52.04.66.114a.78.78 0 0 1 .324.324c.075.14.114.278.114.66V34.9c0 .382-.04.52-.114.66a.78.78 0 0 1-.324.324c-.14.075-.278.114-.66.114H8.813c-.382 0-.52-.04-.66-.114a.78.78 0 0 1-.324-.324c-.075-.14-.114-.278-.114-.66v-2.945c0-.382.04-.52.114-.66a.78.78 0 0 1 .324-.324c.14-.075.278-.114.66-.114zm6.857 0h2.945c.382 0 .52.04.66.114a.78.78 0 0 1 .324.324c.075.14.114.278.114.66V34.9c0 .382-.04.52-.114.66a.78.78 0 0 1-.324.324c-.14.075-.278.114-.66.114H15.67c-.382 0-.52-.04-.66-.114a.78.78 0 0 1-.324-.324c-.075-.14-.114-.278-.114-.66v-2.945c0-.382.04-.52.114-.66a.78.78 0 0 1 .324-.324c.14-.075.278-.114.66-.114z"/><use xlink:href="#B"/><use xlink:href="#B" x="6.857"/><path d="M22.527 30.857h2.945c.382 0 .52.04.66.114a.78.78 0 0 1 .324.324c.075.14.114.278.114.66V34.9c0 .382-.04.52-.114.66a.78.78 0 0 1-.324.324c-.14.075-.278.114-.66.114h-2.945c-.382 0-.52-.04-.66-.114a.78.78 0 0 1-.324-.324c-.075-.14-.114-.278-.114-.66v-2.945c0-.382.04-.52.114-.66a.78.78 0 0 1 .324-.324c.14-.075.278-.114.66-.114zm6.857 0h9.802c.382 0 .52.04.66.114a.78.78 0 0 1 .324.324c.075.14.114.278.114.66V34.9c0 .382-.04.52-.114.66a.78.78 0 0 1-.324.324c-.14.075-.278.114-.66.114h-9.802c-.382 0-.52-.04-.66-.114a.78.78 0 0 1-.324-.324c-.075-.14-.114-.278-.114-.66v-2.945c0-.382.04-.52.114-.66a.78.78 0 0 1 .324-.324c.14-.075.278-.114.66-.114zM36.24 24h2.945c.382 0 .52.04.66.114a.78.78 0 0 1 .324.324c.075.14.114.278.114.66v2.945c0 .382-.04.52-.114.66a.78.78 0 0 1-.324.324c-.14.075-.278.114-.66.114H36.24c-.382 0-.52-.04-.66-.114a.78.78 0 0 1-.324-.324c-.075-.14-.114-.278-.114-.66V25.1c0-.382.04-.52.114-.66a.78.78 0 0 1 .324-.324c.14-.075.278-.114.66-.114z"/></g></g><defs ><path id="B" d="M22.527 24h2.945c.382 0 .52.04.66.114a.78.78 0 0 1 .324.324c.075.14.114.278.114.66v2.945c0 .382-.04.52-.114.66a.78.78 0 0 1-.324.324c-.14.075-.278.114-.66.114h-2.945c-.382 0-.52-.04-.66-.114a.78.78 0 0 1-.324-.324c-.075-.14-.114-.278-.114-.66V25.1c0-.382.04-.52.114-.66a.78.78 0 0 1 .324-.324c.14-.075.278-.114.66-.114z"/></defs></svg>