<svg xmlns="http://www.w3.org/2000/svg" width="48" height="48" fill="none" fill-rule="evenodd" xmlns:v="https://vecta.io/nano"><path d="M1.714 0H20.57c.947 0 1.714.768 1.714 1.714S21.518 3.43 20.57 3.43H1.714C.768 3.43 0 2.66 0 1.714S.768 0 1.714 0zM27.43 44.57h18.857c.947 0 1.714.768 1.714 1.714A1.72 1.72 0 0 1 46.286 48H27.43c-.947 0-1.714-.768-1.714-1.714s.768-1.714 1.714-1.714z" fill="#fa0"/><g stroke-width="3.429"><path d="M4.77 8.57h12.748c.764 0 1.04.08 1.32.23s.5.37.648.648.23.556.23 1.32v33.32c0 .764-.08 1.04-.23 1.32s-.37.5-.648.648-.556.23-1.32.23H4.77c-.764 0-1.04-.08-1.32-.23s-.5-.37-.648-.648-.23-.556-.23-1.32V10.77c0-.764.08-1.04.23-1.32s.37-.5.648-.648.556-.23 1.32-.23z" stroke="#935ed9"/><path d="M30.483 1.714H43.23c.764 0 1.04.08 1.32.23s.5.37.648.648.23.556.23 1.32v33.32c0 .764-.08 1.04-.23 1.32s-.37.5-.648.648-.556.23-1.32.23H30.483c-.764 0-1.04-.08-1.32-.23s-.5-.37-.648-.648-.23-.556-.23-1.32V3.912c0-.764.08-1.04.23-1.32s.37-.5.648-.648.556-.23 1.32-.23z" stroke="#6ad2a9"/></g></svg>