<?xml version="1.0" encoding="UTF-8"?>
<svg width="48px" height="48px" viewBox="0 0 48 48" version="1.1" xmlns="http://www.w3.org/2000/svg" xmlns:xlink="http://www.w3.org/1999/xlink">
    <!-- Generator: Sketch 60.1 (88133) - https://sketch.com -->
    <title>m6</title>
    <desc>Created with Sketch.</desc>
    <g id="m6" stroke="none" stroke-width="1" fill="none" fill-rule="evenodd">
        <g id="编组-18" transform="translate(1.714286, 1.714286)">
            <circle id="椭圆形备份-8" stroke="#FEA800" stroke-width="3.42857143" cx="36" cy="36" r="8.57142857"></circle>
            <circle id="椭圆形" stroke="#935ED9" stroke-width="3.42857143" cx="22.2857143" cy="22.2857143" r="22.2857143"></circle>
            <path d="M36.8571429,12.6642859 L36.8367917,14.6799298 L26.3559457,14.9825984 L26.3579808,23.5689412 L30.5320032,37.8093907 L28.62917,38.5714286 L22.7232642,24.642234 L21.8501995,24.642234 L15.9442937,38.5714286 L14.0414605,37.8093907 L18.2154828,23.5689412 L18.2154828,14.9825984 L7.73463687,14.6799298 L7.71428571,12.6642859 L36.8571429,12.6642859 Z M22.2866854,5.14285733 C23.8962009,5.14347272 25.2005362,6.64061946 25.2,8.48682837 C25.1994635,10.3330373 23.8942586,11.8291866 22.2847432,11.8285716 C20.6752277,11.8279562 19.3708924,10.3308094 19.3714286,8.48460054 C19.3719651,6.63839164 20.6771699,5.14224232 22.2866854,5.14285733 Z" id="形状结合" fill="#6AD2A9" fill-rule="nonzero"></path>
        </g>
    </g>
</svg>