<?xml version="1.0" encoding="UTF-8"?>
<svg width="20px" height="20px" viewBox="0 0 20 20" version="1.1" xmlns="http://www.w3.org/2000/svg" xmlns:xlink="http://www.w3.org/1999/xlink">
    <!-- Generator: Sketch 60.1 (88133) - https://sketch.com -->
    <title>mail</title>
    <desc>Created with Sketch.</desc>
    <g id="页面-1" stroke="none" stroke-width="1" fill="none" fill-rule="evenodd">
        <g id="桌面端-HD" transform="translate(-269.000000, -4645.000000)" fill="#FFFFFF" fill-rule="nonzero">
            <g id="编组-10" transform="translate(0.000000, 4234.000000)">
                <g id="编组-8" transform="translate(229.000000, 411.000000)">
                    <path d="M50,-1.0658141e-14 C44.4772138,-1.0658141e-14 40,4.47716295 40,10.0000572 C40,15.5228142 44.4771909,20 50,20 C55.5228091,20 60,15.5228142 60,10.0000572 C60,4.47714007 55.5227862,-1.0658141e-14 50,-1.0658141e-14 Z M55.6000174,6.24645557 L50.0171803,11.7133481 L44.3813153,6.24645557 L55.6000174,6.24645557 L55.6000174,6.24645557 Z M44.000032,7.04203217 L47.1192257,10.0244664 L44.000032,12.9504186 L44.000032,7.04203217 L44.000032,7.04203217 Z M44.3924105,13.7535215 L47.7101039,10.5125598 L50.0043923,12.7064405 L52.2648234,10.5125598 L55.6164199,13.7535215 L44.3924105,13.7535215 L44.3924105,13.7535215 Z M55.999968,12.9504186 L52.7956965,10.0163224 L55.999968,6.99822363 L55.999968,12.9504186 Z" id="mail"></path>
                </g>
            </g>
        </g>
    </g>
</svg>