<svg xmlns="http://www.w3.org/2000/svg" width="44" height="44"  fill="none" fill-rule="evenodd" xmlns:v="https://vecta.io/nano"><rect fill="#ff9500" width="44" height="44" rx="9.167"/><g fill-rule="nonzero"><path d="M28.923 10.083H15.084c-.762 0-1.472.341-1.911.905l-6.339 8.293c-.639.835-.536 1.969.252 2.692l13.259 12.23c.91.84 2.401.84 3.311 0l13.259-12.224c.788-.723.891-1.857.252-2.692l-6.339-8.293c-.432-.57-1.143-.911-1.904-.911h0z" fill="#fff"/><path d="M21.507 28.416c-.31 0-.607-.112-.826-.313l-6.93-6.373 1.645-1.499 6.111 5.618 6.182-5.683 1.645 1.499-7.001 6.438c-.219.201-.516.313-.826.313h0z" fill="#ff9500" opacity=".5"/></g></svg>