<svg xmlns="http://www.w3.org/2000/svg" width="20" height="20" xmlns:v="https://vecta.io/nano"><path d="M10 0a10 10 0 0 0 0 20 10 10 0 1 0 0-20zm4.97 7.45a7.31 7.31 0 0 1 .007.332c0 3.39-2.58 7.297-7.297 7.297-1.448 0-2.796-.424-3.93-1.152.2.024.405.036.612.036 1.2 0 2.308-.4 3.185-1.098-1.122-.02-2.07-.762-2.396-1.78a2.56 2.56 0 0 0 1.158-.044c-1.173-.236-2.057-1.272-2.057-2.514v-.032c.346.192.74.307 1.16.32-.688-.46-1.14-1.245-1.14-2.134a2.55 2.55 0 0 1 .348-1.289A7.28 7.28 0 0 0 9.906 8.07c-.044-.187-.066-.384-.066-.584 0-1.416 1.148-2.564 2.564-2.564a2.56 2.56 0 0 1 1.872.81c.584-.115 1.133-.328 1.63-.623a2.57 2.57 0 0 1-1.127 1.419c.52-.062 1.013-.2 1.473-.404a5.21 5.21 0 0 1-1.279 1.327l-.001-.001z" fill="#fff"/></svg>